G75*
%MOIN*%
%OFA0B0*%
%FSLAX25Y25*%
%IPPOS*%
%LPD*%
%AMOC8*
5,1,8,0,0,1.08239X$1,22.5*
%
%ADD10C,0.00800*%
%ADD11C,0.00000*%
%ADD12R,0.06500X0.06500*%
%ADD13C,0.06500*%
%ADD14C,0.06000*%
%ADD15R,0.06000X0.06000*%
%ADD16C,0.09055*%
%ADD17C,0.03181*%
%ADD18C,0.01000*%
%ADD19C,0.01600*%
D10*
X0004617Y0004914D02*
X0004041Y0006304D01*
X0003967Y0007057D01*
X0003967Y0029654D01*
X0011467Y0037154D01*
X0011467Y0088646D01*
X0010412Y0089700D01*
X0003967Y0096146D01*
X0003967Y0201904D01*
X0011662Y0209600D01*
X0189921Y0209600D01*
X0197867Y0201654D01*
X0197867Y0096146D01*
X0191421Y0089700D01*
X0190367Y0088646D01*
X0190367Y0037154D01*
X0191421Y0036100D01*
X0197867Y0029654D01*
X0197867Y0022146D01*
X0196501Y0020779D01*
X0197366Y0022869D01*
X0197366Y0025931D01*
X0196194Y0028761D01*
X0194028Y0030927D01*
X0191198Y0032099D01*
X0188135Y0032099D01*
X0185305Y0030927D01*
X0183140Y0028761D01*
X0181967Y0025931D01*
X0181967Y0022869D01*
X0183140Y0020039D01*
X0185305Y0017873D01*
X0188135Y0016701D01*
X0191198Y0016701D01*
X0193287Y0017566D01*
X0187867Y0012146D01*
X0187867Y0003900D01*
X0187843Y0003719D01*
X0187662Y0003405D01*
X0187348Y0003224D01*
X0187167Y0003200D01*
X0007823Y0003200D01*
X0007071Y0003274D01*
X0005681Y0003850D01*
X0004617Y0004914D01*
X0004589Y0004981D02*
X0187867Y0004981D01*
X0187867Y0005779D02*
X0004258Y0005779D01*
X0004014Y0006578D02*
X0187867Y0006578D01*
X0187867Y0007376D02*
X0180951Y0007376D01*
X0181659Y0007670D02*
X0182897Y0008908D01*
X0183567Y0010525D01*
X0183567Y0012275D01*
X0182897Y0013892D01*
X0181659Y0015130D01*
X0180042Y0015800D01*
X0178291Y0015800D01*
X0176674Y0015130D01*
X0175437Y0013892D01*
X0174767Y0012275D01*
X0174767Y0010525D01*
X0175437Y0008908D01*
X0176674Y0007670D01*
X0178291Y0007000D01*
X0180042Y0007000D01*
X0181659Y0007670D01*
X0182164Y0008175D02*
X0187867Y0008175D01*
X0187867Y0008973D02*
X0182924Y0008973D01*
X0183255Y0009772D02*
X0187867Y0009772D01*
X0187867Y0010570D02*
X0183567Y0010570D01*
X0183567Y0011369D02*
X0187867Y0011369D01*
X0187889Y0012167D02*
X0183567Y0012167D01*
X0183281Y0012966D02*
X0188687Y0012966D01*
X0189486Y0013764D02*
X0182950Y0013764D01*
X0182226Y0014563D02*
X0190284Y0014563D01*
X0191083Y0015361D02*
X0181101Y0015361D01*
X0177233Y0015361D02*
X0171101Y0015361D01*
X0171659Y0015130D02*
X0170042Y0015800D01*
X0168291Y0015800D01*
X0166674Y0015130D01*
X0165437Y0013892D01*
X0164767Y0012275D01*
X0164767Y0010525D01*
X0165437Y0008908D01*
X0166674Y0007670D01*
X0168291Y0007000D01*
X0170042Y0007000D01*
X0171659Y0007670D01*
X0172897Y0008908D01*
X0173567Y0010525D01*
X0173567Y0012275D01*
X0172897Y0013892D01*
X0171659Y0015130D01*
X0172226Y0014563D02*
X0176107Y0014563D01*
X0175384Y0013764D02*
X0172950Y0013764D01*
X0173281Y0012966D02*
X0175053Y0012966D01*
X0174767Y0012167D02*
X0173567Y0012167D01*
X0173567Y0011369D02*
X0174767Y0011369D01*
X0174767Y0010570D02*
X0173567Y0010570D01*
X0173255Y0009772D02*
X0175078Y0009772D01*
X0175409Y0008973D02*
X0172924Y0008973D01*
X0172164Y0008175D02*
X0176169Y0008175D01*
X0177383Y0007376D02*
X0170951Y0007376D01*
X0167383Y0007376D02*
X0160951Y0007376D01*
X0161659Y0007670D02*
X0160042Y0007000D01*
X0158291Y0007000D01*
X0156674Y0007670D01*
X0155437Y0008908D01*
X0154767Y0010525D01*
X0154767Y0012275D01*
X0155437Y0013892D01*
X0156674Y0015130D01*
X0158291Y0015800D01*
X0160042Y0015800D01*
X0161659Y0015130D01*
X0162897Y0013892D01*
X0163567Y0012275D01*
X0163567Y0010525D01*
X0162897Y0008908D01*
X0161659Y0007670D01*
X0162164Y0008175D02*
X0166169Y0008175D01*
X0165409Y0008973D02*
X0162924Y0008973D01*
X0163255Y0009772D02*
X0165078Y0009772D01*
X0164767Y0010570D02*
X0163567Y0010570D01*
X0163567Y0011369D02*
X0164767Y0011369D01*
X0164767Y0012167D02*
X0163567Y0012167D01*
X0163281Y0012966D02*
X0165053Y0012966D01*
X0165384Y0013764D02*
X0162950Y0013764D01*
X0162226Y0014563D02*
X0166107Y0014563D01*
X0167233Y0015361D02*
X0161101Y0015361D01*
X0157233Y0015361D02*
X0151101Y0015361D01*
X0151659Y0015130D02*
X0150042Y0015800D01*
X0148291Y0015800D01*
X0146674Y0015130D01*
X0145437Y0013892D01*
X0144767Y0012275D01*
X0144767Y0010525D01*
X0145437Y0008908D01*
X0146674Y0007670D01*
X0148291Y0007000D01*
X0150042Y0007000D01*
X0151659Y0007670D01*
X0152897Y0008908D01*
X0153567Y0010525D01*
X0153567Y0012275D01*
X0152897Y0013892D01*
X0151659Y0015130D01*
X0152226Y0014563D02*
X0156107Y0014563D01*
X0155384Y0013764D02*
X0152950Y0013764D01*
X0153281Y0012966D02*
X0155053Y0012966D01*
X0154767Y0012167D02*
X0153567Y0012167D01*
X0153567Y0011369D02*
X0154767Y0011369D01*
X0154767Y0010570D02*
X0153567Y0010570D01*
X0153255Y0009772D02*
X0155078Y0009772D01*
X0155409Y0008973D02*
X0152924Y0008973D01*
X0152164Y0008175D02*
X0156169Y0008175D01*
X0157383Y0007376D02*
X0150951Y0007376D01*
X0147383Y0007376D02*
X0140951Y0007376D01*
X0141659Y0007670D02*
X0142897Y0008908D01*
X0143567Y0010525D01*
X0143567Y0012275D01*
X0142897Y0013892D01*
X0141659Y0015130D01*
X0140042Y0015800D01*
X0138291Y0015800D01*
X0136674Y0015130D01*
X0135437Y0013892D01*
X0134767Y0012275D01*
X0134767Y0010525D01*
X0135437Y0008908D01*
X0136674Y0007670D01*
X0138291Y0007000D01*
X0140042Y0007000D01*
X0141659Y0007670D01*
X0142164Y0008175D02*
X0146169Y0008175D01*
X0145409Y0008973D02*
X0142924Y0008973D01*
X0143255Y0009772D02*
X0145078Y0009772D01*
X0144767Y0010570D02*
X0143567Y0010570D01*
X0143567Y0011369D02*
X0144767Y0011369D01*
X0144767Y0012167D02*
X0143567Y0012167D01*
X0143281Y0012966D02*
X0145053Y0012966D01*
X0145384Y0013764D02*
X0142950Y0013764D01*
X0142226Y0014563D02*
X0146107Y0014563D01*
X0147233Y0015361D02*
X0141101Y0015361D01*
X0137233Y0015361D02*
X0133185Y0015361D01*
X0133567Y0014980D02*
X0132747Y0015800D01*
X0125587Y0015800D01*
X0124767Y0014980D01*
X0124767Y0007820D01*
X0125587Y0007000D01*
X0132747Y0007000D01*
X0133567Y0007820D01*
X0133567Y0014980D01*
X0133567Y0014563D02*
X0136107Y0014563D01*
X0135384Y0013764D02*
X0133567Y0013764D01*
X0133567Y0012966D02*
X0135053Y0012966D01*
X0134767Y0012167D02*
X0133567Y0012167D01*
X0133567Y0011369D02*
X0134767Y0011369D01*
X0134767Y0010570D02*
X0133567Y0010570D01*
X0133567Y0009772D02*
X0135078Y0009772D01*
X0135409Y0008973D02*
X0133567Y0008973D01*
X0133567Y0008175D02*
X0136169Y0008175D01*
X0137383Y0007376D02*
X0133123Y0007376D01*
X0125210Y0007376D02*
X0113123Y0007376D01*
X0112747Y0007000D02*
X0113567Y0007820D01*
X0113567Y0014980D01*
X0112747Y0015800D01*
X0105587Y0015800D01*
X0104767Y0014980D01*
X0104767Y0007820D01*
X0105587Y0007000D01*
X0112747Y0007000D01*
X0113567Y0008175D02*
X0124767Y0008175D01*
X0124767Y0008973D02*
X0113567Y0008973D01*
X0113567Y0009772D02*
X0124767Y0009772D01*
X0124767Y0010570D02*
X0113567Y0010570D01*
X0113567Y0011369D02*
X0124767Y0011369D01*
X0124767Y0012167D02*
X0113567Y0012167D01*
X0113567Y0012966D02*
X0124767Y0012966D01*
X0124767Y0013764D02*
X0113567Y0013764D01*
X0113567Y0014563D02*
X0124767Y0014563D01*
X0125148Y0015361D02*
X0113185Y0015361D01*
X0105148Y0015361D02*
X0101084Y0015361D01*
X0100856Y0015478D02*
X0100197Y0015692D01*
X0099567Y0015791D01*
X0099567Y0011800D01*
X0103558Y0011800D01*
X0103458Y0012430D01*
X0103244Y0013089D01*
X0102930Y0013706D01*
X0102523Y0014266D01*
X0102033Y0014756D01*
X0101473Y0015163D01*
X0100856Y0015478D01*
X0099567Y0015361D02*
X0098767Y0015361D01*
X0098767Y0015791D02*
X0098136Y0015692D01*
X0097478Y0015478D01*
X0096861Y0015163D01*
X0096300Y0014756D01*
X0095811Y0014266D01*
X0095403Y0013706D01*
X0095089Y0013089D01*
X0094875Y0012430D01*
X0094775Y0011800D01*
X0098767Y0011800D01*
X0098767Y0015791D01*
X0098767Y0014563D02*
X0099567Y0014563D01*
X0099567Y0013764D02*
X0098767Y0013764D01*
X0098767Y0012966D02*
X0099567Y0012966D01*
X0099567Y0012167D02*
X0098767Y0012167D01*
X0098767Y0011800D02*
X0099567Y0011800D01*
X0099567Y0011000D01*
X0103558Y0011000D01*
X0103458Y0010370D01*
X0103244Y0009711D01*
X0102930Y0009094D01*
X0102523Y0008534D01*
X0102033Y0008044D01*
X0101473Y0007637D01*
X0100856Y0007322D01*
X0100197Y0007108D01*
X0099567Y0007009D01*
X0099567Y0011000D01*
X0098767Y0011000D01*
X0098767Y0007009D01*
X0098136Y0007108D01*
X0097478Y0007322D01*
X0096861Y0007637D01*
X0096300Y0008044D01*
X0095811Y0008534D01*
X0095403Y0009094D01*
X0095089Y0009711D01*
X0094875Y0010370D01*
X0094775Y0011000D01*
X0098767Y0011000D01*
X0098767Y0011800D01*
X0098767Y0011369D02*
X0089567Y0011369D01*
X0089567Y0011000D02*
X0089567Y0011800D01*
X0093558Y0011800D01*
X0093458Y0012430D01*
X0093244Y0013089D01*
X0092930Y0013706D01*
X0092523Y0014266D01*
X0092033Y0014756D01*
X0091473Y0015163D01*
X0090856Y0015478D01*
X0090197Y0015692D01*
X0089567Y0015791D01*
X0089567Y0011800D01*
X0088767Y0011800D01*
X0088767Y0015791D01*
X0088136Y0015692D01*
X0087478Y0015478D01*
X0086861Y0015163D01*
X0086300Y0014756D01*
X0085811Y0014266D01*
X0085403Y0013706D01*
X0085089Y0013089D01*
X0084875Y0012430D01*
X0084775Y0011800D01*
X0088767Y0011800D01*
X0088767Y0011000D01*
X0089567Y0011000D01*
X0093558Y0011000D01*
X0093458Y0010370D01*
X0093244Y0009711D01*
X0092930Y0009094D01*
X0092523Y0008534D01*
X0092033Y0008044D01*
X0091473Y0007637D01*
X0090856Y0007322D01*
X0090197Y0007108D01*
X0089567Y0007009D01*
X0089567Y0011000D01*
X0089567Y0010570D02*
X0088767Y0010570D01*
X0088767Y0011000D02*
X0088767Y0007009D01*
X0088136Y0007108D01*
X0087478Y0007322D01*
X0086861Y0007637D01*
X0086300Y0008044D01*
X0085811Y0008534D01*
X0085403Y0009094D01*
X0085089Y0009711D01*
X0084875Y0010370D01*
X0084775Y0011000D01*
X0088767Y0011000D01*
X0088767Y0011369D02*
X0083567Y0011369D01*
X0083567Y0012167D02*
X0084833Y0012167D01*
X0085049Y0012966D02*
X0083281Y0012966D01*
X0083567Y0012275D02*
X0082897Y0013892D01*
X0081659Y0015130D01*
X0080042Y0015800D01*
X0078291Y0015800D01*
X0076674Y0015130D01*
X0075437Y0013892D01*
X0074767Y0012275D01*
X0074767Y0010525D01*
X0075437Y0008908D01*
X0076674Y0007670D01*
X0078291Y0007000D01*
X0080042Y0007000D01*
X0081659Y0007670D01*
X0082897Y0008908D01*
X0083567Y0010525D01*
X0083567Y0012275D01*
X0082950Y0013764D02*
X0085446Y0013764D01*
X0086107Y0014563D02*
X0082226Y0014563D01*
X0081101Y0015361D02*
X0087250Y0015361D01*
X0088767Y0015361D02*
X0089567Y0015361D01*
X0089567Y0014563D02*
X0088767Y0014563D01*
X0088767Y0013764D02*
X0089567Y0013764D01*
X0089567Y0012966D02*
X0088767Y0012966D01*
X0088767Y0012167D02*
X0089567Y0012167D01*
X0089567Y0009772D02*
X0088767Y0009772D01*
X0088767Y0008973D02*
X0089567Y0008973D01*
X0089567Y0008175D02*
X0088767Y0008175D01*
X0088767Y0007376D02*
X0089567Y0007376D01*
X0090962Y0007376D02*
X0097372Y0007376D01*
X0098767Y0007376D02*
X0099567Y0007376D01*
X0099567Y0008175D02*
X0098767Y0008175D01*
X0098767Y0008973D02*
X0099567Y0008973D01*
X0099567Y0009772D02*
X0098767Y0009772D01*
X0098767Y0010570D02*
X0099567Y0010570D01*
X0099567Y0011369D02*
X0104767Y0011369D01*
X0104767Y0012167D02*
X0103500Y0012167D01*
X0103284Y0012966D02*
X0104767Y0012966D01*
X0104767Y0013764D02*
X0102887Y0013764D01*
X0102226Y0014563D02*
X0104767Y0014563D01*
X0104767Y0010570D02*
X0103490Y0010570D01*
X0103264Y0009772D02*
X0104767Y0009772D01*
X0104767Y0008973D02*
X0102842Y0008973D01*
X0102164Y0008175D02*
X0104767Y0008175D01*
X0105210Y0007376D02*
X0100962Y0007376D01*
X0096169Y0008175D02*
X0092164Y0008175D01*
X0092842Y0008973D02*
X0095491Y0008973D01*
X0095069Y0009772D02*
X0093264Y0009772D01*
X0093490Y0010570D02*
X0094843Y0010570D01*
X0094833Y0012167D02*
X0093500Y0012167D01*
X0093284Y0012966D02*
X0095049Y0012966D01*
X0095446Y0013764D02*
X0092887Y0013764D01*
X0092226Y0014563D02*
X0096107Y0014563D01*
X0097250Y0015361D02*
X0091084Y0015361D01*
X0084843Y0010570D02*
X0083567Y0010570D01*
X0083255Y0009772D02*
X0085069Y0009772D01*
X0085491Y0008973D02*
X0082924Y0008973D01*
X0082164Y0008175D02*
X0086169Y0008175D01*
X0087372Y0007376D02*
X0080951Y0007376D01*
X0077383Y0007376D02*
X0070951Y0007376D01*
X0071659Y0007670D02*
X0070042Y0007000D01*
X0068291Y0007000D01*
X0066674Y0007670D01*
X0065437Y0008908D01*
X0064767Y0010525D01*
X0064767Y0012275D01*
X0065437Y0013892D01*
X0066674Y0015130D01*
X0068291Y0015800D01*
X0070042Y0015800D01*
X0071659Y0015130D01*
X0072897Y0013892D01*
X0073567Y0012275D01*
X0073567Y0010525D01*
X0072897Y0008908D01*
X0071659Y0007670D01*
X0072164Y0008175D02*
X0076169Y0008175D01*
X0075409Y0008973D02*
X0072924Y0008973D01*
X0073255Y0009772D02*
X0075078Y0009772D01*
X0074767Y0010570D02*
X0073567Y0010570D01*
X0073567Y0011369D02*
X0074767Y0011369D01*
X0074767Y0012167D02*
X0073567Y0012167D01*
X0073281Y0012966D02*
X0075053Y0012966D01*
X0075384Y0013764D02*
X0072950Y0013764D01*
X0072226Y0014563D02*
X0076107Y0014563D01*
X0077233Y0015361D02*
X0071101Y0015361D01*
X0067233Y0015361D02*
X0061101Y0015361D01*
X0061659Y0015130D02*
X0060042Y0015800D01*
X0058291Y0015800D01*
X0056674Y0015130D01*
X0055437Y0013892D01*
X0054767Y0012275D01*
X0054767Y0010525D01*
X0055437Y0008908D01*
X0056674Y0007670D01*
X0058291Y0007000D01*
X0060042Y0007000D01*
X0061659Y0007670D01*
X0062897Y0008908D01*
X0063567Y0010525D01*
X0063567Y0012275D01*
X0062897Y0013892D01*
X0061659Y0015130D01*
X0062226Y0014563D02*
X0066107Y0014563D01*
X0065384Y0013764D02*
X0062950Y0013764D01*
X0063281Y0012966D02*
X0065053Y0012966D01*
X0064767Y0012167D02*
X0063567Y0012167D01*
X0063567Y0011369D02*
X0064767Y0011369D01*
X0064767Y0010570D02*
X0063567Y0010570D01*
X0063255Y0009772D02*
X0065078Y0009772D01*
X0065409Y0008973D02*
X0062924Y0008973D01*
X0062164Y0008175D02*
X0066169Y0008175D01*
X0067383Y0007376D02*
X0060951Y0007376D01*
X0057383Y0007376D02*
X0003967Y0007376D01*
X0003967Y0008175D02*
X0023369Y0008175D01*
X0023791Y0008000D02*
X0025542Y0008000D01*
X0027159Y0008670D01*
X0028397Y0009908D01*
X0029067Y0011525D01*
X0029067Y0013275D01*
X0028397Y0014892D01*
X0027159Y0016130D01*
X0025542Y0016800D01*
X0023791Y0016800D01*
X0022174Y0016130D01*
X0020937Y0014892D01*
X0020267Y0013275D01*
X0020267Y0011525D01*
X0020937Y0009908D01*
X0022174Y0008670D01*
X0023791Y0008000D01*
X0021871Y0008973D02*
X0003967Y0008973D01*
X0003967Y0009772D02*
X0021072Y0009772D01*
X0020662Y0010570D02*
X0003967Y0010570D01*
X0003967Y0011369D02*
X0020331Y0011369D01*
X0020267Y0012167D02*
X0003967Y0012167D01*
X0003967Y0012966D02*
X0020267Y0012966D01*
X0020469Y0013764D02*
X0003967Y0013764D01*
X0003967Y0014563D02*
X0020800Y0014563D01*
X0021406Y0015361D02*
X0003967Y0015361D01*
X0003967Y0016160D02*
X0022246Y0016160D01*
X0027087Y0016160D02*
X0042356Y0016160D01*
X0042361Y0016163D02*
X0041800Y0015756D01*
X0041311Y0015266D01*
X0040903Y0014706D01*
X0040589Y0014089D01*
X0040375Y0013430D01*
X0040267Y0012750D01*
X0044317Y0012750D01*
X0044317Y0016799D01*
X0043636Y0016692D01*
X0042978Y0016478D01*
X0042361Y0016163D01*
X0041406Y0015361D02*
X0027928Y0015361D01*
X0028533Y0014563D02*
X0040831Y0014563D01*
X0040484Y0013764D02*
X0028864Y0013764D01*
X0029067Y0012966D02*
X0040301Y0012966D01*
X0040267Y0012050D02*
X0040375Y0011370D01*
X0040589Y0010711D01*
X0040903Y0010094D01*
X0041311Y0009534D01*
X0041800Y0009044D01*
X0042361Y0008637D01*
X0042978Y0008322D01*
X0043636Y0008108D01*
X0044317Y0008001D01*
X0044317Y0012050D01*
X0045017Y0012050D01*
X0045017Y0012750D01*
X0049066Y0012750D01*
X0048958Y0013430D01*
X0048744Y0014089D01*
X0048430Y0014706D01*
X0048023Y0015266D01*
X0047533Y0015756D01*
X0046973Y0016163D01*
X0046356Y0016478D01*
X0045697Y0016692D01*
X0045017Y0016799D01*
X0045017Y0012750D01*
X0044317Y0012750D01*
X0044317Y0012050D01*
X0040267Y0012050D01*
X0040375Y0011369D02*
X0029002Y0011369D01*
X0029067Y0012167D02*
X0044317Y0012167D01*
X0045017Y0012167D02*
X0054767Y0012167D01*
X0054767Y0011369D02*
X0048958Y0011369D01*
X0048958Y0011370D02*
X0049066Y0012050D01*
X0045017Y0012050D01*
X0045017Y0008001D01*
X0045697Y0008108D01*
X0046356Y0008322D01*
X0046973Y0008637D01*
X0047533Y0009044D01*
X0048023Y0009534D01*
X0048430Y0010094D01*
X0048744Y0010711D01*
X0048958Y0011370D01*
X0048673Y0010570D02*
X0054767Y0010570D01*
X0055078Y0009772D02*
X0048196Y0009772D01*
X0047436Y0008973D02*
X0055409Y0008973D01*
X0056169Y0008175D02*
X0045902Y0008175D01*
X0045017Y0008175D02*
X0044317Y0008175D01*
X0044317Y0008973D02*
X0045017Y0008973D01*
X0045017Y0009772D02*
X0044317Y0009772D01*
X0044317Y0010570D02*
X0045017Y0010570D01*
X0045017Y0011369D02*
X0044317Y0011369D01*
X0044317Y0012966D02*
X0045017Y0012966D01*
X0045017Y0013764D02*
X0044317Y0013764D01*
X0044317Y0014563D02*
X0045017Y0014563D01*
X0045017Y0015361D02*
X0044317Y0015361D01*
X0044317Y0016160D02*
X0045017Y0016160D01*
X0046977Y0016160D02*
X0191881Y0016160D01*
X0191820Y0016959D02*
X0192680Y0016959D01*
X0187513Y0016959D02*
X0003967Y0016959D01*
X0003967Y0017757D02*
X0010499Y0017757D01*
X0010635Y0017701D02*
X0013698Y0017701D01*
X0016528Y0018873D01*
X0018694Y0021039D01*
X0019866Y0023869D01*
X0019866Y0026931D01*
X0018694Y0029761D01*
X0016528Y0031927D01*
X0013698Y0033099D01*
X0010635Y0033099D01*
X0007805Y0031927D01*
X0005640Y0029761D01*
X0004467Y0026931D01*
X0004467Y0023869D01*
X0005640Y0021039D01*
X0007805Y0018873D01*
X0010635Y0017701D01*
X0008572Y0018556D02*
X0003967Y0018556D01*
X0003967Y0019354D02*
X0007324Y0019354D01*
X0006526Y0020153D02*
X0003967Y0020153D01*
X0003967Y0020951D02*
X0005727Y0020951D01*
X0005345Y0021750D02*
X0003967Y0021750D01*
X0003967Y0022548D02*
X0005014Y0022548D01*
X0004684Y0023347D02*
X0003967Y0023347D01*
X0003967Y0024145D02*
X0004467Y0024145D01*
X0004467Y0024944D02*
X0003967Y0024944D01*
X0003967Y0025742D02*
X0004467Y0025742D01*
X0004467Y0026541D02*
X0003967Y0026541D01*
X0003967Y0027339D02*
X0004636Y0027339D01*
X0004967Y0028138D02*
X0003967Y0028138D01*
X0003967Y0028936D02*
X0005298Y0028936D01*
X0005629Y0029735D02*
X0004047Y0029735D01*
X0004845Y0030533D02*
X0006412Y0030533D01*
X0005644Y0031332D02*
X0007210Y0031332D01*
X0006442Y0032130D02*
X0008296Y0032130D01*
X0007241Y0032929D02*
X0010224Y0032929D01*
X0008838Y0034526D02*
X0192995Y0034526D01*
X0192197Y0035324D02*
X0009637Y0035324D01*
X0010435Y0036123D02*
X0191398Y0036123D01*
X0190600Y0036921D02*
X0011234Y0036921D01*
X0011467Y0037720D02*
X0190367Y0037720D01*
X0190367Y0038518D02*
X0011467Y0038518D01*
X0011467Y0039317D02*
X0190367Y0039317D01*
X0190367Y0040115D02*
X0011467Y0040115D01*
X0011467Y0040914D02*
X0168988Y0040914D01*
X0168796Y0040993D02*
X0169953Y0040514D01*
X0171207Y0040514D01*
X0172364Y0040993D01*
X0173250Y0041879D01*
X0173730Y0043037D01*
X0173730Y0044290D01*
X0173250Y0045448D01*
X0172364Y0046334D01*
X0171207Y0046814D01*
X0169953Y0046814D01*
X0168796Y0046334D01*
X0167910Y0045448D01*
X0167430Y0044290D01*
X0167430Y0043037D01*
X0167910Y0041879D01*
X0168796Y0040993D01*
X0168077Y0041712D02*
X0011467Y0041712D01*
X0011467Y0042511D02*
X0167648Y0042511D01*
X0167430Y0043309D02*
X0011467Y0043309D01*
X0011467Y0044108D02*
X0167430Y0044108D01*
X0167685Y0044906D02*
X0011467Y0044906D01*
X0011467Y0045705D02*
X0168166Y0045705D01*
X0169204Y0046503D02*
X0011467Y0046503D01*
X0011467Y0047302D02*
X0190367Y0047302D01*
X0190367Y0048100D02*
X0011467Y0048100D01*
X0011467Y0048899D02*
X0190367Y0048899D01*
X0190367Y0049697D02*
X0011467Y0049697D01*
X0011467Y0050496D02*
X0190367Y0050496D01*
X0190367Y0051295D02*
X0011467Y0051295D01*
X0011467Y0052093D02*
X0190367Y0052093D01*
X0190367Y0052892D02*
X0011467Y0052892D01*
X0011467Y0053690D02*
X0190367Y0053690D01*
X0190367Y0054489D02*
X0011467Y0054489D01*
X0011467Y0055287D02*
X0190367Y0055287D01*
X0190367Y0056086D02*
X0011467Y0056086D01*
X0011467Y0056884D02*
X0190367Y0056884D01*
X0190367Y0057683D02*
X0011467Y0057683D01*
X0011467Y0058481D02*
X0062974Y0058481D01*
X0062467Y0058989D02*
X0063755Y0057700D01*
X0065578Y0057700D01*
X0084255Y0057700D01*
X0086078Y0057700D01*
X0087367Y0058989D01*
X0087367Y0073811D01*
X0086078Y0075100D01*
X0063755Y0075100D01*
X0062467Y0073811D01*
X0062467Y0058989D01*
X0062467Y0059280D02*
X0011467Y0059280D01*
X0011467Y0060078D02*
X0062467Y0060078D01*
X0062467Y0060877D02*
X0011467Y0060877D01*
X0011467Y0061675D02*
X0062467Y0061675D01*
X0062467Y0062474D02*
X0011467Y0062474D01*
X0011467Y0063272D02*
X0062467Y0063272D01*
X0062467Y0064071D02*
X0011467Y0064071D01*
X0011467Y0064869D02*
X0062467Y0064869D01*
X0062467Y0065668D02*
X0011467Y0065668D01*
X0011467Y0066466D02*
X0062467Y0066466D01*
X0062467Y0067265D02*
X0011467Y0067265D01*
X0011467Y0068063D02*
X0062467Y0068063D01*
X0062467Y0068862D02*
X0011467Y0068862D01*
X0011467Y0069660D02*
X0062467Y0069660D01*
X0062467Y0070459D02*
X0011467Y0070459D01*
X0011467Y0071257D02*
X0062467Y0071257D01*
X0062467Y0072056D02*
X0011467Y0072056D01*
X0011467Y0072854D02*
X0062467Y0072854D01*
X0062467Y0073653D02*
X0011467Y0073653D01*
X0011467Y0074451D02*
X0063107Y0074451D01*
X0086176Y0077805D02*
X0086631Y0076706D01*
X0087473Y0075865D01*
X0088572Y0075409D01*
X0089762Y0075409D01*
X0090861Y0075865D01*
X0091702Y0076706D01*
X0092157Y0077805D01*
X0092157Y0078995D01*
X0091702Y0080094D01*
X0091067Y0080729D01*
X0091067Y0186187D01*
X0089954Y0187300D01*
X0077513Y0199741D01*
X0077817Y0200475D01*
X0077817Y0202325D01*
X0077109Y0204034D01*
X0075801Y0205342D01*
X0074092Y0206050D01*
X0072242Y0206050D01*
X0070533Y0205342D01*
X0069225Y0204034D01*
X0068517Y0202325D01*
X0068517Y0200475D01*
X0069225Y0198766D01*
X0070533Y0197458D01*
X0072242Y0196750D01*
X0074092Y0196750D01*
X0074826Y0197054D01*
X0087267Y0184613D01*
X0087267Y0080729D01*
X0086631Y0080094D01*
X0086176Y0078995D01*
X0086176Y0077805D01*
X0086242Y0077645D02*
X0011467Y0077645D01*
X0011467Y0076847D02*
X0086573Y0076847D01*
X0087289Y0076048D02*
X0011467Y0076048D01*
X0011467Y0075250D02*
X0167430Y0075250D01*
X0167430Y0075786D02*
X0167430Y0074533D01*
X0167910Y0073376D01*
X0168796Y0072489D01*
X0169953Y0072010D01*
X0171207Y0072010D01*
X0172364Y0072489D01*
X0173250Y0073376D01*
X0173730Y0074533D01*
X0173730Y0075786D01*
X0173250Y0076944D01*
X0172364Y0077830D01*
X0171207Y0078310D01*
X0169953Y0078310D01*
X0168796Y0077830D01*
X0167910Y0076944D01*
X0167430Y0075786D01*
X0167539Y0076048D02*
X0091044Y0076048D01*
X0091760Y0076847D02*
X0167869Y0076847D01*
X0168611Y0077645D02*
X0092091Y0077645D01*
X0092157Y0078444D02*
X0190367Y0078444D01*
X0190367Y0079242D02*
X0092055Y0079242D01*
X0091724Y0080041D02*
X0190367Y0080041D01*
X0190367Y0080839D02*
X0091067Y0080839D01*
X0091067Y0081638D02*
X0190367Y0081638D01*
X0190367Y0082436D02*
X0091067Y0082436D01*
X0091067Y0083235D02*
X0190367Y0083235D01*
X0190367Y0084033D02*
X0091067Y0084033D01*
X0091067Y0084832D02*
X0190367Y0084832D01*
X0190367Y0085630D02*
X0091067Y0085630D01*
X0091067Y0086429D02*
X0190367Y0086429D01*
X0190367Y0087228D02*
X0091067Y0087228D01*
X0091067Y0088026D02*
X0190367Y0088026D01*
X0190546Y0088825D02*
X0091067Y0088825D01*
X0091067Y0089623D02*
X0191344Y0089623D01*
X0192143Y0090422D02*
X0091067Y0090422D01*
X0091067Y0091220D02*
X0192941Y0091220D01*
X0193740Y0092019D02*
X0091067Y0092019D01*
X0091067Y0092817D02*
X0194538Y0092817D01*
X0195337Y0093616D02*
X0091067Y0093616D01*
X0091067Y0094414D02*
X0196135Y0094414D01*
X0196934Y0095213D02*
X0091067Y0095213D01*
X0091067Y0096011D02*
X0197732Y0096011D01*
X0197867Y0096810D02*
X0190236Y0096810D01*
X0190092Y0096750D02*
X0191801Y0097458D01*
X0193109Y0098766D01*
X0193817Y0100475D01*
X0193817Y0102325D01*
X0193109Y0104034D01*
X0191801Y0105342D01*
X0190092Y0106050D01*
X0188242Y0106050D01*
X0186533Y0105342D01*
X0185225Y0104034D01*
X0184517Y0102325D01*
X0184517Y0100475D01*
X0185225Y0098766D01*
X0186533Y0097458D01*
X0188242Y0096750D01*
X0190092Y0096750D01*
X0188098Y0096810D02*
X0180236Y0096810D01*
X0180092Y0096750D02*
X0181801Y0097458D01*
X0183109Y0098766D01*
X0183817Y0100475D01*
X0183817Y0102325D01*
X0183109Y0104034D01*
X0181801Y0105342D01*
X0180092Y0106050D01*
X0178242Y0106050D01*
X0176533Y0105342D01*
X0175225Y0104034D01*
X0174517Y0102325D01*
X0174517Y0100475D01*
X0175225Y0098766D01*
X0176533Y0097458D01*
X0178242Y0096750D01*
X0180092Y0096750D01*
X0178098Y0096810D02*
X0091067Y0096810D01*
X0091067Y0097608D02*
X0176382Y0097608D01*
X0175584Y0098407D02*
X0091067Y0098407D01*
X0091067Y0099205D02*
X0175043Y0099205D01*
X0174712Y0100004D02*
X0091067Y0100004D01*
X0091067Y0100802D02*
X0133909Y0100802D01*
X0133533Y0100958D02*
X0135242Y0100250D01*
X0137092Y0100250D01*
X0138801Y0100958D01*
X0140109Y0102266D01*
X0140817Y0103975D01*
X0140817Y0105825D01*
X0140109Y0107534D01*
X0138801Y0108842D01*
X0137092Y0109550D01*
X0135242Y0109550D01*
X0133533Y0108842D01*
X0132225Y0107534D01*
X0131517Y0105825D01*
X0131517Y0103975D01*
X0132225Y0102266D01*
X0133533Y0100958D01*
X0132890Y0101601D02*
X0091067Y0101601D01*
X0091067Y0102399D02*
X0132169Y0102399D01*
X0131839Y0103198D02*
X0091067Y0103198D01*
X0091067Y0103996D02*
X0131517Y0103996D01*
X0131517Y0104795D02*
X0091067Y0104795D01*
X0091067Y0105593D02*
X0131517Y0105593D01*
X0131751Y0106392D02*
X0091067Y0106392D01*
X0091067Y0107190D02*
X0132082Y0107190D01*
X0132679Y0107989D02*
X0091067Y0107989D01*
X0091067Y0108787D02*
X0133478Y0108787D01*
X0132337Y0110250D02*
X0139997Y0110250D01*
X0140817Y0111070D01*
X0140817Y0118730D01*
X0139997Y0119550D01*
X0132337Y0119550D01*
X0131517Y0118730D01*
X0131517Y0111070D01*
X0132337Y0110250D01*
X0132202Y0110384D02*
X0091067Y0110384D01*
X0091067Y0109586D02*
X0166467Y0109586D01*
X0166467Y0110384D02*
X0140131Y0110384D01*
X0140817Y0111183D02*
X0166467Y0111183D01*
X0166467Y0111981D02*
X0140817Y0111981D01*
X0140817Y0112780D02*
X0166467Y0112780D01*
X0166467Y0113578D02*
X0140817Y0113578D01*
X0140817Y0114377D02*
X0166467Y0114377D01*
X0166467Y0115175D02*
X0140817Y0115175D01*
X0140817Y0115974D02*
X0166467Y0115974D01*
X0166467Y0116772D02*
X0140817Y0116772D01*
X0140817Y0117571D02*
X0166467Y0117571D01*
X0166467Y0118369D02*
X0140817Y0118369D01*
X0140379Y0119168D02*
X0166823Y0119168D01*
X0166467Y0118811D02*
X0166467Y0106929D01*
X0166131Y0106594D01*
X0165676Y0105495D01*
X0165676Y0104305D01*
X0166131Y0103206D01*
X0166973Y0102365D01*
X0168072Y0101909D01*
X0169262Y0101909D01*
X0170361Y0102365D01*
X0171202Y0103206D01*
X0171657Y0104305D01*
X0171657Y0105495D01*
X0171202Y0106594D01*
X0170867Y0106929D01*
X0170867Y0116989D01*
X0172578Y0118700D01*
X0174517Y0118700D01*
X0174517Y0117570D01*
X0175337Y0116750D01*
X0182997Y0116750D01*
X0183817Y0117570D01*
X0183817Y0125230D01*
X0182997Y0126050D01*
X0175337Y0126050D01*
X0174517Y0125230D01*
X0174517Y0123100D01*
X0170755Y0123100D01*
X0169467Y0121811D01*
X0166467Y0118811D01*
X0167622Y0119966D02*
X0091067Y0119966D01*
X0091067Y0119168D02*
X0131955Y0119168D01*
X0131517Y0118369D02*
X0091067Y0118369D01*
X0091067Y0117571D02*
X0131517Y0117571D01*
X0131517Y0116772D02*
X0091067Y0116772D01*
X0091067Y0115974D02*
X0131517Y0115974D01*
X0131517Y0115175D02*
X0091067Y0115175D01*
X0091067Y0114377D02*
X0131517Y0114377D01*
X0131517Y0113578D02*
X0091067Y0113578D01*
X0091067Y0112780D02*
X0131517Y0112780D01*
X0131517Y0111981D02*
X0091067Y0111981D01*
X0091067Y0111183D02*
X0131517Y0111183D01*
X0138855Y0108787D02*
X0166467Y0108787D01*
X0166467Y0107989D02*
X0139654Y0107989D01*
X0140251Y0107190D02*
X0166467Y0107190D01*
X0166048Y0106392D02*
X0140582Y0106392D01*
X0140817Y0105593D02*
X0165717Y0105593D01*
X0165676Y0104795D02*
X0140817Y0104795D01*
X0140817Y0103996D02*
X0165804Y0103996D01*
X0166140Y0103198D02*
X0140495Y0103198D01*
X0140164Y0102399D02*
X0166938Y0102399D01*
X0170395Y0102399D02*
X0174547Y0102399D01*
X0174517Y0101601D02*
X0139443Y0101601D01*
X0138425Y0100802D02*
X0174517Y0100802D01*
X0174878Y0103198D02*
X0171194Y0103198D01*
X0171529Y0103996D02*
X0175209Y0103996D01*
X0175985Y0104795D02*
X0171657Y0104795D01*
X0171616Y0105593D02*
X0177139Y0105593D01*
X0177179Y0107190D02*
X0170867Y0107190D01*
X0170867Y0107989D02*
X0176002Y0107989D01*
X0176533Y0107458D02*
X0178242Y0106750D01*
X0180092Y0106750D01*
X0181801Y0107458D01*
X0183109Y0108766D01*
X0183817Y0110475D01*
X0183817Y0112325D01*
X0183109Y0114034D01*
X0181801Y0115342D01*
X0180092Y0116050D01*
X0178242Y0116050D01*
X0176533Y0115342D01*
X0175225Y0114034D01*
X0174517Y0112325D01*
X0174517Y0110475D01*
X0175225Y0108766D01*
X0176533Y0107458D01*
X0175216Y0108787D02*
X0170867Y0108787D01*
X0170867Y0109586D02*
X0174885Y0109586D01*
X0174554Y0110384D02*
X0170867Y0110384D01*
X0170867Y0111183D02*
X0174517Y0111183D01*
X0174517Y0111981D02*
X0170867Y0111981D01*
X0170867Y0112780D02*
X0174705Y0112780D01*
X0175036Y0113578D02*
X0170867Y0113578D01*
X0170867Y0114377D02*
X0175567Y0114377D01*
X0176366Y0115175D02*
X0170867Y0115175D01*
X0170867Y0115974D02*
X0178058Y0115974D01*
X0180275Y0115974D02*
X0188058Y0115974D01*
X0188242Y0116050D02*
X0186533Y0115342D01*
X0185225Y0114034D01*
X0184517Y0112325D01*
X0184517Y0110475D01*
X0185225Y0108766D01*
X0186533Y0107458D01*
X0188242Y0106750D01*
X0190092Y0106750D01*
X0191801Y0107458D01*
X0193109Y0108766D01*
X0193817Y0110475D01*
X0193817Y0112325D01*
X0193109Y0114034D01*
X0191801Y0115342D01*
X0190092Y0116050D01*
X0188242Y0116050D01*
X0188242Y0116750D02*
X0190092Y0116750D01*
X0191801Y0117458D01*
X0193109Y0118766D01*
X0193817Y0120475D01*
X0193817Y0122325D01*
X0193109Y0124034D01*
X0191801Y0125342D01*
X0190092Y0126050D01*
X0188242Y0126050D01*
X0186533Y0125342D01*
X0185225Y0124034D01*
X0184517Y0122325D01*
X0184517Y0120475D01*
X0185225Y0118766D01*
X0186533Y0117458D01*
X0188242Y0116750D01*
X0188188Y0116772D02*
X0183019Y0116772D01*
X0183817Y0117571D02*
X0186420Y0117571D01*
X0185621Y0118369D02*
X0183817Y0118369D01*
X0183817Y0119168D02*
X0185058Y0119168D01*
X0184727Y0119966D02*
X0183817Y0119966D01*
X0183817Y0120765D02*
X0184517Y0120765D01*
X0184517Y0121563D02*
X0183817Y0121563D01*
X0183817Y0122362D02*
X0184532Y0122362D01*
X0184863Y0123161D02*
X0183817Y0123161D01*
X0183817Y0123959D02*
X0185194Y0123959D01*
X0185948Y0124758D02*
X0183817Y0124758D01*
X0183490Y0125556D02*
X0187049Y0125556D01*
X0191284Y0125556D02*
X0197867Y0125556D01*
X0197867Y0124758D02*
X0192385Y0124758D01*
X0193140Y0123959D02*
X0197867Y0123959D01*
X0197867Y0123161D02*
X0193471Y0123161D01*
X0193801Y0122362D02*
X0197867Y0122362D01*
X0197867Y0121563D02*
X0193817Y0121563D01*
X0193817Y0120765D02*
X0197867Y0120765D01*
X0197867Y0119966D02*
X0193606Y0119966D01*
X0193275Y0119168D02*
X0197867Y0119168D01*
X0197867Y0118369D02*
X0192712Y0118369D01*
X0191914Y0117571D02*
X0197867Y0117571D01*
X0197867Y0116772D02*
X0190146Y0116772D01*
X0190275Y0115974D02*
X0197867Y0115974D01*
X0197867Y0115175D02*
X0191967Y0115175D01*
X0192766Y0114377D02*
X0197867Y0114377D01*
X0197867Y0113578D02*
X0193297Y0113578D01*
X0193628Y0112780D02*
X0197867Y0112780D01*
X0197867Y0111981D02*
X0193817Y0111981D01*
X0193817Y0111183D02*
X0197867Y0111183D01*
X0197867Y0110384D02*
X0193779Y0110384D01*
X0193448Y0109586D02*
X0197867Y0109586D01*
X0197867Y0108787D02*
X0193118Y0108787D01*
X0192332Y0107989D02*
X0197867Y0107989D01*
X0197867Y0107190D02*
X0191155Y0107190D01*
X0191194Y0105593D02*
X0197867Y0105593D01*
X0197867Y0104795D02*
X0192348Y0104795D01*
X0193124Y0103996D02*
X0197867Y0103996D01*
X0197867Y0103198D02*
X0193455Y0103198D01*
X0193786Y0102399D02*
X0197867Y0102399D01*
X0197867Y0101601D02*
X0193817Y0101601D01*
X0193817Y0100802D02*
X0197867Y0100802D01*
X0197867Y0100004D02*
X0193621Y0100004D01*
X0193291Y0099205D02*
X0197867Y0099205D01*
X0197867Y0098407D02*
X0192749Y0098407D01*
X0191951Y0097608D02*
X0197867Y0097608D01*
X0199667Y0095400D02*
X0192167Y0087900D01*
X0192167Y0037900D01*
X0199667Y0030400D01*
X0199667Y0021400D01*
X0189667Y0011400D01*
X0189667Y0003900D01*
X0187867Y0004182D02*
X0005348Y0004182D01*
X0006806Y0003384D02*
X0187625Y0003384D01*
X0187167Y0001400D02*
X0187265Y0001402D01*
X0187363Y0001408D01*
X0187461Y0001417D01*
X0187558Y0001431D01*
X0187655Y0001448D01*
X0187751Y0001469D01*
X0187846Y0001494D01*
X0187940Y0001522D01*
X0188032Y0001555D01*
X0188124Y0001590D01*
X0188214Y0001630D01*
X0188302Y0001672D01*
X0188389Y0001719D01*
X0188473Y0001768D01*
X0188556Y0001821D01*
X0188636Y0001877D01*
X0188715Y0001937D01*
X0188791Y0001999D01*
X0188864Y0002064D01*
X0188935Y0002132D01*
X0189003Y0002203D01*
X0189068Y0002276D01*
X0189130Y0002352D01*
X0189190Y0002431D01*
X0189246Y0002511D01*
X0189299Y0002594D01*
X0189348Y0002678D01*
X0189395Y0002765D01*
X0189437Y0002853D01*
X0189477Y0002943D01*
X0189512Y0003035D01*
X0189545Y0003127D01*
X0189573Y0003221D01*
X0189598Y0003316D01*
X0189619Y0003412D01*
X0189636Y0003509D01*
X0189650Y0003606D01*
X0189659Y0003704D01*
X0189665Y0003802D01*
X0189667Y0003900D01*
X0187167Y0001400D02*
X0007824Y0001400D01*
X0007676Y0001402D01*
X0007528Y0001408D01*
X0007380Y0001417D01*
X0007233Y0001431D01*
X0007086Y0001448D01*
X0006939Y0001470D01*
X0006793Y0001495D01*
X0006648Y0001524D01*
X0006503Y0001556D01*
X0006360Y0001593D01*
X0006217Y0001633D01*
X0006076Y0001677D01*
X0005936Y0001724D01*
X0005797Y0001776D01*
X0005659Y0001831D01*
X0005523Y0001889D01*
X0005389Y0001951D01*
X0005256Y0002017D01*
X0005125Y0002086D01*
X0004996Y0002158D01*
X0004868Y0002234D01*
X0004743Y0002313D01*
X0004620Y0002395D01*
X0004499Y0002480D01*
X0004380Y0002569D01*
X0004264Y0002661D01*
X0004150Y0002755D01*
X0004039Y0002853D01*
X0003930Y0002954D01*
X0003824Y0003057D01*
X0003721Y0003163D01*
X0003620Y0003272D01*
X0003522Y0003383D01*
X0003428Y0003497D01*
X0003336Y0003613D01*
X0003247Y0003732D01*
X0003162Y0003853D01*
X0003080Y0003976D01*
X0003001Y0004101D01*
X0002925Y0004228D01*
X0002853Y0004358D01*
X0002784Y0004489D01*
X0002718Y0004622D01*
X0002656Y0004756D01*
X0002598Y0004892D01*
X0002543Y0005030D01*
X0002491Y0005169D01*
X0002444Y0005309D01*
X0002400Y0005450D01*
X0002360Y0005593D01*
X0002323Y0005736D01*
X0002291Y0005881D01*
X0002262Y0006026D01*
X0002237Y0006172D01*
X0002215Y0006319D01*
X0002198Y0006466D01*
X0002184Y0006613D01*
X0002175Y0006761D01*
X0002169Y0006909D01*
X0002167Y0007057D01*
X0002167Y0021150D01*
X0002167Y0021400D02*
X0002167Y0030400D01*
X0009667Y0037900D01*
X0009667Y0087900D01*
X0002167Y0095400D01*
X0001917Y0095400D01*
X0002167Y0095400D02*
X0002167Y0202650D01*
X0010917Y0211400D01*
X0190667Y0211400D01*
X0199667Y0202400D01*
X0199667Y0095400D01*
X0197867Y0106392D02*
X0171286Y0106392D01*
X0181155Y0107190D02*
X0187179Y0107190D01*
X0186002Y0107989D02*
X0182332Y0107989D01*
X0183118Y0108787D02*
X0185216Y0108787D01*
X0184885Y0109586D02*
X0183448Y0109586D01*
X0183779Y0110384D02*
X0184554Y0110384D01*
X0184517Y0111183D02*
X0183817Y0111183D01*
X0183817Y0111981D02*
X0184517Y0111981D01*
X0184705Y0112780D02*
X0183628Y0112780D01*
X0183297Y0113578D02*
X0185036Y0113578D01*
X0185567Y0114377D02*
X0182766Y0114377D01*
X0181967Y0115175D02*
X0186366Y0115175D01*
X0187139Y0105593D02*
X0181194Y0105593D01*
X0182348Y0104795D02*
X0185985Y0104795D01*
X0185209Y0103996D02*
X0183124Y0103996D01*
X0183455Y0103198D02*
X0184878Y0103198D01*
X0184547Y0102399D02*
X0183786Y0102399D01*
X0183817Y0101601D02*
X0184517Y0101601D01*
X0184517Y0100802D02*
X0183817Y0100802D01*
X0183621Y0100004D02*
X0184712Y0100004D01*
X0185043Y0099205D02*
X0183291Y0099205D01*
X0182749Y0098407D02*
X0185584Y0098407D01*
X0186382Y0097608D02*
X0181951Y0097608D01*
X0175314Y0116772D02*
X0170867Y0116772D01*
X0171449Y0117571D02*
X0174517Y0117571D01*
X0174517Y0118369D02*
X0172247Y0118369D01*
X0169219Y0121563D02*
X0091067Y0121563D01*
X0091067Y0120765D02*
X0168420Y0120765D01*
X0170017Y0122362D02*
X0091067Y0122362D01*
X0091067Y0123161D02*
X0174517Y0123161D01*
X0174517Y0123959D02*
X0091067Y0123959D01*
X0091067Y0124758D02*
X0174517Y0124758D01*
X0174843Y0125556D02*
X0091067Y0125556D01*
X0091067Y0126355D02*
X0197867Y0126355D01*
X0197867Y0127153D02*
X0091067Y0127153D01*
X0091067Y0127952D02*
X0197867Y0127952D01*
X0197867Y0128750D02*
X0091067Y0128750D01*
X0091067Y0129549D02*
X0197867Y0129549D01*
X0197867Y0130347D02*
X0091067Y0130347D01*
X0091067Y0131146D02*
X0197867Y0131146D01*
X0197867Y0131944D02*
X0188632Y0131944D01*
X0188481Y0131867D02*
X0189313Y0132291D01*
X0190068Y0132839D01*
X0190727Y0133499D01*
X0191276Y0134254D01*
X0191699Y0135085D01*
X0191988Y0135973D01*
X0192134Y0136894D01*
X0192134Y0136961D01*
X0186606Y0136961D01*
X0186606Y0137761D01*
X0185806Y0137761D01*
X0185806Y0143288D01*
X0185740Y0143288D01*
X0184818Y0143142D01*
X0183931Y0142854D01*
X0183099Y0142430D01*
X0182344Y0141882D01*
X0181685Y0141222D01*
X0181136Y0140467D01*
X0180713Y0139636D01*
X0180424Y0138749D01*
X0180278Y0137827D01*
X0180278Y0137761D01*
X0185806Y0137761D01*
X0185806Y0136961D01*
X0180278Y0136961D01*
X0180278Y0136894D01*
X0180424Y0135973D01*
X0180713Y0135085D01*
X0181136Y0134254D01*
X0181685Y0133499D01*
X0182344Y0132839D01*
X0183099Y0132291D01*
X0183931Y0131867D01*
X0184818Y0131579D01*
X0185740Y0131433D01*
X0185806Y0131433D01*
X0185806Y0136961D01*
X0186606Y0136961D01*
X0186606Y0131433D01*
X0186673Y0131433D01*
X0187594Y0131579D01*
X0188481Y0131867D01*
X0189934Y0132743D02*
X0197867Y0132743D01*
X0197867Y0133541D02*
X0190758Y0133541D01*
X0191319Y0134340D02*
X0197867Y0134340D01*
X0197867Y0135138D02*
X0191716Y0135138D01*
X0191976Y0135937D02*
X0197867Y0135937D01*
X0197867Y0136735D02*
X0192108Y0136735D01*
X0192134Y0137761D02*
X0192134Y0137827D01*
X0191988Y0138749D01*
X0191699Y0139636D01*
X0191276Y0140467D01*
X0190727Y0141222D01*
X0190068Y0141882D01*
X0189313Y0142430D01*
X0188481Y0142854D01*
X0187594Y0143142D01*
X0186673Y0143288D01*
X0186606Y0143288D01*
X0186606Y0137761D01*
X0192134Y0137761D01*
X0192054Y0138332D02*
X0197867Y0138332D01*
X0197867Y0137534D02*
X0186606Y0137534D01*
X0186606Y0138332D02*
X0185806Y0138332D01*
X0185806Y0137534D02*
X0166527Y0137534D01*
X0166527Y0137761D02*
X0172055Y0137761D01*
X0172055Y0137827D01*
X0171909Y0138749D01*
X0171621Y0139636D01*
X0171197Y0140467D01*
X0170649Y0141222D01*
X0169989Y0141882D01*
X0169234Y0142430D01*
X0168403Y0142854D01*
X0167515Y0143142D01*
X0166594Y0143288D01*
X0166527Y0143288D01*
X0166527Y0137761D01*
X0165727Y0137761D01*
X0165727Y0143288D01*
X0165661Y0143288D01*
X0164739Y0143142D01*
X0163852Y0142854D01*
X0163021Y0142430D01*
X0162266Y0141882D01*
X0161606Y0141222D01*
X0161058Y0140467D01*
X0160634Y0139636D01*
X0160346Y0138749D01*
X0160200Y0137827D01*
X0160200Y0137761D01*
X0165727Y0137761D01*
X0165727Y0136961D01*
X0160200Y0136961D01*
X0160200Y0136894D01*
X0160346Y0135973D01*
X0160634Y0135085D01*
X0161058Y0134254D01*
X0161606Y0133499D01*
X0162266Y0132839D01*
X0163021Y0132291D01*
X0163852Y0131867D01*
X0164739Y0131579D01*
X0165661Y0131433D01*
X0165727Y0131433D01*
X0165727Y0136961D01*
X0166527Y0136961D01*
X0166527Y0137761D01*
X0166527Y0138332D02*
X0165727Y0138332D01*
X0165727Y0137534D02*
X0091067Y0137534D01*
X0091067Y0138332D02*
X0160280Y0138332D01*
X0160470Y0139131D02*
X0091067Y0139131D01*
X0091067Y0139929D02*
X0160783Y0139929D01*
X0161247Y0140728D02*
X0091067Y0140728D01*
X0091067Y0141526D02*
X0161910Y0141526D01*
X0162875Y0142325D02*
X0091067Y0142325D01*
X0091067Y0143123D02*
X0164681Y0143123D01*
X0165727Y0143123D02*
X0166527Y0143123D01*
X0166527Y0142325D02*
X0165727Y0142325D01*
X0165727Y0141526D02*
X0166527Y0141526D01*
X0166527Y0140728D02*
X0165727Y0140728D01*
X0165727Y0139929D02*
X0166527Y0139929D01*
X0166527Y0139131D02*
X0165727Y0139131D01*
X0166527Y0136961D02*
X0172055Y0136961D01*
X0172055Y0136894D01*
X0171909Y0135973D01*
X0171621Y0135085D01*
X0171197Y0134254D01*
X0170649Y0133499D01*
X0169989Y0132839D01*
X0169234Y0132291D01*
X0168403Y0131867D01*
X0167515Y0131579D01*
X0166594Y0131433D01*
X0166527Y0131433D01*
X0166527Y0136961D01*
X0166527Y0136735D02*
X0165727Y0136735D01*
X0165727Y0135937D02*
X0166527Y0135937D01*
X0166527Y0135138D02*
X0165727Y0135138D01*
X0165727Y0134340D02*
X0166527Y0134340D01*
X0166527Y0133541D02*
X0165727Y0133541D01*
X0165727Y0132743D02*
X0166527Y0132743D01*
X0166527Y0131944D02*
X0165727Y0131944D01*
X0163701Y0131944D02*
X0091067Y0131944D01*
X0091067Y0132743D02*
X0162399Y0132743D01*
X0161575Y0133541D02*
X0091067Y0133541D01*
X0091067Y0134340D02*
X0161014Y0134340D01*
X0160617Y0135138D02*
X0091067Y0135138D01*
X0091067Y0135937D02*
X0160357Y0135937D01*
X0160225Y0136735D02*
X0091067Y0136735D01*
X0087267Y0136735D02*
X0003967Y0136735D01*
X0003967Y0135937D02*
X0087267Y0135937D01*
X0087267Y0135138D02*
X0003967Y0135138D01*
X0003967Y0134340D02*
X0087267Y0134340D01*
X0087267Y0133541D02*
X0003967Y0133541D01*
X0003967Y0132743D02*
X0087267Y0132743D01*
X0087267Y0131944D02*
X0003967Y0131944D01*
X0003967Y0131146D02*
X0087267Y0131146D01*
X0087267Y0130347D02*
X0003967Y0130347D01*
X0003967Y0129549D02*
X0087267Y0129549D01*
X0087267Y0128750D02*
X0003967Y0128750D01*
X0003967Y0127952D02*
X0087267Y0127952D01*
X0087267Y0127153D02*
X0003967Y0127153D01*
X0003967Y0126355D02*
X0087267Y0126355D01*
X0087267Y0125556D02*
X0003967Y0125556D01*
X0003967Y0124758D02*
X0087267Y0124758D01*
X0087267Y0123959D02*
X0003967Y0123959D01*
X0003967Y0123161D02*
X0087267Y0123161D01*
X0087267Y0122362D02*
X0003967Y0122362D01*
X0003967Y0121563D02*
X0087267Y0121563D01*
X0087267Y0120765D02*
X0003967Y0120765D01*
X0003967Y0119966D02*
X0087267Y0119966D01*
X0087267Y0119168D02*
X0003967Y0119168D01*
X0003967Y0118369D02*
X0087267Y0118369D01*
X0087267Y0117571D02*
X0003967Y0117571D01*
X0003967Y0116772D02*
X0087267Y0116772D01*
X0087267Y0115974D02*
X0003967Y0115974D01*
X0003967Y0115175D02*
X0087267Y0115175D01*
X0087267Y0114377D02*
X0003967Y0114377D01*
X0003967Y0113578D02*
X0087267Y0113578D01*
X0087267Y0112780D02*
X0003967Y0112780D01*
X0003967Y0111981D02*
X0087267Y0111981D01*
X0087267Y0111183D02*
X0003967Y0111183D01*
X0003967Y0110384D02*
X0087267Y0110384D01*
X0087267Y0109586D02*
X0003967Y0109586D01*
X0003967Y0108787D02*
X0087267Y0108787D01*
X0087267Y0107989D02*
X0003967Y0107989D01*
X0003967Y0107190D02*
X0087267Y0107190D01*
X0087267Y0106392D02*
X0003967Y0106392D01*
X0003967Y0105593D02*
X0087267Y0105593D01*
X0087267Y0104795D02*
X0003967Y0104795D01*
X0003967Y0103996D02*
X0087267Y0103996D01*
X0087267Y0103198D02*
X0003967Y0103198D01*
X0003967Y0102399D02*
X0087267Y0102399D01*
X0087267Y0101601D02*
X0003967Y0101601D01*
X0003967Y0100802D02*
X0087267Y0100802D01*
X0087267Y0100004D02*
X0003967Y0100004D01*
X0003967Y0099205D02*
X0087267Y0099205D01*
X0087267Y0098407D02*
X0003967Y0098407D01*
X0003967Y0097608D02*
X0087267Y0097608D01*
X0087267Y0096810D02*
X0003967Y0096810D01*
X0004101Y0096011D02*
X0087267Y0096011D01*
X0087267Y0095213D02*
X0004900Y0095213D01*
X0005698Y0094414D02*
X0087267Y0094414D01*
X0087267Y0093616D02*
X0006497Y0093616D01*
X0007295Y0092817D02*
X0087267Y0092817D01*
X0087267Y0092019D02*
X0008094Y0092019D01*
X0008892Y0091220D02*
X0087267Y0091220D01*
X0087267Y0090422D02*
X0009691Y0090422D01*
X0010489Y0089623D02*
X0087267Y0089623D01*
X0087267Y0088825D02*
X0011288Y0088825D01*
X0011467Y0088026D02*
X0087267Y0088026D01*
X0087267Y0087228D02*
X0011467Y0087228D01*
X0011467Y0086429D02*
X0087267Y0086429D01*
X0087267Y0085630D02*
X0011467Y0085630D01*
X0011467Y0084832D02*
X0087267Y0084832D01*
X0087267Y0084033D02*
X0011467Y0084033D01*
X0011467Y0083235D02*
X0087267Y0083235D01*
X0087267Y0082436D02*
X0011467Y0082436D01*
X0011467Y0081638D02*
X0087267Y0081638D01*
X0087267Y0080839D02*
X0011467Y0080839D01*
X0011467Y0080041D02*
X0086609Y0080041D01*
X0086279Y0079242D02*
X0011467Y0079242D01*
X0011467Y0078444D02*
X0086176Y0078444D01*
X0086727Y0074451D02*
X0167464Y0074451D01*
X0167795Y0073653D02*
X0087367Y0073653D01*
X0087367Y0072854D02*
X0168431Y0072854D01*
X0169843Y0072056D02*
X0087367Y0072056D01*
X0087367Y0071257D02*
X0190367Y0071257D01*
X0190367Y0070459D02*
X0087367Y0070459D01*
X0087367Y0069660D02*
X0190367Y0069660D01*
X0190367Y0068862D02*
X0087367Y0068862D01*
X0087367Y0068063D02*
X0190367Y0068063D01*
X0190367Y0067265D02*
X0087367Y0067265D01*
X0087367Y0066466D02*
X0190367Y0066466D01*
X0190367Y0065668D02*
X0087367Y0065668D01*
X0087367Y0064869D02*
X0190367Y0064869D01*
X0190367Y0064071D02*
X0087367Y0064071D01*
X0087367Y0063272D02*
X0190367Y0063272D01*
X0190367Y0062474D02*
X0087367Y0062474D01*
X0087367Y0061675D02*
X0190367Y0061675D01*
X0190367Y0060877D02*
X0087367Y0060877D01*
X0087367Y0060078D02*
X0190367Y0060078D01*
X0190367Y0059280D02*
X0087367Y0059280D01*
X0086859Y0058481D02*
X0190367Y0058481D01*
X0190367Y0046503D02*
X0171956Y0046503D01*
X0172994Y0045705D02*
X0190367Y0045705D01*
X0190367Y0044906D02*
X0173475Y0044906D01*
X0173730Y0044108D02*
X0190367Y0044108D01*
X0190367Y0043309D02*
X0173730Y0043309D01*
X0173512Y0042511D02*
X0190367Y0042511D01*
X0190367Y0041712D02*
X0173083Y0041712D01*
X0172172Y0040914D02*
X0190367Y0040914D01*
X0193794Y0033727D02*
X0008039Y0033727D01*
X0014110Y0032929D02*
X0194592Y0032929D01*
X0195391Y0032130D02*
X0016037Y0032130D01*
X0017123Y0031332D02*
X0186282Y0031332D01*
X0184912Y0030533D02*
X0017922Y0030533D01*
X0018705Y0029735D02*
X0184113Y0029735D01*
X0183315Y0028936D02*
X0019035Y0028936D01*
X0019366Y0028138D02*
X0182881Y0028138D01*
X0182551Y0027339D02*
X0019697Y0027339D01*
X0019866Y0026541D02*
X0182220Y0026541D01*
X0181967Y0025742D02*
X0019866Y0025742D01*
X0019866Y0024944D02*
X0181967Y0024944D01*
X0181967Y0024145D02*
X0019866Y0024145D01*
X0019650Y0023347D02*
X0181967Y0023347D01*
X0182100Y0022548D02*
X0019319Y0022548D01*
X0018988Y0021750D02*
X0182431Y0021750D01*
X0182762Y0020951D02*
X0018606Y0020951D01*
X0017808Y0020153D02*
X0183092Y0020153D01*
X0183824Y0019354D02*
X0017009Y0019354D01*
X0015762Y0018556D02*
X0184623Y0018556D01*
X0185585Y0017757D02*
X0013834Y0017757D01*
X0025964Y0008175D02*
X0043431Y0008175D01*
X0041897Y0008973D02*
X0027463Y0008973D01*
X0028261Y0009772D02*
X0041137Y0009772D01*
X0040661Y0010570D02*
X0028671Y0010570D01*
X0047928Y0015361D02*
X0057233Y0015361D01*
X0056107Y0014563D02*
X0048503Y0014563D01*
X0048850Y0013764D02*
X0055384Y0013764D01*
X0055053Y0012966D02*
X0049032Y0012966D01*
X0171318Y0072056D02*
X0190367Y0072056D01*
X0190367Y0072854D02*
X0172729Y0072854D01*
X0173365Y0073653D02*
X0190367Y0073653D01*
X0190367Y0074451D02*
X0173696Y0074451D01*
X0173730Y0075250D02*
X0190367Y0075250D01*
X0190367Y0076048D02*
X0173622Y0076048D01*
X0173291Y0076847D02*
X0190367Y0076847D01*
X0190367Y0077645D02*
X0172549Y0077645D01*
X0193051Y0031332D02*
X0196189Y0031332D01*
X0196988Y0030533D02*
X0194422Y0030533D01*
X0195220Y0029735D02*
X0197786Y0029735D01*
X0197867Y0028936D02*
X0196019Y0028936D01*
X0196452Y0028138D02*
X0197867Y0028138D01*
X0197867Y0027339D02*
X0196783Y0027339D01*
X0197114Y0026541D02*
X0197867Y0026541D01*
X0197867Y0025742D02*
X0197366Y0025742D01*
X0197366Y0024944D02*
X0197867Y0024944D01*
X0197867Y0024145D02*
X0197366Y0024145D01*
X0197366Y0023347D02*
X0197867Y0023347D01*
X0197867Y0022548D02*
X0197233Y0022548D01*
X0197471Y0021750D02*
X0196902Y0021750D01*
X0196672Y0020951D02*
X0196572Y0020951D01*
X0186606Y0131944D02*
X0185806Y0131944D01*
X0185806Y0132743D02*
X0186606Y0132743D01*
X0186606Y0133541D02*
X0185806Y0133541D01*
X0185806Y0134340D02*
X0186606Y0134340D01*
X0186606Y0135138D02*
X0185806Y0135138D01*
X0185806Y0135937D02*
X0186606Y0135937D01*
X0186606Y0136735D02*
X0185806Y0136735D01*
X0185806Y0139131D02*
X0186606Y0139131D01*
X0186606Y0139929D02*
X0185806Y0139929D01*
X0185806Y0140728D02*
X0186606Y0140728D01*
X0186606Y0141526D02*
X0185806Y0141526D01*
X0185806Y0142325D02*
X0186606Y0142325D01*
X0186606Y0143123D02*
X0185806Y0143123D01*
X0184760Y0143123D02*
X0180273Y0143123D01*
X0179524Y0142375D02*
X0181192Y0144042D01*
X0182094Y0146221D01*
X0182094Y0148579D01*
X0181192Y0150758D01*
X0179524Y0152425D01*
X0177346Y0153328D01*
X0174988Y0153328D01*
X0172809Y0152425D01*
X0171142Y0150758D01*
X0170239Y0148579D01*
X0170239Y0146221D01*
X0171142Y0144042D01*
X0172809Y0142375D01*
X0174988Y0141472D01*
X0177346Y0141472D01*
X0179524Y0142375D01*
X0179403Y0142325D02*
X0182954Y0142325D01*
X0181989Y0141526D02*
X0177476Y0141526D01*
X0174858Y0141526D02*
X0170344Y0141526D01*
X0171008Y0140728D02*
X0181326Y0140728D01*
X0180862Y0139929D02*
X0171471Y0139929D01*
X0171785Y0139131D02*
X0180549Y0139131D01*
X0180358Y0138332D02*
X0171975Y0138332D01*
X0172030Y0136735D02*
X0180304Y0136735D01*
X0180436Y0135937D02*
X0171897Y0135937D01*
X0171638Y0135138D02*
X0180696Y0135138D01*
X0181093Y0134340D02*
X0171241Y0134340D01*
X0170679Y0133541D02*
X0181654Y0133541D01*
X0182478Y0132743D02*
X0169856Y0132743D01*
X0168553Y0131944D02*
X0183780Y0131944D01*
X0191863Y0139131D02*
X0197867Y0139131D01*
X0197867Y0139929D02*
X0191550Y0139929D01*
X0191087Y0140728D02*
X0197867Y0140728D01*
X0197867Y0141526D02*
X0190423Y0141526D01*
X0189458Y0142325D02*
X0197867Y0142325D01*
X0197867Y0143123D02*
X0187652Y0143123D01*
X0181803Y0145519D02*
X0197867Y0145519D01*
X0197867Y0146317D02*
X0182094Y0146317D01*
X0182094Y0147116D02*
X0197867Y0147116D01*
X0197867Y0147914D02*
X0182094Y0147914D01*
X0182039Y0148713D02*
X0197867Y0148713D01*
X0197867Y0149511D02*
X0181708Y0149511D01*
X0181377Y0150310D02*
X0197867Y0150310D01*
X0197867Y0151108D02*
X0180841Y0151108D01*
X0180043Y0151907D02*
X0184051Y0151907D01*
X0183931Y0151946D02*
X0184818Y0151658D01*
X0185740Y0151512D01*
X0185806Y0151512D01*
X0185806Y0157039D01*
X0186606Y0157039D01*
X0186606Y0151512D01*
X0186673Y0151512D01*
X0187594Y0151658D01*
X0188481Y0151946D01*
X0189313Y0152370D01*
X0190068Y0152918D01*
X0190727Y0153578D01*
X0191276Y0154333D01*
X0191699Y0155164D01*
X0191988Y0156051D01*
X0192134Y0156973D01*
X0192134Y0157039D01*
X0186606Y0157039D01*
X0186606Y0157839D01*
X0192134Y0157839D01*
X0192134Y0157906D01*
X0191988Y0158827D01*
X0191699Y0159715D01*
X0191276Y0160546D01*
X0190727Y0161301D01*
X0190068Y0161961D01*
X0189313Y0162509D01*
X0188481Y0162933D01*
X0187594Y0163221D01*
X0186673Y0163367D01*
X0186606Y0163367D01*
X0186606Y0157839D01*
X0185806Y0157839D01*
X0185806Y0157039D01*
X0180278Y0157039D01*
X0180278Y0156973D01*
X0180424Y0156051D01*
X0180713Y0155164D01*
X0181136Y0154333D01*
X0181685Y0153578D01*
X0182344Y0152918D01*
X0183099Y0152370D01*
X0183931Y0151946D01*
X0182637Y0152705D02*
X0178848Y0152705D01*
X0181158Y0154302D02*
X0171175Y0154302D01*
X0171197Y0154333D02*
X0171621Y0155164D01*
X0171909Y0156051D01*
X0172055Y0156973D01*
X0172055Y0157039D01*
X0166527Y0157039D01*
X0166527Y0151512D01*
X0166594Y0151512D01*
X0167515Y0151658D01*
X0168403Y0151946D01*
X0169234Y0152370D01*
X0169989Y0152918D01*
X0170649Y0153578D01*
X0171197Y0154333D01*
X0171588Y0155101D02*
X0180745Y0155101D01*
X0180474Y0155899D02*
X0171860Y0155899D01*
X0172011Y0156698D02*
X0180322Y0156698D01*
X0180278Y0157839D02*
X0185806Y0157839D01*
X0185806Y0163367D01*
X0185740Y0163367D01*
X0184818Y0163221D01*
X0183931Y0162933D01*
X0183099Y0162509D01*
X0182344Y0161961D01*
X0181685Y0161301D01*
X0181136Y0160546D01*
X0180713Y0159715D01*
X0180424Y0158827D01*
X0180278Y0157906D01*
X0180278Y0157839D01*
X0180340Y0158295D02*
X0171993Y0158295D01*
X0172055Y0157906D02*
X0171909Y0158827D01*
X0171621Y0159715D01*
X0171197Y0160546D01*
X0170649Y0161301D01*
X0169989Y0161961D01*
X0169234Y0162509D01*
X0168403Y0162933D01*
X0167515Y0163221D01*
X0166594Y0163367D01*
X0166527Y0163367D01*
X0166527Y0157839D01*
X0172055Y0157839D01*
X0172055Y0157906D01*
X0171822Y0159094D02*
X0180511Y0159094D01*
X0180803Y0159892D02*
X0171530Y0159892D01*
X0171092Y0160691D02*
X0181241Y0160691D01*
X0181873Y0161489D02*
X0170460Y0161489D01*
X0169539Y0162288D02*
X0182794Y0162288D01*
X0184403Y0163086D02*
X0167930Y0163086D01*
X0166527Y0163086D02*
X0165727Y0163086D01*
X0165727Y0163367D02*
X0165661Y0163367D01*
X0164739Y0163221D01*
X0163852Y0162933D01*
X0163021Y0162509D01*
X0162266Y0161961D01*
X0161606Y0161301D01*
X0161058Y0160546D01*
X0160634Y0159715D01*
X0160346Y0158827D01*
X0160200Y0157906D01*
X0160200Y0157839D01*
X0165727Y0157839D01*
X0165727Y0157039D01*
X0166527Y0157039D01*
X0166527Y0157839D01*
X0165727Y0157839D01*
X0165727Y0163367D01*
X0165727Y0162288D02*
X0166527Y0162288D01*
X0166527Y0161489D02*
X0165727Y0161489D01*
X0165727Y0160691D02*
X0166527Y0160691D01*
X0166527Y0159892D02*
X0165727Y0159892D01*
X0165727Y0159094D02*
X0166527Y0159094D01*
X0166527Y0158295D02*
X0165727Y0158295D01*
X0165727Y0157497D02*
X0091067Y0157497D01*
X0091067Y0158295D02*
X0160261Y0158295D01*
X0160432Y0159094D02*
X0091067Y0159094D01*
X0091067Y0159892D02*
X0160724Y0159892D01*
X0161163Y0160691D02*
X0091067Y0160691D01*
X0091067Y0161489D02*
X0161794Y0161489D01*
X0162716Y0162288D02*
X0091067Y0162288D01*
X0091067Y0163086D02*
X0164324Y0163086D01*
X0166533Y0167458D02*
X0168242Y0166750D01*
X0170092Y0166750D01*
X0171801Y0167458D01*
X0173109Y0168766D01*
X0173817Y0170475D01*
X0173817Y0172325D01*
X0173109Y0174034D01*
X0171801Y0175342D01*
X0170092Y0176050D01*
X0168242Y0176050D01*
X0166533Y0175342D01*
X0165225Y0174034D01*
X0164517Y0172325D01*
X0164517Y0170475D01*
X0165225Y0168766D01*
X0166533Y0167458D01*
X0166113Y0167877D02*
X0162220Y0167877D01*
X0161801Y0167458D02*
X0163109Y0168766D01*
X0163817Y0170475D01*
X0163817Y0172325D01*
X0163109Y0174034D01*
X0161801Y0175342D01*
X0160092Y0176050D01*
X0158242Y0176050D01*
X0156533Y0175342D01*
X0155225Y0174034D01*
X0154517Y0172325D01*
X0154517Y0170475D01*
X0155225Y0168766D01*
X0156533Y0167458D01*
X0158242Y0166750D01*
X0160092Y0166750D01*
X0161801Y0167458D01*
X0160885Y0167079D02*
X0167448Y0167079D01*
X0165315Y0168676D02*
X0163018Y0168676D01*
X0163402Y0169474D02*
X0164931Y0169474D01*
X0164600Y0170273D02*
X0163733Y0170273D01*
X0163817Y0171071D02*
X0164517Y0171071D01*
X0164517Y0171870D02*
X0163817Y0171870D01*
X0163674Y0172668D02*
X0164659Y0172668D01*
X0164990Y0173467D02*
X0163344Y0173467D01*
X0162877Y0174265D02*
X0165456Y0174265D01*
X0166254Y0175064D02*
X0162079Y0175064D01*
X0160545Y0175862D02*
X0167789Y0175862D01*
X0168242Y0176750D02*
X0170092Y0176750D01*
X0171801Y0177458D01*
X0173109Y0178766D01*
X0173817Y0180475D01*
X0173817Y0182325D01*
X0173471Y0183159D01*
X0174517Y0184204D01*
X0174517Y0177570D01*
X0175337Y0176750D01*
X0182997Y0176750D01*
X0183817Y0177570D01*
X0183817Y0180004D01*
X0184467Y0180654D01*
X0186967Y0183154D01*
X0186967Y0198146D01*
X0185912Y0199200D01*
X0183817Y0201296D01*
X0183817Y0205230D01*
X0182997Y0206050D01*
X0175337Y0206050D01*
X0174517Y0205230D01*
X0174517Y0198596D01*
X0173471Y0199641D01*
X0173817Y0200475D01*
X0173817Y0202325D01*
X0173109Y0204034D01*
X0171801Y0205342D01*
X0170092Y0206050D01*
X0168242Y0206050D01*
X0166533Y0205342D01*
X0165225Y0204034D01*
X0164517Y0202325D01*
X0164517Y0200475D01*
X0165225Y0198766D01*
X0166533Y0197458D01*
X0168242Y0196750D01*
X0170092Y0196750D01*
X0170926Y0197095D01*
X0172367Y0195654D01*
X0172367Y0195276D01*
X0171801Y0195842D01*
X0170092Y0196550D01*
X0168242Y0196550D01*
X0166533Y0195842D01*
X0165967Y0195276D01*
X0165967Y0197646D01*
X0164912Y0198700D01*
X0163618Y0199995D01*
X0163817Y0200475D01*
X0163817Y0202325D01*
X0163109Y0204034D01*
X0161801Y0205342D01*
X0160092Y0206050D01*
X0158242Y0206050D01*
X0156533Y0205342D01*
X0155225Y0204034D01*
X0154517Y0202325D01*
X0154517Y0200475D01*
X0155139Y0198974D01*
X0154912Y0199200D01*
X0153764Y0200348D01*
X0153817Y0200475D01*
X0153817Y0202325D01*
X0153109Y0204034D01*
X0151801Y0205342D01*
X0150092Y0206050D01*
X0148242Y0206050D01*
X0146533Y0205342D01*
X0145225Y0204034D01*
X0144517Y0202325D01*
X0144517Y0200475D01*
X0145225Y0198766D01*
X0146533Y0197458D01*
X0148242Y0196750D01*
X0150092Y0196750D01*
X0151633Y0197388D01*
X0152367Y0196654D01*
X0152367Y0195276D01*
X0151801Y0195842D01*
X0150092Y0196550D01*
X0148242Y0196550D01*
X0146533Y0195842D01*
X0145967Y0195276D01*
X0145967Y0197646D01*
X0144912Y0198700D01*
X0143618Y0199995D01*
X0143817Y0200475D01*
X0143817Y0202325D01*
X0143109Y0204034D01*
X0141801Y0205342D01*
X0140092Y0206050D01*
X0138242Y0206050D01*
X0136533Y0205342D01*
X0135225Y0204034D01*
X0134517Y0202325D01*
X0134517Y0200475D01*
X0135139Y0198974D01*
X0133764Y0200348D01*
X0133817Y0200475D01*
X0133817Y0202325D01*
X0133109Y0204034D01*
X0131801Y0205342D01*
X0130092Y0206050D01*
X0128242Y0206050D01*
X0126533Y0205342D01*
X0125225Y0204034D01*
X0124517Y0202325D01*
X0124517Y0200475D01*
X0125225Y0198766D01*
X0126533Y0197458D01*
X0128242Y0196750D01*
X0130092Y0196750D01*
X0131633Y0197388D01*
X0132617Y0196404D01*
X0132617Y0195026D01*
X0131801Y0195842D01*
X0130092Y0196550D01*
X0128242Y0196550D01*
X0126533Y0195842D01*
X0126317Y0195626D01*
X0126317Y0197437D01*
X0125204Y0198550D01*
X0123659Y0200095D01*
X0123817Y0200475D01*
X0123817Y0202325D01*
X0123109Y0204034D01*
X0121801Y0205342D01*
X0120092Y0206050D01*
X0118242Y0206050D01*
X0116533Y0205342D01*
X0115225Y0204034D01*
X0114517Y0202325D01*
X0114517Y0200475D01*
X0115225Y0198766D01*
X0116533Y0197458D01*
X0118242Y0196750D01*
X0120092Y0196750D01*
X0121179Y0197200D01*
X0122517Y0195863D01*
X0122517Y0195126D01*
X0121801Y0195842D01*
X0120092Y0196550D01*
X0118242Y0196550D01*
X0116533Y0195842D01*
X0116067Y0195376D01*
X0116067Y0197687D01*
X0114954Y0198800D01*
X0113659Y0200095D01*
X0113817Y0200475D01*
X0113817Y0202325D01*
X0113109Y0204034D01*
X0111801Y0205342D01*
X0110092Y0206050D01*
X0108242Y0206050D01*
X0106533Y0205342D01*
X0105225Y0204034D01*
X0104517Y0202325D01*
X0104517Y0200475D01*
X0105225Y0198766D01*
X0106533Y0197458D01*
X0108242Y0196750D01*
X0110092Y0196750D01*
X0111179Y0197200D01*
X0112267Y0196113D01*
X0112267Y0195376D01*
X0111801Y0195842D01*
X0110092Y0196550D01*
X0108242Y0196550D01*
X0106533Y0195842D01*
X0105225Y0194534D01*
X0104517Y0192825D01*
X0104517Y0190975D01*
X0105225Y0189266D01*
X0106533Y0187958D01*
X0108242Y0187250D01*
X0110092Y0187250D01*
X0111801Y0187958D01*
X0112267Y0188424D01*
X0112267Y0187187D01*
X0110826Y0185746D01*
X0110092Y0186050D01*
X0108242Y0186050D01*
X0106533Y0185342D01*
X0105225Y0184034D01*
X0104517Y0182325D01*
X0104517Y0180475D01*
X0105225Y0178766D01*
X0106533Y0177458D01*
X0108242Y0176750D01*
X0110092Y0176750D01*
X0111801Y0177458D01*
X0113109Y0178766D01*
X0113817Y0180475D01*
X0113817Y0182325D01*
X0113513Y0183059D01*
X0116067Y0185613D01*
X0116067Y0188424D01*
X0116533Y0187958D01*
X0118242Y0187250D01*
X0120092Y0187250D01*
X0121801Y0187958D01*
X0122517Y0188674D01*
X0122517Y0187437D01*
X0120826Y0185746D01*
X0120092Y0186050D01*
X0118242Y0186050D01*
X0116533Y0185342D01*
X0115225Y0184034D01*
X0114517Y0182325D01*
X0114517Y0180475D01*
X0115225Y0178766D01*
X0116533Y0177458D01*
X0118242Y0176750D01*
X0120092Y0176750D01*
X0121801Y0177458D01*
X0123109Y0178766D01*
X0123817Y0180475D01*
X0123817Y0182325D01*
X0123513Y0183059D01*
X0126317Y0185863D01*
X0126317Y0188174D01*
X0126533Y0187958D01*
X0128242Y0187250D01*
X0130092Y0187250D01*
X0131801Y0187958D01*
X0132617Y0188774D01*
X0132617Y0187396D01*
X0130926Y0185705D01*
X0130092Y0186050D01*
X0128242Y0186050D01*
X0126533Y0185342D01*
X0125225Y0184034D01*
X0124517Y0182325D01*
X0124517Y0180475D01*
X0125225Y0178766D01*
X0126533Y0177458D01*
X0128242Y0176750D01*
X0130092Y0176750D01*
X0131801Y0177458D01*
X0133109Y0178766D01*
X0133817Y0180475D01*
X0133817Y0182325D01*
X0133471Y0183159D01*
X0136217Y0185904D01*
X0136217Y0188274D01*
X0136533Y0187958D01*
X0138242Y0187250D01*
X0140092Y0187250D01*
X0141801Y0187958D01*
X0142367Y0188524D01*
X0142367Y0187146D01*
X0140926Y0185705D01*
X0140092Y0186050D01*
X0138242Y0186050D01*
X0136533Y0185342D01*
X0135225Y0184034D01*
X0134517Y0182325D01*
X0134517Y0180475D01*
X0135225Y0178766D01*
X0136533Y0177458D01*
X0138242Y0176750D01*
X0140092Y0176750D01*
X0141801Y0177458D01*
X0143109Y0178766D01*
X0143817Y0180475D01*
X0143817Y0182325D01*
X0143471Y0183159D01*
X0145967Y0185654D01*
X0145967Y0188524D01*
X0146533Y0187958D01*
X0148242Y0187250D01*
X0150092Y0187250D01*
X0151801Y0187958D01*
X0152367Y0188524D01*
X0152367Y0187146D01*
X0150926Y0185705D01*
X0150092Y0186050D01*
X0148242Y0186050D01*
X0146533Y0185342D01*
X0145225Y0184034D01*
X0144517Y0182325D01*
X0144517Y0180475D01*
X0145225Y0178766D01*
X0146533Y0177458D01*
X0148242Y0176750D01*
X0150092Y0176750D01*
X0151801Y0177458D01*
X0153109Y0178766D01*
X0153817Y0180475D01*
X0153817Y0182325D01*
X0153471Y0183159D01*
X0155967Y0185654D01*
X0155967Y0188524D01*
X0156533Y0187958D01*
X0158242Y0187250D01*
X0160092Y0187250D01*
X0161801Y0187958D01*
X0162367Y0188524D01*
X0162367Y0187146D01*
X0160926Y0185705D01*
X0160092Y0186050D01*
X0158242Y0186050D01*
X0156533Y0185342D01*
X0155225Y0184034D01*
X0154517Y0182325D01*
X0154517Y0180475D01*
X0155225Y0178766D01*
X0156533Y0177458D01*
X0158242Y0176750D01*
X0160092Y0176750D01*
X0161801Y0177458D01*
X0163109Y0178766D01*
X0163817Y0180475D01*
X0163817Y0182325D01*
X0163471Y0183159D01*
X0165967Y0185654D01*
X0165967Y0188524D01*
X0166533Y0187958D01*
X0168242Y0187250D01*
X0170092Y0187250D01*
X0171801Y0187958D01*
X0172367Y0188524D01*
X0172367Y0187146D01*
X0170926Y0185705D01*
X0170092Y0186050D01*
X0168242Y0186050D01*
X0166533Y0185342D01*
X0165225Y0184034D01*
X0164517Y0182325D01*
X0164517Y0180475D01*
X0165225Y0178766D01*
X0166533Y0177458D01*
X0168242Y0176750D01*
X0166531Y0177459D02*
X0161802Y0177459D01*
X0162601Y0178258D02*
X0165733Y0178258D01*
X0165104Y0179056D02*
X0163229Y0179056D01*
X0163560Y0179855D02*
X0164774Y0179855D01*
X0164517Y0180653D02*
X0163817Y0180653D01*
X0163817Y0181452D02*
X0164517Y0181452D01*
X0164517Y0182250D02*
X0163817Y0182250D01*
X0163517Y0183049D02*
X0164817Y0183049D01*
X0165147Y0183847D02*
X0164160Y0183847D01*
X0164958Y0184646D02*
X0165836Y0184646D01*
X0165757Y0185444D02*
X0166780Y0185444D01*
X0165967Y0186243D02*
X0171464Y0186243D01*
X0172263Y0187041D02*
X0165967Y0187041D01*
X0165967Y0187840D02*
X0166817Y0187840D01*
X0164167Y0186400D02*
X0159167Y0181400D01*
X0155836Y0184646D02*
X0154958Y0184646D01*
X0155147Y0183847D02*
X0154160Y0183847D01*
X0153517Y0183049D02*
X0154817Y0183049D01*
X0154517Y0182250D02*
X0153817Y0182250D01*
X0153817Y0181452D02*
X0154517Y0181452D01*
X0154517Y0180653D02*
X0153817Y0180653D01*
X0153560Y0179855D02*
X0154774Y0179855D01*
X0155104Y0179056D02*
X0153229Y0179056D01*
X0152601Y0178258D02*
X0155733Y0178258D01*
X0156531Y0177459D02*
X0151802Y0177459D01*
X0150545Y0175862D02*
X0157789Y0175862D01*
X0156254Y0175064D02*
X0152079Y0175064D01*
X0151801Y0175342D02*
X0150092Y0176050D01*
X0148242Y0176050D01*
X0146533Y0175342D01*
X0145225Y0174034D01*
X0144517Y0172325D01*
X0144517Y0170475D01*
X0145225Y0168766D01*
X0146533Y0167458D01*
X0148242Y0166750D01*
X0150092Y0166750D01*
X0151801Y0167458D01*
X0153109Y0168766D01*
X0153817Y0170475D01*
X0153817Y0172325D01*
X0153109Y0174034D01*
X0151801Y0175342D01*
X0152877Y0174265D02*
X0155456Y0174265D01*
X0154990Y0173467D02*
X0153344Y0173467D01*
X0153674Y0172668D02*
X0154659Y0172668D01*
X0154517Y0171870D02*
X0153817Y0171870D01*
X0153817Y0171071D02*
X0154517Y0171071D01*
X0154600Y0170273D02*
X0153733Y0170273D01*
X0153402Y0169474D02*
X0154931Y0169474D01*
X0155315Y0168676D02*
X0153018Y0168676D01*
X0152220Y0167877D02*
X0156113Y0167877D01*
X0157448Y0167079D02*
X0150885Y0167079D01*
X0147448Y0167079D02*
X0140885Y0167079D01*
X0140092Y0166750D02*
X0141801Y0167458D01*
X0143109Y0168766D01*
X0143817Y0170475D01*
X0143817Y0172325D01*
X0143109Y0174034D01*
X0141801Y0175342D01*
X0140092Y0176050D01*
X0138242Y0176050D01*
X0136533Y0175342D01*
X0135225Y0174034D01*
X0134517Y0172325D01*
X0134517Y0170475D01*
X0135225Y0168766D01*
X0136533Y0167458D01*
X0138242Y0166750D01*
X0140092Y0166750D01*
X0142220Y0167877D02*
X0146113Y0167877D01*
X0145315Y0168676D02*
X0143018Y0168676D01*
X0143402Y0169474D02*
X0144931Y0169474D01*
X0144600Y0170273D02*
X0143733Y0170273D01*
X0143817Y0171071D02*
X0144517Y0171071D01*
X0144517Y0171870D02*
X0143817Y0171870D01*
X0143674Y0172668D02*
X0144659Y0172668D01*
X0144990Y0173467D02*
X0143344Y0173467D01*
X0142877Y0174265D02*
X0145456Y0174265D01*
X0146254Y0175064D02*
X0142079Y0175064D01*
X0140545Y0175862D02*
X0147789Y0175862D01*
X0146531Y0177459D02*
X0141802Y0177459D01*
X0142601Y0178258D02*
X0145733Y0178258D01*
X0145104Y0179056D02*
X0143229Y0179056D01*
X0143560Y0179855D02*
X0144774Y0179855D01*
X0144517Y0180653D02*
X0143817Y0180653D01*
X0143817Y0181452D02*
X0144517Y0181452D01*
X0144517Y0182250D02*
X0143817Y0182250D01*
X0143517Y0183049D02*
X0144817Y0183049D01*
X0145147Y0183847D02*
X0144160Y0183847D01*
X0144958Y0184646D02*
X0145836Y0184646D01*
X0145757Y0185444D02*
X0146780Y0185444D01*
X0145967Y0186243D02*
X0151464Y0186243D01*
X0152263Y0187041D02*
X0145967Y0187041D01*
X0145967Y0187840D02*
X0146817Y0187840D01*
X0144167Y0186400D02*
X0139167Y0181400D01*
X0136780Y0185444D02*
X0135757Y0185444D01*
X0135836Y0184646D02*
X0134958Y0184646D01*
X0135147Y0183847D02*
X0134160Y0183847D01*
X0133517Y0183049D02*
X0134817Y0183049D01*
X0134517Y0182250D02*
X0133817Y0182250D01*
X0133817Y0181452D02*
X0134517Y0181452D01*
X0134517Y0180653D02*
X0133817Y0180653D01*
X0133560Y0179855D02*
X0134774Y0179855D01*
X0135104Y0179056D02*
X0133229Y0179056D01*
X0132601Y0178258D02*
X0135733Y0178258D01*
X0136531Y0177459D02*
X0131802Y0177459D01*
X0130545Y0175862D02*
X0137789Y0175862D01*
X0136254Y0175064D02*
X0132079Y0175064D01*
X0131801Y0175342D02*
X0130092Y0176050D01*
X0128242Y0176050D01*
X0126533Y0175342D01*
X0125225Y0174034D01*
X0124517Y0172325D01*
X0124517Y0170475D01*
X0125225Y0168766D01*
X0126533Y0167458D01*
X0128242Y0166750D01*
X0130092Y0166750D01*
X0131801Y0167458D01*
X0133109Y0168766D01*
X0133817Y0170475D01*
X0133817Y0172325D01*
X0133109Y0174034D01*
X0131801Y0175342D01*
X0132877Y0174265D02*
X0135456Y0174265D01*
X0134990Y0173467D02*
X0133344Y0173467D01*
X0133674Y0172668D02*
X0134659Y0172668D01*
X0134517Y0171870D02*
X0133817Y0171870D01*
X0133817Y0171071D02*
X0134517Y0171071D01*
X0134600Y0170273D02*
X0133733Y0170273D01*
X0133402Y0169474D02*
X0134931Y0169474D01*
X0135315Y0168676D02*
X0133018Y0168676D01*
X0132220Y0167877D02*
X0136113Y0167877D01*
X0137448Y0167079D02*
X0130885Y0167079D01*
X0127448Y0167079D02*
X0120885Y0167079D01*
X0120092Y0166750D02*
X0121801Y0167458D01*
X0123109Y0168766D01*
X0123817Y0170475D01*
X0123817Y0172325D01*
X0123109Y0174034D01*
X0121801Y0175342D01*
X0120092Y0176050D01*
X0118242Y0176050D01*
X0116533Y0175342D01*
X0115225Y0174034D01*
X0114517Y0172325D01*
X0114517Y0170475D01*
X0115225Y0168766D01*
X0116533Y0167458D01*
X0118242Y0166750D01*
X0120092Y0166750D01*
X0122220Y0167877D02*
X0126113Y0167877D01*
X0125315Y0168676D02*
X0123018Y0168676D01*
X0123402Y0169474D02*
X0124931Y0169474D01*
X0124600Y0170273D02*
X0123733Y0170273D01*
X0123817Y0171071D02*
X0124517Y0171071D01*
X0124517Y0171870D02*
X0123817Y0171870D01*
X0123674Y0172668D02*
X0124659Y0172668D01*
X0124990Y0173467D02*
X0123344Y0173467D01*
X0122877Y0174265D02*
X0125456Y0174265D01*
X0126254Y0175064D02*
X0122079Y0175064D01*
X0120545Y0175862D02*
X0127789Y0175862D01*
X0126531Y0177459D02*
X0121802Y0177459D01*
X0122601Y0178258D02*
X0125733Y0178258D01*
X0125104Y0179056D02*
X0123229Y0179056D01*
X0123560Y0179855D02*
X0124774Y0179855D01*
X0124517Y0180653D02*
X0123817Y0180653D01*
X0123817Y0181452D02*
X0124517Y0181452D01*
X0124517Y0182250D02*
X0123817Y0182250D01*
X0123517Y0183049D02*
X0124817Y0183049D01*
X0125147Y0183847D02*
X0124301Y0183847D01*
X0125100Y0184646D02*
X0125836Y0184646D01*
X0125898Y0185444D02*
X0126780Y0185444D01*
X0126317Y0186243D02*
X0131464Y0186243D01*
X0132263Y0187041D02*
X0126317Y0187041D01*
X0126317Y0187840D02*
X0126817Y0187840D01*
X0122517Y0187840D02*
X0121516Y0187840D01*
X0122121Y0187041D02*
X0116067Y0187041D01*
X0116067Y0186243D02*
X0121323Y0186243D01*
X0122481Y0188638D02*
X0122517Y0188638D01*
X0116817Y0187840D02*
X0116067Y0187840D01*
X0115898Y0185444D02*
X0116780Y0185444D01*
X0115836Y0184646D02*
X0115100Y0184646D01*
X0115147Y0183847D02*
X0114301Y0183847D01*
X0114817Y0183049D02*
X0113517Y0183049D01*
X0113817Y0182250D02*
X0114517Y0182250D01*
X0114517Y0181452D02*
X0113817Y0181452D01*
X0113817Y0180653D02*
X0114517Y0180653D01*
X0114774Y0179855D02*
X0113560Y0179855D01*
X0113229Y0179056D02*
X0115104Y0179056D01*
X0115733Y0178258D02*
X0112601Y0178258D01*
X0111802Y0177459D02*
X0116531Y0177459D01*
X0117789Y0175862D02*
X0110545Y0175862D01*
X0110092Y0176050D02*
X0108242Y0176050D01*
X0106533Y0175342D01*
X0105225Y0174034D01*
X0104517Y0172325D01*
X0104517Y0170475D01*
X0105225Y0168766D01*
X0106533Y0167458D01*
X0108242Y0166750D01*
X0110092Y0166750D01*
X0111801Y0167458D01*
X0113109Y0168766D01*
X0113817Y0170475D01*
X0113817Y0172325D01*
X0113109Y0174034D01*
X0111801Y0175342D01*
X0110092Y0176050D01*
X0112079Y0175064D02*
X0116254Y0175064D01*
X0115456Y0174265D02*
X0112877Y0174265D01*
X0113344Y0173467D02*
X0114990Y0173467D01*
X0114659Y0172668D02*
X0113674Y0172668D01*
X0113817Y0171870D02*
X0114517Y0171870D01*
X0114517Y0171071D02*
X0113817Y0171071D01*
X0113733Y0170273D02*
X0114600Y0170273D01*
X0114931Y0169474D02*
X0113402Y0169474D01*
X0113018Y0168676D02*
X0115315Y0168676D01*
X0116113Y0167877D02*
X0112220Y0167877D01*
X0110885Y0167079D02*
X0117448Y0167079D01*
X0107448Y0167079D02*
X0091067Y0167079D01*
X0091067Y0167877D02*
X0106113Y0167877D01*
X0105315Y0168676D02*
X0091067Y0168676D01*
X0091067Y0169474D02*
X0104931Y0169474D01*
X0104600Y0170273D02*
X0091067Y0170273D01*
X0091067Y0171071D02*
X0104517Y0171071D01*
X0104517Y0171870D02*
X0091067Y0171870D01*
X0091067Y0172668D02*
X0104659Y0172668D01*
X0104990Y0173467D02*
X0091067Y0173467D01*
X0091067Y0174265D02*
X0105456Y0174265D01*
X0106254Y0175064D02*
X0091067Y0175064D01*
X0091067Y0175862D02*
X0107789Y0175862D01*
X0106531Y0177459D02*
X0091067Y0177459D01*
X0091067Y0176661D02*
X0197867Y0176661D01*
X0197867Y0177459D02*
X0183706Y0177459D01*
X0183817Y0178258D02*
X0197867Y0178258D01*
X0197867Y0179056D02*
X0183817Y0179056D01*
X0183817Y0179855D02*
X0197867Y0179855D01*
X0197867Y0180653D02*
X0184466Y0180653D01*
X0185264Y0181452D02*
X0197867Y0181452D01*
X0197867Y0182250D02*
X0186063Y0182250D01*
X0186861Y0183049D02*
X0197867Y0183049D01*
X0197867Y0183847D02*
X0186967Y0183847D01*
X0186967Y0184646D02*
X0197867Y0184646D01*
X0197867Y0185444D02*
X0186967Y0185444D01*
X0186967Y0186243D02*
X0197867Y0186243D01*
X0197867Y0187041D02*
X0186967Y0187041D01*
X0186967Y0187840D02*
X0197867Y0187840D01*
X0197867Y0188638D02*
X0186967Y0188638D01*
X0186967Y0189437D02*
X0197867Y0189437D01*
X0197867Y0190235D02*
X0186967Y0190235D01*
X0186967Y0191034D02*
X0197867Y0191034D01*
X0197867Y0191832D02*
X0186967Y0191832D01*
X0186967Y0192631D02*
X0197867Y0192631D01*
X0197867Y0193430D02*
X0186967Y0193430D01*
X0186967Y0194228D02*
X0197867Y0194228D01*
X0197867Y0195027D02*
X0186967Y0195027D01*
X0186967Y0195825D02*
X0197867Y0195825D01*
X0197867Y0196624D02*
X0186967Y0196624D01*
X0186967Y0197422D02*
X0197867Y0197422D01*
X0197867Y0198221D02*
X0186892Y0198221D01*
X0186093Y0199019D02*
X0197867Y0199019D01*
X0197867Y0199818D02*
X0185295Y0199818D01*
X0185912Y0199200D02*
X0185912Y0199200D01*
X0185167Y0197400D02*
X0185167Y0183900D01*
X0182667Y0181400D01*
X0179167Y0181400D01*
X0174517Y0181452D02*
X0173817Y0181452D01*
X0173817Y0182250D02*
X0174517Y0182250D01*
X0174517Y0183049D02*
X0173517Y0183049D01*
X0174160Y0183847D02*
X0174517Y0183847D01*
X0174167Y0186400D02*
X0169167Y0181400D01*
X0172601Y0178258D02*
X0174517Y0178258D01*
X0174517Y0179056D02*
X0173229Y0179056D01*
X0173560Y0179855D02*
X0174517Y0179855D01*
X0174517Y0180653D02*
X0173817Y0180653D01*
X0174627Y0177459D02*
X0171802Y0177459D01*
X0170545Y0175862D02*
X0175149Y0175862D01*
X0175337Y0176050D02*
X0174517Y0175230D01*
X0174517Y0167570D01*
X0175337Y0166750D01*
X0182997Y0166750D01*
X0183817Y0167570D01*
X0183817Y0175230D01*
X0182997Y0176050D01*
X0175337Y0176050D01*
X0174517Y0175064D02*
X0172079Y0175064D01*
X0172877Y0174265D02*
X0174517Y0174265D01*
X0174517Y0173467D02*
X0173344Y0173467D01*
X0173674Y0172668D02*
X0174517Y0172668D01*
X0174517Y0171870D02*
X0173817Y0171870D01*
X0173817Y0171071D02*
X0174517Y0171071D01*
X0174517Y0170273D02*
X0173733Y0170273D01*
X0173402Y0169474D02*
X0174517Y0169474D01*
X0174517Y0168676D02*
X0173018Y0168676D01*
X0172220Y0167877D02*
X0174517Y0167877D01*
X0175008Y0167079D02*
X0170885Y0167079D01*
X0166527Y0157497D02*
X0185806Y0157497D01*
X0185806Y0158295D02*
X0186606Y0158295D01*
X0186606Y0157497D02*
X0197867Y0157497D01*
X0197867Y0158295D02*
X0192072Y0158295D01*
X0191901Y0159094D02*
X0197867Y0159094D01*
X0197867Y0159892D02*
X0191609Y0159892D01*
X0191171Y0160691D02*
X0197867Y0160691D01*
X0197867Y0161489D02*
X0190539Y0161489D01*
X0189618Y0162288D02*
X0197867Y0162288D01*
X0197867Y0163086D02*
X0188009Y0163086D01*
X0186606Y0163086D02*
X0185806Y0163086D01*
X0185806Y0162288D02*
X0186606Y0162288D01*
X0186606Y0161489D02*
X0185806Y0161489D01*
X0185806Y0160691D02*
X0186606Y0160691D01*
X0186606Y0159892D02*
X0185806Y0159892D01*
X0185806Y0159094D02*
X0186606Y0159094D01*
X0186606Y0156698D02*
X0185806Y0156698D01*
X0185806Y0155899D02*
X0186606Y0155899D01*
X0186606Y0155101D02*
X0185806Y0155101D01*
X0185806Y0154302D02*
X0186606Y0154302D01*
X0186606Y0153504D02*
X0185806Y0153504D01*
X0185806Y0152705D02*
X0186606Y0152705D01*
X0186606Y0151907D02*
X0185806Y0151907D01*
X0188361Y0151907D02*
X0197867Y0151907D01*
X0197867Y0152705D02*
X0189775Y0152705D01*
X0190653Y0153504D02*
X0197867Y0153504D01*
X0197867Y0154302D02*
X0191254Y0154302D01*
X0191667Y0155101D02*
X0197867Y0155101D01*
X0197867Y0155899D02*
X0191938Y0155899D01*
X0192090Y0156698D02*
X0197867Y0156698D01*
X0197867Y0163885D02*
X0091067Y0163885D01*
X0091067Y0164683D02*
X0197867Y0164683D01*
X0197867Y0165482D02*
X0091067Y0165482D01*
X0091067Y0166280D02*
X0197867Y0166280D01*
X0197867Y0167079D02*
X0183325Y0167079D01*
X0183817Y0167877D02*
X0197867Y0167877D01*
X0197867Y0168676D02*
X0183817Y0168676D01*
X0183817Y0169474D02*
X0197867Y0169474D01*
X0197867Y0170273D02*
X0183817Y0170273D01*
X0183817Y0171071D02*
X0197867Y0171071D01*
X0197867Y0171870D02*
X0183817Y0171870D01*
X0183817Y0172668D02*
X0197867Y0172668D01*
X0197867Y0173467D02*
X0183817Y0173467D01*
X0183817Y0174265D02*
X0197867Y0174265D01*
X0197867Y0175064D02*
X0183817Y0175064D01*
X0183184Y0175862D02*
X0197867Y0175862D01*
X0185167Y0197400D02*
X0181167Y0201400D01*
X0179167Y0201400D01*
X0183817Y0201415D02*
X0197867Y0201415D01*
X0197867Y0200616D02*
X0184496Y0200616D01*
X0183817Y0202213D02*
X0197308Y0202213D01*
X0196509Y0203012D02*
X0183817Y0203012D01*
X0183817Y0203810D02*
X0195711Y0203810D01*
X0194912Y0204609D02*
X0183817Y0204609D01*
X0183639Y0205407D02*
X0194114Y0205407D01*
X0193315Y0206206D02*
X0008268Y0206206D01*
X0009066Y0207004D02*
X0192517Y0207004D01*
X0191718Y0207803D02*
X0009865Y0207803D01*
X0010663Y0208601D02*
X0190920Y0208601D01*
X0190121Y0209400D02*
X0011462Y0209400D01*
X0007469Y0205407D02*
X0020690Y0205407D01*
X0020533Y0205342D02*
X0019225Y0204034D01*
X0018517Y0202325D01*
X0018517Y0200475D01*
X0019225Y0198766D01*
X0020533Y0197458D01*
X0022242Y0196750D01*
X0024092Y0196750D01*
X0025801Y0197458D01*
X0027109Y0198766D01*
X0027817Y0200475D01*
X0027817Y0202325D01*
X0027109Y0204034D01*
X0025801Y0205342D01*
X0024092Y0206050D01*
X0022242Y0206050D01*
X0020533Y0205342D01*
X0019799Y0204609D02*
X0006671Y0204609D01*
X0005872Y0203810D02*
X0019132Y0203810D01*
X0018801Y0203012D02*
X0005074Y0203012D01*
X0004275Y0202213D02*
X0018517Y0202213D01*
X0018517Y0201415D02*
X0003967Y0201415D01*
X0003967Y0200616D02*
X0018517Y0200616D01*
X0018789Y0199818D02*
X0003967Y0199818D01*
X0003967Y0199019D02*
X0019120Y0199019D01*
X0019770Y0198221D02*
X0003967Y0198221D01*
X0003967Y0197422D02*
X0020619Y0197422D01*
X0025714Y0197422D02*
X0030731Y0197422D01*
X0030730Y0197423D02*
X0031382Y0197091D01*
X0032078Y0196864D01*
X0032767Y0196755D01*
X0032767Y0201000D01*
X0033567Y0201000D01*
X0033567Y0201800D01*
X0037811Y0201800D01*
X0037702Y0202489D01*
X0037476Y0203185D01*
X0037144Y0203837D01*
X0036713Y0204429D01*
X0036196Y0204947D01*
X0035604Y0205377D01*
X0034952Y0205709D01*
X0034256Y0205935D01*
X0033567Y0206045D01*
X0033567Y0201800D01*
X0032767Y0201800D01*
X0032767Y0206045D01*
X0032078Y0205935D01*
X0031382Y0205709D01*
X0030730Y0205377D01*
X0030137Y0204947D01*
X0029620Y0204429D01*
X0029190Y0203837D01*
X0028857Y0203185D01*
X0028631Y0202489D01*
X0028522Y0201800D01*
X0032767Y0201800D01*
X0032767Y0201000D01*
X0028522Y0201000D01*
X0028631Y0200311D01*
X0028857Y0199615D01*
X0029190Y0198963D01*
X0029620Y0198371D01*
X0030137Y0197853D01*
X0030730Y0197423D01*
X0029770Y0198221D02*
X0026563Y0198221D01*
X0027214Y0199019D02*
X0029161Y0199019D01*
X0028791Y0199818D02*
X0027544Y0199818D01*
X0027817Y0200616D02*
X0028583Y0200616D01*
X0027817Y0201415D02*
X0032767Y0201415D01*
X0032767Y0202213D02*
X0033567Y0202213D01*
X0033567Y0201415D02*
X0038517Y0201415D01*
X0038517Y0202213D02*
X0037746Y0202213D01*
X0038517Y0202325D02*
X0038517Y0200475D01*
X0039225Y0198766D01*
X0040533Y0197458D01*
X0042242Y0196750D01*
X0044092Y0196750D01*
X0045801Y0197458D01*
X0047109Y0198766D01*
X0047817Y0200475D01*
X0047817Y0202325D01*
X0047109Y0204034D01*
X0045801Y0205342D01*
X0044092Y0206050D01*
X0042242Y0206050D01*
X0040533Y0205342D01*
X0039225Y0204034D01*
X0038517Y0202325D01*
X0038801Y0203012D02*
X0037532Y0203012D01*
X0037157Y0203810D02*
X0039132Y0203810D01*
X0039799Y0204609D02*
X0036534Y0204609D01*
X0035545Y0205407D02*
X0040690Y0205407D01*
X0045643Y0205407D02*
X0050690Y0205407D01*
X0050533Y0205342D02*
X0049225Y0204034D01*
X0048517Y0202325D01*
X0048517Y0200475D01*
X0049225Y0198766D01*
X0050533Y0197458D01*
X0052242Y0196750D01*
X0054092Y0196750D01*
X0055801Y0197458D01*
X0057109Y0198766D01*
X0057817Y0200475D01*
X0057817Y0202325D01*
X0057109Y0204034D01*
X0055801Y0205342D01*
X0054092Y0206050D01*
X0052242Y0206050D01*
X0050533Y0205342D01*
X0049799Y0204609D02*
X0046534Y0204609D01*
X0047201Y0203810D02*
X0049132Y0203810D01*
X0048801Y0203012D02*
X0047532Y0203012D01*
X0047817Y0202213D02*
X0048517Y0202213D01*
X0048517Y0201415D02*
X0047817Y0201415D01*
X0047817Y0200616D02*
X0048517Y0200616D01*
X0048789Y0199818D02*
X0047544Y0199818D01*
X0047214Y0199019D02*
X0049120Y0199019D01*
X0049770Y0198221D02*
X0046563Y0198221D01*
X0045714Y0197422D02*
X0050619Y0197422D01*
X0055714Y0197422D02*
X0060619Y0197422D01*
X0060533Y0197458D02*
X0062242Y0196750D01*
X0064092Y0196750D01*
X0065801Y0197458D01*
X0067109Y0198766D01*
X0067817Y0200475D01*
X0067817Y0202325D01*
X0067109Y0204034D01*
X0065801Y0205342D01*
X0064092Y0206050D01*
X0062242Y0206050D01*
X0060533Y0205342D01*
X0059225Y0204034D01*
X0058517Y0202325D01*
X0058517Y0200475D01*
X0059225Y0198766D01*
X0060533Y0197458D01*
X0059770Y0198221D02*
X0056563Y0198221D01*
X0057214Y0199019D02*
X0059120Y0199019D01*
X0058789Y0199818D02*
X0057544Y0199818D01*
X0057817Y0200616D02*
X0058517Y0200616D01*
X0058517Y0201415D02*
X0057817Y0201415D01*
X0057817Y0202213D02*
X0058517Y0202213D01*
X0058801Y0203012D02*
X0057532Y0203012D01*
X0057201Y0203810D02*
X0059132Y0203810D01*
X0059799Y0204609D02*
X0056534Y0204609D01*
X0055643Y0205407D02*
X0060690Y0205407D01*
X0065643Y0205407D02*
X0070690Y0205407D01*
X0069799Y0204609D02*
X0066534Y0204609D01*
X0067201Y0203810D02*
X0069132Y0203810D01*
X0068801Y0203012D02*
X0067532Y0203012D01*
X0067817Y0202213D02*
X0068517Y0202213D01*
X0068517Y0201415D02*
X0067817Y0201415D01*
X0067817Y0200616D02*
X0068517Y0200616D01*
X0068789Y0199818D02*
X0067544Y0199818D01*
X0067214Y0199019D02*
X0069120Y0199019D01*
X0069770Y0198221D02*
X0066563Y0198221D01*
X0065714Y0197422D02*
X0070619Y0197422D01*
X0075256Y0196624D02*
X0003967Y0196624D01*
X0003967Y0195825D02*
X0076055Y0195825D01*
X0076853Y0195027D02*
X0003967Y0195027D01*
X0003967Y0194228D02*
X0077652Y0194228D01*
X0078450Y0193430D02*
X0003967Y0193430D01*
X0003967Y0192631D02*
X0079249Y0192631D01*
X0080047Y0191832D02*
X0003967Y0191832D01*
X0003967Y0191034D02*
X0011271Y0191034D01*
X0012635Y0191599D02*
X0009805Y0190427D01*
X0007640Y0188261D01*
X0006467Y0185431D01*
X0006467Y0182369D01*
X0007640Y0179539D01*
X0009805Y0177373D01*
X0012635Y0176201D01*
X0015698Y0176201D01*
X0018528Y0177373D01*
X0020694Y0179539D01*
X0021866Y0182369D01*
X0021866Y0185431D01*
X0020694Y0188261D01*
X0018528Y0190427D01*
X0015698Y0191599D01*
X0012635Y0191599D01*
X0009614Y0190235D02*
X0003967Y0190235D01*
X0003967Y0189437D02*
X0008815Y0189437D01*
X0008017Y0188638D02*
X0003967Y0188638D01*
X0003967Y0187840D02*
X0007465Y0187840D01*
X0007134Y0187041D02*
X0003967Y0187041D01*
X0003967Y0186243D02*
X0006804Y0186243D01*
X0006473Y0185444D02*
X0003967Y0185444D01*
X0003967Y0184646D02*
X0006467Y0184646D01*
X0006467Y0183847D02*
X0003967Y0183847D01*
X0003967Y0183049D02*
X0006467Y0183049D01*
X0006516Y0182250D02*
X0003967Y0182250D01*
X0003967Y0181452D02*
X0006847Y0181452D01*
X0007178Y0180653D02*
X0003967Y0180653D01*
X0003967Y0179855D02*
X0007509Y0179855D01*
X0008122Y0179056D02*
X0003967Y0179056D01*
X0003967Y0178258D02*
X0008921Y0178258D01*
X0009719Y0177459D02*
X0003967Y0177459D01*
X0003967Y0176661D02*
X0011525Y0176661D01*
X0013803Y0174265D02*
X0003967Y0174265D01*
X0003967Y0173467D02*
X0013079Y0173467D01*
X0013131Y0173594D02*
X0012676Y0172495D01*
X0012676Y0171305D01*
X0013131Y0170206D01*
X0013973Y0169365D01*
X0015072Y0168909D01*
X0016262Y0168909D01*
X0017361Y0169365D01*
X0017696Y0169700D01*
X0032637Y0169700D01*
X0032973Y0169365D01*
X0034072Y0168909D01*
X0035262Y0168909D01*
X0036361Y0169365D01*
X0037202Y0170206D01*
X0037657Y0171305D01*
X0037657Y0172495D01*
X0037202Y0173594D01*
X0036361Y0174435D01*
X0035262Y0174891D01*
X0034072Y0174891D01*
X0032973Y0174435D01*
X0032637Y0174100D01*
X0017696Y0174100D01*
X0017361Y0174435D01*
X0016262Y0174891D01*
X0015072Y0174891D01*
X0013973Y0174435D01*
X0013131Y0173594D01*
X0012748Y0172668D02*
X0003967Y0172668D01*
X0003967Y0171870D02*
X0012676Y0171870D01*
X0012773Y0171071D02*
X0003967Y0171071D01*
X0003967Y0170273D02*
X0013104Y0170273D01*
X0013863Y0169474D02*
X0003967Y0169474D01*
X0003967Y0168676D02*
X0087267Y0168676D01*
X0087267Y0169474D02*
X0036470Y0169474D01*
X0037230Y0170273D02*
X0087267Y0170273D01*
X0087267Y0171071D02*
X0037560Y0171071D01*
X0037657Y0171870D02*
X0087267Y0171870D01*
X0087267Y0172668D02*
X0037585Y0172668D01*
X0037255Y0173467D02*
X0087267Y0173467D01*
X0087267Y0174265D02*
X0036531Y0174265D01*
X0032803Y0174265D02*
X0017531Y0174265D01*
X0016809Y0176661D02*
X0087267Y0176661D01*
X0087267Y0177459D02*
X0018614Y0177459D01*
X0019413Y0178258D02*
X0087267Y0178258D01*
X0087267Y0179056D02*
X0020211Y0179056D01*
X0020825Y0179855D02*
X0087267Y0179855D01*
X0087267Y0180653D02*
X0021155Y0180653D01*
X0021486Y0181452D02*
X0087267Y0181452D01*
X0087267Y0182250D02*
X0021817Y0182250D01*
X0021866Y0183049D02*
X0087267Y0183049D01*
X0087267Y0183847D02*
X0021866Y0183847D01*
X0021866Y0184646D02*
X0087234Y0184646D01*
X0086435Y0185444D02*
X0054440Y0185444D01*
X0054361Y0185365D02*
X0055202Y0186206D01*
X0055657Y0187305D01*
X0055657Y0188495D01*
X0055202Y0189594D01*
X0054361Y0190435D01*
X0053262Y0190891D01*
X0052072Y0190891D01*
X0050973Y0190435D01*
X0050337Y0189800D01*
X0044996Y0189800D01*
X0044361Y0190435D01*
X0043262Y0190891D01*
X0042072Y0190891D01*
X0040973Y0190435D01*
X0040131Y0189594D01*
X0039676Y0188495D01*
X0039676Y0187305D01*
X0040131Y0186206D01*
X0040973Y0185365D01*
X0042072Y0184909D01*
X0043262Y0184909D01*
X0044361Y0185365D01*
X0044996Y0186000D01*
X0050337Y0186000D01*
X0050973Y0185365D01*
X0052072Y0184909D01*
X0053262Y0184909D01*
X0054361Y0185365D01*
X0055217Y0186243D02*
X0085637Y0186243D01*
X0084838Y0187041D02*
X0055548Y0187041D01*
X0055657Y0187840D02*
X0084040Y0187840D01*
X0083241Y0188638D02*
X0055598Y0188638D01*
X0055267Y0189437D02*
X0082443Y0189437D01*
X0081644Y0190235D02*
X0054560Y0190235D01*
X0050773Y0190235D02*
X0044560Y0190235D01*
X0040773Y0190235D02*
X0018720Y0190235D01*
X0019518Y0189437D02*
X0040066Y0189437D01*
X0039736Y0188638D02*
X0020317Y0188638D01*
X0020868Y0187840D02*
X0039676Y0187840D01*
X0039785Y0187041D02*
X0021199Y0187041D01*
X0021530Y0186243D02*
X0040116Y0186243D01*
X0040893Y0185444D02*
X0021861Y0185444D01*
X0017063Y0191034D02*
X0080846Y0191034D01*
X0083824Y0193430D02*
X0104767Y0193430D01*
X0104517Y0192631D02*
X0084623Y0192631D01*
X0085421Y0191832D02*
X0104517Y0191832D01*
X0104517Y0191034D02*
X0086220Y0191034D01*
X0087018Y0190235D02*
X0104823Y0190235D01*
X0105154Y0189437D02*
X0087817Y0189437D01*
X0088615Y0188638D02*
X0105852Y0188638D01*
X0106817Y0187840D02*
X0089414Y0187840D01*
X0090212Y0187041D02*
X0112121Y0187041D01*
X0112267Y0187840D02*
X0111516Y0187840D01*
X0111323Y0186243D02*
X0091011Y0186243D01*
X0091067Y0185444D02*
X0106780Y0185444D01*
X0105836Y0184646D02*
X0091067Y0184646D01*
X0091067Y0183847D02*
X0105147Y0183847D01*
X0104817Y0183049D02*
X0091067Y0183049D01*
X0091067Y0182250D02*
X0104517Y0182250D01*
X0104517Y0181452D02*
X0091067Y0181452D01*
X0091067Y0180653D02*
X0104517Y0180653D01*
X0104774Y0179855D02*
X0091067Y0179855D01*
X0091067Y0179056D02*
X0105104Y0179056D01*
X0105733Y0178258D02*
X0091067Y0178258D01*
X0087267Y0175862D02*
X0003967Y0175862D01*
X0003967Y0175064D02*
X0087267Y0175064D01*
X0087267Y0167877D02*
X0003967Y0167877D01*
X0003967Y0167079D02*
X0087267Y0167079D01*
X0087267Y0166280D02*
X0036516Y0166280D01*
X0036361Y0166435D02*
X0035262Y0166891D01*
X0034072Y0166891D01*
X0032973Y0166435D01*
X0032637Y0166100D01*
X0019696Y0166100D01*
X0019361Y0166435D01*
X0018262Y0166891D01*
X0017072Y0166891D01*
X0015973Y0166435D01*
X0015131Y0165594D01*
X0014676Y0164495D01*
X0014676Y0163305D01*
X0015131Y0162206D01*
X0015973Y0161365D01*
X0017072Y0160909D01*
X0018262Y0160909D01*
X0019361Y0161365D01*
X0019696Y0161700D01*
X0032637Y0161700D01*
X0032973Y0161365D01*
X0034072Y0160909D01*
X0035262Y0160909D01*
X0036361Y0161365D01*
X0037202Y0162206D01*
X0037657Y0163305D01*
X0037657Y0164495D01*
X0037202Y0165594D01*
X0036361Y0166435D01*
X0037248Y0165482D02*
X0087267Y0165482D01*
X0087267Y0164683D02*
X0037579Y0164683D01*
X0037657Y0163885D02*
X0087267Y0163885D01*
X0087267Y0163086D02*
X0037566Y0163086D01*
X0037236Y0162288D02*
X0087267Y0162288D01*
X0087267Y0161489D02*
X0036485Y0161489D01*
X0032848Y0161489D02*
X0019485Y0161489D01*
X0018262Y0157891D02*
X0017072Y0157891D01*
X0015973Y0157435D01*
X0015131Y0156594D01*
X0014676Y0155495D01*
X0014676Y0154305D01*
X0015131Y0153206D01*
X0015973Y0152365D01*
X0017072Y0151909D01*
X0018262Y0151909D01*
X0019361Y0152365D01*
X0020202Y0153206D01*
X0020657Y0154305D01*
X0020657Y0155495D01*
X0020202Y0156594D01*
X0019361Y0157435D01*
X0018262Y0157891D01*
X0019213Y0157497D02*
X0087267Y0157497D01*
X0087267Y0158295D02*
X0003967Y0158295D01*
X0003967Y0157497D02*
X0016121Y0157497D01*
X0015235Y0156698D02*
X0003967Y0156698D01*
X0003967Y0155899D02*
X0014844Y0155899D01*
X0014676Y0155101D02*
X0003967Y0155101D01*
X0003967Y0154302D02*
X0014677Y0154302D01*
X0015008Y0153504D02*
X0003967Y0153504D01*
X0003967Y0152705D02*
X0015632Y0152705D01*
X0019701Y0152705D02*
X0087267Y0152705D01*
X0087267Y0151907D02*
X0003967Y0151907D01*
X0003967Y0151108D02*
X0087267Y0151108D01*
X0087267Y0150310D02*
X0003967Y0150310D01*
X0003967Y0149511D02*
X0087267Y0149511D01*
X0087267Y0148713D02*
X0003967Y0148713D01*
X0003967Y0147914D02*
X0087267Y0147914D01*
X0087267Y0147116D02*
X0003967Y0147116D01*
X0003967Y0146317D02*
X0087267Y0146317D01*
X0087267Y0145519D02*
X0003967Y0145519D01*
X0003967Y0144720D02*
X0087267Y0144720D01*
X0087267Y0143922D02*
X0003967Y0143922D01*
X0003967Y0143123D02*
X0087267Y0143123D01*
X0087267Y0142325D02*
X0003967Y0142325D01*
X0003967Y0141526D02*
X0087267Y0141526D01*
X0087267Y0140728D02*
X0003967Y0140728D01*
X0003967Y0139929D02*
X0087267Y0139929D01*
X0087267Y0139131D02*
X0003967Y0139131D01*
X0003967Y0138332D02*
X0087267Y0138332D01*
X0087267Y0137534D02*
X0003967Y0137534D01*
X0020325Y0153504D02*
X0087267Y0153504D01*
X0087267Y0154302D02*
X0020656Y0154302D01*
X0020657Y0155101D02*
X0087267Y0155101D01*
X0087267Y0155899D02*
X0020490Y0155899D01*
X0020098Y0156698D02*
X0087267Y0156698D01*
X0087267Y0159094D02*
X0003967Y0159094D01*
X0003967Y0159892D02*
X0087267Y0159892D01*
X0087267Y0160691D02*
X0003967Y0160691D01*
X0003967Y0161489D02*
X0015848Y0161489D01*
X0015098Y0162288D02*
X0003967Y0162288D01*
X0003967Y0163086D02*
X0014767Y0163086D01*
X0014676Y0163885D02*
X0003967Y0163885D01*
X0003967Y0164683D02*
X0014754Y0164683D01*
X0015085Y0165482D02*
X0003967Y0165482D01*
X0003967Y0166280D02*
X0015818Y0166280D01*
X0017470Y0169474D02*
X0032863Y0169474D01*
X0032818Y0166280D02*
X0019516Y0166280D01*
X0044440Y0185444D02*
X0050893Y0185444D01*
X0040619Y0197422D02*
X0035602Y0197422D01*
X0035604Y0197423D02*
X0036196Y0197853D01*
X0036713Y0198371D01*
X0037144Y0198963D01*
X0037476Y0199615D01*
X0037702Y0200311D01*
X0037811Y0201000D01*
X0033567Y0201000D01*
X0033567Y0196755D01*
X0034256Y0196864D01*
X0034952Y0197091D01*
X0035604Y0197423D01*
X0036563Y0198221D02*
X0039770Y0198221D01*
X0039120Y0199019D02*
X0037172Y0199019D01*
X0037542Y0199818D02*
X0038789Y0199818D01*
X0038517Y0200616D02*
X0037750Y0200616D01*
X0033567Y0200616D02*
X0032767Y0200616D01*
X0032767Y0199818D02*
X0033567Y0199818D01*
X0033567Y0199019D02*
X0032767Y0199019D01*
X0032767Y0198221D02*
X0033567Y0198221D01*
X0033567Y0197422D02*
X0032767Y0197422D01*
X0028587Y0202213D02*
X0027817Y0202213D01*
X0027532Y0203012D02*
X0028801Y0203012D01*
X0029176Y0203810D02*
X0027201Y0203810D01*
X0026534Y0204609D02*
X0029799Y0204609D01*
X0030789Y0205407D02*
X0025643Y0205407D01*
X0032767Y0205407D02*
X0033567Y0205407D01*
X0033567Y0204609D02*
X0032767Y0204609D01*
X0032767Y0203810D02*
X0033567Y0203810D01*
X0033567Y0203012D02*
X0032767Y0203012D01*
X0075643Y0205407D02*
X0080690Y0205407D01*
X0080533Y0205342D02*
X0079225Y0204034D01*
X0078517Y0202325D01*
X0078517Y0200475D01*
X0079225Y0198766D01*
X0080533Y0197458D01*
X0082242Y0196750D01*
X0084092Y0196750D01*
X0085801Y0197458D01*
X0087109Y0198766D01*
X0087817Y0200475D01*
X0087817Y0202325D01*
X0087109Y0204034D01*
X0085801Y0205342D01*
X0084092Y0206050D01*
X0082242Y0206050D01*
X0080533Y0205342D01*
X0079799Y0204609D02*
X0076534Y0204609D01*
X0077201Y0203810D02*
X0079132Y0203810D01*
X0078801Y0203012D02*
X0077532Y0203012D01*
X0077817Y0202213D02*
X0078517Y0202213D01*
X0078517Y0201415D02*
X0077817Y0201415D01*
X0077817Y0200616D02*
X0078517Y0200616D01*
X0078789Y0199818D02*
X0077544Y0199818D01*
X0078235Y0199019D02*
X0079120Y0199019D01*
X0079033Y0198221D02*
X0079770Y0198221D01*
X0079832Y0197422D02*
X0080619Y0197422D01*
X0080630Y0196624D02*
X0111756Y0196624D01*
X0111818Y0195825D02*
X0112267Y0195825D01*
X0116067Y0195825D02*
X0116516Y0195825D01*
X0116067Y0196624D02*
X0121756Y0196624D01*
X0121818Y0195825D02*
X0122517Y0195825D01*
X0126317Y0195825D02*
X0126516Y0195825D01*
X0126317Y0196624D02*
X0132398Y0196624D01*
X0132617Y0195825D02*
X0131818Y0195825D01*
X0132616Y0195027D02*
X0132617Y0195027D01*
X0134417Y0197150D02*
X0134417Y0186650D01*
X0129167Y0181400D01*
X0131516Y0187840D02*
X0132617Y0187840D01*
X0132617Y0188638D02*
X0132481Y0188638D01*
X0136217Y0187840D02*
X0136817Y0187840D01*
X0136217Y0187041D02*
X0142263Y0187041D01*
X0142367Y0187840D02*
X0141516Y0187840D01*
X0141464Y0186243D02*
X0136217Y0186243D01*
X0144167Y0186400D02*
X0144167Y0196900D01*
X0139667Y0201400D01*
X0139167Y0201400D01*
X0142534Y0204609D02*
X0145799Y0204609D01*
X0145132Y0203810D02*
X0143201Y0203810D01*
X0143532Y0203012D02*
X0144801Y0203012D01*
X0144517Y0202213D02*
X0143817Y0202213D01*
X0143817Y0201415D02*
X0144517Y0201415D01*
X0144517Y0200616D02*
X0143817Y0200616D01*
X0143795Y0199818D02*
X0144789Y0199818D01*
X0144593Y0199019D02*
X0145120Y0199019D01*
X0145392Y0198221D02*
X0145770Y0198221D01*
X0145967Y0197422D02*
X0146619Y0197422D01*
X0145967Y0196624D02*
X0152367Y0196624D01*
X0152367Y0195825D02*
X0151818Y0195825D01*
X0154167Y0197400D02*
X0154167Y0186400D01*
X0149167Y0181400D01*
X0151516Y0187840D02*
X0152367Y0187840D01*
X0155967Y0187840D02*
X0156817Y0187840D01*
X0155967Y0187041D02*
X0162263Y0187041D01*
X0162367Y0187840D02*
X0161516Y0187840D01*
X0161464Y0186243D02*
X0155967Y0186243D01*
X0155757Y0185444D02*
X0156780Y0185444D01*
X0164167Y0186400D02*
X0164167Y0196900D01*
X0159667Y0201400D01*
X0159167Y0201400D01*
X0162534Y0204609D02*
X0165799Y0204609D01*
X0165132Y0203810D02*
X0163201Y0203810D01*
X0163532Y0203012D02*
X0164801Y0203012D01*
X0164517Y0202213D02*
X0163817Y0202213D01*
X0163817Y0201415D02*
X0164517Y0201415D01*
X0164517Y0200616D02*
X0163817Y0200616D01*
X0163795Y0199818D02*
X0164789Y0199818D01*
X0164593Y0199019D02*
X0165120Y0199019D01*
X0165392Y0198221D02*
X0165770Y0198221D01*
X0165967Y0197422D02*
X0166619Y0197422D01*
X0165967Y0196624D02*
X0171398Y0196624D01*
X0171818Y0195825D02*
X0172196Y0195825D01*
X0174167Y0196400D02*
X0174167Y0186400D01*
X0172367Y0187840D02*
X0171516Y0187840D01*
X0166516Y0195825D02*
X0165967Y0195825D01*
X0169167Y0201400D02*
X0174167Y0196400D01*
X0174093Y0199019D02*
X0174517Y0199019D01*
X0174517Y0199818D02*
X0173544Y0199818D01*
X0173817Y0200616D02*
X0174517Y0200616D01*
X0174517Y0201415D02*
X0173817Y0201415D01*
X0173817Y0202213D02*
X0174517Y0202213D01*
X0174517Y0203012D02*
X0173532Y0203012D01*
X0173201Y0203810D02*
X0174517Y0203810D01*
X0174517Y0204609D02*
X0172534Y0204609D01*
X0171643Y0205407D02*
X0174694Y0205407D01*
X0166690Y0205407D02*
X0161643Y0205407D01*
X0156690Y0205407D02*
X0151643Y0205407D01*
X0152534Y0204609D02*
X0155799Y0204609D01*
X0155132Y0203810D02*
X0153201Y0203810D01*
X0153532Y0203012D02*
X0154801Y0203012D01*
X0154517Y0202213D02*
X0153817Y0202213D01*
X0153817Y0201415D02*
X0154517Y0201415D01*
X0154517Y0200616D02*
X0153817Y0200616D01*
X0154295Y0199818D02*
X0154789Y0199818D01*
X0155093Y0199019D02*
X0155120Y0199019D01*
X0154167Y0197400D02*
X0150167Y0201400D01*
X0149167Y0201400D01*
X0146690Y0205407D02*
X0141643Y0205407D01*
X0136690Y0205407D02*
X0131643Y0205407D01*
X0132534Y0204609D02*
X0135799Y0204609D01*
X0135132Y0203810D02*
X0133201Y0203810D01*
X0133532Y0203012D02*
X0134801Y0203012D01*
X0134517Y0202213D02*
X0133817Y0202213D01*
X0133817Y0201415D02*
X0134517Y0201415D01*
X0134517Y0200616D02*
X0133817Y0200616D01*
X0134295Y0199818D02*
X0134789Y0199818D01*
X0135093Y0199019D02*
X0135120Y0199019D01*
X0134417Y0197150D02*
X0130167Y0201400D01*
X0129167Y0201400D01*
X0124517Y0201415D02*
X0123817Y0201415D01*
X0123817Y0202213D02*
X0124517Y0202213D01*
X0124801Y0203012D02*
X0123532Y0203012D01*
X0123201Y0203810D02*
X0125132Y0203810D01*
X0125799Y0204609D02*
X0122534Y0204609D01*
X0121643Y0205407D02*
X0126690Y0205407D01*
X0124517Y0200616D02*
X0123817Y0200616D01*
X0123936Y0199818D02*
X0124789Y0199818D01*
X0124735Y0199019D02*
X0125120Y0199019D01*
X0125533Y0198221D02*
X0125770Y0198221D01*
X0126317Y0197422D02*
X0126619Y0197422D01*
X0119667Y0201400D02*
X0119167Y0201400D01*
X0115799Y0204609D02*
X0112534Y0204609D01*
X0113201Y0203810D02*
X0115132Y0203810D01*
X0114801Y0203012D02*
X0113532Y0203012D01*
X0113817Y0202213D02*
X0114517Y0202213D01*
X0114517Y0201415D02*
X0113817Y0201415D01*
X0113817Y0200616D02*
X0114517Y0200616D01*
X0114789Y0199818D02*
X0113936Y0199818D01*
X0114735Y0199019D02*
X0115120Y0199019D01*
X0115533Y0198221D02*
X0115770Y0198221D01*
X0116067Y0197422D02*
X0116619Y0197422D01*
X0109667Y0201400D02*
X0109167Y0201400D01*
X0104517Y0201415D02*
X0097817Y0201415D01*
X0097817Y0202213D02*
X0104517Y0202213D01*
X0104801Y0203012D02*
X0097817Y0203012D01*
X0097817Y0203810D02*
X0105132Y0203810D01*
X0105799Y0204609D02*
X0097817Y0204609D01*
X0097817Y0205230D02*
X0096997Y0206050D01*
X0089337Y0206050D01*
X0088517Y0205230D01*
X0088517Y0197570D01*
X0089337Y0196750D01*
X0096997Y0196750D01*
X0097817Y0197570D01*
X0097817Y0205230D01*
X0097639Y0205407D02*
X0106690Y0205407D01*
X0111643Y0205407D02*
X0116690Y0205407D01*
X0106619Y0197422D02*
X0097669Y0197422D01*
X0097817Y0198221D02*
X0105770Y0198221D01*
X0105120Y0199019D02*
X0097817Y0199019D01*
X0097817Y0199818D02*
X0104789Y0199818D01*
X0104517Y0200616D02*
X0097817Y0200616D01*
X0105717Y0195027D02*
X0082227Y0195027D01*
X0081429Y0195825D02*
X0106516Y0195825D01*
X0105098Y0194228D02*
X0083026Y0194228D01*
X0085714Y0197422D02*
X0088665Y0197422D01*
X0088517Y0198221D02*
X0086563Y0198221D01*
X0087214Y0199019D02*
X0088517Y0199019D01*
X0088517Y0199818D02*
X0087544Y0199818D01*
X0087817Y0200616D02*
X0088517Y0200616D01*
X0088517Y0201415D02*
X0087817Y0201415D01*
X0087817Y0202213D02*
X0088517Y0202213D01*
X0088517Y0203012D02*
X0087532Y0203012D01*
X0087201Y0203810D02*
X0088517Y0203810D01*
X0088517Y0204609D02*
X0086534Y0204609D01*
X0085643Y0205407D02*
X0088694Y0205407D01*
X0091067Y0156698D02*
X0160243Y0156698D01*
X0160200Y0156973D02*
X0160346Y0156051D01*
X0160634Y0155164D01*
X0161058Y0154333D01*
X0161606Y0153578D01*
X0162266Y0152918D01*
X0163021Y0152370D01*
X0163852Y0151946D01*
X0164739Y0151658D01*
X0165661Y0151512D01*
X0165727Y0151512D01*
X0165727Y0157039D01*
X0160200Y0157039D01*
X0160200Y0156973D01*
X0160395Y0155899D02*
X0091067Y0155899D01*
X0091067Y0155101D02*
X0160666Y0155101D01*
X0161080Y0154302D02*
X0091067Y0154302D01*
X0091067Y0153504D02*
X0161680Y0153504D01*
X0162558Y0152705D02*
X0091067Y0152705D01*
X0091067Y0151907D02*
X0163972Y0151907D01*
X0165727Y0151907D02*
X0166527Y0151907D01*
X0166527Y0152705D02*
X0165727Y0152705D01*
X0165727Y0153504D02*
X0166527Y0153504D01*
X0166527Y0154302D02*
X0165727Y0154302D01*
X0165727Y0155101D02*
X0166527Y0155101D01*
X0166527Y0155899D02*
X0165727Y0155899D01*
X0165727Y0156698D02*
X0166527Y0156698D01*
X0169696Y0152705D02*
X0173486Y0152705D01*
X0172291Y0151907D02*
X0168282Y0151907D01*
X0170575Y0153504D02*
X0181759Y0153504D01*
X0181473Y0144720D02*
X0197867Y0144720D01*
X0197867Y0143922D02*
X0181071Y0143922D01*
X0172930Y0142325D02*
X0169379Y0142325D01*
X0167574Y0143123D02*
X0172061Y0143123D01*
X0171262Y0143922D02*
X0091067Y0143922D01*
X0091067Y0144720D02*
X0170861Y0144720D01*
X0170530Y0145519D02*
X0091067Y0145519D01*
X0091067Y0146317D02*
X0170239Y0146317D01*
X0170239Y0147116D02*
X0091067Y0147116D01*
X0091067Y0147914D02*
X0170239Y0147914D01*
X0170295Y0148713D02*
X0091067Y0148713D01*
X0091067Y0149511D02*
X0170625Y0149511D01*
X0170956Y0150310D02*
X0091067Y0150310D01*
X0091067Y0151108D02*
X0171492Y0151108D01*
X0146516Y0195825D02*
X0145967Y0195825D01*
D11*
X0168830Y0075160D02*
X0168832Y0075243D01*
X0168838Y0075326D01*
X0168848Y0075409D01*
X0168862Y0075491D01*
X0168879Y0075573D01*
X0168901Y0075653D01*
X0168926Y0075732D01*
X0168955Y0075810D01*
X0168988Y0075887D01*
X0169025Y0075962D01*
X0169064Y0076035D01*
X0169108Y0076106D01*
X0169154Y0076175D01*
X0169204Y0076242D01*
X0169257Y0076306D01*
X0169313Y0076368D01*
X0169372Y0076427D01*
X0169434Y0076483D01*
X0169498Y0076536D01*
X0169565Y0076586D01*
X0169634Y0076632D01*
X0169705Y0076676D01*
X0169778Y0076715D01*
X0169853Y0076752D01*
X0169930Y0076785D01*
X0170008Y0076814D01*
X0170087Y0076839D01*
X0170167Y0076861D01*
X0170249Y0076878D01*
X0170331Y0076892D01*
X0170414Y0076902D01*
X0170497Y0076908D01*
X0170580Y0076910D01*
X0170663Y0076908D01*
X0170746Y0076902D01*
X0170829Y0076892D01*
X0170911Y0076878D01*
X0170993Y0076861D01*
X0171073Y0076839D01*
X0171152Y0076814D01*
X0171230Y0076785D01*
X0171307Y0076752D01*
X0171382Y0076715D01*
X0171455Y0076676D01*
X0171526Y0076632D01*
X0171595Y0076586D01*
X0171662Y0076536D01*
X0171726Y0076483D01*
X0171788Y0076427D01*
X0171847Y0076368D01*
X0171903Y0076306D01*
X0171956Y0076242D01*
X0172006Y0076175D01*
X0172052Y0076106D01*
X0172096Y0076035D01*
X0172135Y0075962D01*
X0172172Y0075887D01*
X0172205Y0075810D01*
X0172234Y0075732D01*
X0172259Y0075653D01*
X0172281Y0075573D01*
X0172298Y0075491D01*
X0172312Y0075409D01*
X0172322Y0075326D01*
X0172328Y0075243D01*
X0172330Y0075160D01*
X0172328Y0075077D01*
X0172322Y0074994D01*
X0172312Y0074911D01*
X0172298Y0074829D01*
X0172281Y0074747D01*
X0172259Y0074667D01*
X0172234Y0074588D01*
X0172205Y0074510D01*
X0172172Y0074433D01*
X0172135Y0074358D01*
X0172096Y0074285D01*
X0172052Y0074214D01*
X0172006Y0074145D01*
X0171956Y0074078D01*
X0171903Y0074014D01*
X0171847Y0073952D01*
X0171788Y0073893D01*
X0171726Y0073837D01*
X0171662Y0073784D01*
X0171595Y0073734D01*
X0171526Y0073688D01*
X0171455Y0073644D01*
X0171382Y0073605D01*
X0171307Y0073568D01*
X0171230Y0073535D01*
X0171152Y0073506D01*
X0171073Y0073481D01*
X0170993Y0073459D01*
X0170911Y0073442D01*
X0170829Y0073428D01*
X0170746Y0073418D01*
X0170663Y0073412D01*
X0170580Y0073410D01*
X0170497Y0073412D01*
X0170414Y0073418D01*
X0170331Y0073428D01*
X0170249Y0073442D01*
X0170167Y0073459D01*
X0170087Y0073481D01*
X0170008Y0073506D01*
X0169930Y0073535D01*
X0169853Y0073568D01*
X0169778Y0073605D01*
X0169705Y0073644D01*
X0169634Y0073688D01*
X0169565Y0073734D01*
X0169498Y0073784D01*
X0169434Y0073837D01*
X0169372Y0073893D01*
X0169313Y0073952D01*
X0169257Y0074014D01*
X0169204Y0074078D01*
X0169154Y0074145D01*
X0169108Y0074214D01*
X0169064Y0074285D01*
X0169025Y0074358D01*
X0168988Y0074433D01*
X0168955Y0074510D01*
X0168926Y0074588D01*
X0168901Y0074667D01*
X0168879Y0074747D01*
X0168862Y0074829D01*
X0168848Y0074911D01*
X0168838Y0074994D01*
X0168832Y0075077D01*
X0168830Y0075160D01*
X0168830Y0043664D02*
X0168832Y0043747D01*
X0168838Y0043830D01*
X0168848Y0043913D01*
X0168862Y0043995D01*
X0168879Y0044077D01*
X0168901Y0044157D01*
X0168926Y0044236D01*
X0168955Y0044314D01*
X0168988Y0044391D01*
X0169025Y0044466D01*
X0169064Y0044539D01*
X0169108Y0044610D01*
X0169154Y0044679D01*
X0169204Y0044746D01*
X0169257Y0044810D01*
X0169313Y0044872D01*
X0169372Y0044931D01*
X0169434Y0044987D01*
X0169498Y0045040D01*
X0169565Y0045090D01*
X0169634Y0045136D01*
X0169705Y0045180D01*
X0169778Y0045219D01*
X0169853Y0045256D01*
X0169930Y0045289D01*
X0170008Y0045318D01*
X0170087Y0045343D01*
X0170167Y0045365D01*
X0170249Y0045382D01*
X0170331Y0045396D01*
X0170414Y0045406D01*
X0170497Y0045412D01*
X0170580Y0045414D01*
X0170663Y0045412D01*
X0170746Y0045406D01*
X0170829Y0045396D01*
X0170911Y0045382D01*
X0170993Y0045365D01*
X0171073Y0045343D01*
X0171152Y0045318D01*
X0171230Y0045289D01*
X0171307Y0045256D01*
X0171382Y0045219D01*
X0171455Y0045180D01*
X0171526Y0045136D01*
X0171595Y0045090D01*
X0171662Y0045040D01*
X0171726Y0044987D01*
X0171788Y0044931D01*
X0171847Y0044872D01*
X0171903Y0044810D01*
X0171956Y0044746D01*
X0172006Y0044679D01*
X0172052Y0044610D01*
X0172096Y0044539D01*
X0172135Y0044466D01*
X0172172Y0044391D01*
X0172205Y0044314D01*
X0172234Y0044236D01*
X0172259Y0044157D01*
X0172281Y0044077D01*
X0172298Y0043995D01*
X0172312Y0043913D01*
X0172322Y0043830D01*
X0172328Y0043747D01*
X0172330Y0043664D01*
X0172328Y0043581D01*
X0172322Y0043498D01*
X0172312Y0043415D01*
X0172298Y0043333D01*
X0172281Y0043251D01*
X0172259Y0043171D01*
X0172234Y0043092D01*
X0172205Y0043014D01*
X0172172Y0042937D01*
X0172135Y0042862D01*
X0172096Y0042789D01*
X0172052Y0042718D01*
X0172006Y0042649D01*
X0171956Y0042582D01*
X0171903Y0042518D01*
X0171847Y0042456D01*
X0171788Y0042397D01*
X0171726Y0042341D01*
X0171662Y0042288D01*
X0171595Y0042238D01*
X0171526Y0042192D01*
X0171455Y0042148D01*
X0171382Y0042109D01*
X0171307Y0042072D01*
X0171230Y0042039D01*
X0171152Y0042010D01*
X0171073Y0041985D01*
X0170993Y0041963D01*
X0170911Y0041946D01*
X0170829Y0041932D01*
X0170746Y0041922D01*
X0170663Y0041916D01*
X0170580Y0041914D01*
X0170497Y0041916D01*
X0170414Y0041922D01*
X0170331Y0041932D01*
X0170249Y0041946D01*
X0170167Y0041963D01*
X0170087Y0041985D01*
X0170008Y0042010D01*
X0169930Y0042039D01*
X0169853Y0042072D01*
X0169778Y0042109D01*
X0169705Y0042148D01*
X0169634Y0042192D01*
X0169565Y0042238D01*
X0169498Y0042288D01*
X0169434Y0042341D01*
X0169372Y0042397D01*
X0169313Y0042456D01*
X0169257Y0042518D01*
X0169204Y0042582D01*
X0169154Y0042649D01*
X0169108Y0042718D01*
X0169064Y0042789D01*
X0169025Y0042862D01*
X0168988Y0042937D01*
X0168955Y0043014D01*
X0168926Y0043092D01*
X0168901Y0043171D01*
X0168879Y0043251D01*
X0168862Y0043333D01*
X0168848Y0043415D01*
X0168838Y0043498D01*
X0168832Y0043581D01*
X0168830Y0043664D01*
X0183368Y0024400D02*
X0183370Y0024558D01*
X0183376Y0024716D01*
X0183386Y0024874D01*
X0183400Y0025032D01*
X0183418Y0025189D01*
X0183439Y0025346D01*
X0183465Y0025502D01*
X0183495Y0025658D01*
X0183528Y0025813D01*
X0183566Y0025966D01*
X0183607Y0026119D01*
X0183652Y0026271D01*
X0183701Y0026422D01*
X0183754Y0026571D01*
X0183810Y0026719D01*
X0183870Y0026865D01*
X0183934Y0027010D01*
X0184002Y0027153D01*
X0184073Y0027295D01*
X0184147Y0027435D01*
X0184225Y0027572D01*
X0184307Y0027708D01*
X0184391Y0027842D01*
X0184480Y0027973D01*
X0184571Y0028102D01*
X0184666Y0028229D01*
X0184763Y0028354D01*
X0184864Y0028476D01*
X0184968Y0028595D01*
X0185075Y0028712D01*
X0185185Y0028826D01*
X0185298Y0028937D01*
X0185413Y0029046D01*
X0185531Y0029151D01*
X0185652Y0029253D01*
X0185775Y0029353D01*
X0185901Y0029449D01*
X0186029Y0029542D01*
X0186159Y0029632D01*
X0186292Y0029718D01*
X0186427Y0029802D01*
X0186563Y0029881D01*
X0186702Y0029958D01*
X0186843Y0030030D01*
X0186985Y0030100D01*
X0187129Y0030165D01*
X0187275Y0030227D01*
X0187422Y0030285D01*
X0187571Y0030340D01*
X0187721Y0030391D01*
X0187872Y0030438D01*
X0188024Y0030481D01*
X0188177Y0030520D01*
X0188332Y0030556D01*
X0188487Y0030587D01*
X0188643Y0030615D01*
X0188799Y0030639D01*
X0188956Y0030659D01*
X0189114Y0030675D01*
X0189271Y0030687D01*
X0189430Y0030695D01*
X0189588Y0030699D01*
X0189746Y0030699D01*
X0189904Y0030695D01*
X0190063Y0030687D01*
X0190220Y0030675D01*
X0190378Y0030659D01*
X0190535Y0030639D01*
X0190691Y0030615D01*
X0190847Y0030587D01*
X0191002Y0030556D01*
X0191157Y0030520D01*
X0191310Y0030481D01*
X0191462Y0030438D01*
X0191613Y0030391D01*
X0191763Y0030340D01*
X0191912Y0030285D01*
X0192059Y0030227D01*
X0192205Y0030165D01*
X0192349Y0030100D01*
X0192491Y0030030D01*
X0192632Y0029958D01*
X0192771Y0029881D01*
X0192907Y0029802D01*
X0193042Y0029718D01*
X0193175Y0029632D01*
X0193305Y0029542D01*
X0193433Y0029449D01*
X0193559Y0029353D01*
X0193682Y0029253D01*
X0193803Y0029151D01*
X0193921Y0029046D01*
X0194036Y0028937D01*
X0194149Y0028826D01*
X0194259Y0028712D01*
X0194366Y0028595D01*
X0194470Y0028476D01*
X0194571Y0028354D01*
X0194668Y0028229D01*
X0194763Y0028102D01*
X0194854Y0027973D01*
X0194943Y0027842D01*
X0195027Y0027708D01*
X0195109Y0027572D01*
X0195187Y0027435D01*
X0195261Y0027295D01*
X0195332Y0027153D01*
X0195400Y0027010D01*
X0195464Y0026865D01*
X0195524Y0026719D01*
X0195580Y0026571D01*
X0195633Y0026422D01*
X0195682Y0026271D01*
X0195727Y0026119D01*
X0195768Y0025966D01*
X0195806Y0025813D01*
X0195839Y0025658D01*
X0195869Y0025502D01*
X0195895Y0025346D01*
X0195916Y0025189D01*
X0195934Y0025032D01*
X0195948Y0024874D01*
X0195958Y0024716D01*
X0195964Y0024558D01*
X0195966Y0024400D01*
X0195964Y0024242D01*
X0195958Y0024084D01*
X0195948Y0023926D01*
X0195934Y0023768D01*
X0195916Y0023611D01*
X0195895Y0023454D01*
X0195869Y0023298D01*
X0195839Y0023142D01*
X0195806Y0022987D01*
X0195768Y0022834D01*
X0195727Y0022681D01*
X0195682Y0022529D01*
X0195633Y0022378D01*
X0195580Y0022229D01*
X0195524Y0022081D01*
X0195464Y0021935D01*
X0195400Y0021790D01*
X0195332Y0021647D01*
X0195261Y0021505D01*
X0195187Y0021365D01*
X0195109Y0021228D01*
X0195027Y0021092D01*
X0194943Y0020958D01*
X0194854Y0020827D01*
X0194763Y0020698D01*
X0194668Y0020571D01*
X0194571Y0020446D01*
X0194470Y0020324D01*
X0194366Y0020205D01*
X0194259Y0020088D01*
X0194149Y0019974D01*
X0194036Y0019863D01*
X0193921Y0019754D01*
X0193803Y0019649D01*
X0193682Y0019547D01*
X0193559Y0019447D01*
X0193433Y0019351D01*
X0193305Y0019258D01*
X0193175Y0019168D01*
X0193042Y0019082D01*
X0192907Y0018998D01*
X0192771Y0018919D01*
X0192632Y0018842D01*
X0192491Y0018770D01*
X0192349Y0018700D01*
X0192205Y0018635D01*
X0192059Y0018573D01*
X0191912Y0018515D01*
X0191763Y0018460D01*
X0191613Y0018409D01*
X0191462Y0018362D01*
X0191310Y0018319D01*
X0191157Y0018280D01*
X0191002Y0018244D01*
X0190847Y0018213D01*
X0190691Y0018185D01*
X0190535Y0018161D01*
X0190378Y0018141D01*
X0190220Y0018125D01*
X0190063Y0018113D01*
X0189904Y0018105D01*
X0189746Y0018101D01*
X0189588Y0018101D01*
X0189430Y0018105D01*
X0189271Y0018113D01*
X0189114Y0018125D01*
X0188956Y0018141D01*
X0188799Y0018161D01*
X0188643Y0018185D01*
X0188487Y0018213D01*
X0188332Y0018244D01*
X0188177Y0018280D01*
X0188024Y0018319D01*
X0187872Y0018362D01*
X0187721Y0018409D01*
X0187571Y0018460D01*
X0187422Y0018515D01*
X0187275Y0018573D01*
X0187129Y0018635D01*
X0186985Y0018700D01*
X0186843Y0018770D01*
X0186702Y0018842D01*
X0186563Y0018919D01*
X0186427Y0018998D01*
X0186292Y0019082D01*
X0186159Y0019168D01*
X0186029Y0019258D01*
X0185901Y0019351D01*
X0185775Y0019447D01*
X0185652Y0019547D01*
X0185531Y0019649D01*
X0185413Y0019754D01*
X0185298Y0019863D01*
X0185185Y0019974D01*
X0185075Y0020088D01*
X0184968Y0020205D01*
X0184864Y0020324D01*
X0184763Y0020446D01*
X0184666Y0020571D01*
X0184571Y0020698D01*
X0184480Y0020827D01*
X0184391Y0020958D01*
X0184307Y0021092D01*
X0184225Y0021228D01*
X0184147Y0021365D01*
X0184073Y0021505D01*
X0184002Y0021647D01*
X0183934Y0021790D01*
X0183870Y0021935D01*
X0183810Y0022081D01*
X0183754Y0022229D01*
X0183701Y0022378D01*
X0183652Y0022529D01*
X0183607Y0022681D01*
X0183566Y0022834D01*
X0183528Y0022987D01*
X0183495Y0023142D01*
X0183465Y0023298D01*
X0183439Y0023454D01*
X0183418Y0023611D01*
X0183400Y0023768D01*
X0183386Y0023926D01*
X0183376Y0024084D01*
X0183370Y0024242D01*
X0183368Y0024400D01*
X0005868Y0025400D02*
X0005870Y0025558D01*
X0005876Y0025716D01*
X0005886Y0025874D01*
X0005900Y0026032D01*
X0005918Y0026189D01*
X0005939Y0026346D01*
X0005965Y0026502D01*
X0005995Y0026658D01*
X0006028Y0026813D01*
X0006066Y0026966D01*
X0006107Y0027119D01*
X0006152Y0027271D01*
X0006201Y0027422D01*
X0006254Y0027571D01*
X0006310Y0027719D01*
X0006370Y0027865D01*
X0006434Y0028010D01*
X0006502Y0028153D01*
X0006573Y0028295D01*
X0006647Y0028435D01*
X0006725Y0028572D01*
X0006807Y0028708D01*
X0006891Y0028842D01*
X0006980Y0028973D01*
X0007071Y0029102D01*
X0007166Y0029229D01*
X0007263Y0029354D01*
X0007364Y0029476D01*
X0007468Y0029595D01*
X0007575Y0029712D01*
X0007685Y0029826D01*
X0007798Y0029937D01*
X0007913Y0030046D01*
X0008031Y0030151D01*
X0008152Y0030253D01*
X0008275Y0030353D01*
X0008401Y0030449D01*
X0008529Y0030542D01*
X0008659Y0030632D01*
X0008792Y0030718D01*
X0008927Y0030802D01*
X0009063Y0030881D01*
X0009202Y0030958D01*
X0009343Y0031030D01*
X0009485Y0031100D01*
X0009629Y0031165D01*
X0009775Y0031227D01*
X0009922Y0031285D01*
X0010071Y0031340D01*
X0010221Y0031391D01*
X0010372Y0031438D01*
X0010524Y0031481D01*
X0010677Y0031520D01*
X0010832Y0031556D01*
X0010987Y0031587D01*
X0011143Y0031615D01*
X0011299Y0031639D01*
X0011456Y0031659D01*
X0011614Y0031675D01*
X0011771Y0031687D01*
X0011930Y0031695D01*
X0012088Y0031699D01*
X0012246Y0031699D01*
X0012404Y0031695D01*
X0012563Y0031687D01*
X0012720Y0031675D01*
X0012878Y0031659D01*
X0013035Y0031639D01*
X0013191Y0031615D01*
X0013347Y0031587D01*
X0013502Y0031556D01*
X0013657Y0031520D01*
X0013810Y0031481D01*
X0013962Y0031438D01*
X0014113Y0031391D01*
X0014263Y0031340D01*
X0014412Y0031285D01*
X0014559Y0031227D01*
X0014705Y0031165D01*
X0014849Y0031100D01*
X0014991Y0031030D01*
X0015132Y0030958D01*
X0015271Y0030881D01*
X0015407Y0030802D01*
X0015542Y0030718D01*
X0015675Y0030632D01*
X0015805Y0030542D01*
X0015933Y0030449D01*
X0016059Y0030353D01*
X0016182Y0030253D01*
X0016303Y0030151D01*
X0016421Y0030046D01*
X0016536Y0029937D01*
X0016649Y0029826D01*
X0016759Y0029712D01*
X0016866Y0029595D01*
X0016970Y0029476D01*
X0017071Y0029354D01*
X0017168Y0029229D01*
X0017263Y0029102D01*
X0017354Y0028973D01*
X0017443Y0028842D01*
X0017527Y0028708D01*
X0017609Y0028572D01*
X0017687Y0028435D01*
X0017761Y0028295D01*
X0017832Y0028153D01*
X0017900Y0028010D01*
X0017964Y0027865D01*
X0018024Y0027719D01*
X0018080Y0027571D01*
X0018133Y0027422D01*
X0018182Y0027271D01*
X0018227Y0027119D01*
X0018268Y0026966D01*
X0018306Y0026813D01*
X0018339Y0026658D01*
X0018369Y0026502D01*
X0018395Y0026346D01*
X0018416Y0026189D01*
X0018434Y0026032D01*
X0018448Y0025874D01*
X0018458Y0025716D01*
X0018464Y0025558D01*
X0018466Y0025400D01*
X0018464Y0025242D01*
X0018458Y0025084D01*
X0018448Y0024926D01*
X0018434Y0024768D01*
X0018416Y0024611D01*
X0018395Y0024454D01*
X0018369Y0024298D01*
X0018339Y0024142D01*
X0018306Y0023987D01*
X0018268Y0023834D01*
X0018227Y0023681D01*
X0018182Y0023529D01*
X0018133Y0023378D01*
X0018080Y0023229D01*
X0018024Y0023081D01*
X0017964Y0022935D01*
X0017900Y0022790D01*
X0017832Y0022647D01*
X0017761Y0022505D01*
X0017687Y0022365D01*
X0017609Y0022228D01*
X0017527Y0022092D01*
X0017443Y0021958D01*
X0017354Y0021827D01*
X0017263Y0021698D01*
X0017168Y0021571D01*
X0017071Y0021446D01*
X0016970Y0021324D01*
X0016866Y0021205D01*
X0016759Y0021088D01*
X0016649Y0020974D01*
X0016536Y0020863D01*
X0016421Y0020754D01*
X0016303Y0020649D01*
X0016182Y0020547D01*
X0016059Y0020447D01*
X0015933Y0020351D01*
X0015805Y0020258D01*
X0015675Y0020168D01*
X0015542Y0020082D01*
X0015407Y0019998D01*
X0015271Y0019919D01*
X0015132Y0019842D01*
X0014991Y0019770D01*
X0014849Y0019700D01*
X0014705Y0019635D01*
X0014559Y0019573D01*
X0014412Y0019515D01*
X0014263Y0019460D01*
X0014113Y0019409D01*
X0013962Y0019362D01*
X0013810Y0019319D01*
X0013657Y0019280D01*
X0013502Y0019244D01*
X0013347Y0019213D01*
X0013191Y0019185D01*
X0013035Y0019161D01*
X0012878Y0019141D01*
X0012720Y0019125D01*
X0012563Y0019113D01*
X0012404Y0019105D01*
X0012246Y0019101D01*
X0012088Y0019101D01*
X0011930Y0019105D01*
X0011771Y0019113D01*
X0011614Y0019125D01*
X0011456Y0019141D01*
X0011299Y0019161D01*
X0011143Y0019185D01*
X0010987Y0019213D01*
X0010832Y0019244D01*
X0010677Y0019280D01*
X0010524Y0019319D01*
X0010372Y0019362D01*
X0010221Y0019409D01*
X0010071Y0019460D01*
X0009922Y0019515D01*
X0009775Y0019573D01*
X0009629Y0019635D01*
X0009485Y0019700D01*
X0009343Y0019770D01*
X0009202Y0019842D01*
X0009063Y0019919D01*
X0008927Y0019998D01*
X0008792Y0020082D01*
X0008659Y0020168D01*
X0008529Y0020258D01*
X0008401Y0020351D01*
X0008275Y0020447D01*
X0008152Y0020547D01*
X0008031Y0020649D01*
X0007913Y0020754D01*
X0007798Y0020863D01*
X0007685Y0020974D01*
X0007575Y0021088D01*
X0007468Y0021205D01*
X0007364Y0021324D01*
X0007263Y0021446D01*
X0007166Y0021571D01*
X0007071Y0021698D01*
X0006980Y0021827D01*
X0006891Y0021958D01*
X0006807Y0022092D01*
X0006725Y0022228D01*
X0006647Y0022365D01*
X0006573Y0022505D01*
X0006502Y0022647D01*
X0006434Y0022790D01*
X0006370Y0022935D01*
X0006310Y0023081D01*
X0006254Y0023229D01*
X0006201Y0023378D01*
X0006152Y0023529D01*
X0006107Y0023681D01*
X0006066Y0023834D01*
X0006028Y0023987D01*
X0005995Y0024142D01*
X0005965Y0024298D01*
X0005939Y0024454D01*
X0005918Y0024611D01*
X0005900Y0024768D01*
X0005886Y0024926D01*
X0005876Y0025084D01*
X0005870Y0025242D01*
X0005868Y0025400D01*
X0007868Y0183900D02*
X0007870Y0184058D01*
X0007876Y0184216D01*
X0007886Y0184374D01*
X0007900Y0184532D01*
X0007918Y0184689D01*
X0007939Y0184846D01*
X0007965Y0185002D01*
X0007995Y0185158D01*
X0008028Y0185313D01*
X0008066Y0185466D01*
X0008107Y0185619D01*
X0008152Y0185771D01*
X0008201Y0185922D01*
X0008254Y0186071D01*
X0008310Y0186219D01*
X0008370Y0186365D01*
X0008434Y0186510D01*
X0008502Y0186653D01*
X0008573Y0186795D01*
X0008647Y0186935D01*
X0008725Y0187072D01*
X0008807Y0187208D01*
X0008891Y0187342D01*
X0008980Y0187473D01*
X0009071Y0187602D01*
X0009166Y0187729D01*
X0009263Y0187854D01*
X0009364Y0187976D01*
X0009468Y0188095D01*
X0009575Y0188212D01*
X0009685Y0188326D01*
X0009798Y0188437D01*
X0009913Y0188546D01*
X0010031Y0188651D01*
X0010152Y0188753D01*
X0010275Y0188853D01*
X0010401Y0188949D01*
X0010529Y0189042D01*
X0010659Y0189132D01*
X0010792Y0189218D01*
X0010927Y0189302D01*
X0011063Y0189381D01*
X0011202Y0189458D01*
X0011343Y0189530D01*
X0011485Y0189600D01*
X0011629Y0189665D01*
X0011775Y0189727D01*
X0011922Y0189785D01*
X0012071Y0189840D01*
X0012221Y0189891D01*
X0012372Y0189938D01*
X0012524Y0189981D01*
X0012677Y0190020D01*
X0012832Y0190056D01*
X0012987Y0190087D01*
X0013143Y0190115D01*
X0013299Y0190139D01*
X0013456Y0190159D01*
X0013614Y0190175D01*
X0013771Y0190187D01*
X0013930Y0190195D01*
X0014088Y0190199D01*
X0014246Y0190199D01*
X0014404Y0190195D01*
X0014563Y0190187D01*
X0014720Y0190175D01*
X0014878Y0190159D01*
X0015035Y0190139D01*
X0015191Y0190115D01*
X0015347Y0190087D01*
X0015502Y0190056D01*
X0015657Y0190020D01*
X0015810Y0189981D01*
X0015962Y0189938D01*
X0016113Y0189891D01*
X0016263Y0189840D01*
X0016412Y0189785D01*
X0016559Y0189727D01*
X0016705Y0189665D01*
X0016849Y0189600D01*
X0016991Y0189530D01*
X0017132Y0189458D01*
X0017271Y0189381D01*
X0017407Y0189302D01*
X0017542Y0189218D01*
X0017675Y0189132D01*
X0017805Y0189042D01*
X0017933Y0188949D01*
X0018059Y0188853D01*
X0018182Y0188753D01*
X0018303Y0188651D01*
X0018421Y0188546D01*
X0018536Y0188437D01*
X0018649Y0188326D01*
X0018759Y0188212D01*
X0018866Y0188095D01*
X0018970Y0187976D01*
X0019071Y0187854D01*
X0019168Y0187729D01*
X0019263Y0187602D01*
X0019354Y0187473D01*
X0019443Y0187342D01*
X0019527Y0187208D01*
X0019609Y0187072D01*
X0019687Y0186935D01*
X0019761Y0186795D01*
X0019832Y0186653D01*
X0019900Y0186510D01*
X0019964Y0186365D01*
X0020024Y0186219D01*
X0020080Y0186071D01*
X0020133Y0185922D01*
X0020182Y0185771D01*
X0020227Y0185619D01*
X0020268Y0185466D01*
X0020306Y0185313D01*
X0020339Y0185158D01*
X0020369Y0185002D01*
X0020395Y0184846D01*
X0020416Y0184689D01*
X0020434Y0184532D01*
X0020448Y0184374D01*
X0020458Y0184216D01*
X0020464Y0184058D01*
X0020466Y0183900D01*
X0020464Y0183742D01*
X0020458Y0183584D01*
X0020448Y0183426D01*
X0020434Y0183268D01*
X0020416Y0183111D01*
X0020395Y0182954D01*
X0020369Y0182798D01*
X0020339Y0182642D01*
X0020306Y0182487D01*
X0020268Y0182334D01*
X0020227Y0182181D01*
X0020182Y0182029D01*
X0020133Y0181878D01*
X0020080Y0181729D01*
X0020024Y0181581D01*
X0019964Y0181435D01*
X0019900Y0181290D01*
X0019832Y0181147D01*
X0019761Y0181005D01*
X0019687Y0180865D01*
X0019609Y0180728D01*
X0019527Y0180592D01*
X0019443Y0180458D01*
X0019354Y0180327D01*
X0019263Y0180198D01*
X0019168Y0180071D01*
X0019071Y0179946D01*
X0018970Y0179824D01*
X0018866Y0179705D01*
X0018759Y0179588D01*
X0018649Y0179474D01*
X0018536Y0179363D01*
X0018421Y0179254D01*
X0018303Y0179149D01*
X0018182Y0179047D01*
X0018059Y0178947D01*
X0017933Y0178851D01*
X0017805Y0178758D01*
X0017675Y0178668D01*
X0017542Y0178582D01*
X0017407Y0178498D01*
X0017271Y0178419D01*
X0017132Y0178342D01*
X0016991Y0178270D01*
X0016849Y0178200D01*
X0016705Y0178135D01*
X0016559Y0178073D01*
X0016412Y0178015D01*
X0016263Y0177960D01*
X0016113Y0177909D01*
X0015962Y0177862D01*
X0015810Y0177819D01*
X0015657Y0177780D01*
X0015502Y0177744D01*
X0015347Y0177713D01*
X0015191Y0177685D01*
X0015035Y0177661D01*
X0014878Y0177641D01*
X0014720Y0177625D01*
X0014563Y0177613D01*
X0014404Y0177605D01*
X0014246Y0177601D01*
X0014088Y0177601D01*
X0013930Y0177605D01*
X0013771Y0177613D01*
X0013614Y0177625D01*
X0013456Y0177641D01*
X0013299Y0177661D01*
X0013143Y0177685D01*
X0012987Y0177713D01*
X0012832Y0177744D01*
X0012677Y0177780D01*
X0012524Y0177819D01*
X0012372Y0177862D01*
X0012221Y0177909D01*
X0012071Y0177960D01*
X0011922Y0178015D01*
X0011775Y0178073D01*
X0011629Y0178135D01*
X0011485Y0178200D01*
X0011343Y0178270D01*
X0011202Y0178342D01*
X0011063Y0178419D01*
X0010927Y0178498D01*
X0010792Y0178582D01*
X0010659Y0178668D01*
X0010529Y0178758D01*
X0010401Y0178851D01*
X0010275Y0178947D01*
X0010152Y0179047D01*
X0010031Y0179149D01*
X0009913Y0179254D01*
X0009798Y0179363D01*
X0009685Y0179474D01*
X0009575Y0179588D01*
X0009468Y0179705D01*
X0009364Y0179824D01*
X0009263Y0179946D01*
X0009166Y0180071D01*
X0009071Y0180198D01*
X0008980Y0180327D01*
X0008891Y0180458D01*
X0008807Y0180592D01*
X0008725Y0180728D01*
X0008647Y0180865D01*
X0008573Y0181005D01*
X0008502Y0181147D01*
X0008434Y0181290D01*
X0008370Y0181435D01*
X0008310Y0181581D01*
X0008254Y0181729D01*
X0008201Y0181878D01*
X0008152Y0182029D01*
X0008107Y0182181D01*
X0008066Y0182334D01*
X0008028Y0182487D01*
X0007995Y0182642D01*
X0007965Y0182798D01*
X0007939Y0182954D01*
X0007918Y0183111D01*
X0007900Y0183268D01*
X0007886Y0183426D01*
X0007876Y0183584D01*
X0007870Y0183742D01*
X0007868Y0183900D01*
D12*
X0093167Y0201400D03*
X0179167Y0201400D03*
X0179167Y0191900D03*
X0179167Y0181400D03*
X0179167Y0171400D03*
X0179167Y0121400D03*
X0136167Y0114900D03*
D13*
X0136167Y0104900D03*
X0179167Y0101400D03*
X0189167Y0101400D03*
X0189167Y0111400D03*
X0189167Y0121400D03*
X0179167Y0111400D03*
X0169167Y0171400D03*
X0159167Y0171400D03*
X0159167Y0181400D03*
X0169167Y0181400D03*
X0169167Y0191900D03*
X0159167Y0191900D03*
X0159167Y0201400D03*
X0169167Y0201400D03*
X0149167Y0201400D03*
X0139167Y0201400D03*
X0129167Y0201400D03*
X0129167Y0191900D03*
X0139167Y0191900D03*
X0149167Y0191900D03*
X0149167Y0181400D03*
X0139167Y0181400D03*
X0129167Y0181400D03*
X0129167Y0171400D03*
X0139167Y0171400D03*
X0149167Y0171400D03*
X0119167Y0171400D03*
X0109167Y0171400D03*
X0109167Y0181400D03*
X0119167Y0181400D03*
X0119167Y0191900D03*
X0109167Y0191900D03*
X0109167Y0201400D03*
X0119167Y0201400D03*
X0083167Y0201400D03*
X0073167Y0201400D03*
X0063167Y0201400D03*
X0053167Y0201400D03*
X0043167Y0201400D03*
X0033167Y0201400D03*
X0023167Y0201400D03*
D14*
X0024667Y0012400D03*
X0044667Y0012400D03*
X0059167Y0011400D03*
X0069167Y0011400D03*
X0079167Y0011400D03*
X0089167Y0011400D03*
X0099167Y0011400D03*
X0139167Y0011400D03*
X0149167Y0011400D03*
X0159167Y0011400D03*
X0169167Y0011400D03*
X0179167Y0011400D03*
D15*
X0129167Y0011400D03*
X0109167Y0011400D03*
D16*
X0166127Y0137361D03*
X0176167Y0147400D03*
X0186206Y0157439D03*
X0166127Y0157439D03*
X0186206Y0137361D03*
D17*
X0168667Y0104900D03*
X0089167Y0078400D03*
X0082167Y0068400D03*
X0081667Y0062900D03*
X0067167Y0062900D03*
X0067167Y0068400D03*
X0064167Y0053400D03*
X0017667Y0154900D03*
X0017667Y0163900D03*
X0015667Y0171900D03*
X0034667Y0171900D03*
X0034667Y0163900D03*
X0042667Y0187900D03*
X0052667Y0187900D03*
D18*
X0042667Y0187900D01*
X0073167Y0201400D02*
X0089167Y0185400D01*
X0089167Y0078400D01*
X0109167Y0181400D02*
X0114167Y0186400D01*
X0114167Y0196900D01*
X0109667Y0201400D01*
X0119667Y0201400D02*
X0124417Y0196650D01*
X0124417Y0186650D01*
X0119167Y0181400D01*
D19*
X0171667Y0120900D02*
X0178667Y0120900D01*
X0179167Y0121400D01*
X0171667Y0120900D02*
X0168667Y0117900D01*
X0168667Y0104900D01*
X0085167Y0072900D02*
X0085167Y0059900D01*
X0064667Y0059900D01*
X0064667Y0072900D01*
X0085167Y0072900D01*
X0085167Y0072677D02*
X0064667Y0072677D01*
X0064667Y0071079D02*
X0085167Y0071079D01*
X0085167Y0069480D02*
X0064667Y0069480D01*
X0064667Y0067882D02*
X0085167Y0067882D01*
X0085167Y0066283D02*
X0064667Y0066283D01*
X0064667Y0064685D02*
X0085167Y0064685D01*
X0085167Y0063086D02*
X0064667Y0063086D01*
X0064667Y0061488D02*
X0085167Y0061488D01*
X0034667Y0163900D02*
X0017667Y0163900D01*
X0015667Y0171900D02*
X0034667Y0171900D01*
M02*
