G75*
%MOIN*%
%OFA0B0*%
%FSLAX25Y25*%
%IPPOS*%
%LPD*%
%AMOC8*
5,1,8,0,0,1.08239X$1,22.5*
%
%ADD10C,0.00800*%
%ADD11C,0.00000*%
%ADD12C,0.13398*%
%ADD13C,0.04300*%
%ADD14R,0.07300X0.07300*%
%ADD15C,0.07300*%
%ADD16C,0.06800*%
%ADD17R,0.06800X0.06800*%
%ADD18C,0.09855*%
%ADD19C,0.03981*%
D10*
X0002167Y0007057D02*
X0002167Y0021150D01*
X0002167Y0021400D02*
X0002167Y0030400D01*
X0009667Y0037900D01*
X0009667Y0087900D01*
X0002167Y0095400D01*
X0001917Y0095400D01*
X0002167Y0095400D02*
X0002167Y0202650D01*
X0010917Y0211400D01*
X0190667Y0211400D01*
X0199667Y0202400D01*
X0199667Y0095400D01*
X0192167Y0087900D01*
X0192167Y0037900D01*
X0199667Y0030400D01*
X0199667Y0021400D01*
X0189667Y0011400D01*
X0189667Y0003900D01*
X0189665Y0003802D01*
X0189659Y0003704D01*
X0189650Y0003606D01*
X0189636Y0003509D01*
X0189619Y0003412D01*
X0189598Y0003316D01*
X0189573Y0003221D01*
X0189545Y0003127D01*
X0189512Y0003035D01*
X0189477Y0002943D01*
X0189437Y0002853D01*
X0189395Y0002765D01*
X0189348Y0002678D01*
X0189299Y0002594D01*
X0189246Y0002511D01*
X0189190Y0002431D01*
X0189130Y0002352D01*
X0189068Y0002276D01*
X0189003Y0002203D01*
X0188935Y0002132D01*
X0188864Y0002064D01*
X0188791Y0001999D01*
X0188715Y0001937D01*
X0188636Y0001877D01*
X0188556Y0001821D01*
X0188473Y0001768D01*
X0188389Y0001719D01*
X0188302Y0001672D01*
X0188214Y0001630D01*
X0188124Y0001590D01*
X0188032Y0001555D01*
X0187940Y0001522D01*
X0187846Y0001494D01*
X0187751Y0001469D01*
X0187655Y0001448D01*
X0187558Y0001431D01*
X0187461Y0001417D01*
X0187363Y0001408D01*
X0187265Y0001402D01*
X0187167Y0001400D01*
X0007824Y0001400D01*
X0007676Y0001402D01*
X0007528Y0001408D01*
X0007380Y0001417D01*
X0007233Y0001431D01*
X0007086Y0001448D01*
X0006939Y0001470D01*
X0006793Y0001495D01*
X0006648Y0001524D01*
X0006503Y0001556D01*
X0006360Y0001593D01*
X0006217Y0001633D01*
X0006076Y0001677D01*
X0005936Y0001724D01*
X0005797Y0001776D01*
X0005659Y0001831D01*
X0005523Y0001889D01*
X0005389Y0001951D01*
X0005256Y0002017D01*
X0005125Y0002086D01*
X0004996Y0002158D01*
X0004868Y0002234D01*
X0004743Y0002313D01*
X0004620Y0002395D01*
X0004499Y0002480D01*
X0004380Y0002569D01*
X0004264Y0002661D01*
X0004150Y0002755D01*
X0004039Y0002853D01*
X0003930Y0002954D01*
X0003824Y0003057D01*
X0003721Y0003163D01*
X0003620Y0003272D01*
X0003522Y0003383D01*
X0003428Y0003497D01*
X0003336Y0003613D01*
X0003247Y0003732D01*
X0003162Y0003853D01*
X0003080Y0003976D01*
X0003001Y0004101D01*
X0002925Y0004228D01*
X0002853Y0004358D01*
X0002784Y0004489D01*
X0002718Y0004622D01*
X0002656Y0004756D01*
X0002598Y0004892D01*
X0002543Y0005030D01*
X0002491Y0005169D01*
X0002444Y0005309D01*
X0002400Y0005450D01*
X0002360Y0005593D01*
X0002323Y0005736D01*
X0002291Y0005881D01*
X0002262Y0006026D01*
X0002237Y0006172D01*
X0002215Y0006319D01*
X0002198Y0006466D01*
X0002184Y0006613D01*
X0002175Y0006761D01*
X0002169Y0006909D01*
X0002167Y0007057D01*
D11*
X0005868Y0025400D02*
X0005870Y0025558D01*
X0005876Y0025716D01*
X0005886Y0025874D01*
X0005900Y0026032D01*
X0005918Y0026189D01*
X0005939Y0026346D01*
X0005965Y0026502D01*
X0005995Y0026658D01*
X0006028Y0026813D01*
X0006066Y0026966D01*
X0006107Y0027119D01*
X0006152Y0027271D01*
X0006201Y0027422D01*
X0006254Y0027571D01*
X0006310Y0027719D01*
X0006370Y0027865D01*
X0006434Y0028010D01*
X0006502Y0028153D01*
X0006573Y0028295D01*
X0006647Y0028435D01*
X0006725Y0028572D01*
X0006807Y0028708D01*
X0006891Y0028842D01*
X0006980Y0028973D01*
X0007071Y0029102D01*
X0007166Y0029229D01*
X0007263Y0029354D01*
X0007364Y0029476D01*
X0007468Y0029595D01*
X0007575Y0029712D01*
X0007685Y0029826D01*
X0007798Y0029937D01*
X0007913Y0030046D01*
X0008031Y0030151D01*
X0008152Y0030253D01*
X0008275Y0030353D01*
X0008401Y0030449D01*
X0008529Y0030542D01*
X0008659Y0030632D01*
X0008792Y0030718D01*
X0008927Y0030802D01*
X0009063Y0030881D01*
X0009202Y0030958D01*
X0009343Y0031030D01*
X0009485Y0031100D01*
X0009629Y0031165D01*
X0009775Y0031227D01*
X0009922Y0031285D01*
X0010071Y0031340D01*
X0010221Y0031391D01*
X0010372Y0031438D01*
X0010524Y0031481D01*
X0010677Y0031520D01*
X0010832Y0031556D01*
X0010987Y0031587D01*
X0011143Y0031615D01*
X0011299Y0031639D01*
X0011456Y0031659D01*
X0011614Y0031675D01*
X0011771Y0031687D01*
X0011930Y0031695D01*
X0012088Y0031699D01*
X0012246Y0031699D01*
X0012404Y0031695D01*
X0012563Y0031687D01*
X0012720Y0031675D01*
X0012878Y0031659D01*
X0013035Y0031639D01*
X0013191Y0031615D01*
X0013347Y0031587D01*
X0013502Y0031556D01*
X0013657Y0031520D01*
X0013810Y0031481D01*
X0013962Y0031438D01*
X0014113Y0031391D01*
X0014263Y0031340D01*
X0014412Y0031285D01*
X0014559Y0031227D01*
X0014705Y0031165D01*
X0014849Y0031100D01*
X0014991Y0031030D01*
X0015132Y0030958D01*
X0015271Y0030881D01*
X0015407Y0030802D01*
X0015542Y0030718D01*
X0015675Y0030632D01*
X0015805Y0030542D01*
X0015933Y0030449D01*
X0016059Y0030353D01*
X0016182Y0030253D01*
X0016303Y0030151D01*
X0016421Y0030046D01*
X0016536Y0029937D01*
X0016649Y0029826D01*
X0016759Y0029712D01*
X0016866Y0029595D01*
X0016970Y0029476D01*
X0017071Y0029354D01*
X0017168Y0029229D01*
X0017263Y0029102D01*
X0017354Y0028973D01*
X0017443Y0028842D01*
X0017527Y0028708D01*
X0017609Y0028572D01*
X0017687Y0028435D01*
X0017761Y0028295D01*
X0017832Y0028153D01*
X0017900Y0028010D01*
X0017964Y0027865D01*
X0018024Y0027719D01*
X0018080Y0027571D01*
X0018133Y0027422D01*
X0018182Y0027271D01*
X0018227Y0027119D01*
X0018268Y0026966D01*
X0018306Y0026813D01*
X0018339Y0026658D01*
X0018369Y0026502D01*
X0018395Y0026346D01*
X0018416Y0026189D01*
X0018434Y0026032D01*
X0018448Y0025874D01*
X0018458Y0025716D01*
X0018464Y0025558D01*
X0018466Y0025400D01*
X0018464Y0025242D01*
X0018458Y0025084D01*
X0018448Y0024926D01*
X0018434Y0024768D01*
X0018416Y0024611D01*
X0018395Y0024454D01*
X0018369Y0024298D01*
X0018339Y0024142D01*
X0018306Y0023987D01*
X0018268Y0023834D01*
X0018227Y0023681D01*
X0018182Y0023529D01*
X0018133Y0023378D01*
X0018080Y0023229D01*
X0018024Y0023081D01*
X0017964Y0022935D01*
X0017900Y0022790D01*
X0017832Y0022647D01*
X0017761Y0022505D01*
X0017687Y0022365D01*
X0017609Y0022228D01*
X0017527Y0022092D01*
X0017443Y0021958D01*
X0017354Y0021827D01*
X0017263Y0021698D01*
X0017168Y0021571D01*
X0017071Y0021446D01*
X0016970Y0021324D01*
X0016866Y0021205D01*
X0016759Y0021088D01*
X0016649Y0020974D01*
X0016536Y0020863D01*
X0016421Y0020754D01*
X0016303Y0020649D01*
X0016182Y0020547D01*
X0016059Y0020447D01*
X0015933Y0020351D01*
X0015805Y0020258D01*
X0015675Y0020168D01*
X0015542Y0020082D01*
X0015407Y0019998D01*
X0015271Y0019919D01*
X0015132Y0019842D01*
X0014991Y0019770D01*
X0014849Y0019700D01*
X0014705Y0019635D01*
X0014559Y0019573D01*
X0014412Y0019515D01*
X0014263Y0019460D01*
X0014113Y0019409D01*
X0013962Y0019362D01*
X0013810Y0019319D01*
X0013657Y0019280D01*
X0013502Y0019244D01*
X0013347Y0019213D01*
X0013191Y0019185D01*
X0013035Y0019161D01*
X0012878Y0019141D01*
X0012720Y0019125D01*
X0012563Y0019113D01*
X0012404Y0019105D01*
X0012246Y0019101D01*
X0012088Y0019101D01*
X0011930Y0019105D01*
X0011771Y0019113D01*
X0011614Y0019125D01*
X0011456Y0019141D01*
X0011299Y0019161D01*
X0011143Y0019185D01*
X0010987Y0019213D01*
X0010832Y0019244D01*
X0010677Y0019280D01*
X0010524Y0019319D01*
X0010372Y0019362D01*
X0010221Y0019409D01*
X0010071Y0019460D01*
X0009922Y0019515D01*
X0009775Y0019573D01*
X0009629Y0019635D01*
X0009485Y0019700D01*
X0009343Y0019770D01*
X0009202Y0019842D01*
X0009063Y0019919D01*
X0008927Y0019998D01*
X0008792Y0020082D01*
X0008659Y0020168D01*
X0008529Y0020258D01*
X0008401Y0020351D01*
X0008275Y0020447D01*
X0008152Y0020547D01*
X0008031Y0020649D01*
X0007913Y0020754D01*
X0007798Y0020863D01*
X0007685Y0020974D01*
X0007575Y0021088D01*
X0007468Y0021205D01*
X0007364Y0021324D01*
X0007263Y0021446D01*
X0007166Y0021571D01*
X0007071Y0021698D01*
X0006980Y0021827D01*
X0006891Y0021958D01*
X0006807Y0022092D01*
X0006725Y0022228D01*
X0006647Y0022365D01*
X0006573Y0022505D01*
X0006502Y0022647D01*
X0006434Y0022790D01*
X0006370Y0022935D01*
X0006310Y0023081D01*
X0006254Y0023229D01*
X0006201Y0023378D01*
X0006152Y0023529D01*
X0006107Y0023681D01*
X0006066Y0023834D01*
X0006028Y0023987D01*
X0005995Y0024142D01*
X0005965Y0024298D01*
X0005939Y0024454D01*
X0005918Y0024611D01*
X0005900Y0024768D01*
X0005886Y0024926D01*
X0005876Y0025084D01*
X0005870Y0025242D01*
X0005868Y0025400D01*
X0168830Y0043664D02*
X0168832Y0043747D01*
X0168838Y0043830D01*
X0168848Y0043913D01*
X0168862Y0043995D01*
X0168879Y0044077D01*
X0168901Y0044157D01*
X0168926Y0044236D01*
X0168955Y0044314D01*
X0168988Y0044391D01*
X0169025Y0044466D01*
X0169064Y0044539D01*
X0169108Y0044610D01*
X0169154Y0044679D01*
X0169204Y0044746D01*
X0169257Y0044810D01*
X0169313Y0044872D01*
X0169372Y0044931D01*
X0169434Y0044987D01*
X0169498Y0045040D01*
X0169565Y0045090D01*
X0169634Y0045136D01*
X0169705Y0045180D01*
X0169778Y0045219D01*
X0169853Y0045256D01*
X0169930Y0045289D01*
X0170008Y0045318D01*
X0170087Y0045343D01*
X0170167Y0045365D01*
X0170249Y0045382D01*
X0170331Y0045396D01*
X0170414Y0045406D01*
X0170497Y0045412D01*
X0170580Y0045414D01*
X0170663Y0045412D01*
X0170746Y0045406D01*
X0170829Y0045396D01*
X0170911Y0045382D01*
X0170993Y0045365D01*
X0171073Y0045343D01*
X0171152Y0045318D01*
X0171230Y0045289D01*
X0171307Y0045256D01*
X0171382Y0045219D01*
X0171455Y0045180D01*
X0171526Y0045136D01*
X0171595Y0045090D01*
X0171662Y0045040D01*
X0171726Y0044987D01*
X0171788Y0044931D01*
X0171847Y0044872D01*
X0171903Y0044810D01*
X0171956Y0044746D01*
X0172006Y0044679D01*
X0172052Y0044610D01*
X0172096Y0044539D01*
X0172135Y0044466D01*
X0172172Y0044391D01*
X0172205Y0044314D01*
X0172234Y0044236D01*
X0172259Y0044157D01*
X0172281Y0044077D01*
X0172298Y0043995D01*
X0172312Y0043913D01*
X0172322Y0043830D01*
X0172328Y0043747D01*
X0172330Y0043664D01*
X0172328Y0043581D01*
X0172322Y0043498D01*
X0172312Y0043415D01*
X0172298Y0043333D01*
X0172281Y0043251D01*
X0172259Y0043171D01*
X0172234Y0043092D01*
X0172205Y0043014D01*
X0172172Y0042937D01*
X0172135Y0042862D01*
X0172096Y0042789D01*
X0172052Y0042718D01*
X0172006Y0042649D01*
X0171956Y0042582D01*
X0171903Y0042518D01*
X0171847Y0042456D01*
X0171788Y0042397D01*
X0171726Y0042341D01*
X0171662Y0042288D01*
X0171595Y0042238D01*
X0171526Y0042192D01*
X0171455Y0042148D01*
X0171382Y0042109D01*
X0171307Y0042072D01*
X0171230Y0042039D01*
X0171152Y0042010D01*
X0171073Y0041985D01*
X0170993Y0041963D01*
X0170911Y0041946D01*
X0170829Y0041932D01*
X0170746Y0041922D01*
X0170663Y0041916D01*
X0170580Y0041914D01*
X0170497Y0041916D01*
X0170414Y0041922D01*
X0170331Y0041932D01*
X0170249Y0041946D01*
X0170167Y0041963D01*
X0170087Y0041985D01*
X0170008Y0042010D01*
X0169930Y0042039D01*
X0169853Y0042072D01*
X0169778Y0042109D01*
X0169705Y0042148D01*
X0169634Y0042192D01*
X0169565Y0042238D01*
X0169498Y0042288D01*
X0169434Y0042341D01*
X0169372Y0042397D01*
X0169313Y0042456D01*
X0169257Y0042518D01*
X0169204Y0042582D01*
X0169154Y0042649D01*
X0169108Y0042718D01*
X0169064Y0042789D01*
X0169025Y0042862D01*
X0168988Y0042937D01*
X0168955Y0043014D01*
X0168926Y0043092D01*
X0168901Y0043171D01*
X0168879Y0043251D01*
X0168862Y0043333D01*
X0168848Y0043415D01*
X0168838Y0043498D01*
X0168832Y0043581D01*
X0168830Y0043664D01*
X0183368Y0024400D02*
X0183370Y0024558D01*
X0183376Y0024716D01*
X0183386Y0024874D01*
X0183400Y0025032D01*
X0183418Y0025189D01*
X0183439Y0025346D01*
X0183465Y0025502D01*
X0183495Y0025658D01*
X0183528Y0025813D01*
X0183566Y0025966D01*
X0183607Y0026119D01*
X0183652Y0026271D01*
X0183701Y0026422D01*
X0183754Y0026571D01*
X0183810Y0026719D01*
X0183870Y0026865D01*
X0183934Y0027010D01*
X0184002Y0027153D01*
X0184073Y0027295D01*
X0184147Y0027435D01*
X0184225Y0027572D01*
X0184307Y0027708D01*
X0184391Y0027842D01*
X0184480Y0027973D01*
X0184571Y0028102D01*
X0184666Y0028229D01*
X0184763Y0028354D01*
X0184864Y0028476D01*
X0184968Y0028595D01*
X0185075Y0028712D01*
X0185185Y0028826D01*
X0185298Y0028937D01*
X0185413Y0029046D01*
X0185531Y0029151D01*
X0185652Y0029253D01*
X0185775Y0029353D01*
X0185901Y0029449D01*
X0186029Y0029542D01*
X0186159Y0029632D01*
X0186292Y0029718D01*
X0186427Y0029802D01*
X0186563Y0029881D01*
X0186702Y0029958D01*
X0186843Y0030030D01*
X0186985Y0030100D01*
X0187129Y0030165D01*
X0187275Y0030227D01*
X0187422Y0030285D01*
X0187571Y0030340D01*
X0187721Y0030391D01*
X0187872Y0030438D01*
X0188024Y0030481D01*
X0188177Y0030520D01*
X0188332Y0030556D01*
X0188487Y0030587D01*
X0188643Y0030615D01*
X0188799Y0030639D01*
X0188956Y0030659D01*
X0189114Y0030675D01*
X0189271Y0030687D01*
X0189430Y0030695D01*
X0189588Y0030699D01*
X0189746Y0030699D01*
X0189904Y0030695D01*
X0190063Y0030687D01*
X0190220Y0030675D01*
X0190378Y0030659D01*
X0190535Y0030639D01*
X0190691Y0030615D01*
X0190847Y0030587D01*
X0191002Y0030556D01*
X0191157Y0030520D01*
X0191310Y0030481D01*
X0191462Y0030438D01*
X0191613Y0030391D01*
X0191763Y0030340D01*
X0191912Y0030285D01*
X0192059Y0030227D01*
X0192205Y0030165D01*
X0192349Y0030100D01*
X0192491Y0030030D01*
X0192632Y0029958D01*
X0192771Y0029881D01*
X0192907Y0029802D01*
X0193042Y0029718D01*
X0193175Y0029632D01*
X0193305Y0029542D01*
X0193433Y0029449D01*
X0193559Y0029353D01*
X0193682Y0029253D01*
X0193803Y0029151D01*
X0193921Y0029046D01*
X0194036Y0028937D01*
X0194149Y0028826D01*
X0194259Y0028712D01*
X0194366Y0028595D01*
X0194470Y0028476D01*
X0194571Y0028354D01*
X0194668Y0028229D01*
X0194763Y0028102D01*
X0194854Y0027973D01*
X0194943Y0027842D01*
X0195027Y0027708D01*
X0195109Y0027572D01*
X0195187Y0027435D01*
X0195261Y0027295D01*
X0195332Y0027153D01*
X0195400Y0027010D01*
X0195464Y0026865D01*
X0195524Y0026719D01*
X0195580Y0026571D01*
X0195633Y0026422D01*
X0195682Y0026271D01*
X0195727Y0026119D01*
X0195768Y0025966D01*
X0195806Y0025813D01*
X0195839Y0025658D01*
X0195869Y0025502D01*
X0195895Y0025346D01*
X0195916Y0025189D01*
X0195934Y0025032D01*
X0195948Y0024874D01*
X0195958Y0024716D01*
X0195964Y0024558D01*
X0195966Y0024400D01*
X0195964Y0024242D01*
X0195958Y0024084D01*
X0195948Y0023926D01*
X0195934Y0023768D01*
X0195916Y0023611D01*
X0195895Y0023454D01*
X0195869Y0023298D01*
X0195839Y0023142D01*
X0195806Y0022987D01*
X0195768Y0022834D01*
X0195727Y0022681D01*
X0195682Y0022529D01*
X0195633Y0022378D01*
X0195580Y0022229D01*
X0195524Y0022081D01*
X0195464Y0021935D01*
X0195400Y0021790D01*
X0195332Y0021647D01*
X0195261Y0021505D01*
X0195187Y0021365D01*
X0195109Y0021228D01*
X0195027Y0021092D01*
X0194943Y0020958D01*
X0194854Y0020827D01*
X0194763Y0020698D01*
X0194668Y0020571D01*
X0194571Y0020446D01*
X0194470Y0020324D01*
X0194366Y0020205D01*
X0194259Y0020088D01*
X0194149Y0019974D01*
X0194036Y0019863D01*
X0193921Y0019754D01*
X0193803Y0019649D01*
X0193682Y0019547D01*
X0193559Y0019447D01*
X0193433Y0019351D01*
X0193305Y0019258D01*
X0193175Y0019168D01*
X0193042Y0019082D01*
X0192907Y0018998D01*
X0192771Y0018919D01*
X0192632Y0018842D01*
X0192491Y0018770D01*
X0192349Y0018700D01*
X0192205Y0018635D01*
X0192059Y0018573D01*
X0191912Y0018515D01*
X0191763Y0018460D01*
X0191613Y0018409D01*
X0191462Y0018362D01*
X0191310Y0018319D01*
X0191157Y0018280D01*
X0191002Y0018244D01*
X0190847Y0018213D01*
X0190691Y0018185D01*
X0190535Y0018161D01*
X0190378Y0018141D01*
X0190220Y0018125D01*
X0190063Y0018113D01*
X0189904Y0018105D01*
X0189746Y0018101D01*
X0189588Y0018101D01*
X0189430Y0018105D01*
X0189271Y0018113D01*
X0189114Y0018125D01*
X0188956Y0018141D01*
X0188799Y0018161D01*
X0188643Y0018185D01*
X0188487Y0018213D01*
X0188332Y0018244D01*
X0188177Y0018280D01*
X0188024Y0018319D01*
X0187872Y0018362D01*
X0187721Y0018409D01*
X0187571Y0018460D01*
X0187422Y0018515D01*
X0187275Y0018573D01*
X0187129Y0018635D01*
X0186985Y0018700D01*
X0186843Y0018770D01*
X0186702Y0018842D01*
X0186563Y0018919D01*
X0186427Y0018998D01*
X0186292Y0019082D01*
X0186159Y0019168D01*
X0186029Y0019258D01*
X0185901Y0019351D01*
X0185775Y0019447D01*
X0185652Y0019547D01*
X0185531Y0019649D01*
X0185413Y0019754D01*
X0185298Y0019863D01*
X0185185Y0019974D01*
X0185075Y0020088D01*
X0184968Y0020205D01*
X0184864Y0020324D01*
X0184763Y0020446D01*
X0184666Y0020571D01*
X0184571Y0020698D01*
X0184480Y0020827D01*
X0184391Y0020958D01*
X0184307Y0021092D01*
X0184225Y0021228D01*
X0184147Y0021365D01*
X0184073Y0021505D01*
X0184002Y0021647D01*
X0183934Y0021790D01*
X0183870Y0021935D01*
X0183810Y0022081D01*
X0183754Y0022229D01*
X0183701Y0022378D01*
X0183652Y0022529D01*
X0183607Y0022681D01*
X0183566Y0022834D01*
X0183528Y0022987D01*
X0183495Y0023142D01*
X0183465Y0023298D01*
X0183439Y0023454D01*
X0183418Y0023611D01*
X0183400Y0023768D01*
X0183386Y0023926D01*
X0183376Y0024084D01*
X0183370Y0024242D01*
X0183368Y0024400D01*
X0168830Y0075160D02*
X0168832Y0075243D01*
X0168838Y0075326D01*
X0168848Y0075409D01*
X0168862Y0075491D01*
X0168879Y0075573D01*
X0168901Y0075653D01*
X0168926Y0075732D01*
X0168955Y0075810D01*
X0168988Y0075887D01*
X0169025Y0075962D01*
X0169064Y0076035D01*
X0169108Y0076106D01*
X0169154Y0076175D01*
X0169204Y0076242D01*
X0169257Y0076306D01*
X0169313Y0076368D01*
X0169372Y0076427D01*
X0169434Y0076483D01*
X0169498Y0076536D01*
X0169565Y0076586D01*
X0169634Y0076632D01*
X0169705Y0076676D01*
X0169778Y0076715D01*
X0169853Y0076752D01*
X0169930Y0076785D01*
X0170008Y0076814D01*
X0170087Y0076839D01*
X0170167Y0076861D01*
X0170249Y0076878D01*
X0170331Y0076892D01*
X0170414Y0076902D01*
X0170497Y0076908D01*
X0170580Y0076910D01*
X0170663Y0076908D01*
X0170746Y0076902D01*
X0170829Y0076892D01*
X0170911Y0076878D01*
X0170993Y0076861D01*
X0171073Y0076839D01*
X0171152Y0076814D01*
X0171230Y0076785D01*
X0171307Y0076752D01*
X0171382Y0076715D01*
X0171455Y0076676D01*
X0171526Y0076632D01*
X0171595Y0076586D01*
X0171662Y0076536D01*
X0171726Y0076483D01*
X0171788Y0076427D01*
X0171847Y0076368D01*
X0171903Y0076306D01*
X0171956Y0076242D01*
X0172006Y0076175D01*
X0172052Y0076106D01*
X0172096Y0076035D01*
X0172135Y0075962D01*
X0172172Y0075887D01*
X0172205Y0075810D01*
X0172234Y0075732D01*
X0172259Y0075653D01*
X0172281Y0075573D01*
X0172298Y0075491D01*
X0172312Y0075409D01*
X0172322Y0075326D01*
X0172328Y0075243D01*
X0172330Y0075160D01*
X0172328Y0075077D01*
X0172322Y0074994D01*
X0172312Y0074911D01*
X0172298Y0074829D01*
X0172281Y0074747D01*
X0172259Y0074667D01*
X0172234Y0074588D01*
X0172205Y0074510D01*
X0172172Y0074433D01*
X0172135Y0074358D01*
X0172096Y0074285D01*
X0172052Y0074214D01*
X0172006Y0074145D01*
X0171956Y0074078D01*
X0171903Y0074014D01*
X0171847Y0073952D01*
X0171788Y0073893D01*
X0171726Y0073837D01*
X0171662Y0073784D01*
X0171595Y0073734D01*
X0171526Y0073688D01*
X0171455Y0073644D01*
X0171382Y0073605D01*
X0171307Y0073568D01*
X0171230Y0073535D01*
X0171152Y0073506D01*
X0171073Y0073481D01*
X0170993Y0073459D01*
X0170911Y0073442D01*
X0170829Y0073428D01*
X0170746Y0073418D01*
X0170663Y0073412D01*
X0170580Y0073410D01*
X0170497Y0073412D01*
X0170414Y0073418D01*
X0170331Y0073428D01*
X0170249Y0073442D01*
X0170167Y0073459D01*
X0170087Y0073481D01*
X0170008Y0073506D01*
X0169930Y0073535D01*
X0169853Y0073568D01*
X0169778Y0073605D01*
X0169705Y0073644D01*
X0169634Y0073688D01*
X0169565Y0073734D01*
X0169498Y0073784D01*
X0169434Y0073837D01*
X0169372Y0073893D01*
X0169313Y0073952D01*
X0169257Y0074014D01*
X0169204Y0074078D01*
X0169154Y0074145D01*
X0169108Y0074214D01*
X0169064Y0074285D01*
X0169025Y0074358D01*
X0168988Y0074433D01*
X0168955Y0074510D01*
X0168926Y0074588D01*
X0168901Y0074667D01*
X0168879Y0074747D01*
X0168862Y0074829D01*
X0168848Y0074911D01*
X0168838Y0074994D01*
X0168832Y0075077D01*
X0168830Y0075160D01*
X0007868Y0183900D02*
X0007870Y0184058D01*
X0007876Y0184216D01*
X0007886Y0184374D01*
X0007900Y0184532D01*
X0007918Y0184689D01*
X0007939Y0184846D01*
X0007965Y0185002D01*
X0007995Y0185158D01*
X0008028Y0185313D01*
X0008066Y0185466D01*
X0008107Y0185619D01*
X0008152Y0185771D01*
X0008201Y0185922D01*
X0008254Y0186071D01*
X0008310Y0186219D01*
X0008370Y0186365D01*
X0008434Y0186510D01*
X0008502Y0186653D01*
X0008573Y0186795D01*
X0008647Y0186935D01*
X0008725Y0187072D01*
X0008807Y0187208D01*
X0008891Y0187342D01*
X0008980Y0187473D01*
X0009071Y0187602D01*
X0009166Y0187729D01*
X0009263Y0187854D01*
X0009364Y0187976D01*
X0009468Y0188095D01*
X0009575Y0188212D01*
X0009685Y0188326D01*
X0009798Y0188437D01*
X0009913Y0188546D01*
X0010031Y0188651D01*
X0010152Y0188753D01*
X0010275Y0188853D01*
X0010401Y0188949D01*
X0010529Y0189042D01*
X0010659Y0189132D01*
X0010792Y0189218D01*
X0010927Y0189302D01*
X0011063Y0189381D01*
X0011202Y0189458D01*
X0011343Y0189530D01*
X0011485Y0189600D01*
X0011629Y0189665D01*
X0011775Y0189727D01*
X0011922Y0189785D01*
X0012071Y0189840D01*
X0012221Y0189891D01*
X0012372Y0189938D01*
X0012524Y0189981D01*
X0012677Y0190020D01*
X0012832Y0190056D01*
X0012987Y0190087D01*
X0013143Y0190115D01*
X0013299Y0190139D01*
X0013456Y0190159D01*
X0013614Y0190175D01*
X0013771Y0190187D01*
X0013930Y0190195D01*
X0014088Y0190199D01*
X0014246Y0190199D01*
X0014404Y0190195D01*
X0014563Y0190187D01*
X0014720Y0190175D01*
X0014878Y0190159D01*
X0015035Y0190139D01*
X0015191Y0190115D01*
X0015347Y0190087D01*
X0015502Y0190056D01*
X0015657Y0190020D01*
X0015810Y0189981D01*
X0015962Y0189938D01*
X0016113Y0189891D01*
X0016263Y0189840D01*
X0016412Y0189785D01*
X0016559Y0189727D01*
X0016705Y0189665D01*
X0016849Y0189600D01*
X0016991Y0189530D01*
X0017132Y0189458D01*
X0017271Y0189381D01*
X0017407Y0189302D01*
X0017542Y0189218D01*
X0017675Y0189132D01*
X0017805Y0189042D01*
X0017933Y0188949D01*
X0018059Y0188853D01*
X0018182Y0188753D01*
X0018303Y0188651D01*
X0018421Y0188546D01*
X0018536Y0188437D01*
X0018649Y0188326D01*
X0018759Y0188212D01*
X0018866Y0188095D01*
X0018970Y0187976D01*
X0019071Y0187854D01*
X0019168Y0187729D01*
X0019263Y0187602D01*
X0019354Y0187473D01*
X0019443Y0187342D01*
X0019527Y0187208D01*
X0019609Y0187072D01*
X0019687Y0186935D01*
X0019761Y0186795D01*
X0019832Y0186653D01*
X0019900Y0186510D01*
X0019964Y0186365D01*
X0020024Y0186219D01*
X0020080Y0186071D01*
X0020133Y0185922D01*
X0020182Y0185771D01*
X0020227Y0185619D01*
X0020268Y0185466D01*
X0020306Y0185313D01*
X0020339Y0185158D01*
X0020369Y0185002D01*
X0020395Y0184846D01*
X0020416Y0184689D01*
X0020434Y0184532D01*
X0020448Y0184374D01*
X0020458Y0184216D01*
X0020464Y0184058D01*
X0020466Y0183900D01*
X0020464Y0183742D01*
X0020458Y0183584D01*
X0020448Y0183426D01*
X0020434Y0183268D01*
X0020416Y0183111D01*
X0020395Y0182954D01*
X0020369Y0182798D01*
X0020339Y0182642D01*
X0020306Y0182487D01*
X0020268Y0182334D01*
X0020227Y0182181D01*
X0020182Y0182029D01*
X0020133Y0181878D01*
X0020080Y0181729D01*
X0020024Y0181581D01*
X0019964Y0181435D01*
X0019900Y0181290D01*
X0019832Y0181147D01*
X0019761Y0181005D01*
X0019687Y0180865D01*
X0019609Y0180728D01*
X0019527Y0180592D01*
X0019443Y0180458D01*
X0019354Y0180327D01*
X0019263Y0180198D01*
X0019168Y0180071D01*
X0019071Y0179946D01*
X0018970Y0179824D01*
X0018866Y0179705D01*
X0018759Y0179588D01*
X0018649Y0179474D01*
X0018536Y0179363D01*
X0018421Y0179254D01*
X0018303Y0179149D01*
X0018182Y0179047D01*
X0018059Y0178947D01*
X0017933Y0178851D01*
X0017805Y0178758D01*
X0017675Y0178668D01*
X0017542Y0178582D01*
X0017407Y0178498D01*
X0017271Y0178419D01*
X0017132Y0178342D01*
X0016991Y0178270D01*
X0016849Y0178200D01*
X0016705Y0178135D01*
X0016559Y0178073D01*
X0016412Y0178015D01*
X0016263Y0177960D01*
X0016113Y0177909D01*
X0015962Y0177862D01*
X0015810Y0177819D01*
X0015657Y0177780D01*
X0015502Y0177744D01*
X0015347Y0177713D01*
X0015191Y0177685D01*
X0015035Y0177661D01*
X0014878Y0177641D01*
X0014720Y0177625D01*
X0014563Y0177613D01*
X0014404Y0177605D01*
X0014246Y0177601D01*
X0014088Y0177601D01*
X0013930Y0177605D01*
X0013771Y0177613D01*
X0013614Y0177625D01*
X0013456Y0177641D01*
X0013299Y0177661D01*
X0013143Y0177685D01*
X0012987Y0177713D01*
X0012832Y0177744D01*
X0012677Y0177780D01*
X0012524Y0177819D01*
X0012372Y0177862D01*
X0012221Y0177909D01*
X0012071Y0177960D01*
X0011922Y0178015D01*
X0011775Y0178073D01*
X0011629Y0178135D01*
X0011485Y0178200D01*
X0011343Y0178270D01*
X0011202Y0178342D01*
X0011063Y0178419D01*
X0010927Y0178498D01*
X0010792Y0178582D01*
X0010659Y0178668D01*
X0010529Y0178758D01*
X0010401Y0178851D01*
X0010275Y0178947D01*
X0010152Y0179047D01*
X0010031Y0179149D01*
X0009913Y0179254D01*
X0009798Y0179363D01*
X0009685Y0179474D01*
X0009575Y0179588D01*
X0009468Y0179705D01*
X0009364Y0179824D01*
X0009263Y0179946D01*
X0009166Y0180071D01*
X0009071Y0180198D01*
X0008980Y0180327D01*
X0008891Y0180458D01*
X0008807Y0180592D01*
X0008725Y0180728D01*
X0008647Y0180865D01*
X0008573Y0181005D01*
X0008502Y0181147D01*
X0008434Y0181290D01*
X0008370Y0181435D01*
X0008310Y0181581D01*
X0008254Y0181729D01*
X0008201Y0181878D01*
X0008152Y0182029D01*
X0008107Y0182181D01*
X0008066Y0182334D01*
X0008028Y0182487D01*
X0007995Y0182642D01*
X0007965Y0182798D01*
X0007939Y0182954D01*
X0007918Y0183111D01*
X0007900Y0183268D01*
X0007886Y0183426D01*
X0007876Y0183584D01*
X0007870Y0183742D01*
X0007868Y0183900D01*
D12*
X0014167Y0183900D03*
X0012167Y0025400D03*
X0189667Y0024400D03*
D13*
X0170580Y0043664D03*
X0170580Y0075160D03*
D14*
X0136167Y0114900D03*
X0179167Y0121400D03*
X0179167Y0171400D03*
X0179167Y0181400D03*
X0179167Y0191900D03*
X0179167Y0201400D03*
X0093167Y0201400D03*
D15*
X0083167Y0201400D03*
X0073167Y0201400D03*
X0063167Y0201400D03*
X0053167Y0201400D03*
X0043167Y0201400D03*
X0033167Y0201400D03*
X0023167Y0201400D03*
X0109167Y0201400D03*
X0119167Y0201400D03*
X0119167Y0191900D03*
X0109167Y0191900D03*
X0109167Y0181400D03*
X0119167Y0181400D03*
X0129167Y0181400D03*
X0139167Y0181400D03*
X0149167Y0181400D03*
X0149167Y0191900D03*
X0139167Y0191900D03*
X0129167Y0191900D03*
X0129167Y0201400D03*
X0139167Y0201400D03*
X0149167Y0201400D03*
X0159167Y0201400D03*
X0169167Y0201400D03*
X0169167Y0191900D03*
X0159167Y0191900D03*
X0159167Y0181400D03*
X0169167Y0181400D03*
X0169167Y0171400D03*
X0159167Y0171400D03*
X0149167Y0171400D03*
X0139167Y0171400D03*
X0129167Y0171400D03*
X0119167Y0171400D03*
X0109167Y0171400D03*
X0179167Y0111400D03*
X0189167Y0111400D03*
X0189167Y0121400D03*
X0189167Y0101400D03*
X0179167Y0101400D03*
X0136167Y0104900D03*
D16*
X0139167Y0011400D03*
X0149167Y0011400D03*
X0159167Y0011400D03*
X0169167Y0011400D03*
X0179167Y0011400D03*
X0099167Y0011400D03*
X0089167Y0011400D03*
X0079167Y0011400D03*
X0069167Y0011400D03*
X0059167Y0011400D03*
X0044667Y0012400D03*
X0024667Y0012400D03*
D17*
X0109167Y0011400D03*
X0129167Y0011400D03*
D18*
X0166127Y0137361D03*
X0176167Y0147400D03*
X0186206Y0157439D03*
X0166127Y0157439D03*
X0186206Y0137361D03*
D19*
X0168667Y0104900D03*
X0089167Y0078400D03*
X0082167Y0068400D03*
X0081667Y0062900D03*
X0067167Y0062900D03*
X0067167Y0068400D03*
X0064167Y0053400D03*
X0017667Y0154900D03*
X0017667Y0163900D03*
X0015667Y0171900D03*
X0034667Y0171900D03*
X0034667Y0163900D03*
X0042667Y0187900D03*
X0052667Y0187900D03*
M02*
