%
M48
M72
T01C0.01181
T02C0.03000
T03C0.03500
T04C0.05512
T05C0.12598
%
T01
X64167Y53400
X52667Y187900
X42667Y187900
X34667Y171900
X15667Y171900
X67167Y62900
X81667Y62900
X82167Y68400
X67167Y68400
X17667Y154900
X34667Y163900
X17667Y163900
X89167Y78400
X168667Y104900
T02
X44667Y12400
X24667Y12400
T03
X170580Y43664
X170580Y75160
X179167Y191900
X169167Y191900
X159167Y191900
X149167Y191900
X139167Y191900
X129167Y191900
X119167Y191900
X109167Y191900
X179167Y171400
X169167Y171400
X159167Y171400
X149167Y171400
X139167Y171400
X129167Y171400
X119167Y171400
X109167Y171400
X179167Y181400
X169167Y181400
X159167Y181400
X149167Y181400
X139167Y181400
X129167Y181400
X119167Y181400
X109167Y181400
X179167Y121400
X179167Y111400
X179167Y101400
X189167Y101400
X189167Y111400
X189167Y121400
X129167Y11400
X139167Y11400
X149167Y11400
X159167Y11400
X169167Y11400
X179167Y11400
X109167Y11400
X99167Y11400
X89167Y11400
X79167Y11400
X69167Y11400
X59167Y11400
X93167Y201400
X83167Y201400
X73167Y201400
X63167Y201400
X53167Y201400
X43167Y201400
X33167Y201400
X23167Y201400
X179167Y201400
X169167Y201400
X159167Y201400
X149167Y201400
X139167Y201400
X129167Y201400
X119167Y201400
X109167Y201400
X136167Y114900
X136167Y104900
T04
X166127Y137361
X166127Y157439
X186206Y157439
X186206Y137361
X176167Y147400
T05
X189667Y24400
X14167Y183900
X12167Y25400
M30
