G75*
%MOIN*%
%OFA0B0*%
%FSLAX25Y25*%
%IPPOS*%
%LPD*%
%AMOC8*
5,1,8,0,0,1.08239X$1,22.5*
%
%ADD10C,0.00800*%
%ADD11C,0.00000*%
%ADD12C,0.00400*%
%ADD13R,0.00089X0.00089*%
%ADD14R,0.00089X0.30813*%
%ADD15R,0.00089X0.04339*%
%ADD16R,0.00089X0.30813*%
%ADD17R,0.00089X0.04339*%
%ADD18R,0.00088X0.30813*%
%ADD19R,0.00088X0.04250*%
%ADD20R,0.00089X0.04250*%
%ADD21R,0.00089X0.04250*%
%ADD22R,0.00089X0.30813*%
%ADD23R,0.00089X0.04250*%
%ADD24R,0.00088X0.04250*%
%ADD25R,0.00089X0.04250*%
%ADD26R,0.00089X0.04250*%
%ADD27R,0.00089X0.30813*%
%ADD28R,0.00089X0.04250*%
%ADD29R,0.00089X0.04339*%
%ADD30R,0.00089X0.04250*%
%ADD31R,0.00089X0.04339*%
%ADD32R,0.00089X0.04339*%
%ADD33R,0.00089X0.04339*%
%ADD34R,0.00088X0.04339*%
%ADD35R,0.00089X0.04250*%
%ADD36R,0.00089X0.35152*%
%ADD37R,0.00089X0.35063*%
%ADD38R,0.00088X0.30725*%
%ADD39R,0.00088X0.04161*%
%ADD40R,0.00089X0.30636*%
%ADD41R,0.00089X0.04073*%
%ADD42R,0.00089X0.30548*%
%ADD43R,0.00089X0.03984*%
%ADD44R,0.00089X0.30459*%
%ADD45R,0.00089X0.03896*%
%ADD46R,0.00088X0.30370*%
%ADD47R,0.00088X0.03807*%
%ADD48R,0.00089X0.30282*%
%ADD49R,0.00089X0.03719*%
%ADD50R,0.00089X0.30193*%
%ADD51R,0.00089X0.03630*%
%ADD52R,0.00089X0.30105*%
%ADD53R,0.00089X0.03542*%
%ADD54R,0.00089X0.30016*%
%ADD55R,0.00089X0.03453*%
%ADD56R,0.00089X0.29928*%
%ADD57R,0.00089X0.03365*%
%ADD58R,0.00089X0.29839*%
%ADD59R,0.00089X0.03276*%
%ADD60R,0.00089X0.29751*%
%ADD61R,0.00089X0.03276*%
%ADD62R,0.00089X0.29662*%
%ADD63R,0.00089X0.03099*%
%ADD64R,0.00089X0.29574*%
%ADD65R,0.00089X0.03099*%
%ADD66R,0.00089X0.29485*%
%ADD67R,0.00089X0.03010*%
%ADD68R,0.00088X0.29485*%
%ADD69R,0.00088X0.02922*%
%ADD70R,0.00089X0.29396*%
%ADD71R,0.00089X0.02833*%
%ADD72R,0.00089X0.29308*%
%ADD73R,0.00089X0.02744*%
%ADD74R,0.00089X0.29219*%
%ADD75R,0.00089X0.02656*%
%ADD76R,0.00089X0.29131*%
%ADD77R,0.00089X0.02568*%
%ADD78R,0.00089X0.29043*%
%ADD79R,0.00089X0.02479*%
%ADD80R,0.00089X0.28954*%
%ADD81R,0.00089X0.02391*%
%ADD82R,0.00089X0.28865*%
%ADD83R,0.00089X0.02302*%
%ADD84R,0.00089X0.28777*%
%ADD85R,0.00089X0.02213*%
%ADD86R,0.00089X0.28688*%
%ADD87R,0.00089X0.02125*%
%ADD88R,0.00089X0.28600*%
%ADD89R,0.00089X0.02036*%
%ADD90R,0.00089X0.28511*%
%ADD91R,0.00089X0.01948*%
%ADD92R,0.00089X0.28422*%
%ADD93R,0.00089X0.01948*%
%ADD94R,0.00089X0.28334*%
%ADD95R,0.00089X0.01859*%
%ADD96R,0.00089X0.28245*%
%ADD97R,0.00089X0.01771*%
%ADD98R,0.00088X0.28157*%
%ADD99R,0.00088X0.01682*%
%ADD100R,0.00089X0.28157*%
%ADD101R,0.00089X0.01594*%
%ADD102R,0.00089X0.28069*%
%ADD103R,0.00089X0.01505*%
%ADD104R,0.00089X0.27980*%
%ADD105R,0.00089X0.01417*%
%ADD106R,0.00089X0.27891*%
%ADD107R,0.00089X0.01328*%
%ADD108R,0.00088X0.27803*%
%ADD109R,0.00088X0.01239*%
%ADD110R,0.00089X0.27714*%
%ADD111R,0.00089X0.01151*%
%ADD112R,0.00089X0.27626*%
%ADD113R,0.00089X0.01062*%
%ADD114R,0.00089X0.27537*%
%ADD115R,0.00089X0.00974*%
%ADD116R,0.00088X0.27448*%
%ADD117R,0.00088X0.00885*%
%ADD118R,0.00089X0.27360*%
%ADD119R,0.00089X0.00797*%
%ADD120R,0.00089X0.27272*%
%ADD121R,0.00089X0.00708*%
%ADD122R,0.00089X0.27183*%
%ADD123R,0.00089X0.00620*%
%ADD124R,0.00089X0.27094*%
%ADD125R,0.00089X0.00531*%
%ADD126R,0.00089X0.27006*%
%ADD127R,0.00089X0.00531*%
%ADD128R,0.00089X0.26917*%
%ADD129R,0.00089X0.00443*%
%ADD130R,0.00089X0.26829*%
%ADD131R,0.00089X0.00265*%
%ADD132R,0.00089X0.26829*%
%ADD133R,0.00089X0.00265*%
%ADD134R,0.00089X0.26740*%
%ADD135R,0.00089X0.00177*%
%ADD136R,0.00089X0.26652*%
%ADD137R,0.00089X0.00088*%
%ADD138R,0.00089X0.26563*%
%ADD139R,0.00089X0.26474*%
%ADD140R,0.00089X0.26386*%
%ADD141R,0.00089X0.00177*%
%ADD142R,0.00089X0.26298*%
%ADD143R,0.00089X0.00266*%
%ADD144R,0.00089X0.26209*%
%ADD145R,0.00089X0.00354*%
%ADD146R,0.00089X0.26120*%
%ADD147R,0.00089X0.00443*%
%ADD148R,0.00089X0.26032*%
%ADD149R,0.00089X0.00531*%
%ADD150R,0.00089X0.25943*%
%ADD151R,0.00089X0.00620*%
%ADD152R,0.00089X0.25855*%
%ADD153R,0.00089X0.00709*%
%ADD154R,0.00089X0.25766*%
%ADD155R,0.00089X0.00709*%
%ADD156R,0.00089X0.25678*%
%ADD157R,0.00089X0.00797*%
%ADD158R,0.00089X0.25589*%
%ADD159R,0.00089X0.00885*%
%ADD160R,0.00089X0.25501*%
%ADD161R,0.00089X0.00974*%
%ADD162R,0.00089X0.25412*%
%ADD163R,0.00089X0.01063*%
%ADD164R,0.00089X0.25324*%
%ADD165R,0.00089X0.01151*%
%ADD166R,0.00088X0.25324*%
%ADD167R,0.00088X0.01240*%
%ADD168R,0.00089X0.25235*%
%ADD169R,0.00089X0.01328*%
%ADD170R,0.00089X0.25146*%
%ADD171R,0.00089X0.01417*%
%ADD172R,0.00089X0.25058*%
%ADD173R,0.00089X0.01506*%
%ADD174R,0.00089X0.24969*%
%ADD175R,0.00089X0.01594*%
%ADD176R,0.00088X0.24881*%
%ADD177R,0.00088X0.01683*%
%ADD178R,0.00089X0.24792*%
%ADD179R,0.00089X0.01771*%
%ADD180R,0.00089X0.24704*%
%ADD181R,0.00089X0.01859*%
%ADD182R,0.00089X0.24615*%
%ADD183R,0.00089X0.01948*%
%ADD184R,0.00088X0.24527*%
%ADD185R,0.00088X0.02037*%
%ADD186R,0.00089X0.24438*%
%ADD187R,0.00089X0.02125*%
%ADD188R,0.00089X0.24350*%
%ADD189R,0.00089X0.02214*%
%ADD190R,0.00089X0.24261*%
%ADD191R,0.00089X0.02214*%
%ADD192R,0.00089X0.24172*%
%ADD193R,0.00089X0.02302*%
%ADD194R,0.00088X0.24172*%
%ADD195R,0.00088X0.02391*%
%ADD196R,0.00089X0.23995*%
%ADD197R,0.00089X0.02480*%
%ADD198R,0.00089X0.23907*%
%ADD199R,0.00089X0.02568*%
%ADD200R,0.00089X0.23907*%
%ADD201R,0.00089X0.23818*%
%ADD202R,0.00089X0.02745*%
%ADD203R,0.00089X0.23730*%
%ADD204R,0.00089X0.02833*%
%ADD205R,0.00089X0.23641*%
%ADD206R,0.00089X0.02922*%
%ADD207R,0.00089X0.23553*%
%ADD208R,0.00089X0.03011*%
%ADD209R,0.00089X0.23464*%
%ADD210R,0.00089X0.03099*%
%ADD211R,0.00089X0.23376*%
%ADD212R,0.00089X0.03188*%
%ADD213R,0.00089X0.23287*%
%ADD214R,0.00089X0.03276*%
%ADD215R,0.00089X0.21162*%
%ADD216R,0.00089X0.03365*%
%ADD217R,0.00089X0.00177*%
%ADD218R,0.00089X0.16912*%
%ADD219R,0.00089X0.03454*%
%ADD220R,0.00089X0.13193*%
%ADD221R,0.00089X0.03276*%
%ADD222R,0.00089X0.03365*%
%ADD223R,0.00089X0.04073*%
%ADD224R,0.00089X0.07437*%
%ADD225R,0.00089X0.00089*%
%ADD226R,0.00089X0.01948*%
%ADD227R,0.00089X0.16735*%
%ADD228R,0.00089X0.03542*%
%ADD229R,0.00089X0.13193*%
%ADD230R,0.00089X0.03453*%
%ADD231R,0.00089X0.05490*%
%ADD232R,0.00089X0.08411*%
%ADD233R,0.00089X0.02037*%
%ADD234R,0.00089X0.16557*%
%ADD235R,0.00089X0.03630*%
%ADD236R,0.00089X0.13281*%
%ADD237R,0.00089X0.06552*%
%ADD238R,0.00089X0.09208*%
%ADD239R,0.00089X0.02125*%
%ADD240R,0.00089X0.16469*%
%ADD241R,0.00089X0.03719*%
%ADD242R,0.00089X0.13370*%
%ADD243R,0.00089X0.03276*%
%ADD244R,0.00089X0.03542*%
%ADD245R,0.00089X0.07526*%
%ADD246R,0.00089X0.09740*%
%ADD247R,0.00089X0.16292*%
%ADD248R,0.00089X0.03719*%
%ADD249R,0.00089X0.13459*%
%ADD250R,0.00089X0.03542*%
%ADD251R,0.00089X0.07969*%
%ADD252R,0.00089X0.10006*%
%ADD253R,0.00089X0.02302*%
%ADD254R,0.00089X0.16115*%
%ADD255R,0.00089X0.03807*%
%ADD256R,0.00089X0.13547*%
%ADD257R,0.00089X0.03630*%
%ADD258R,0.00089X0.08677*%
%ADD259R,0.00089X0.10537*%
%ADD260R,0.00089X0.02391*%
%ADD261R,0.00089X0.15938*%
%ADD262R,0.00089X0.03896*%
%ADD263R,0.00089X0.13547*%
%ADD264R,0.00089X0.09209*%
%ADD265R,0.00089X0.10802*%
%ADD266R,0.00089X0.15849*%
%ADD267R,0.00089X0.03985*%
%ADD268R,0.00089X0.13724*%
%ADD269R,0.00089X0.09651*%
%ADD270R,0.00089X0.11068*%
%ADD271R,0.00089X0.02568*%
%ADD272R,0.00089X0.15672*%
%ADD273R,0.00089X0.04073*%
%ADD274R,0.00089X0.13724*%
%ADD275R,0.00089X0.10094*%
%ADD276R,0.00089X0.11333*%
%ADD277R,0.00089X0.02656*%
%ADD278R,0.00089X0.15495*%
%ADD279R,0.00089X0.04162*%
%ADD280R,0.00089X0.13813*%
%ADD281R,0.00089X0.10448*%
%ADD282R,0.00089X0.11599*%
%ADD283R,0.00089X0.15318*%
%ADD284R,0.00089X0.13902*%
%ADD285R,0.00089X0.03719*%
%ADD286R,0.00089X0.03365*%
%ADD287R,0.00089X0.10802*%
%ADD288R,0.00089X0.11776*%
%ADD289R,0.00089X0.02833*%
%ADD290R,0.00089X0.15141*%
%ADD291R,0.00089X0.13990*%
%ADD292R,0.00089X0.03719*%
%ADD293R,0.00089X0.11156*%
%ADD294R,0.00089X0.11953*%
%ADD295R,0.00089X0.14964*%
%ADD296R,0.00089X0.04427*%
%ADD297R,0.00089X0.14079*%
%ADD298R,0.00089X0.03807*%
%ADD299R,0.00089X0.11511*%
%ADD300R,0.00089X0.12130*%
%ADD301R,0.00089X0.14787*%
%ADD302R,0.00089X0.04516*%
%ADD303R,0.00089X0.14167*%
%ADD304R,0.00089X0.03807*%
%ADD305R,0.00089X0.11776*%
%ADD306R,0.00089X0.12307*%
%ADD307R,0.00088X0.03099*%
%ADD308R,0.00088X0.14610*%
%ADD309R,0.00088X0.04604*%
%ADD310R,0.00088X0.14256*%
%ADD311R,0.00088X0.03276*%
%ADD312R,0.00088X0.03807*%
%ADD313R,0.00088X0.03365*%
%ADD314R,0.00088X0.12042*%
%ADD315R,0.00088X0.12485*%
%ADD316R,0.00089X0.03099*%
%ADD317R,0.00089X0.14433*%
%ADD318R,0.00089X0.04693*%
%ADD319R,0.00089X0.14256*%
%ADD320R,0.00089X0.12396*%
%ADD321R,0.00089X0.12662*%
%ADD322R,0.00089X0.03188*%
%ADD323R,0.00089X0.14256*%
%ADD324R,0.00089X0.04781*%
%ADD325R,0.00089X0.14344*%
%ADD326R,0.00089X0.03896*%
%ADD327R,0.00089X0.12573*%
%ADD328R,0.00089X0.12750*%
%ADD329R,0.00089X0.03276*%
%ADD330R,0.00089X0.14078*%
%ADD331R,0.00089X0.04870*%
%ADD332R,0.00089X0.14433*%
%ADD333R,0.00089X0.03896*%
%ADD334R,0.00089X0.12839*%
%ADD335R,0.00089X0.12927*%
%ADD336R,0.00089X0.03365*%
%ADD337R,0.00089X0.13901*%
%ADD338R,0.00089X0.04959*%
%ADD339R,0.00089X0.14521*%
%ADD340R,0.00089X0.03985*%
%ADD341R,0.00089X0.13104*%
%ADD342R,0.00089X0.13016*%
%ADD343R,0.00089X0.03453*%
%ADD344R,0.00089X0.13724*%
%ADD345R,0.00089X0.04959*%
%ADD346R,0.00089X0.14610*%
%ADD347R,0.00089X0.03985*%
%ADD348R,0.00089X0.13281*%
%ADD349R,0.00089X0.13193*%
%ADD350R,0.00089X0.13635*%
%ADD351R,0.00089X0.05047*%
%ADD352R,0.00089X0.14698*%
%ADD353R,0.00089X0.03985*%
%ADD354R,0.00089X0.13370*%
%ADD355R,0.00089X0.13281*%
%ADD356R,0.00089X0.03630*%
%ADD357R,0.00089X0.05136*%
%ADD358R,0.00089X0.14787*%
%ADD359R,0.00089X0.13636*%
%ADD360R,0.00089X0.13370*%
%ADD361R,0.00089X0.05224*%
%ADD362R,0.00089X0.14876*%
%ADD363R,0.00089X0.04073*%
%ADD364R,0.00089X0.13813*%
%ADD365R,0.00089X0.13459*%
%ADD366R,0.00089X0.03807*%
%ADD367R,0.00089X0.05313*%
%ADD368R,0.00089X0.14964*%
%ADD369R,0.00089X0.04073*%
%ADD370R,0.00089X0.13990*%
%ADD371R,0.00089X0.13547*%
%ADD372R,0.00089X0.12928*%
%ADD373R,0.00089X0.05401*%
%ADD374R,0.00089X0.14964*%
%ADD375R,0.00089X0.13635*%
%ADD376R,0.00089X0.12839*%
%ADD377R,0.00089X0.15052*%
%ADD378R,0.00089X0.04162*%
%ADD379R,0.00089X0.14256*%
%ADD380R,0.00089X0.13724*%
%ADD381R,0.00089X0.12662*%
%ADD382R,0.00089X0.05578*%
%ADD383R,0.00089X0.15141*%
%ADD384R,0.00089X0.04162*%
%ADD385R,0.00089X0.14433*%
%ADD386R,0.00089X0.13813*%
%ADD387R,0.00089X0.12485*%
%ADD388R,0.00089X0.05667*%
%ADD389R,0.00089X0.15230*%
%ADD390R,0.00089X0.14521*%
%ADD391R,0.00089X0.13901*%
%ADD392R,0.00089X0.12307*%
%ADD393R,0.00089X0.05756*%
%ADD394R,0.00089X0.15318*%
%ADD395R,0.00089X0.14698*%
%ADD396R,0.00089X0.12130*%
%ADD397R,0.00089X0.05844*%
%ADD398R,0.00089X0.15318*%
%ADD399R,0.00089X0.03365*%
%ADD400R,0.00089X0.14875*%
%ADD401R,0.00089X0.14078*%
%ADD402R,0.00089X0.04427*%
%ADD403R,0.00089X0.11953*%
%ADD404R,0.00089X0.05933*%
%ADD405R,0.00089X0.15407*%
%ADD406R,0.00089X0.14964*%
%ADD407R,0.00089X0.14167*%
%ADD408R,0.00089X0.06021*%
%ADD409R,0.00089X0.15495*%
%ADD410R,0.00089X0.03276*%
%ADD411R,0.00089X0.15052*%
%ADD412R,0.00089X0.04604*%
%ADD413R,0.00089X0.11599*%
%ADD414R,0.00089X0.06110*%
%ADD415R,0.00089X0.03276*%
%ADD416R,0.00089X0.06818*%
%ADD417R,0.00089X0.06907*%
%ADD418R,0.00089X0.08589*%
%ADD419R,0.00088X0.11422*%
%ADD420R,0.00088X0.06198*%
%ADD421R,0.00088X0.03188*%
%ADD422R,0.00088X0.03276*%
%ADD423R,0.00088X0.05755*%
%ADD424R,0.00088X0.05756*%
%ADD425R,0.00088X0.06730*%
%ADD426R,0.00089X0.11245*%
%ADD427R,0.00089X0.06287*%
%ADD428R,0.00089X0.04427*%
%ADD429R,0.00089X0.05224*%
%ADD430R,0.00089X0.04781*%
%ADD431R,0.00089X0.11068*%
%ADD432R,0.00089X0.06375*%
%ADD433R,0.00089X0.03188*%
%ADD434R,0.00089X0.04870*%
%ADD435R,0.00089X0.05313*%
%ADD436R,0.00089X0.04870*%
%ADD437R,0.00089X0.10980*%
%ADD438R,0.00089X0.06375*%
%ADD439R,0.00089X0.04604*%
%ADD440R,0.00089X0.05047*%
%ADD441R,0.00089X0.10802*%
%ADD442R,0.00089X0.06464*%
%ADD443R,0.00089X0.04693*%
%ADD444R,0.00088X0.05047*%
%ADD445R,0.00088X0.10625*%
%ADD446R,0.00088X0.06552*%
%ADD447R,0.00088X0.04427*%
%ADD448R,0.00089X0.10537*%
%ADD449R,0.00089X0.06641*%
%ADD450R,0.00089X0.05224*%
%ADD451R,0.00089X0.10359*%
%ADD452R,0.00089X0.06730*%
%ADD453R,0.00089X0.04516*%
%ADD454R,0.00089X0.05313*%
%ADD455R,0.00089X0.10182*%
%ADD456R,0.00089X0.06818*%
%ADD457R,0.00089X0.04516*%
%ADD458R,0.00089X0.03896*%
%ADD459R,0.00089X0.06907*%
%ADD460R,0.00089X0.04604*%
%ADD461R,0.00089X0.03984*%
%ADD462R,0.00088X0.05490*%
%ADD463R,0.00088X0.09828*%
%ADD464R,0.00088X0.06995*%
%ADD465R,0.00088X0.03719*%
%ADD466R,0.00088X0.03896*%
%ADD467R,0.00089X0.09651*%
%ADD468R,0.00089X0.07083*%
%ADD469R,0.00089X0.09474*%
%ADD470R,0.00089X0.07172*%
%ADD471R,0.00089X0.04604*%
%ADD472R,0.00089X0.03719*%
%ADD473R,0.00089X0.05756*%
%ADD474R,0.00089X0.09297*%
%ADD475R,0.00089X0.07261*%
%ADD476R,0.00089X0.03630*%
%ADD477R,0.00089X0.09120*%
%ADD478R,0.00089X0.07349*%
%ADD479R,0.00089X0.04693*%
%ADD480R,0.00088X0.05933*%
%ADD481R,0.00088X0.08943*%
%ADD482R,0.00088X0.07438*%
%ADD483R,0.00088X0.04693*%
%ADD484R,0.00088X0.03365*%
%ADD485R,0.00088X0.03542*%
%ADD486R,0.00088X0.03630*%
%ADD487R,0.00089X0.05933*%
%ADD488R,0.00089X0.08766*%
%ADD489R,0.00089X0.07526*%
%ADD490R,0.00089X0.04781*%
%ADD491R,0.00089X0.08589*%
%ADD492R,0.00089X0.07615*%
%ADD493R,0.00089X0.06109*%
%ADD494R,0.00089X0.07704*%
%ADD495R,0.00089X0.06198*%
%ADD496R,0.00089X0.08323*%
%ADD497R,0.00089X0.07792*%
%ADD498R,0.00088X0.06287*%
%ADD499R,0.00088X0.08146*%
%ADD500R,0.00088X0.07792*%
%ADD501R,0.00088X0.04870*%
%ADD502R,0.00088X0.03453*%
%ADD503R,0.00089X0.07969*%
%ADD504R,0.00089X0.07881*%
%ADD505R,0.00089X0.07880*%
%ADD506R,0.00089X0.06552*%
%ADD507R,0.00089X0.07703*%
%ADD508R,0.00089X0.08057*%
%ADD509R,0.00089X0.04959*%
%ADD510R,0.00089X0.03365*%
%ADD511R,0.00089X0.07526*%
%ADD512R,0.00089X0.08146*%
%ADD513R,0.00088X0.07261*%
%ADD514R,0.00088X0.08235*%
%ADD515R,0.00088X0.04959*%
%ADD516R,0.00088X0.03454*%
%ADD517R,0.00089X0.07172*%
%ADD518R,0.00089X0.08323*%
%ADD519R,0.00089X0.04959*%
%ADD520R,0.00089X0.03365*%
%ADD521R,0.00089X0.06995*%
%ADD522R,0.00089X0.08412*%
%ADD523R,0.00089X0.05047*%
%ADD524R,0.00089X0.06907*%
%ADD525R,0.00089X0.06818*%
%ADD526R,0.00089X0.08500*%
%ADD527R,0.00089X0.07083*%
%ADD528R,0.00089X0.06641*%
%ADD529R,0.00089X0.07172*%
%ADD530R,0.00089X0.08678*%
%ADD531R,0.00089X0.05135*%
%ADD532R,0.00088X0.08766*%
%ADD533R,0.00088X0.05135*%
%ADD534R,0.00089X0.07261*%
%ADD535R,0.00089X0.06109*%
%ADD536R,0.00089X0.08854*%
%ADD537R,0.00089X0.07349*%
%ADD538R,0.00089X0.05932*%
%ADD539R,0.00089X0.06287*%
%ADD540R,0.00089X0.02480*%
%ADD541R,0.00089X0.07438*%
%ADD542R,0.00089X0.06287*%
%ADD543R,0.00089X0.05224*%
%ADD544R,0.00089X0.05667*%
%ADD545R,0.00089X0.02480*%
%ADD546R,0.00088X0.07615*%
%ADD547R,0.00088X0.05401*%
%ADD548R,0.00088X0.02480*%
%ADD549R,0.00088X0.05224*%
%ADD550R,0.00088X0.03187*%
%ADD551R,0.00089X0.07704*%
%ADD552R,0.00089X0.05313*%
%ADD553R,0.00089X0.07792*%
%ADD554R,0.00089X0.05135*%
%ADD555R,0.00089X0.06198*%
%ADD556R,0.00089X0.07880*%
%ADD557R,0.00089X0.05047*%
%ADD558R,0.00089X0.06198*%
%ADD559R,0.00089X0.04870*%
%ADD560R,0.00088X0.08057*%
%ADD561R,0.00089X0.08235*%
%ADD562R,0.00089X0.04161*%
%ADD563R,0.00089X0.05490*%
%ADD564R,0.00089X0.05490*%
%ADD565R,0.00088X0.08500*%
%ADD566R,0.00088X0.03896*%
%ADD567R,0.00088X0.06109*%
%ADD568R,0.00088X0.05578*%
%ADD569R,0.00089X0.06109*%
%ADD570R,0.00089X0.05578*%
%ADD571R,0.00089X0.08589*%
%ADD572R,0.00089X0.08678*%
%ADD573R,0.00089X0.03896*%
%ADD574R,0.00089X0.08766*%
%ADD575R,0.00088X0.08854*%
%ADD576R,0.00088X0.03984*%
%ADD577R,0.00088X0.05667*%
%ADD578R,0.00089X0.08943*%
%ADD579R,0.00089X0.05667*%
%ADD580R,0.00089X0.09031*%
%ADD581R,0.00089X0.09120*%
%ADD582R,0.00089X0.06021*%
%ADD583R,0.00089X0.05756*%
%ADD584R,0.00089X0.09209*%
%ADD585R,0.00089X0.06021*%
%ADD586R,0.00089X0.05756*%
%ADD587R,0.00088X0.09297*%
%ADD588R,0.00088X0.06021*%
%ADD589R,0.00088X0.05844*%
%ADD590R,0.00089X0.09386*%
%ADD591R,0.00089X0.06021*%
%ADD592R,0.00089X0.05844*%
%ADD593R,0.00089X0.09474*%
%ADD594R,0.00089X0.09563*%
%ADD595R,0.00089X0.09651*%
%ADD596R,0.00089X0.03896*%
%ADD597R,0.00089X0.06021*%
%ADD598R,0.00089X0.02480*%
%ADD599R,0.00089X0.05844*%
%ADD600R,0.00089X0.03188*%
%ADD601R,0.00089X0.09740*%
%ADD602R,0.00089X0.05933*%
%ADD603R,0.00089X0.09828*%
%ADD604R,0.00089X0.06021*%
%ADD605R,0.00089X0.05844*%
%ADD606R,0.00089X0.09828*%
%ADD607R,0.00089X0.10006*%
%ADD608R,0.00089X0.10006*%
%ADD609R,0.00089X0.03896*%
%ADD610R,0.00089X0.05932*%
%ADD611R,0.00089X0.05932*%
%ADD612R,0.00089X0.10183*%
%ADD613R,0.00089X0.10271*%
%ADD614R,0.00089X0.10360*%
%ADD615R,0.00089X0.05844*%
%ADD616R,0.00089X0.03187*%
%ADD617R,0.00089X0.10448*%
%ADD618R,0.00089X0.05844*%
%ADD619R,0.00089X0.06109*%
%ADD620R,0.00089X0.03187*%
%ADD621R,0.00089X0.10625*%
%ADD622R,0.00089X0.09651*%
%ADD623R,0.00089X0.10714*%
%ADD624R,0.00089X0.09474*%
%ADD625R,0.00089X0.09297*%
%ADD626R,0.00088X0.10891*%
%ADD627R,0.00088X0.09120*%
%ADD628R,0.00089X0.10980*%
%ADD629R,0.00089X0.08943*%
%ADD630R,0.00089X0.08766*%
%ADD631R,0.00089X0.11157*%
%ADD632R,0.00089X0.08589*%
%ADD633R,0.00089X0.11245*%
%ADD634R,0.00089X0.08411*%
%ADD635R,0.00088X0.11245*%
%ADD636R,0.00088X0.08234*%
%ADD637R,0.00088X0.06375*%
%ADD638R,0.00089X0.11422*%
%ADD639R,0.00089X0.08057*%
%ADD640R,0.00089X0.06375*%
%ADD641R,0.00089X0.11511*%
%ADD642R,0.00089X0.07792*%
%ADD643R,0.00089X0.07703*%
%ADD644R,0.00089X0.03011*%
%ADD645R,0.00089X0.11599*%
%ADD646R,0.00088X0.11688*%
%ADD647R,0.00088X0.07349*%
%ADD648R,0.00088X0.03011*%
%ADD649R,0.00089X0.11776*%
%ADD650R,0.00089X0.11865*%
%ADD651R,0.00089X0.06995*%
%ADD652R,0.00089X0.11954*%
%ADD653R,0.00089X0.12042*%
%ADD654R,0.00089X0.06641*%
%ADD655R,0.00089X0.09386*%
%ADD656R,0.00089X0.03099*%
%ADD657R,0.00089X0.00354*%
%ADD658R,0.00089X0.03187*%
%ADD659R,0.00088X0.12131*%
%ADD660R,0.00088X0.06464*%
%ADD661R,0.00088X0.14964*%
%ADD662R,0.00088X0.18948*%
%ADD663R,0.00089X0.12219*%
%ADD664R,0.00089X0.14876*%
%ADD665R,0.00089X0.18948*%
%ADD666R,0.00089X0.14876*%
%ADD667R,0.00089X0.18948*%
%ADD668R,0.00089X0.12396*%
%ADD669R,0.00089X0.18771*%
%ADD670R,0.00089X0.12485*%
%ADD671R,0.00089X0.18771*%
%ADD672R,0.00088X0.12573*%
%ADD673R,0.00088X0.14876*%
%ADD674R,0.00088X0.18771*%
%ADD675R,0.00089X0.12573*%
%ADD676R,0.00089X0.05401*%
%ADD677R,0.00089X0.18771*%
%ADD678R,0.00089X0.05047*%
%ADD679R,0.00089X0.12839*%
%ADD680R,0.00089X0.04870*%
%ADD681R,0.00088X0.12928*%
%ADD682R,0.00089X0.13016*%
%ADD683R,0.00089X0.14964*%
%ADD684R,0.00089X0.13105*%
%ADD685R,0.00089X0.04781*%
%ADD686R,0.00089X0.13193*%
%ADD687R,0.00089X0.04781*%
%ADD688R,0.00089X0.14964*%
%ADD689R,0.00089X0.04781*%
%ADD690R,0.00088X0.13459*%
%ADD691R,0.00088X0.04781*%
%ADD692R,0.00089X0.13547*%
%ADD693R,0.00089X0.18683*%
%ADD694R,0.00089X0.13636*%
%ADD695R,0.00089X0.18683*%
%ADD696R,0.00089X0.18683*%
%ADD697R,0.00089X0.13813*%
%ADD698R,0.00089X0.18594*%
%ADD699R,0.00088X0.13902*%
%ADD700R,0.00088X0.04781*%
%ADD701R,0.00088X0.18594*%
%ADD702R,0.00089X0.13990*%
%ADD703R,0.00089X0.04693*%
%ADD704R,0.00089X0.18594*%
%ADD705R,0.00089X0.14078*%
%ADD706R,0.00089X0.18594*%
%ADD707R,0.00089X0.14344*%
%ADD708R,0.00089X0.14521*%
%ADD709R,0.00088X0.14698*%
%ADD710R,0.00088X0.11865*%
%ADD711R,0.00089X0.14787*%
%ADD712R,0.00088X0.15141*%
%ADD713R,0.00089X0.15230*%
%ADD714R,0.00089X0.15495*%
%ADD715R,0.00089X0.04781*%
%ADD716R,0.00089X0.03099*%
%ADD717R,0.00089X0.15495*%
%ADD718R,0.00089X0.15672*%
%ADD719R,0.00089X0.15672*%
%ADD720R,0.00089X0.15761*%
%ADD721R,0.00089X0.15849*%
%ADD722R,0.00089X0.04870*%
%ADD723R,0.00089X0.15938*%
%ADD724R,0.00089X0.16026*%
%ADD725R,0.00089X0.16115*%
%ADD726R,0.00089X0.16204*%
%ADD727R,0.00089X0.16292*%
%ADD728R,0.00089X0.16381*%
%ADD729R,0.00089X0.16469*%
%ADD730R,0.00089X0.16558*%
%ADD731R,0.00089X0.16646*%
%ADD732R,0.00089X0.16735*%
%ADD733R,0.00089X0.04781*%
%ADD734R,0.00089X0.16823*%
%ADD735R,0.00089X0.16823*%
%ADD736R,0.00089X0.17000*%
%ADD737R,0.00088X0.17089*%
%ADD738R,0.00089X0.17178*%
%ADD739R,0.00089X0.17266*%
%ADD740R,0.00089X0.17355*%
%ADD741R,0.00089X0.04870*%
%ADD742R,0.00089X0.17443*%
%ADD743R,0.00088X0.17532*%
%ADD744R,0.00088X0.04870*%
%ADD745R,0.00089X0.17620*%
%ADD746R,0.00089X0.17709*%
%ADD747R,0.00089X0.17797*%
%ADD748R,0.00089X0.17886*%
%ADD749R,0.00088X0.17974*%
%ADD750R,0.00089X0.18063*%
%ADD751R,0.00089X0.18152*%
%ADD752R,0.00089X0.18152*%
%ADD753R,0.00089X0.18240*%
%ADD754R,0.00088X0.14344*%
%ADD755R,0.00089X0.03719*%
%ADD756R,0.00088X0.14078*%
%ADD757R,0.00089X0.02568*%
%ADD758R,0.00089X0.13902*%
%ADD759R,0.00089X0.13813*%
%ADD760R,0.00088X0.13547*%
%ADD761R,0.00089X0.13459*%
%ADD762R,0.00089X0.06995*%
%ADD763R,0.00089X0.13193*%
%ADD764R,0.00089X0.06907*%
%ADD765R,0.00089X0.03453*%
%ADD766R,0.00089X0.06818*%
%ADD767R,0.00089X0.12928*%
%ADD768R,0.00089X0.06641*%
%ADD769R,0.00089X0.12928*%
%ADD770R,0.00089X0.06641*%
%ADD771R,0.00089X0.06552*%
%ADD772R,0.00088X0.12750*%
%ADD773R,0.00089X0.03011*%
%ADD774R,0.00089X0.12396*%
%ADD775R,0.00089X0.03807*%
%ADD776R,0.00089X0.06110*%
%ADD777R,0.00089X0.03011*%
%ADD778R,0.00089X0.12219*%
%ADD779R,0.00089X0.04161*%
%ADD780R,0.00089X0.03454*%
%ADD781R,0.00089X0.12131*%
%ADD782R,0.00089X0.11688*%
%ADD783R,0.00089X0.11599*%
%ADD784R,0.00089X0.05401*%
%ADD785R,0.00089X0.11511*%
%ADD786R,0.00089X0.05401*%
%ADD787R,0.00089X0.05224*%
%ADD788R,0.00089X0.03630*%
%ADD789R,0.00089X0.11511*%
%ADD790R,0.00089X0.05578*%
%ADD791R,0.00089X0.11422*%
%ADD792R,0.00089X0.05755*%
%ADD793R,0.00089X0.05136*%
%ADD794R,0.00089X0.11334*%
%ADD795R,0.00089X0.05932*%
%ADD796R,0.00088X0.11157*%
%ADD797R,0.00089X0.11068*%
%ADD798R,0.00089X0.06464*%
%ADD799R,0.00089X0.10891*%
%ADD800R,0.00089X0.06995*%
%ADD801R,0.00089X0.10714*%
%ADD802R,0.00089X0.07172*%
%ADD803R,0.00089X0.04427*%
%ADD804R,0.00089X0.10625*%
%ADD805R,0.00089X0.07349*%
%ADD806R,0.00089X0.03807*%
%ADD807R,0.00089X0.07526*%
%ADD808R,0.00089X0.04073*%
%ADD809R,0.00089X0.10448*%
%ADD810R,0.00089X0.07526*%
%ADD811R,0.00089X0.04162*%
%ADD812R,0.00089X0.03984*%
%ADD813R,0.00089X0.10360*%
%ADD814R,0.00089X0.07703*%
%ADD815R,0.00089X0.04161*%
%ADD816R,0.00088X0.10271*%
%ADD817R,0.00088X0.07880*%
%ADD818R,0.00088X0.04073*%
%ADD819R,0.00088X0.04604*%
%ADD820R,0.00089X0.10271*%
%ADD821R,0.00089X0.08057*%
%ADD822R,0.00089X0.03187*%
%ADD823R,0.00089X0.04515*%
%ADD824R,0.00089X0.10183*%
%ADD825R,0.00089X0.08235*%
%ADD826R,0.00089X0.05224*%
%ADD827R,0.00089X0.10094*%
%ADD828R,0.00089X0.08412*%
%ADD829R,0.00089X0.04958*%
%ADD830R,0.00089X0.10006*%
%ADD831R,0.00089X0.09917*%
%ADD832R,0.00089X0.09828*%
%ADD833R,0.00089X0.08943*%
%ADD834R,0.00089X0.38162*%
%ADD835R,0.00089X0.12130*%
%ADD836R,0.00089X0.15141*%
%ADD837R,0.00089X0.14256*%
%ADD838R,0.00089X0.09740*%
%ADD839R,0.00089X0.09120*%
%ADD840R,0.00089X0.38074*%
%ADD841R,0.00089X0.12042*%
%ADD842R,0.00089X0.09297*%
%ADD843R,0.00089X0.37985*%
%ADD844R,0.00089X0.14875*%
%ADD845R,0.00089X0.09563*%
%ADD846R,0.00089X0.09474*%
%ADD847R,0.00089X0.37896*%
%ADD848R,0.00089X0.11953*%
%ADD849R,0.00089X0.14698*%
%ADD850R,0.00089X0.13990*%
%ADD851R,0.00088X0.09474*%
%ADD852R,0.00088X0.09651*%
%ADD853R,0.00088X0.37808*%
%ADD854R,0.00088X0.11865*%
%ADD855R,0.00088X0.14698*%
%ADD856R,0.00088X0.13990*%
%ADD857R,0.00089X0.09828*%
%ADD858R,0.00089X0.37719*%
%ADD859R,0.00089X0.11776*%
%ADD860R,0.00089X0.14521*%
%ADD861R,0.00089X0.13901*%
%ADD862R,0.00089X0.37631*%
%ADD863R,0.00089X0.09209*%
%ADD864R,0.00089X0.02922*%
%ADD865R,0.00089X0.37543*%
%ADD866R,0.00089X0.11688*%
%ADD867R,0.00089X0.09120*%
%ADD868R,0.00089X0.10183*%
%ADD869R,0.00089X0.37454*%
%ADD870R,0.00089X0.11688*%
%ADD871R,0.00089X0.13990*%
%ADD872R,0.00089X0.13635*%
%ADD873R,0.00089X0.02745*%
%ADD874R,0.00089X0.37365*%
%ADD875R,0.00089X0.10537*%
%ADD876R,0.00089X0.37277*%
%ADD877R,0.00089X0.11422*%
%ADD878R,0.00089X0.13636*%
%ADD879R,0.00089X0.13459*%
%ADD880R,0.00089X0.08854*%
%ADD881R,0.00089X0.10714*%
%ADD882R,0.00089X0.02568*%
%ADD883R,0.00089X0.37188*%
%ADD884R,0.00089X0.11333*%
%ADD885R,0.00089X0.10891*%
%ADD886R,0.00089X0.37188*%
%ADD887R,0.00089X0.08678*%
%ADD888R,0.00089X0.37100*%
%ADD889R,0.00089X0.11245*%
%ADD890R,0.00089X0.13104*%
%ADD891R,0.00088X0.08589*%
%ADD892R,0.00088X0.11245*%
%ADD893R,0.00088X0.37011*%
%ADD894R,0.00088X0.11068*%
%ADD895R,0.00088X0.12927*%
%ADD896R,0.00088X0.13016*%
%ADD897R,0.00089X0.11422*%
%ADD898R,0.00089X0.36922*%
%ADD899R,0.00089X0.12750*%
%ADD900R,0.00089X0.12839*%
%ADD901R,0.00089X0.08500*%
%ADD902R,0.00089X0.36834*%
%ADD903R,0.00089X0.12396*%
%ADD904R,0.00089X0.02125*%
%ADD905R,0.00089X0.36745*%
%ADD906R,0.00089X0.12219*%
%ADD907R,0.00089X0.12573*%
%ADD908R,0.00089X0.36657*%
%ADD909R,0.00089X0.10625*%
%ADD910R,0.00089X0.12131*%
%ADD911R,0.00089X0.36569*%
%ADD912R,0.00089X0.12219*%
%ADD913R,0.00088X0.12307*%
%ADD914R,0.00088X0.01859*%
%ADD915R,0.00088X0.36480*%
%ADD916R,0.00088X0.10359*%
%ADD917R,0.00088X0.11333*%
%ADD918R,0.00089X0.12485*%
%ADD919R,0.00089X0.36391*%
%ADD920R,0.00089X0.10094*%
%ADD921R,0.00089X0.10979*%
%ADD922R,0.00089X0.11865*%
%ADD923R,0.00089X0.12661*%
%ADD924R,0.00089X0.01683*%
%ADD925R,0.00089X0.36391*%
%ADD926R,0.00089X0.10714*%
%ADD927R,0.00089X0.36303*%
%ADD928R,0.00089X0.10359*%
%ADD929R,0.00088X0.01506*%
%ADD930R,0.00088X0.36126*%
%ADD931R,0.00088X0.09917*%
%ADD932R,0.00089X0.07704*%
%ADD933R,0.00089X0.13193*%
%ADD934R,0.00089X0.36037*%
%ADD935R,0.00089X0.09563*%
%ADD936R,0.00089X0.01328*%
%ADD937R,0.00089X0.35948*%
%ADD938R,0.00089X0.07526*%
%ADD939R,0.00089X0.01240*%
%ADD940R,0.00089X0.35860*%
%ADD941R,0.00089X0.08323*%
%ADD942R,0.00089X0.10271*%
%ADD943R,0.00089X0.01240*%
%ADD944R,0.00089X0.35860*%
%ADD945R,0.00089X0.07792*%
%ADD946R,0.00089X0.09917*%
%ADD947R,0.00089X0.07438*%
%ADD948R,0.00089X0.35772*%
%ADD949R,0.00089X0.09385*%
%ADD950R,0.00088X0.00974*%
%ADD951R,0.00088X0.35683*%
%ADD952R,0.00088X0.07792*%
%ADD953R,0.00089X0.00885*%
%ADD954R,0.00089X0.35506*%
%ADD955R,0.00089X0.00885*%
%ADD956R,0.00089X0.35506*%
%ADD957R,0.00089X0.02833*%
%ADD958R,0.00089X0.06818*%
%ADD959R,0.00089X0.07083*%
%ADD960R,0.00089X0.19480*%
%ADD961R,0.00089X0.06995*%
%ADD962R,0.00089X0.19568*%
%ADD963R,0.00089X0.19657*%
%ADD964R,0.00089X0.19745*%
%ADD965R,0.00089X0.19834*%
%ADD966R,0.00089X0.19922*%
%ADD967R,0.00089X0.20011*%
%ADD968R,0.00088X0.20100*%
%ADD969R,0.00089X0.20188*%
%ADD970R,0.00089X0.20277*%
%ADD971R,0.00089X0.20277*%
%ADD972R,0.00089X0.20365*%
%ADD973R,0.00089X0.20454*%
%ADD974R,0.00089X0.20542*%
%ADD975R,0.00089X0.20631*%
%ADD976R,0.00089X0.20719*%
%ADD977R,0.00089X0.20808*%
%ADD978R,0.00088X0.20896*%
%ADD979R,0.00089X0.20985*%
%ADD980R,0.00089X0.21074*%
%ADD981R,0.00089X0.21162*%
%ADD982R,0.00089X0.21250*%
%ADD983R,0.00089X0.21339*%
%ADD984R,0.00089X0.21428*%
%ADD985R,0.00089X0.21516*%
%ADD986R,0.00089X0.21605*%
%ADD987R,0.00088X0.21605*%
%ADD988R,0.00089X0.21693*%
%ADD989R,0.00089X0.21782*%
D10*
X0002167Y0007057D02*
X0002167Y0021150D01*
X0002167Y0021400D02*
X0002167Y0030400D01*
X0009667Y0037900D01*
X0009667Y0087900D01*
X0002167Y0095400D01*
X0001917Y0095400D01*
X0002167Y0095400D02*
X0002167Y0202650D01*
X0010917Y0211400D01*
X0190667Y0211400D01*
X0199667Y0202400D01*
X0199667Y0095400D01*
X0192167Y0087900D01*
X0192167Y0037900D01*
X0199667Y0030400D01*
X0199667Y0021400D01*
X0189667Y0011400D01*
X0189667Y0003900D01*
X0189665Y0003802D01*
X0189659Y0003704D01*
X0189650Y0003606D01*
X0189636Y0003509D01*
X0189619Y0003412D01*
X0189598Y0003316D01*
X0189573Y0003221D01*
X0189545Y0003127D01*
X0189512Y0003035D01*
X0189477Y0002943D01*
X0189437Y0002853D01*
X0189395Y0002765D01*
X0189348Y0002678D01*
X0189299Y0002594D01*
X0189246Y0002511D01*
X0189190Y0002431D01*
X0189130Y0002352D01*
X0189068Y0002276D01*
X0189003Y0002203D01*
X0188935Y0002132D01*
X0188864Y0002064D01*
X0188791Y0001999D01*
X0188715Y0001937D01*
X0188636Y0001877D01*
X0188556Y0001821D01*
X0188473Y0001768D01*
X0188389Y0001719D01*
X0188302Y0001672D01*
X0188214Y0001630D01*
X0188124Y0001590D01*
X0188032Y0001555D01*
X0187940Y0001522D01*
X0187846Y0001494D01*
X0187751Y0001469D01*
X0187655Y0001448D01*
X0187558Y0001431D01*
X0187461Y0001417D01*
X0187363Y0001408D01*
X0187265Y0001402D01*
X0187167Y0001400D01*
X0007824Y0001400D01*
X0007676Y0001402D01*
X0007528Y0001408D01*
X0007380Y0001417D01*
X0007233Y0001431D01*
X0007086Y0001448D01*
X0006939Y0001470D01*
X0006793Y0001495D01*
X0006648Y0001524D01*
X0006503Y0001556D01*
X0006360Y0001593D01*
X0006217Y0001633D01*
X0006076Y0001677D01*
X0005936Y0001724D01*
X0005797Y0001776D01*
X0005659Y0001831D01*
X0005523Y0001889D01*
X0005389Y0001951D01*
X0005256Y0002017D01*
X0005125Y0002086D01*
X0004996Y0002158D01*
X0004868Y0002234D01*
X0004743Y0002313D01*
X0004620Y0002395D01*
X0004499Y0002480D01*
X0004380Y0002569D01*
X0004264Y0002661D01*
X0004150Y0002755D01*
X0004039Y0002853D01*
X0003930Y0002954D01*
X0003824Y0003057D01*
X0003721Y0003163D01*
X0003620Y0003272D01*
X0003522Y0003383D01*
X0003428Y0003497D01*
X0003336Y0003613D01*
X0003247Y0003732D01*
X0003162Y0003853D01*
X0003080Y0003976D01*
X0003001Y0004101D01*
X0002925Y0004228D01*
X0002853Y0004358D01*
X0002784Y0004489D01*
X0002718Y0004622D01*
X0002656Y0004756D01*
X0002598Y0004892D01*
X0002543Y0005030D01*
X0002491Y0005169D01*
X0002444Y0005309D01*
X0002400Y0005450D01*
X0002360Y0005593D01*
X0002323Y0005736D01*
X0002291Y0005881D01*
X0002262Y0006026D01*
X0002237Y0006172D01*
X0002215Y0006319D01*
X0002198Y0006466D01*
X0002184Y0006613D01*
X0002175Y0006761D01*
X0002169Y0006909D01*
X0002167Y0007057D01*
D11*
X0005868Y0025400D02*
X0005870Y0025558D01*
X0005876Y0025716D01*
X0005886Y0025874D01*
X0005900Y0026032D01*
X0005918Y0026189D01*
X0005939Y0026346D01*
X0005965Y0026502D01*
X0005995Y0026658D01*
X0006028Y0026813D01*
X0006066Y0026966D01*
X0006107Y0027119D01*
X0006152Y0027271D01*
X0006201Y0027422D01*
X0006254Y0027571D01*
X0006310Y0027719D01*
X0006370Y0027865D01*
X0006434Y0028010D01*
X0006502Y0028153D01*
X0006573Y0028295D01*
X0006647Y0028435D01*
X0006725Y0028572D01*
X0006807Y0028708D01*
X0006891Y0028842D01*
X0006980Y0028973D01*
X0007071Y0029102D01*
X0007166Y0029229D01*
X0007263Y0029354D01*
X0007364Y0029476D01*
X0007468Y0029595D01*
X0007575Y0029712D01*
X0007685Y0029826D01*
X0007798Y0029937D01*
X0007913Y0030046D01*
X0008031Y0030151D01*
X0008152Y0030253D01*
X0008275Y0030353D01*
X0008401Y0030449D01*
X0008529Y0030542D01*
X0008659Y0030632D01*
X0008792Y0030718D01*
X0008927Y0030802D01*
X0009063Y0030881D01*
X0009202Y0030958D01*
X0009343Y0031030D01*
X0009485Y0031100D01*
X0009629Y0031165D01*
X0009775Y0031227D01*
X0009922Y0031285D01*
X0010071Y0031340D01*
X0010221Y0031391D01*
X0010372Y0031438D01*
X0010524Y0031481D01*
X0010677Y0031520D01*
X0010832Y0031556D01*
X0010987Y0031587D01*
X0011143Y0031615D01*
X0011299Y0031639D01*
X0011456Y0031659D01*
X0011614Y0031675D01*
X0011771Y0031687D01*
X0011930Y0031695D01*
X0012088Y0031699D01*
X0012246Y0031699D01*
X0012404Y0031695D01*
X0012563Y0031687D01*
X0012720Y0031675D01*
X0012878Y0031659D01*
X0013035Y0031639D01*
X0013191Y0031615D01*
X0013347Y0031587D01*
X0013502Y0031556D01*
X0013657Y0031520D01*
X0013810Y0031481D01*
X0013962Y0031438D01*
X0014113Y0031391D01*
X0014263Y0031340D01*
X0014412Y0031285D01*
X0014559Y0031227D01*
X0014705Y0031165D01*
X0014849Y0031100D01*
X0014991Y0031030D01*
X0015132Y0030958D01*
X0015271Y0030881D01*
X0015407Y0030802D01*
X0015542Y0030718D01*
X0015675Y0030632D01*
X0015805Y0030542D01*
X0015933Y0030449D01*
X0016059Y0030353D01*
X0016182Y0030253D01*
X0016303Y0030151D01*
X0016421Y0030046D01*
X0016536Y0029937D01*
X0016649Y0029826D01*
X0016759Y0029712D01*
X0016866Y0029595D01*
X0016970Y0029476D01*
X0017071Y0029354D01*
X0017168Y0029229D01*
X0017263Y0029102D01*
X0017354Y0028973D01*
X0017443Y0028842D01*
X0017527Y0028708D01*
X0017609Y0028572D01*
X0017687Y0028435D01*
X0017761Y0028295D01*
X0017832Y0028153D01*
X0017900Y0028010D01*
X0017964Y0027865D01*
X0018024Y0027719D01*
X0018080Y0027571D01*
X0018133Y0027422D01*
X0018182Y0027271D01*
X0018227Y0027119D01*
X0018268Y0026966D01*
X0018306Y0026813D01*
X0018339Y0026658D01*
X0018369Y0026502D01*
X0018395Y0026346D01*
X0018416Y0026189D01*
X0018434Y0026032D01*
X0018448Y0025874D01*
X0018458Y0025716D01*
X0018464Y0025558D01*
X0018466Y0025400D01*
X0018464Y0025242D01*
X0018458Y0025084D01*
X0018448Y0024926D01*
X0018434Y0024768D01*
X0018416Y0024611D01*
X0018395Y0024454D01*
X0018369Y0024298D01*
X0018339Y0024142D01*
X0018306Y0023987D01*
X0018268Y0023834D01*
X0018227Y0023681D01*
X0018182Y0023529D01*
X0018133Y0023378D01*
X0018080Y0023229D01*
X0018024Y0023081D01*
X0017964Y0022935D01*
X0017900Y0022790D01*
X0017832Y0022647D01*
X0017761Y0022505D01*
X0017687Y0022365D01*
X0017609Y0022228D01*
X0017527Y0022092D01*
X0017443Y0021958D01*
X0017354Y0021827D01*
X0017263Y0021698D01*
X0017168Y0021571D01*
X0017071Y0021446D01*
X0016970Y0021324D01*
X0016866Y0021205D01*
X0016759Y0021088D01*
X0016649Y0020974D01*
X0016536Y0020863D01*
X0016421Y0020754D01*
X0016303Y0020649D01*
X0016182Y0020547D01*
X0016059Y0020447D01*
X0015933Y0020351D01*
X0015805Y0020258D01*
X0015675Y0020168D01*
X0015542Y0020082D01*
X0015407Y0019998D01*
X0015271Y0019919D01*
X0015132Y0019842D01*
X0014991Y0019770D01*
X0014849Y0019700D01*
X0014705Y0019635D01*
X0014559Y0019573D01*
X0014412Y0019515D01*
X0014263Y0019460D01*
X0014113Y0019409D01*
X0013962Y0019362D01*
X0013810Y0019319D01*
X0013657Y0019280D01*
X0013502Y0019244D01*
X0013347Y0019213D01*
X0013191Y0019185D01*
X0013035Y0019161D01*
X0012878Y0019141D01*
X0012720Y0019125D01*
X0012563Y0019113D01*
X0012404Y0019105D01*
X0012246Y0019101D01*
X0012088Y0019101D01*
X0011930Y0019105D01*
X0011771Y0019113D01*
X0011614Y0019125D01*
X0011456Y0019141D01*
X0011299Y0019161D01*
X0011143Y0019185D01*
X0010987Y0019213D01*
X0010832Y0019244D01*
X0010677Y0019280D01*
X0010524Y0019319D01*
X0010372Y0019362D01*
X0010221Y0019409D01*
X0010071Y0019460D01*
X0009922Y0019515D01*
X0009775Y0019573D01*
X0009629Y0019635D01*
X0009485Y0019700D01*
X0009343Y0019770D01*
X0009202Y0019842D01*
X0009063Y0019919D01*
X0008927Y0019998D01*
X0008792Y0020082D01*
X0008659Y0020168D01*
X0008529Y0020258D01*
X0008401Y0020351D01*
X0008275Y0020447D01*
X0008152Y0020547D01*
X0008031Y0020649D01*
X0007913Y0020754D01*
X0007798Y0020863D01*
X0007685Y0020974D01*
X0007575Y0021088D01*
X0007468Y0021205D01*
X0007364Y0021324D01*
X0007263Y0021446D01*
X0007166Y0021571D01*
X0007071Y0021698D01*
X0006980Y0021827D01*
X0006891Y0021958D01*
X0006807Y0022092D01*
X0006725Y0022228D01*
X0006647Y0022365D01*
X0006573Y0022505D01*
X0006502Y0022647D01*
X0006434Y0022790D01*
X0006370Y0022935D01*
X0006310Y0023081D01*
X0006254Y0023229D01*
X0006201Y0023378D01*
X0006152Y0023529D01*
X0006107Y0023681D01*
X0006066Y0023834D01*
X0006028Y0023987D01*
X0005995Y0024142D01*
X0005965Y0024298D01*
X0005939Y0024454D01*
X0005918Y0024611D01*
X0005900Y0024768D01*
X0005886Y0024926D01*
X0005876Y0025084D01*
X0005870Y0025242D01*
X0005868Y0025400D01*
X0168830Y0043664D02*
X0168832Y0043747D01*
X0168838Y0043830D01*
X0168848Y0043913D01*
X0168862Y0043995D01*
X0168879Y0044077D01*
X0168901Y0044157D01*
X0168926Y0044236D01*
X0168955Y0044314D01*
X0168988Y0044391D01*
X0169025Y0044466D01*
X0169064Y0044539D01*
X0169108Y0044610D01*
X0169154Y0044679D01*
X0169204Y0044746D01*
X0169257Y0044810D01*
X0169313Y0044872D01*
X0169372Y0044931D01*
X0169434Y0044987D01*
X0169498Y0045040D01*
X0169565Y0045090D01*
X0169634Y0045136D01*
X0169705Y0045180D01*
X0169778Y0045219D01*
X0169853Y0045256D01*
X0169930Y0045289D01*
X0170008Y0045318D01*
X0170087Y0045343D01*
X0170167Y0045365D01*
X0170249Y0045382D01*
X0170331Y0045396D01*
X0170414Y0045406D01*
X0170497Y0045412D01*
X0170580Y0045414D01*
X0170663Y0045412D01*
X0170746Y0045406D01*
X0170829Y0045396D01*
X0170911Y0045382D01*
X0170993Y0045365D01*
X0171073Y0045343D01*
X0171152Y0045318D01*
X0171230Y0045289D01*
X0171307Y0045256D01*
X0171382Y0045219D01*
X0171455Y0045180D01*
X0171526Y0045136D01*
X0171595Y0045090D01*
X0171662Y0045040D01*
X0171726Y0044987D01*
X0171788Y0044931D01*
X0171847Y0044872D01*
X0171903Y0044810D01*
X0171956Y0044746D01*
X0172006Y0044679D01*
X0172052Y0044610D01*
X0172096Y0044539D01*
X0172135Y0044466D01*
X0172172Y0044391D01*
X0172205Y0044314D01*
X0172234Y0044236D01*
X0172259Y0044157D01*
X0172281Y0044077D01*
X0172298Y0043995D01*
X0172312Y0043913D01*
X0172322Y0043830D01*
X0172328Y0043747D01*
X0172330Y0043664D01*
X0172328Y0043581D01*
X0172322Y0043498D01*
X0172312Y0043415D01*
X0172298Y0043333D01*
X0172281Y0043251D01*
X0172259Y0043171D01*
X0172234Y0043092D01*
X0172205Y0043014D01*
X0172172Y0042937D01*
X0172135Y0042862D01*
X0172096Y0042789D01*
X0172052Y0042718D01*
X0172006Y0042649D01*
X0171956Y0042582D01*
X0171903Y0042518D01*
X0171847Y0042456D01*
X0171788Y0042397D01*
X0171726Y0042341D01*
X0171662Y0042288D01*
X0171595Y0042238D01*
X0171526Y0042192D01*
X0171455Y0042148D01*
X0171382Y0042109D01*
X0171307Y0042072D01*
X0171230Y0042039D01*
X0171152Y0042010D01*
X0171073Y0041985D01*
X0170993Y0041963D01*
X0170911Y0041946D01*
X0170829Y0041932D01*
X0170746Y0041922D01*
X0170663Y0041916D01*
X0170580Y0041914D01*
X0170497Y0041916D01*
X0170414Y0041922D01*
X0170331Y0041932D01*
X0170249Y0041946D01*
X0170167Y0041963D01*
X0170087Y0041985D01*
X0170008Y0042010D01*
X0169930Y0042039D01*
X0169853Y0042072D01*
X0169778Y0042109D01*
X0169705Y0042148D01*
X0169634Y0042192D01*
X0169565Y0042238D01*
X0169498Y0042288D01*
X0169434Y0042341D01*
X0169372Y0042397D01*
X0169313Y0042456D01*
X0169257Y0042518D01*
X0169204Y0042582D01*
X0169154Y0042649D01*
X0169108Y0042718D01*
X0169064Y0042789D01*
X0169025Y0042862D01*
X0168988Y0042937D01*
X0168955Y0043014D01*
X0168926Y0043092D01*
X0168901Y0043171D01*
X0168879Y0043251D01*
X0168862Y0043333D01*
X0168848Y0043415D01*
X0168838Y0043498D01*
X0168832Y0043581D01*
X0168830Y0043664D01*
X0183368Y0024400D02*
X0183370Y0024558D01*
X0183376Y0024716D01*
X0183386Y0024874D01*
X0183400Y0025032D01*
X0183418Y0025189D01*
X0183439Y0025346D01*
X0183465Y0025502D01*
X0183495Y0025658D01*
X0183528Y0025813D01*
X0183566Y0025966D01*
X0183607Y0026119D01*
X0183652Y0026271D01*
X0183701Y0026422D01*
X0183754Y0026571D01*
X0183810Y0026719D01*
X0183870Y0026865D01*
X0183934Y0027010D01*
X0184002Y0027153D01*
X0184073Y0027295D01*
X0184147Y0027435D01*
X0184225Y0027572D01*
X0184307Y0027708D01*
X0184391Y0027842D01*
X0184480Y0027973D01*
X0184571Y0028102D01*
X0184666Y0028229D01*
X0184763Y0028354D01*
X0184864Y0028476D01*
X0184968Y0028595D01*
X0185075Y0028712D01*
X0185185Y0028826D01*
X0185298Y0028937D01*
X0185413Y0029046D01*
X0185531Y0029151D01*
X0185652Y0029253D01*
X0185775Y0029353D01*
X0185901Y0029449D01*
X0186029Y0029542D01*
X0186159Y0029632D01*
X0186292Y0029718D01*
X0186427Y0029802D01*
X0186563Y0029881D01*
X0186702Y0029958D01*
X0186843Y0030030D01*
X0186985Y0030100D01*
X0187129Y0030165D01*
X0187275Y0030227D01*
X0187422Y0030285D01*
X0187571Y0030340D01*
X0187721Y0030391D01*
X0187872Y0030438D01*
X0188024Y0030481D01*
X0188177Y0030520D01*
X0188332Y0030556D01*
X0188487Y0030587D01*
X0188643Y0030615D01*
X0188799Y0030639D01*
X0188956Y0030659D01*
X0189114Y0030675D01*
X0189271Y0030687D01*
X0189430Y0030695D01*
X0189588Y0030699D01*
X0189746Y0030699D01*
X0189904Y0030695D01*
X0190063Y0030687D01*
X0190220Y0030675D01*
X0190378Y0030659D01*
X0190535Y0030639D01*
X0190691Y0030615D01*
X0190847Y0030587D01*
X0191002Y0030556D01*
X0191157Y0030520D01*
X0191310Y0030481D01*
X0191462Y0030438D01*
X0191613Y0030391D01*
X0191763Y0030340D01*
X0191912Y0030285D01*
X0192059Y0030227D01*
X0192205Y0030165D01*
X0192349Y0030100D01*
X0192491Y0030030D01*
X0192632Y0029958D01*
X0192771Y0029881D01*
X0192907Y0029802D01*
X0193042Y0029718D01*
X0193175Y0029632D01*
X0193305Y0029542D01*
X0193433Y0029449D01*
X0193559Y0029353D01*
X0193682Y0029253D01*
X0193803Y0029151D01*
X0193921Y0029046D01*
X0194036Y0028937D01*
X0194149Y0028826D01*
X0194259Y0028712D01*
X0194366Y0028595D01*
X0194470Y0028476D01*
X0194571Y0028354D01*
X0194668Y0028229D01*
X0194763Y0028102D01*
X0194854Y0027973D01*
X0194943Y0027842D01*
X0195027Y0027708D01*
X0195109Y0027572D01*
X0195187Y0027435D01*
X0195261Y0027295D01*
X0195332Y0027153D01*
X0195400Y0027010D01*
X0195464Y0026865D01*
X0195524Y0026719D01*
X0195580Y0026571D01*
X0195633Y0026422D01*
X0195682Y0026271D01*
X0195727Y0026119D01*
X0195768Y0025966D01*
X0195806Y0025813D01*
X0195839Y0025658D01*
X0195869Y0025502D01*
X0195895Y0025346D01*
X0195916Y0025189D01*
X0195934Y0025032D01*
X0195948Y0024874D01*
X0195958Y0024716D01*
X0195964Y0024558D01*
X0195966Y0024400D01*
X0195964Y0024242D01*
X0195958Y0024084D01*
X0195948Y0023926D01*
X0195934Y0023768D01*
X0195916Y0023611D01*
X0195895Y0023454D01*
X0195869Y0023298D01*
X0195839Y0023142D01*
X0195806Y0022987D01*
X0195768Y0022834D01*
X0195727Y0022681D01*
X0195682Y0022529D01*
X0195633Y0022378D01*
X0195580Y0022229D01*
X0195524Y0022081D01*
X0195464Y0021935D01*
X0195400Y0021790D01*
X0195332Y0021647D01*
X0195261Y0021505D01*
X0195187Y0021365D01*
X0195109Y0021228D01*
X0195027Y0021092D01*
X0194943Y0020958D01*
X0194854Y0020827D01*
X0194763Y0020698D01*
X0194668Y0020571D01*
X0194571Y0020446D01*
X0194470Y0020324D01*
X0194366Y0020205D01*
X0194259Y0020088D01*
X0194149Y0019974D01*
X0194036Y0019863D01*
X0193921Y0019754D01*
X0193803Y0019649D01*
X0193682Y0019547D01*
X0193559Y0019447D01*
X0193433Y0019351D01*
X0193305Y0019258D01*
X0193175Y0019168D01*
X0193042Y0019082D01*
X0192907Y0018998D01*
X0192771Y0018919D01*
X0192632Y0018842D01*
X0192491Y0018770D01*
X0192349Y0018700D01*
X0192205Y0018635D01*
X0192059Y0018573D01*
X0191912Y0018515D01*
X0191763Y0018460D01*
X0191613Y0018409D01*
X0191462Y0018362D01*
X0191310Y0018319D01*
X0191157Y0018280D01*
X0191002Y0018244D01*
X0190847Y0018213D01*
X0190691Y0018185D01*
X0190535Y0018161D01*
X0190378Y0018141D01*
X0190220Y0018125D01*
X0190063Y0018113D01*
X0189904Y0018105D01*
X0189746Y0018101D01*
X0189588Y0018101D01*
X0189430Y0018105D01*
X0189271Y0018113D01*
X0189114Y0018125D01*
X0188956Y0018141D01*
X0188799Y0018161D01*
X0188643Y0018185D01*
X0188487Y0018213D01*
X0188332Y0018244D01*
X0188177Y0018280D01*
X0188024Y0018319D01*
X0187872Y0018362D01*
X0187721Y0018409D01*
X0187571Y0018460D01*
X0187422Y0018515D01*
X0187275Y0018573D01*
X0187129Y0018635D01*
X0186985Y0018700D01*
X0186843Y0018770D01*
X0186702Y0018842D01*
X0186563Y0018919D01*
X0186427Y0018998D01*
X0186292Y0019082D01*
X0186159Y0019168D01*
X0186029Y0019258D01*
X0185901Y0019351D01*
X0185775Y0019447D01*
X0185652Y0019547D01*
X0185531Y0019649D01*
X0185413Y0019754D01*
X0185298Y0019863D01*
X0185185Y0019974D01*
X0185075Y0020088D01*
X0184968Y0020205D01*
X0184864Y0020324D01*
X0184763Y0020446D01*
X0184666Y0020571D01*
X0184571Y0020698D01*
X0184480Y0020827D01*
X0184391Y0020958D01*
X0184307Y0021092D01*
X0184225Y0021228D01*
X0184147Y0021365D01*
X0184073Y0021505D01*
X0184002Y0021647D01*
X0183934Y0021790D01*
X0183870Y0021935D01*
X0183810Y0022081D01*
X0183754Y0022229D01*
X0183701Y0022378D01*
X0183652Y0022529D01*
X0183607Y0022681D01*
X0183566Y0022834D01*
X0183528Y0022987D01*
X0183495Y0023142D01*
X0183465Y0023298D01*
X0183439Y0023454D01*
X0183418Y0023611D01*
X0183400Y0023768D01*
X0183386Y0023926D01*
X0183376Y0024084D01*
X0183370Y0024242D01*
X0183368Y0024400D01*
X0168830Y0075160D02*
X0168832Y0075243D01*
X0168838Y0075326D01*
X0168848Y0075409D01*
X0168862Y0075491D01*
X0168879Y0075573D01*
X0168901Y0075653D01*
X0168926Y0075732D01*
X0168955Y0075810D01*
X0168988Y0075887D01*
X0169025Y0075962D01*
X0169064Y0076035D01*
X0169108Y0076106D01*
X0169154Y0076175D01*
X0169204Y0076242D01*
X0169257Y0076306D01*
X0169313Y0076368D01*
X0169372Y0076427D01*
X0169434Y0076483D01*
X0169498Y0076536D01*
X0169565Y0076586D01*
X0169634Y0076632D01*
X0169705Y0076676D01*
X0169778Y0076715D01*
X0169853Y0076752D01*
X0169930Y0076785D01*
X0170008Y0076814D01*
X0170087Y0076839D01*
X0170167Y0076861D01*
X0170249Y0076878D01*
X0170331Y0076892D01*
X0170414Y0076902D01*
X0170497Y0076908D01*
X0170580Y0076910D01*
X0170663Y0076908D01*
X0170746Y0076902D01*
X0170829Y0076892D01*
X0170911Y0076878D01*
X0170993Y0076861D01*
X0171073Y0076839D01*
X0171152Y0076814D01*
X0171230Y0076785D01*
X0171307Y0076752D01*
X0171382Y0076715D01*
X0171455Y0076676D01*
X0171526Y0076632D01*
X0171595Y0076586D01*
X0171662Y0076536D01*
X0171726Y0076483D01*
X0171788Y0076427D01*
X0171847Y0076368D01*
X0171903Y0076306D01*
X0171956Y0076242D01*
X0172006Y0076175D01*
X0172052Y0076106D01*
X0172096Y0076035D01*
X0172135Y0075962D01*
X0172172Y0075887D01*
X0172205Y0075810D01*
X0172234Y0075732D01*
X0172259Y0075653D01*
X0172281Y0075573D01*
X0172298Y0075491D01*
X0172312Y0075409D01*
X0172322Y0075326D01*
X0172328Y0075243D01*
X0172330Y0075160D01*
X0172328Y0075077D01*
X0172322Y0074994D01*
X0172312Y0074911D01*
X0172298Y0074829D01*
X0172281Y0074747D01*
X0172259Y0074667D01*
X0172234Y0074588D01*
X0172205Y0074510D01*
X0172172Y0074433D01*
X0172135Y0074358D01*
X0172096Y0074285D01*
X0172052Y0074214D01*
X0172006Y0074145D01*
X0171956Y0074078D01*
X0171903Y0074014D01*
X0171847Y0073952D01*
X0171788Y0073893D01*
X0171726Y0073837D01*
X0171662Y0073784D01*
X0171595Y0073734D01*
X0171526Y0073688D01*
X0171455Y0073644D01*
X0171382Y0073605D01*
X0171307Y0073568D01*
X0171230Y0073535D01*
X0171152Y0073506D01*
X0171073Y0073481D01*
X0170993Y0073459D01*
X0170911Y0073442D01*
X0170829Y0073428D01*
X0170746Y0073418D01*
X0170663Y0073412D01*
X0170580Y0073410D01*
X0170497Y0073412D01*
X0170414Y0073418D01*
X0170331Y0073428D01*
X0170249Y0073442D01*
X0170167Y0073459D01*
X0170087Y0073481D01*
X0170008Y0073506D01*
X0169930Y0073535D01*
X0169853Y0073568D01*
X0169778Y0073605D01*
X0169705Y0073644D01*
X0169634Y0073688D01*
X0169565Y0073734D01*
X0169498Y0073784D01*
X0169434Y0073837D01*
X0169372Y0073893D01*
X0169313Y0073952D01*
X0169257Y0074014D01*
X0169204Y0074078D01*
X0169154Y0074145D01*
X0169108Y0074214D01*
X0169064Y0074285D01*
X0169025Y0074358D01*
X0168988Y0074433D01*
X0168955Y0074510D01*
X0168926Y0074588D01*
X0168901Y0074667D01*
X0168879Y0074747D01*
X0168862Y0074829D01*
X0168848Y0074911D01*
X0168838Y0074994D01*
X0168832Y0075077D01*
X0168830Y0075160D01*
X0007868Y0183900D02*
X0007870Y0184058D01*
X0007876Y0184216D01*
X0007886Y0184374D01*
X0007900Y0184532D01*
X0007918Y0184689D01*
X0007939Y0184846D01*
X0007965Y0185002D01*
X0007995Y0185158D01*
X0008028Y0185313D01*
X0008066Y0185466D01*
X0008107Y0185619D01*
X0008152Y0185771D01*
X0008201Y0185922D01*
X0008254Y0186071D01*
X0008310Y0186219D01*
X0008370Y0186365D01*
X0008434Y0186510D01*
X0008502Y0186653D01*
X0008573Y0186795D01*
X0008647Y0186935D01*
X0008725Y0187072D01*
X0008807Y0187208D01*
X0008891Y0187342D01*
X0008980Y0187473D01*
X0009071Y0187602D01*
X0009166Y0187729D01*
X0009263Y0187854D01*
X0009364Y0187976D01*
X0009468Y0188095D01*
X0009575Y0188212D01*
X0009685Y0188326D01*
X0009798Y0188437D01*
X0009913Y0188546D01*
X0010031Y0188651D01*
X0010152Y0188753D01*
X0010275Y0188853D01*
X0010401Y0188949D01*
X0010529Y0189042D01*
X0010659Y0189132D01*
X0010792Y0189218D01*
X0010927Y0189302D01*
X0011063Y0189381D01*
X0011202Y0189458D01*
X0011343Y0189530D01*
X0011485Y0189600D01*
X0011629Y0189665D01*
X0011775Y0189727D01*
X0011922Y0189785D01*
X0012071Y0189840D01*
X0012221Y0189891D01*
X0012372Y0189938D01*
X0012524Y0189981D01*
X0012677Y0190020D01*
X0012832Y0190056D01*
X0012987Y0190087D01*
X0013143Y0190115D01*
X0013299Y0190139D01*
X0013456Y0190159D01*
X0013614Y0190175D01*
X0013771Y0190187D01*
X0013930Y0190195D01*
X0014088Y0190199D01*
X0014246Y0190199D01*
X0014404Y0190195D01*
X0014563Y0190187D01*
X0014720Y0190175D01*
X0014878Y0190159D01*
X0015035Y0190139D01*
X0015191Y0190115D01*
X0015347Y0190087D01*
X0015502Y0190056D01*
X0015657Y0190020D01*
X0015810Y0189981D01*
X0015962Y0189938D01*
X0016113Y0189891D01*
X0016263Y0189840D01*
X0016412Y0189785D01*
X0016559Y0189727D01*
X0016705Y0189665D01*
X0016849Y0189600D01*
X0016991Y0189530D01*
X0017132Y0189458D01*
X0017271Y0189381D01*
X0017407Y0189302D01*
X0017542Y0189218D01*
X0017675Y0189132D01*
X0017805Y0189042D01*
X0017933Y0188949D01*
X0018059Y0188853D01*
X0018182Y0188753D01*
X0018303Y0188651D01*
X0018421Y0188546D01*
X0018536Y0188437D01*
X0018649Y0188326D01*
X0018759Y0188212D01*
X0018866Y0188095D01*
X0018970Y0187976D01*
X0019071Y0187854D01*
X0019168Y0187729D01*
X0019263Y0187602D01*
X0019354Y0187473D01*
X0019443Y0187342D01*
X0019527Y0187208D01*
X0019609Y0187072D01*
X0019687Y0186935D01*
X0019761Y0186795D01*
X0019832Y0186653D01*
X0019900Y0186510D01*
X0019964Y0186365D01*
X0020024Y0186219D01*
X0020080Y0186071D01*
X0020133Y0185922D01*
X0020182Y0185771D01*
X0020227Y0185619D01*
X0020268Y0185466D01*
X0020306Y0185313D01*
X0020339Y0185158D01*
X0020369Y0185002D01*
X0020395Y0184846D01*
X0020416Y0184689D01*
X0020434Y0184532D01*
X0020448Y0184374D01*
X0020458Y0184216D01*
X0020464Y0184058D01*
X0020466Y0183900D01*
X0020464Y0183742D01*
X0020458Y0183584D01*
X0020448Y0183426D01*
X0020434Y0183268D01*
X0020416Y0183111D01*
X0020395Y0182954D01*
X0020369Y0182798D01*
X0020339Y0182642D01*
X0020306Y0182487D01*
X0020268Y0182334D01*
X0020227Y0182181D01*
X0020182Y0182029D01*
X0020133Y0181878D01*
X0020080Y0181729D01*
X0020024Y0181581D01*
X0019964Y0181435D01*
X0019900Y0181290D01*
X0019832Y0181147D01*
X0019761Y0181005D01*
X0019687Y0180865D01*
X0019609Y0180728D01*
X0019527Y0180592D01*
X0019443Y0180458D01*
X0019354Y0180327D01*
X0019263Y0180198D01*
X0019168Y0180071D01*
X0019071Y0179946D01*
X0018970Y0179824D01*
X0018866Y0179705D01*
X0018759Y0179588D01*
X0018649Y0179474D01*
X0018536Y0179363D01*
X0018421Y0179254D01*
X0018303Y0179149D01*
X0018182Y0179047D01*
X0018059Y0178947D01*
X0017933Y0178851D01*
X0017805Y0178758D01*
X0017675Y0178668D01*
X0017542Y0178582D01*
X0017407Y0178498D01*
X0017271Y0178419D01*
X0017132Y0178342D01*
X0016991Y0178270D01*
X0016849Y0178200D01*
X0016705Y0178135D01*
X0016559Y0178073D01*
X0016412Y0178015D01*
X0016263Y0177960D01*
X0016113Y0177909D01*
X0015962Y0177862D01*
X0015810Y0177819D01*
X0015657Y0177780D01*
X0015502Y0177744D01*
X0015347Y0177713D01*
X0015191Y0177685D01*
X0015035Y0177661D01*
X0014878Y0177641D01*
X0014720Y0177625D01*
X0014563Y0177613D01*
X0014404Y0177605D01*
X0014246Y0177601D01*
X0014088Y0177601D01*
X0013930Y0177605D01*
X0013771Y0177613D01*
X0013614Y0177625D01*
X0013456Y0177641D01*
X0013299Y0177661D01*
X0013143Y0177685D01*
X0012987Y0177713D01*
X0012832Y0177744D01*
X0012677Y0177780D01*
X0012524Y0177819D01*
X0012372Y0177862D01*
X0012221Y0177909D01*
X0012071Y0177960D01*
X0011922Y0178015D01*
X0011775Y0178073D01*
X0011629Y0178135D01*
X0011485Y0178200D01*
X0011343Y0178270D01*
X0011202Y0178342D01*
X0011063Y0178419D01*
X0010927Y0178498D01*
X0010792Y0178582D01*
X0010659Y0178668D01*
X0010529Y0178758D01*
X0010401Y0178851D01*
X0010275Y0178947D01*
X0010152Y0179047D01*
X0010031Y0179149D01*
X0009913Y0179254D01*
X0009798Y0179363D01*
X0009685Y0179474D01*
X0009575Y0179588D01*
X0009468Y0179705D01*
X0009364Y0179824D01*
X0009263Y0179946D01*
X0009166Y0180071D01*
X0009071Y0180198D01*
X0008980Y0180327D01*
X0008891Y0180458D01*
X0008807Y0180592D01*
X0008725Y0180728D01*
X0008647Y0180865D01*
X0008573Y0181005D01*
X0008502Y0181147D01*
X0008434Y0181290D01*
X0008370Y0181435D01*
X0008310Y0181581D01*
X0008254Y0181729D01*
X0008201Y0181878D01*
X0008152Y0182029D01*
X0008107Y0182181D01*
X0008066Y0182334D01*
X0008028Y0182487D01*
X0007995Y0182642D01*
X0007965Y0182798D01*
X0007939Y0182954D01*
X0007918Y0183111D01*
X0007900Y0183268D01*
X0007886Y0183426D01*
X0007876Y0183584D01*
X0007870Y0183742D01*
X0007868Y0183900D01*
D12*
X0027434Y0142460D02*
X0028969Y0142460D01*
X0029736Y0141692D01*
X0029736Y0140158D01*
X0028969Y0139390D01*
X0027434Y0139390D01*
X0026667Y0140158D01*
X0026667Y0141692D01*
X0027434Y0142460D01*
X0026667Y0137856D02*
X0026667Y0135554D01*
X0027434Y0134786D01*
X0028969Y0134786D01*
X0029736Y0135554D01*
X0029736Y0137856D01*
X0029736Y0132484D02*
X0026667Y0132484D01*
X0026667Y0131717D02*
X0026667Y0133252D01*
X0026667Y0130182D02*
X0029736Y0127113D01*
X0028969Y0125578D02*
X0028201Y0125578D01*
X0028201Y0122509D01*
X0027434Y0122509D02*
X0028969Y0122509D01*
X0029736Y0123277D01*
X0029736Y0124811D01*
X0028969Y0125578D01*
X0026667Y0124811D02*
X0026667Y0123277D01*
X0027434Y0122509D01*
X0026667Y0120975D02*
X0031271Y0120975D01*
X0029736Y0119440D01*
X0031271Y0117905D01*
X0026667Y0117905D01*
X0026667Y0111767D02*
X0028969Y0111767D01*
X0029736Y0110999D01*
X0029736Y0108697D01*
X0026667Y0108697D01*
X0028201Y0107163D02*
X0028201Y0104094D01*
X0027434Y0104094D02*
X0028969Y0104094D01*
X0029736Y0104861D01*
X0029736Y0106395D01*
X0028969Y0107163D01*
X0028201Y0107163D01*
X0026667Y0106395D02*
X0026667Y0104861D01*
X0027434Y0104094D01*
X0027434Y0097955D02*
X0028969Y0097955D01*
X0029736Y0097188D01*
X0029736Y0095653D01*
X0028969Y0094886D01*
X0027434Y0094886D01*
X0026667Y0095653D01*
X0026667Y0097188D01*
X0027434Y0097955D01*
X0026667Y0093351D02*
X0028969Y0093351D01*
X0029736Y0092584D01*
X0029736Y0090282D01*
X0026667Y0090282D01*
X0028201Y0088747D02*
X0028201Y0085678D01*
X0027434Y0085678D02*
X0028969Y0085678D01*
X0029736Y0086445D01*
X0029736Y0087980D01*
X0028969Y0088747D01*
X0028201Y0088747D01*
X0026667Y0087980D02*
X0026667Y0086445D01*
X0027434Y0085678D01*
X0027434Y0084143D02*
X0028201Y0083376D01*
X0028201Y0081841D01*
X0028969Y0081074D01*
X0029736Y0081841D01*
X0029736Y0084143D01*
X0027434Y0084143D02*
X0026667Y0083376D01*
X0026667Y0081074D01*
X0026667Y0079539D02*
X0026667Y0078005D01*
X0026667Y0078772D02*
X0029736Y0078772D01*
X0029736Y0078005D01*
X0031271Y0078772D02*
X0032038Y0078772D01*
X0030503Y0076470D02*
X0031271Y0075703D01*
X0031271Y0073401D01*
X0026667Y0073401D01*
X0026667Y0075703D01*
X0027434Y0076470D01*
X0030503Y0076470D01*
X0031271Y0071866D02*
X0026667Y0068797D01*
X0028201Y0067262D02*
X0028201Y0064193D01*
X0027434Y0064193D02*
X0028969Y0064193D01*
X0029736Y0064960D01*
X0029736Y0066495D01*
X0028969Y0067262D01*
X0028201Y0067262D01*
X0026667Y0066495D02*
X0026667Y0064960D01*
X0027434Y0064193D01*
X0026667Y0062658D02*
X0026667Y0061124D01*
X0026667Y0061891D02*
X0031271Y0061891D01*
X0031271Y0061124D01*
X0028969Y0059589D02*
X0029736Y0058822D01*
X0029736Y0056520D01*
X0031271Y0056520D02*
X0026667Y0056520D01*
X0026667Y0058822D01*
X0027434Y0059589D01*
X0028969Y0059589D01*
X0028969Y0054985D02*
X0026667Y0054985D01*
X0026667Y0053450D02*
X0028969Y0053450D01*
X0029736Y0054218D01*
X0028969Y0054985D01*
X0028969Y0053450D02*
X0029736Y0052683D01*
X0029736Y0051916D01*
X0026667Y0051916D01*
X0026667Y0050381D02*
X0026667Y0048079D01*
X0027434Y0047312D01*
X0028201Y0048079D01*
X0028201Y0050381D01*
X0028969Y0050381D02*
X0026667Y0050381D01*
X0028969Y0050381D02*
X0029736Y0049614D01*
X0029736Y0048079D01*
X0029736Y0045777D02*
X0029736Y0043475D01*
X0028969Y0042708D01*
X0028201Y0043475D01*
X0028201Y0045010D01*
X0027434Y0045777D01*
X0026667Y0045010D01*
X0026667Y0042708D01*
X0026667Y0041173D02*
X0028969Y0041173D01*
X0029736Y0040406D01*
X0029736Y0038104D01*
X0026667Y0038104D01*
X0026667Y0036569D02*
X0026667Y0033500D01*
X0031271Y0033500D01*
X0031271Y0036569D01*
X0028969Y0035035D02*
X0028969Y0033500D01*
X0035067Y0034267D02*
X0035834Y0033500D01*
X0038903Y0033500D01*
X0039671Y0034267D01*
X0039671Y0035802D01*
X0038903Y0036569D01*
X0037369Y0036569D02*
X0037369Y0035035D01*
X0037369Y0036569D02*
X0035834Y0036569D01*
X0035067Y0035802D01*
X0035067Y0034267D01*
X0035067Y0038104D02*
X0039671Y0038104D01*
X0039671Y0040406D01*
X0038903Y0041173D01*
X0037369Y0041173D01*
X0036601Y0040406D01*
X0036601Y0038104D01*
X0035834Y0042708D02*
X0035067Y0043475D01*
X0035067Y0045010D01*
X0035834Y0045777D01*
X0036601Y0045777D01*
X0037369Y0045010D01*
X0037369Y0043475D01*
X0038136Y0042708D01*
X0038903Y0042708D01*
X0039671Y0043475D01*
X0039671Y0045010D01*
X0038903Y0045777D01*
X0043267Y0045010D02*
X0044034Y0045777D01*
X0046336Y0045777D01*
X0044034Y0044242D02*
X0043267Y0045010D01*
X0044034Y0044242D02*
X0043267Y0043475D01*
X0044034Y0042708D01*
X0046336Y0042708D01*
X0046336Y0041173D02*
X0044034Y0041173D01*
X0043267Y0040406D01*
X0044034Y0039639D01*
X0043267Y0038871D01*
X0044034Y0038104D01*
X0046336Y0038104D01*
X0046336Y0036569D02*
X0044034Y0036569D01*
X0043267Y0035802D01*
X0044034Y0035035D01*
X0043267Y0034267D01*
X0044034Y0033500D01*
X0046336Y0033500D01*
X0044034Y0047312D02*
X0043267Y0047312D01*
X0043267Y0048079D01*
X0044034Y0048079D01*
X0044034Y0047312D01*
X0044034Y0049614D02*
X0043267Y0050381D01*
X0043267Y0052683D01*
X0044034Y0054218D02*
X0043267Y0054985D01*
X0043267Y0057287D01*
X0046336Y0057287D01*
X0046336Y0059589D02*
X0046336Y0061124D01*
X0045569Y0061891D01*
X0043267Y0061891D01*
X0043267Y0059589D01*
X0044034Y0058822D01*
X0044801Y0059589D01*
X0044801Y0061891D01*
X0043267Y0063426D02*
X0046336Y0063426D01*
X0046336Y0065727D01*
X0045569Y0066495D01*
X0043267Y0066495D01*
X0044034Y0068797D02*
X0043267Y0069564D01*
X0044034Y0068797D02*
X0047103Y0068797D01*
X0046336Y0069564D02*
X0046336Y0068029D01*
X0045569Y0071099D02*
X0046336Y0071866D01*
X0046336Y0073401D01*
X0045569Y0074168D01*
X0044801Y0074168D01*
X0044801Y0071099D01*
X0044034Y0071099D02*
X0045569Y0071099D01*
X0044034Y0071099D02*
X0043267Y0071866D01*
X0043267Y0073401D01*
X0043267Y0075703D02*
X0046336Y0078772D01*
X0044034Y0080307D02*
X0044034Y0081074D01*
X0043267Y0081074D01*
X0043267Y0080307D01*
X0044034Y0080307D01*
X0043267Y0078772D02*
X0046336Y0075703D01*
X0045569Y0082609D02*
X0044034Y0082609D01*
X0043267Y0083376D01*
X0043267Y0085678D01*
X0044034Y0087212D02*
X0043267Y0087980D01*
X0043267Y0089514D01*
X0044034Y0090282D01*
X0045569Y0090282D01*
X0046336Y0089514D01*
X0046336Y0087980D01*
X0045569Y0087212D01*
X0044034Y0087212D01*
X0046336Y0085678D02*
X0046336Y0083376D01*
X0045569Y0082609D01*
X0039671Y0073401D02*
X0038903Y0071866D01*
X0037369Y0070331D01*
X0037369Y0072633D01*
X0036601Y0073401D01*
X0035834Y0073401D01*
X0035067Y0072633D01*
X0035067Y0071099D01*
X0035834Y0070331D01*
X0037369Y0070331D01*
X0037369Y0068797D02*
X0037369Y0065727D01*
X0038903Y0064193D02*
X0039671Y0063426D01*
X0039671Y0061891D01*
X0038903Y0061124D01*
X0035834Y0061124D01*
X0035067Y0061891D01*
X0035067Y0063426D01*
X0035834Y0064193D01*
X0038903Y0064193D01*
X0039671Y0059589D02*
X0039671Y0056520D01*
X0035067Y0056520D01*
X0035067Y0059589D01*
X0037369Y0058054D02*
X0037369Y0056520D01*
X0035067Y0054985D02*
X0039671Y0054985D01*
X0039671Y0051916D02*
X0035067Y0054985D01*
X0035067Y0051916D02*
X0039671Y0051916D01*
X0044034Y0054218D02*
X0046336Y0054218D01*
X0046336Y0052683D02*
X0046336Y0050381D01*
X0045569Y0049614D01*
X0044034Y0049614D01*
X0031271Y0090282D02*
X0032038Y0091049D01*
X0032038Y0092584D01*
X0032805Y0093351D01*
X0043267Y0093351D02*
X0045569Y0093351D01*
X0046336Y0094118D01*
X0045569Y0094886D01*
X0043267Y0094886D01*
X0045569Y0093351D02*
X0046336Y0092584D01*
X0046336Y0091816D01*
X0043267Y0091816D01*
X0026667Y0127113D02*
X0029736Y0130182D01*
X0029736Y0131717D02*
X0029736Y0132484D01*
X0031271Y0132484D02*
X0032038Y0132484D01*
X0184067Y0075029D02*
X0184067Y0073495D01*
X0184834Y0072727D01*
X0187903Y0075797D01*
X0184834Y0075797D01*
X0184067Y0075029D01*
X0184834Y0072727D02*
X0187903Y0072727D01*
X0188671Y0073495D01*
X0188671Y0075029D01*
X0187903Y0075797D01*
X0187903Y0071193D02*
X0184834Y0071193D01*
X0184067Y0070426D01*
X0184067Y0068891D01*
X0184834Y0068124D01*
X0187903Y0071193D01*
X0188671Y0070426D01*
X0188671Y0068891D01*
X0187903Y0068124D01*
X0184834Y0068124D01*
X0184834Y0066589D02*
X0185601Y0066589D01*
X0186369Y0065822D01*
X0186369Y0063520D01*
X0184834Y0063520D01*
X0184067Y0064287D01*
X0184067Y0065822D01*
X0184834Y0066589D01*
X0187903Y0065054D02*
X0186369Y0063520D01*
X0187903Y0065054D02*
X0188671Y0066589D01*
X0187903Y0061985D02*
X0184834Y0061985D01*
X0184067Y0061218D01*
X0184067Y0059683D01*
X0184834Y0058916D01*
X0187903Y0061985D01*
X0188671Y0061218D01*
X0188671Y0059683D01*
X0187903Y0058916D01*
X0184834Y0058916D01*
X0184067Y0057381D02*
X0184067Y0054312D01*
X0188671Y0054312D01*
X0188671Y0057381D01*
X0186369Y0055846D02*
X0186369Y0054312D01*
X0184067Y0052777D02*
X0188671Y0052777D01*
X0188671Y0049708D02*
X0184067Y0052777D01*
X0184067Y0049708D02*
X0188671Y0049708D01*
X0187903Y0048173D02*
X0186369Y0048173D01*
X0185601Y0047406D01*
X0185601Y0045104D01*
X0184067Y0045104D02*
X0188671Y0045104D01*
X0188671Y0047406D01*
X0187903Y0048173D01*
X0187903Y0043569D02*
X0188671Y0042802D01*
X0188671Y0041267D01*
X0187903Y0040500D01*
X0184834Y0040500D01*
X0184067Y0041267D01*
X0184067Y0042802D01*
X0184834Y0043569D01*
X0186369Y0043569D01*
X0186369Y0042035D01*
D13*
X0083190Y0140605D03*
X0072299Y0126527D03*
X0058221Y0144058D03*
X0068846Y0153798D03*
X0072299Y0073224D03*
X0072299Y0043208D03*
D14*
X0063711Y0169161D03*
X0063533Y0169161D03*
X0063091Y0169161D03*
X0062737Y0169161D03*
X0062382Y0169161D03*
X0061940Y0169161D03*
X0059549Y0169161D03*
X0058664Y0169161D03*
X0058309Y0169161D03*
X0100456Y0169161D03*
X0100722Y0169161D03*
X0101253Y0169161D03*
X0101607Y0169161D03*
X0102138Y0169161D03*
D15*
X0079117Y0169913D03*
X0063711Y0151142D03*
X0059549Y0147246D03*
X0058309Y0146095D03*
D16*
X0058398Y0169161D03*
X0058575Y0169161D03*
X0058841Y0169161D03*
X0059372Y0169161D03*
X0060346Y0169161D03*
X0061320Y0169161D03*
X0061851Y0169161D03*
X0062028Y0169161D03*
X0062294Y0169161D03*
X0062471Y0169161D03*
X0062648Y0169161D03*
X0062825Y0169161D03*
X0063002Y0169161D03*
X0063268Y0169161D03*
X0063445Y0169161D03*
X0063622Y0169161D03*
X0063799Y0169161D03*
X0100633Y0169161D03*
X0100899Y0169161D03*
X0101164Y0169161D03*
X0101430Y0169161D03*
X0101784Y0169161D03*
X0102050Y0169161D03*
X0102315Y0169161D03*
X0102581Y0169161D03*
D17*
X0093992Y0155923D03*
X0058398Y0146184D03*
D18*
X0058486Y0169161D03*
X0059018Y0169161D03*
X0060700Y0169161D03*
X0061674Y0169161D03*
X0062117Y0169161D03*
X0062559Y0169161D03*
X0062914Y0169161D03*
X0063356Y0169161D03*
X0063888Y0169161D03*
X0100987Y0169161D03*
X0101873Y0169161D03*
X0102404Y0169161D03*
D19*
X0062117Y0149681D03*
X0058486Y0146228D03*
D20*
X0058575Y0146316D03*
X0058841Y0146582D03*
X0061851Y0149416D03*
X0062028Y0149593D03*
X0062648Y0150124D03*
X0062825Y0150301D03*
X0063002Y0150478D03*
X0063268Y0150744D03*
X0063445Y0150921D03*
X0063622Y0151098D03*
X0074956Y0108863D03*
X0075133Y0108863D03*
X0094258Y0101248D03*
D21*
X0075044Y0108863D03*
X0058664Y0146405D03*
X0061940Y0149504D03*
X0062382Y0149947D03*
X0062737Y0150212D03*
X0063533Y0151009D03*
X0075929Y0030768D03*
D22*
X0064065Y0169161D03*
X0063976Y0169161D03*
X0063179Y0169161D03*
X0062205Y0169161D03*
X0061763Y0169161D03*
X0061585Y0169161D03*
X0061497Y0169161D03*
X0061408Y0169161D03*
X0061231Y0169161D03*
X0061054Y0169161D03*
X0060966Y0169161D03*
X0060877Y0169161D03*
X0060789Y0169161D03*
X0060612Y0169161D03*
X0060523Y0169161D03*
X0060434Y0169161D03*
X0060169Y0169161D03*
X0060080Y0169161D03*
X0059992Y0169161D03*
X0059903Y0169161D03*
X0059726Y0169161D03*
X0059637Y0169161D03*
X0059283Y0169161D03*
X0059195Y0169161D03*
X0059106Y0169161D03*
X0058929Y0169161D03*
X0058752Y0169161D03*
X0100367Y0169161D03*
X0100810Y0169161D03*
X0101076Y0169161D03*
X0101341Y0169161D03*
X0101696Y0169161D03*
X0101961Y0169161D03*
X0102227Y0169161D03*
X0102492Y0169161D03*
X0102670Y0169161D03*
D23*
X0061763Y0149327D03*
X0061585Y0149150D03*
X0061497Y0149061D03*
X0061408Y0148973D03*
X0060966Y0148619D03*
X0060877Y0148530D03*
X0060612Y0148264D03*
X0060523Y0148176D03*
X0060434Y0148087D03*
X0060169Y0147822D03*
X0060080Y0147733D03*
X0059992Y0147645D03*
X0059903Y0147556D03*
X0059726Y0147379D03*
X0059195Y0146936D03*
X0059106Y0146848D03*
X0058929Y0146671D03*
X0058752Y0146494D03*
X0075221Y0108863D03*
X0094169Y0030768D03*
D24*
X0094346Y0074331D03*
X0094346Y0085842D03*
X0059018Y0146759D03*
X0060700Y0148353D03*
X0061674Y0149238D03*
X0063356Y0150832D03*
D25*
X0063179Y0150655D03*
X0059283Y0147025D03*
D26*
X0059372Y0147113D03*
X0060346Y0147999D03*
D27*
X0060257Y0169161D03*
X0059815Y0169161D03*
X0059460Y0169161D03*
X0061143Y0169161D03*
X0100545Y0169161D03*
X0101519Y0169161D03*
D28*
X0059815Y0147468D03*
X0059460Y0147202D03*
D29*
X0059637Y0147335D03*
X0060789Y0148397D03*
X0061054Y0148663D03*
X0063976Y0151408D03*
X0092399Y0166017D03*
D30*
X0074867Y0182442D03*
X0060257Y0147910D03*
D31*
X0061143Y0148752D03*
D32*
X0061231Y0148840D03*
X0062205Y0149725D03*
X0064065Y0151496D03*
X0073362Y0155923D03*
D33*
X0063799Y0151231D03*
X0062471Y0149991D03*
X0062294Y0149814D03*
X0061320Y0148928D03*
X0074956Y0182398D03*
X0075664Y0063573D03*
X0075664Y0052239D03*
X0075841Y0030900D03*
D34*
X0094346Y0101115D03*
X0075310Y0108819D03*
X0062559Y0150080D03*
X0062914Y0150434D03*
X0063888Y0151319D03*
D35*
X0063091Y0150567D03*
X0073273Y0155879D03*
X0094081Y0155879D03*
D36*
X0064153Y0166991D03*
D37*
X0064242Y0167036D03*
D38*
X0064330Y0169205D03*
D39*
X0064330Y0151673D03*
X0075752Y0063661D03*
X0075752Y0052062D03*
D40*
X0064419Y0169249D03*
D41*
X0064419Y0151718D03*
X0075841Y0051929D03*
X0093992Y0030590D03*
D42*
X0064507Y0169294D03*
D43*
X0081419Y0167965D03*
X0064507Y0151762D03*
X0094081Y0101469D03*
X0094081Y0074021D03*
X0075929Y0051885D03*
D44*
X0064596Y0169338D03*
D45*
X0079560Y0169692D03*
X0079737Y0169515D03*
X0080445Y0168895D03*
X0080711Y0168629D03*
X0064596Y0151806D03*
X0093992Y0101602D03*
D46*
X0064684Y0169382D03*
D47*
X0064684Y0151850D03*
D48*
X0064773Y0169426D03*
D49*
X0064773Y0151895D03*
X0090185Y0167832D03*
X0091070Y0166947D03*
X0091956Y0166150D03*
D50*
X0064862Y0169471D03*
D51*
X0064862Y0151939D03*
D52*
X0064950Y0169515D03*
D53*
X0064950Y0151983D03*
X0072565Y0109217D03*
X0092399Y0102665D03*
X0092576Y0102665D03*
X0092753Y0102487D03*
X0093284Y0086638D03*
X0093550Y0073622D03*
X0076726Y0064414D03*
X0076726Y0051309D03*
X0076726Y0030148D03*
X0093284Y0030059D03*
D54*
X0065039Y0169559D03*
D55*
X0065039Y0152027D03*
X0072388Y0109261D03*
X0091602Y0103152D03*
X0091867Y0102975D03*
X0092576Y0086948D03*
X0093284Y0073490D03*
X0077169Y0064635D03*
X0077169Y0051177D03*
X0077169Y0029926D03*
D56*
X0065127Y0169603D03*
D57*
X0065127Y0152072D03*
X0087263Y0104790D03*
X0088148Y0104524D03*
X0092133Y0087081D03*
X0091247Y0065919D03*
X0088148Y0065742D03*
X0081508Y0065388D03*
X0092133Y0049804D03*
X0091247Y0029528D03*
D58*
X0065216Y0169648D03*
D59*
X0065216Y0152116D03*
X0072742Y0125022D03*
X0073096Y0125022D03*
X0073539Y0125022D03*
X0073804Y0125022D03*
X0074070Y0125022D03*
X0074247Y0125022D03*
X0074513Y0125022D03*
X0074690Y0125022D03*
X0074956Y0125022D03*
X0075133Y0125022D03*
X0075398Y0125022D03*
X0075664Y0125022D03*
X0075841Y0125022D03*
X0076107Y0125022D03*
X0076284Y0125022D03*
X0076549Y0125022D03*
X0076815Y0125022D03*
X0076992Y0125022D03*
X0077258Y0125022D03*
X0077435Y0125022D03*
X0077700Y0125022D03*
X0077966Y0125022D03*
X0078143Y0125022D03*
X0078409Y0125022D03*
X0078586Y0125022D03*
X0078851Y0125022D03*
X0079029Y0125022D03*
X0079294Y0125022D03*
X0079560Y0125022D03*
X0079737Y0125022D03*
X0080002Y0125022D03*
X0080180Y0125022D03*
X0080445Y0125022D03*
X0080711Y0125022D03*
X0080888Y0125022D03*
X0081154Y0125022D03*
X0081331Y0125022D03*
X0081596Y0125022D03*
X0081862Y0125022D03*
X0082039Y0125022D03*
X0082305Y0125022D03*
X0082482Y0125022D03*
X0082747Y0125022D03*
X0083190Y0125022D03*
X0083456Y0125022D03*
X0083633Y0125022D03*
X0083898Y0125022D03*
X0084075Y0125022D03*
X0084341Y0125022D03*
X0084607Y0125022D03*
X0084784Y0125022D03*
X0085049Y0125022D03*
X0085227Y0125022D03*
X0085492Y0125022D03*
X0085935Y0125022D03*
X0086201Y0125022D03*
X0086378Y0125022D03*
X0086643Y0125022D03*
X0087086Y0125022D03*
X0087352Y0125022D03*
X0087529Y0125022D03*
X0087794Y0125022D03*
X0087971Y0125022D03*
X0088237Y0125022D03*
X0088503Y0125022D03*
X0088680Y0125022D03*
X0088945Y0125022D03*
X0089122Y0125022D03*
X0089388Y0125022D03*
X0089654Y0125022D03*
X0089919Y0125022D03*
X0090185Y0125022D03*
X0090539Y0125022D03*
X0090805Y0125022D03*
X0091070Y0125022D03*
X0091336Y0125022D03*
X0091690Y0125022D03*
X0091956Y0125022D03*
X0092221Y0125022D03*
X0092487Y0125022D03*
X0092841Y0125022D03*
X0093107Y0125022D03*
X0093373Y0125022D03*
X0093638Y0125022D03*
X0093992Y0125022D03*
X0094524Y0125022D03*
X0087794Y0104657D03*
X0087971Y0104568D03*
X0088237Y0104480D03*
X0087529Y0104745D03*
X0087352Y0104745D03*
X0087086Y0104834D03*
X0085935Y0105188D03*
X0085227Y0105365D03*
X0084784Y0105542D03*
X0084607Y0105542D03*
X0084341Y0105631D03*
X0084075Y0105719D03*
X0082747Y0106073D03*
X0089919Y0103860D03*
X0090185Y0103771D03*
X0089122Y0087568D03*
X0088945Y0087568D03*
X0088680Y0087568D03*
X0088503Y0087568D03*
X0088237Y0087568D03*
X0087971Y0087568D03*
X0087529Y0087656D03*
X0087352Y0087656D03*
X0087086Y0087656D03*
X0086643Y0087656D03*
X0086201Y0087745D03*
X0089388Y0087479D03*
X0089654Y0087479D03*
X0089919Y0087479D03*
X0091956Y0087125D03*
X0082747Y0087922D03*
X0082482Y0087922D03*
X0082305Y0087922D03*
X0082039Y0087922D03*
X0081862Y0087922D03*
X0081596Y0087922D03*
X0081331Y0088011D03*
X0081154Y0088011D03*
X0080888Y0088011D03*
X0080711Y0088011D03*
X0074690Y0088365D03*
X0074513Y0088365D03*
X0074247Y0088365D03*
X0074070Y0088365D03*
X0073804Y0088365D03*
X0073539Y0088365D03*
X0073096Y0088453D03*
X0072742Y0088453D03*
X0088503Y0072604D03*
X0088680Y0072604D03*
X0088945Y0072604D03*
X0089122Y0072604D03*
X0089654Y0072693D03*
X0089919Y0072693D03*
X0090539Y0072781D03*
X0091070Y0072870D03*
X0087971Y0072516D03*
X0087794Y0072516D03*
X0087529Y0072516D03*
X0087352Y0072516D03*
X0087086Y0072516D03*
X0086201Y0072427D03*
X0080002Y0072073D03*
X0079737Y0072073D03*
X0079560Y0072073D03*
X0079294Y0072073D03*
X0079029Y0072073D03*
X0078851Y0072073D03*
X0078586Y0072073D03*
X0078409Y0071984D03*
X0078143Y0071984D03*
X0077966Y0071984D03*
X0077700Y0071984D03*
X0077435Y0071984D03*
X0077258Y0071984D03*
X0076992Y0071984D03*
X0076549Y0071896D03*
X0076284Y0071896D03*
X0076107Y0071896D03*
X0075841Y0071896D03*
X0075664Y0071896D03*
X0075398Y0071896D03*
X0075133Y0071807D03*
X0074956Y0071807D03*
X0074690Y0071807D03*
X0074513Y0071807D03*
X0074247Y0071807D03*
X0074070Y0071807D03*
X0073804Y0071807D03*
X0073539Y0071719D03*
X0073096Y0071719D03*
X0072742Y0071719D03*
X0077700Y0064812D03*
X0078409Y0064990D03*
X0080711Y0065344D03*
X0080888Y0065344D03*
X0081154Y0065344D03*
X0081331Y0065344D03*
X0081862Y0065432D03*
X0082039Y0065432D03*
X0082305Y0065432D03*
X0082482Y0065432D03*
X0082747Y0065432D03*
X0083456Y0065521D03*
X0083633Y0065521D03*
X0083898Y0065521D03*
X0084075Y0065521D03*
X0084341Y0065521D03*
X0084607Y0065521D03*
X0085049Y0065609D03*
X0085227Y0065609D03*
X0085492Y0065609D03*
X0085935Y0065609D03*
X0086201Y0065609D03*
X0086643Y0065698D03*
X0087086Y0065698D03*
X0087352Y0065698D03*
X0087529Y0065698D03*
X0087794Y0065698D03*
X0088680Y0065786D03*
X0088945Y0065786D03*
X0089122Y0065786D03*
X0089388Y0065786D03*
X0089654Y0065875D03*
X0089919Y0065875D03*
X0090185Y0065875D03*
X0090539Y0065875D03*
X0090805Y0065875D03*
X0091070Y0065875D03*
X0096294Y0066229D03*
X0096560Y0066229D03*
X0096826Y0066229D03*
X0097180Y0066229D03*
X0097446Y0066229D03*
X0097711Y0066229D03*
X0096560Y0049583D03*
X0096294Y0049583D03*
X0095940Y0049583D03*
X0095675Y0049583D03*
X0095409Y0049583D03*
X0094789Y0049671D03*
X0094524Y0049671D03*
X0094258Y0049671D03*
X0093992Y0049671D03*
X0093638Y0049671D03*
X0093373Y0049760D03*
X0093107Y0049760D03*
X0092841Y0049760D03*
X0092487Y0049760D03*
X0091690Y0049849D03*
X0091336Y0049849D03*
X0091070Y0049849D03*
X0090805Y0049849D03*
X0090539Y0049849D03*
X0090185Y0049937D03*
X0089919Y0049937D03*
X0089654Y0049937D03*
X0089388Y0049937D03*
X0089122Y0049937D03*
X0088945Y0049937D03*
X0083633Y0050291D03*
X0083456Y0050291D03*
X0083190Y0050291D03*
X0082747Y0050291D03*
X0082482Y0050291D03*
X0081596Y0050380D03*
X0081331Y0050380D03*
X0081154Y0050380D03*
X0080711Y0050468D03*
X0080445Y0050468D03*
X0080180Y0050468D03*
X0079737Y0050557D03*
X0079560Y0050557D03*
X0079294Y0050645D03*
X0079029Y0050645D03*
X0078586Y0050734D03*
X0078143Y0050823D03*
X0097180Y0049494D03*
X0097446Y0049494D03*
X0097711Y0049494D03*
X0091336Y0029572D03*
X0090805Y0029484D03*
X0090539Y0029484D03*
X0090185Y0029484D03*
X0089654Y0029395D03*
X0089388Y0029395D03*
X0089122Y0029395D03*
X0088945Y0029395D03*
X0088680Y0029395D03*
X0088503Y0029395D03*
X0088237Y0029395D03*
X0087971Y0029395D03*
X0087794Y0029395D03*
X0087529Y0029395D03*
X0087352Y0029395D03*
X0087086Y0029395D03*
X0086643Y0029395D03*
X0086378Y0029395D03*
X0086201Y0029395D03*
X0085935Y0029395D03*
X0085492Y0029395D03*
X0085227Y0029395D03*
X0085049Y0029395D03*
X0084784Y0029395D03*
X0084607Y0029395D03*
X0084341Y0029395D03*
X0084075Y0029395D03*
X0083898Y0029395D03*
X0083633Y0029395D03*
X0083456Y0029395D03*
X0083190Y0029395D03*
X0082747Y0029395D03*
X0082482Y0029395D03*
X0082305Y0029395D03*
X0082039Y0029395D03*
X0081862Y0029395D03*
X0081596Y0029395D03*
X0081331Y0029395D03*
X0081154Y0029395D03*
X0080888Y0029395D03*
X0080711Y0029395D03*
X0080445Y0029395D03*
X0080002Y0029484D03*
X0079737Y0029484D03*
X0079560Y0029484D03*
X0079294Y0029484D03*
X0079029Y0029484D03*
X0078586Y0029572D03*
D60*
X0065304Y0169692D03*
D61*
X0065304Y0152116D03*
X0072476Y0125022D03*
X0072830Y0125022D03*
X0073273Y0125022D03*
X0073893Y0125022D03*
X0074159Y0125022D03*
X0074336Y0125022D03*
X0074601Y0125022D03*
X0074778Y0125022D03*
X0075044Y0125022D03*
X0075487Y0125022D03*
X0075929Y0125022D03*
X0076372Y0125022D03*
X0076903Y0125022D03*
X0077346Y0125022D03*
X0077789Y0125022D03*
X0078232Y0125022D03*
X0078674Y0125022D03*
X0079117Y0125022D03*
X0079648Y0125022D03*
X0080091Y0125022D03*
X0080534Y0125022D03*
X0080799Y0125022D03*
X0080976Y0125022D03*
X0081242Y0125022D03*
X0081419Y0125022D03*
X0081685Y0125022D03*
X0082128Y0125022D03*
X0082570Y0125022D03*
X0083544Y0125022D03*
X0083987Y0125022D03*
X0084430Y0125022D03*
X0084872Y0125022D03*
X0085315Y0125022D03*
X0086289Y0125022D03*
X0086732Y0125022D03*
X0087174Y0125022D03*
X0087440Y0125022D03*
X0087617Y0125022D03*
X0087883Y0125022D03*
X0088060Y0125022D03*
X0088326Y0125022D03*
X0088768Y0125022D03*
X0089211Y0125022D03*
X0089742Y0125022D03*
X0090628Y0125022D03*
X0091159Y0125022D03*
X0091513Y0125022D03*
X0092044Y0125022D03*
X0092310Y0125022D03*
X0092930Y0125022D03*
X0093195Y0125022D03*
X0093815Y0125022D03*
X0094081Y0125022D03*
X0094612Y0125022D03*
X0088060Y0104568D03*
X0088326Y0104480D03*
X0088768Y0104303D03*
X0089742Y0103949D03*
X0087617Y0104657D03*
X0087440Y0104745D03*
X0087174Y0104834D03*
X0085315Y0105365D03*
X0084430Y0105631D03*
X0083987Y0105719D03*
X0082570Y0087922D03*
X0082128Y0087922D03*
X0081685Y0087922D03*
X0081242Y0088011D03*
X0080976Y0088011D03*
X0080799Y0088011D03*
X0080534Y0088011D03*
X0074778Y0088365D03*
X0074601Y0088365D03*
X0074336Y0088365D03*
X0074159Y0088365D03*
X0073893Y0088365D03*
X0072830Y0088453D03*
X0072476Y0088453D03*
X0086732Y0087656D03*
X0087174Y0087656D03*
X0087440Y0087656D03*
X0087617Y0087656D03*
X0087883Y0087568D03*
X0088060Y0087568D03*
X0088326Y0087568D03*
X0088768Y0087568D03*
X0089742Y0087479D03*
X0091513Y0072958D03*
X0091159Y0072870D03*
X0090628Y0072781D03*
X0089742Y0072693D03*
X0089211Y0072604D03*
X0088768Y0072604D03*
X0088326Y0072604D03*
X0088060Y0072516D03*
X0087883Y0072516D03*
X0087617Y0072516D03*
X0087440Y0072516D03*
X0087174Y0072516D03*
X0086732Y0072516D03*
X0086732Y0065698D03*
X0087174Y0065698D03*
X0087440Y0065698D03*
X0087617Y0065698D03*
X0087883Y0065698D03*
X0088768Y0065786D03*
X0089211Y0065786D03*
X0090628Y0065875D03*
X0086289Y0065609D03*
X0085315Y0065609D03*
X0084430Y0065521D03*
X0083987Y0065521D03*
X0083544Y0065521D03*
X0082570Y0065432D03*
X0082128Y0065432D03*
X0081419Y0065344D03*
X0081242Y0065344D03*
X0080976Y0065344D03*
X0080799Y0065344D03*
X0079648Y0072073D03*
X0079117Y0072073D03*
X0078674Y0072073D03*
X0078232Y0071984D03*
X0077789Y0071984D03*
X0077346Y0071984D03*
X0076372Y0071896D03*
X0075929Y0071896D03*
X0075487Y0071896D03*
X0075044Y0071807D03*
X0074778Y0071807D03*
X0074601Y0071807D03*
X0074336Y0071807D03*
X0074159Y0071807D03*
X0073893Y0071807D03*
X0073273Y0071719D03*
X0072830Y0071719D03*
X0072476Y0071719D03*
X0079117Y0050645D03*
X0079648Y0050557D03*
X0080534Y0050468D03*
X0081242Y0050380D03*
X0081419Y0050380D03*
X0081685Y0050380D03*
X0082570Y0050291D03*
X0083544Y0050291D03*
X0088768Y0049937D03*
X0089211Y0049937D03*
X0089742Y0049937D03*
X0090628Y0049849D03*
X0091159Y0049849D03*
X0091513Y0049849D03*
X0092930Y0049760D03*
X0093195Y0049760D03*
X0093815Y0049671D03*
X0094081Y0049671D03*
X0094612Y0049671D03*
X0094966Y0049671D03*
X0095498Y0049583D03*
X0095852Y0049583D03*
X0096383Y0049583D03*
X0097268Y0049494D03*
X0097268Y0066229D03*
X0096383Y0066229D03*
X0091513Y0029572D03*
X0090628Y0029484D03*
X0089211Y0029395D03*
X0088768Y0029395D03*
X0088326Y0029395D03*
X0088060Y0029395D03*
X0087883Y0029395D03*
X0087617Y0029395D03*
X0087440Y0029395D03*
X0087174Y0029395D03*
X0086732Y0029395D03*
X0086289Y0029395D03*
X0085315Y0029395D03*
X0084872Y0029395D03*
X0084430Y0029395D03*
X0083987Y0029395D03*
X0083544Y0029395D03*
X0082570Y0029395D03*
X0082128Y0029395D03*
X0081685Y0029395D03*
X0081419Y0029395D03*
X0081242Y0029395D03*
X0080976Y0029395D03*
X0080799Y0029395D03*
X0080534Y0029395D03*
X0079648Y0029484D03*
X0079117Y0029484D03*
X0078674Y0029572D03*
D62*
X0065393Y0169736D03*
D63*
X0065393Y0152205D03*
D64*
X0065481Y0169781D03*
D65*
X0065481Y0152205D03*
D66*
X0065570Y0169825D03*
D67*
X0065570Y0152249D03*
D68*
X0065658Y0169825D03*
D69*
X0065658Y0152293D03*
D70*
X0065747Y0169869D03*
D71*
X0065747Y0152337D03*
D72*
X0065836Y0169913D03*
D73*
X0065836Y0152382D03*
D74*
X0065924Y0169958D03*
D75*
X0071591Y0155082D03*
X0065924Y0152426D03*
D76*
X0066013Y0170002D03*
D77*
X0066013Y0152470D03*
D78*
X0066101Y0170046D03*
D79*
X0066101Y0152514D03*
D80*
X0066190Y0170090D03*
D81*
X0066190Y0152559D03*
D82*
X0066278Y0170135D03*
D83*
X0066278Y0152603D03*
D84*
X0066367Y0170179D03*
D85*
X0066367Y0152647D03*
D86*
X0066455Y0170223D03*
D87*
X0066455Y0152692D03*
D88*
X0066544Y0170268D03*
D89*
X0066544Y0152736D03*
D90*
X0066632Y0170312D03*
D91*
X0066632Y0152780D03*
D92*
X0066721Y0170356D03*
D93*
X0066721Y0152780D03*
D94*
X0066810Y0170400D03*
D95*
X0066810Y0152824D03*
D96*
X0066898Y0170445D03*
D97*
X0066898Y0152869D03*
D98*
X0066987Y0170489D03*
D99*
X0066987Y0152913D03*
D100*
X0067075Y0170489D03*
D101*
X0067075Y0152957D03*
D102*
X0067164Y0170533D03*
D103*
X0067164Y0153001D03*
D104*
X0067252Y0170577D03*
D105*
X0067252Y0153046D03*
D106*
X0067341Y0170622D03*
D107*
X0067341Y0153090D03*
D108*
X0067429Y0170666D03*
D109*
X0067429Y0153134D03*
D110*
X0067518Y0170710D03*
D111*
X0067518Y0153179D03*
D112*
X0067606Y0170755D03*
D113*
X0067606Y0153223D03*
D114*
X0067695Y0170799D03*
D115*
X0067695Y0153267D03*
D116*
X0067784Y0170843D03*
D117*
X0067784Y0153311D03*
D118*
X0067872Y0170887D03*
D119*
X0067872Y0153356D03*
D120*
X0067961Y0170931D03*
D121*
X0067961Y0153400D03*
D122*
X0068049Y0170976D03*
D123*
X0068049Y0153444D03*
D124*
X0068138Y0171020D03*
D125*
X0068138Y0153488D03*
D126*
X0068226Y0171064D03*
D127*
X0068226Y0153488D03*
D128*
X0068315Y0171109D03*
D129*
X0068315Y0153533D03*
D130*
X0068403Y0171153D03*
D131*
X0068403Y0153621D03*
D132*
X0068492Y0171153D03*
D133*
X0068492Y0153621D03*
D134*
X0068580Y0171197D03*
D135*
X0068580Y0153666D03*
D136*
X0068669Y0171242D03*
D137*
X0068669Y0153710D03*
D138*
X0068757Y0171286D03*
D139*
X0068846Y0171330D03*
D140*
X0068935Y0171374D03*
D141*
X0068935Y0153843D03*
D142*
X0069023Y0171419D03*
D143*
X0069023Y0153887D03*
D144*
X0069112Y0171463D03*
D145*
X0069112Y0153931D03*
D146*
X0069200Y0171507D03*
D147*
X0069200Y0153975D03*
D148*
X0069289Y0171551D03*
D149*
X0069289Y0154020D03*
D150*
X0069377Y0171596D03*
D151*
X0069377Y0154064D03*
D152*
X0069466Y0171640D03*
D153*
X0069466Y0154108D03*
D154*
X0069554Y0171684D03*
D155*
X0069554Y0154108D03*
D156*
X0069643Y0171729D03*
D157*
X0069643Y0154153D03*
D158*
X0069731Y0171773D03*
D159*
X0069731Y0154197D03*
D160*
X0069820Y0171817D03*
D161*
X0069820Y0154241D03*
D162*
X0069909Y0171861D03*
D163*
X0069909Y0154285D03*
D164*
X0069997Y0171906D03*
D165*
X0069997Y0154330D03*
X0097446Y0154330D03*
D166*
X0070086Y0171906D03*
D167*
X0070086Y0154374D03*
D168*
X0070174Y0171950D03*
D169*
X0070174Y0154418D03*
D170*
X0070263Y0171994D03*
D171*
X0070263Y0154462D03*
X0097091Y0154462D03*
D172*
X0070351Y0172038D03*
D173*
X0070351Y0154507D03*
D174*
X0070440Y0172083D03*
D175*
X0070440Y0154551D03*
X0096914Y0154551D03*
D176*
X0070528Y0172127D03*
D177*
X0070528Y0154595D03*
D178*
X0070617Y0172171D03*
D179*
X0070617Y0154639D03*
X0096737Y0154639D03*
D180*
X0070705Y0172216D03*
D181*
X0072388Y0183638D03*
X0070705Y0154684D03*
D182*
X0070794Y0172260D03*
D183*
X0072299Y0183593D03*
X0070794Y0154728D03*
X0096560Y0154728D03*
D184*
X0070883Y0172304D03*
D185*
X0070883Y0154772D03*
D186*
X0070971Y0172348D03*
D187*
X0070971Y0154817D03*
D188*
X0071060Y0172393D03*
D189*
X0071060Y0154861D03*
D190*
X0071148Y0172437D03*
D191*
X0072742Y0183460D03*
X0071148Y0154861D03*
X0096294Y0154861D03*
D192*
X0071237Y0172481D03*
D193*
X0071237Y0154905D03*
X0096206Y0154905D03*
D194*
X0071325Y0172481D03*
D195*
X0071325Y0154949D03*
X0096117Y0154949D03*
D196*
X0071414Y0172570D03*
D197*
X0073008Y0183328D03*
X0071414Y0154994D03*
X0078320Y0154994D03*
X0078763Y0154994D03*
X0079206Y0154994D03*
X0079471Y0154994D03*
X0079914Y0154994D03*
X0080357Y0154994D03*
X0081773Y0154994D03*
X0082216Y0154994D03*
X0082659Y0154994D03*
X0082924Y0154994D03*
X0083013Y0154994D03*
X0083101Y0154994D03*
X0083367Y0154994D03*
X0083810Y0154994D03*
X0084253Y0154994D03*
X0084518Y0154994D03*
X0084961Y0154994D03*
X0085404Y0154994D03*
X0085669Y0154994D03*
X0085758Y0154994D03*
X0085846Y0154994D03*
X0086112Y0154994D03*
X0086555Y0154994D03*
X0086909Y0154994D03*
X0086997Y0154994D03*
X0088414Y0154994D03*
X0088857Y0154994D03*
X0089300Y0154994D03*
X0089565Y0154994D03*
X0089831Y0154994D03*
X0090096Y0154994D03*
X0090274Y0154994D03*
X0090716Y0154994D03*
X0096029Y0154994D03*
D198*
X0071502Y0172614D03*
D199*
X0071502Y0155038D03*
X0095940Y0155038D03*
D200*
X0071591Y0172614D03*
D201*
X0071679Y0172658D03*
D202*
X0073273Y0183195D03*
X0071679Y0155126D03*
D203*
X0071768Y0172702D03*
D204*
X0071768Y0155171D03*
D205*
X0071856Y0172747D03*
D206*
X0073450Y0183106D03*
X0071856Y0155215D03*
D207*
X0071945Y0172791D03*
D208*
X0073539Y0183062D03*
X0071945Y0155259D03*
X0095409Y0155259D03*
X0095143Y0109305D03*
X0094789Y0109305D03*
X0094524Y0109305D03*
X0094258Y0109305D03*
X0093992Y0109305D03*
X0093638Y0109305D03*
X0093373Y0109305D03*
X0093107Y0109305D03*
X0092841Y0109305D03*
X0092487Y0109305D03*
X0092221Y0109305D03*
X0091956Y0109305D03*
X0097711Y0109305D03*
X0082747Y0109394D03*
D209*
X0072034Y0172835D03*
D210*
X0072034Y0155304D03*
X0083544Y0109350D03*
X0083987Y0109350D03*
X0084430Y0109350D03*
X0084872Y0109350D03*
X0085315Y0109350D03*
X0086289Y0109350D03*
X0086732Y0109350D03*
X0087174Y0109350D03*
X0087440Y0109350D03*
X0087617Y0109350D03*
X0087883Y0109350D03*
X0088060Y0109350D03*
X0088326Y0109350D03*
X0088768Y0109350D03*
X0089211Y0109350D03*
X0089742Y0109350D03*
X0090628Y0109350D03*
X0091159Y0109350D03*
X0091513Y0109350D03*
X0095498Y0109261D03*
X0095852Y0109261D03*
X0096383Y0109261D03*
X0097268Y0109261D03*
D211*
X0072122Y0172880D03*
D212*
X0072122Y0155348D03*
X0075221Y0138525D03*
X0082659Y0138525D03*
X0083101Y0138525D03*
X0086112Y0138525D03*
X0092576Y0138525D03*
X0097623Y0109305D03*
D213*
X0072211Y0172924D03*
D214*
X0072211Y0155392D03*
X0080622Y0138569D03*
X0081065Y0138569D03*
X0081508Y0138569D03*
X0087263Y0138569D03*
X0087706Y0138569D03*
X0088148Y0138569D03*
X0091247Y0138569D03*
X0092133Y0138569D03*
X0093018Y0138569D03*
X0086820Y0104922D03*
X0081508Y0072161D03*
X0081065Y0072161D03*
X0080622Y0072161D03*
X0092133Y0065963D03*
X0093904Y0066052D03*
X0094878Y0066141D03*
X0095763Y0066141D03*
X0088148Y0050026D03*
X0087706Y0050026D03*
X0087263Y0050026D03*
X0086820Y0050114D03*
D215*
X0072299Y0171950D03*
D216*
X0072299Y0155436D03*
X0083633Y0105852D03*
X0086378Y0105055D03*
X0086643Y0104967D03*
X0089388Y0104081D03*
X0091336Y0103284D03*
X0078143Y0088144D03*
X0090805Y0087347D03*
X0091336Y0087258D03*
X0092487Y0073180D03*
X0092221Y0073091D03*
X0083190Y0072294D03*
X0079737Y0065211D03*
X0079029Y0065122D03*
X0094524Y0066096D03*
X0085492Y0050158D03*
X0085227Y0050158D03*
X0077700Y0050955D03*
X0077435Y0051044D03*
X0077435Y0029794D03*
X0077700Y0029705D03*
X0077966Y0029705D03*
X0092221Y0029705D03*
X0092487Y0029794D03*
D217*
X0072299Y0110368D03*
D218*
X0072388Y0169913D03*
X0088414Y0176111D03*
D219*
X0072388Y0155481D03*
D220*
X0072388Y0143527D03*
D221*
X0072388Y0125022D03*
X0072565Y0125022D03*
X0072919Y0125022D03*
X0073008Y0125022D03*
X0073362Y0125022D03*
X0073450Y0125022D03*
X0073716Y0125022D03*
X0075221Y0125022D03*
X0075575Y0125022D03*
X0076018Y0125022D03*
X0076461Y0125022D03*
X0076726Y0125022D03*
X0077169Y0125022D03*
X0077612Y0125022D03*
X0077877Y0125022D03*
X0078320Y0125022D03*
X0078763Y0125022D03*
X0079206Y0125022D03*
X0079471Y0125022D03*
X0079914Y0125022D03*
X0080357Y0125022D03*
X0081773Y0125022D03*
X0082216Y0125022D03*
X0082659Y0125022D03*
X0082924Y0125022D03*
X0083013Y0125022D03*
X0083101Y0125022D03*
X0083367Y0125022D03*
X0083810Y0125022D03*
X0084253Y0125022D03*
X0084518Y0125022D03*
X0084961Y0125022D03*
X0085404Y0125022D03*
X0085669Y0125022D03*
X0085758Y0125022D03*
X0085846Y0125022D03*
X0086112Y0125022D03*
X0086555Y0125022D03*
X0086909Y0125022D03*
X0086997Y0125022D03*
X0088414Y0125022D03*
X0088857Y0125022D03*
X0089300Y0125022D03*
X0089565Y0125022D03*
X0089831Y0125022D03*
X0090096Y0125022D03*
X0090274Y0125022D03*
X0090451Y0125022D03*
X0090716Y0125022D03*
X0090982Y0125022D03*
X0091425Y0125022D03*
X0091602Y0125022D03*
X0091867Y0125022D03*
X0092399Y0125022D03*
X0092576Y0125022D03*
X0092753Y0125022D03*
X0093284Y0125022D03*
X0093550Y0125022D03*
X0093727Y0125022D03*
X0094169Y0125022D03*
X0094701Y0125022D03*
X0085669Y0105277D03*
X0085846Y0105188D03*
X0084961Y0105454D03*
X0082924Y0106073D03*
X0082659Y0106162D03*
X0088414Y0104480D03*
X0086997Y0087656D03*
X0086909Y0087656D03*
X0086555Y0087656D03*
X0086112Y0087745D03*
X0088414Y0087568D03*
X0088857Y0087568D03*
X0089565Y0087479D03*
X0089831Y0087479D03*
X0090096Y0087479D03*
X0091867Y0087125D03*
X0083101Y0087922D03*
X0083013Y0087922D03*
X0082924Y0087922D03*
X0082659Y0087922D03*
X0082216Y0087922D03*
X0081773Y0087922D03*
X0073716Y0088365D03*
X0073450Y0088365D03*
X0073008Y0088453D03*
X0072919Y0088453D03*
X0072565Y0088453D03*
X0072388Y0088453D03*
X0088414Y0072604D03*
X0088857Y0072604D03*
X0089565Y0072693D03*
X0089831Y0072693D03*
X0090096Y0072693D03*
X0090451Y0072781D03*
X0090716Y0072781D03*
X0091425Y0072958D03*
X0091602Y0072958D03*
X0086997Y0072516D03*
X0086909Y0072516D03*
X0086112Y0072427D03*
X0079914Y0072073D03*
X0079471Y0072073D03*
X0079206Y0072073D03*
X0078763Y0072073D03*
X0077877Y0071984D03*
X0077612Y0071984D03*
X0077169Y0071984D03*
X0076726Y0071896D03*
X0076461Y0071896D03*
X0076018Y0071896D03*
X0075575Y0071896D03*
X0075221Y0071896D03*
X0073716Y0071807D03*
X0073450Y0071719D03*
X0073362Y0071719D03*
X0073008Y0071719D03*
X0072919Y0071719D03*
X0072565Y0071719D03*
X0078320Y0064990D03*
X0081773Y0065432D03*
X0082216Y0065432D03*
X0082659Y0065432D03*
X0082924Y0065432D03*
X0083013Y0065432D03*
X0083101Y0065432D03*
X0083367Y0065521D03*
X0083810Y0065521D03*
X0084253Y0065521D03*
X0084518Y0065521D03*
X0085404Y0065609D03*
X0085669Y0065609D03*
X0085758Y0065609D03*
X0085846Y0065609D03*
X0086112Y0065609D03*
X0086555Y0065698D03*
X0086909Y0065698D03*
X0086997Y0065698D03*
X0088857Y0065786D03*
X0089300Y0065786D03*
X0089565Y0065875D03*
X0089831Y0065875D03*
X0090096Y0065875D03*
X0090274Y0065875D03*
X0090451Y0065875D03*
X0090716Y0065875D03*
X0090982Y0065875D03*
X0096206Y0066229D03*
X0096472Y0066229D03*
X0096737Y0066229D03*
X0096914Y0066229D03*
X0097091Y0066229D03*
X0097357Y0066229D03*
X0096472Y0049583D03*
X0096206Y0049583D03*
X0096029Y0049583D03*
X0095586Y0049583D03*
X0095055Y0049671D03*
X0094701Y0049671D03*
X0094435Y0049671D03*
X0094169Y0049671D03*
X0093727Y0049671D03*
X0093550Y0049671D03*
X0093284Y0049760D03*
X0092753Y0049760D03*
X0092576Y0049760D03*
X0092399Y0049760D03*
X0091602Y0049849D03*
X0091425Y0049849D03*
X0090982Y0049849D03*
X0090716Y0049849D03*
X0090451Y0049849D03*
X0090274Y0049937D03*
X0090096Y0049937D03*
X0089831Y0049937D03*
X0089565Y0049937D03*
X0089300Y0049937D03*
X0088857Y0049937D03*
X0083810Y0050291D03*
X0083367Y0050291D03*
X0083101Y0050291D03*
X0083013Y0050291D03*
X0082924Y0050291D03*
X0082659Y0050291D03*
X0080357Y0050468D03*
X0079914Y0050557D03*
X0079206Y0050645D03*
X0097091Y0049494D03*
X0097357Y0049494D03*
X0097623Y0049494D03*
X0091602Y0029572D03*
X0091425Y0029572D03*
X0090716Y0029484D03*
X0090451Y0029484D03*
X0090274Y0029484D03*
X0089565Y0029395D03*
X0089300Y0029395D03*
X0088857Y0029395D03*
X0088414Y0029395D03*
X0086997Y0029395D03*
X0086909Y0029395D03*
X0086555Y0029395D03*
X0086112Y0029395D03*
X0085846Y0029395D03*
X0085758Y0029395D03*
X0085669Y0029395D03*
X0085404Y0029395D03*
X0084961Y0029395D03*
X0084518Y0029395D03*
X0084253Y0029395D03*
X0083810Y0029395D03*
X0083367Y0029395D03*
X0083101Y0029395D03*
X0083013Y0029395D03*
X0082924Y0029395D03*
X0082659Y0029395D03*
X0082216Y0029395D03*
X0081773Y0029395D03*
X0080357Y0029395D03*
X0079914Y0029484D03*
X0079471Y0029484D03*
X0079206Y0029484D03*
D222*
X0078763Y0029528D03*
X0078320Y0029617D03*
X0089831Y0029439D03*
X0090096Y0029439D03*
X0090982Y0029528D03*
X0092753Y0029882D03*
X0095320Y0049627D03*
X0096737Y0049539D03*
X0096914Y0049539D03*
X0091867Y0049804D03*
X0082216Y0050335D03*
X0081773Y0050335D03*
X0079471Y0050601D03*
X0078763Y0050690D03*
X0078320Y0050778D03*
X0077877Y0050867D03*
X0077612Y0064768D03*
X0077877Y0064857D03*
X0084961Y0065565D03*
X0088414Y0065742D03*
X0091425Y0065919D03*
X0097623Y0066273D03*
X0092753Y0073268D03*
X0091867Y0073003D03*
X0090982Y0072826D03*
X0090274Y0072737D03*
X0089300Y0072648D03*
X0086555Y0072471D03*
X0078320Y0072029D03*
X0072388Y0071674D03*
X0073362Y0088409D03*
X0080357Y0088055D03*
X0089300Y0087524D03*
X0092399Y0086993D03*
X0092753Y0086904D03*
X0090982Y0103461D03*
X0090716Y0103550D03*
X0090451Y0103639D03*
X0090274Y0103727D03*
X0090096Y0103816D03*
X0089831Y0103904D03*
X0089565Y0103993D03*
X0088857Y0104258D03*
X0086997Y0104878D03*
X0086112Y0105144D03*
X0085758Y0105232D03*
X0085404Y0105321D03*
X0084518Y0105587D03*
X0084253Y0105675D03*
X0083013Y0106029D03*
D223*
X0072388Y0057950D03*
X0076018Y0030679D03*
D224*
X0072388Y0039622D03*
D225*
X0072388Y0035770D03*
X0075221Y0043208D03*
D226*
X0072476Y0183593D03*
D227*
X0072476Y0169913D03*
D228*
X0074159Y0182796D03*
X0072476Y0155525D03*
X0092930Y0102399D03*
X0093195Y0073445D03*
X0076903Y0051221D03*
X0093195Y0030059D03*
D229*
X0072476Y0143527D03*
D230*
X0072476Y0109261D03*
X0090628Y0103594D03*
X0092044Y0102886D03*
X0092310Y0102797D03*
X0093195Y0086682D03*
X0092930Y0073312D03*
X0077346Y0064724D03*
X0076903Y0064547D03*
X0076903Y0030015D03*
X0092930Y0029926D03*
D231*
X0072476Y0057862D03*
X0079117Y0108243D03*
X0074601Y0156499D03*
D232*
X0076903Y0169913D03*
X0072476Y0039135D03*
D233*
X0096472Y0154772D03*
X0072565Y0183549D03*
D234*
X0072565Y0169913D03*
D235*
X0072565Y0155569D03*
X0072919Y0109173D03*
X0073008Y0109173D03*
X0093550Y0086505D03*
X0093727Y0073755D03*
X0076461Y0051442D03*
X0076461Y0030281D03*
D236*
X0072565Y0143571D03*
X0084518Y0177927D03*
D237*
X0072565Y0057862D03*
D238*
X0072565Y0038736D03*
D239*
X0072653Y0183505D03*
D240*
X0072653Y0169957D03*
D241*
X0072653Y0155613D03*
X0091247Y0166859D03*
X0073185Y0109128D03*
X0093904Y0086284D03*
X0093904Y0073888D03*
D242*
X0072653Y0143616D03*
D243*
X0072653Y0125022D03*
X0073185Y0125022D03*
X0073982Y0125022D03*
X0074424Y0125022D03*
X0074867Y0125022D03*
X0080622Y0125022D03*
X0081065Y0125022D03*
X0081508Y0125022D03*
X0086820Y0125022D03*
X0087263Y0125022D03*
X0087706Y0125022D03*
X0088148Y0125022D03*
X0091247Y0125022D03*
X0092133Y0125022D03*
X0093018Y0125022D03*
X0093904Y0125022D03*
X0087706Y0104657D03*
X0087706Y0087656D03*
X0087263Y0087656D03*
X0086820Y0087656D03*
X0088148Y0087568D03*
X0081065Y0088011D03*
X0080622Y0088011D03*
X0074867Y0088365D03*
X0074424Y0088365D03*
X0073982Y0088365D03*
X0073185Y0088453D03*
X0072653Y0088453D03*
X0073982Y0071807D03*
X0074424Y0071807D03*
X0074867Y0071807D03*
X0073185Y0071719D03*
X0072653Y0071719D03*
X0081065Y0065344D03*
X0086820Y0065698D03*
X0087263Y0065698D03*
X0087706Y0065698D03*
X0087706Y0072516D03*
X0088148Y0072516D03*
X0087263Y0072516D03*
X0086820Y0072516D03*
X0091247Y0072870D03*
X0091247Y0049849D03*
X0093018Y0049760D03*
X0093904Y0049671D03*
X0094878Y0049671D03*
X0095763Y0049583D03*
X0081508Y0050380D03*
X0081065Y0050380D03*
X0080622Y0050468D03*
X0080622Y0029395D03*
X0081065Y0029395D03*
X0081508Y0029395D03*
X0086820Y0029395D03*
X0087263Y0029395D03*
X0087706Y0029395D03*
X0088148Y0029395D03*
D244*
X0072653Y0109217D03*
X0094878Y0155525D03*
D245*
X0072653Y0057818D03*
D246*
X0072653Y0038471D03*
D247*
X0072742Y0169957D03*
D248*
X0072742Y0155613D03*
X0089919Y0168098D03*
X0090539Y0167478D03*
X0091336Y0166770D03*
X0091690Y0166416D03*
X0073096Y0109128D03*
X0093638Y0101868D03*
X0076284Y0064148D03*
X0076284Y0051575D03*
X0076284Y0030413D03*
X0093638Y0030325D03*
D249*
X0072742Y0143660D03*
X0074247Y0169958D03*
D250*
X0072742Y0109217D03*
X0092487Y0102665D03*
X0092841Y0102487D03*
X0093373Y0086638D03*
X0093373Y0073534D03*
X0076815Y0064502D03*
X0076549Y0064325D03*
X0076549Y0051398D03*
X0076815Y0051309D03*
X0076815Y0030059D03*
X0093373Y0030148D03*
D251*
X0072742Y0057862D03*
X0077258Y0157738D03*
X0078851Y0180583D03*
X0096826Y0180583D03*
D252*
X0095409Y0166017D03*
X0076107Y0169913D03*
X0096826Y0095360D03*
X0072742Y0038338D03*
D253*
X0072830Y0183416D03*
D254*
X0072830Y0169957D03*
D255*
X0072830Y0155658D03*
X0094612Y0155658D03*
X0093815Y0101735D03*
X0093815Y0030458D03*
D256*
X0072830Y0143704D03*
D257*
X0072830Y0109173D03*
X0093195Y0102178D03*
X0076372Y0051531D03*
D258*
X0072830Y0057862D03*
D259*
X0072830Y0038072D03*
X0094081Y0179299D03*
D260*
X0072919Y0183372D03*
D261*
X0072919Y0169957D03*
D262*
X0079914Y0169338D03*
X0080357Y0168983D03*
X0072919Y0155702D03*
X0073716Y0109040D03*
X0076018Y0063971D03*
D263*
X0072919Y0143704D03*
X0097357Y0166017D03*
D264*
X0072919Y0057862D03*
D265*
X0072919Y0037939D03*
D266*
X0073008Y0169913D03*
D267*
X0073008Y0155746D03*
X0094435Y0155746D03*
X0094169Y0086063D03*
D268*
X0073008Y0143793D03*
X0084961Y0177705D03*
X0090716Y0177705D03*
D269*
X0095055Y0179742D03*
X0073008Y0057906D03*
D270*
X0073008Y0037807D03*
X0096029Y0166017D03*
D271*
X0073096Y0183283D03*
D272*
X0073096Y0169913D03*
D273*
X0074690Y0182531D03*
X0073096Y0155791D03*
X0094258Y0155791D03*
X0074513Y0108951D03*
X0094258Y0085930D03*
X0075841Y0063794D03*
D274*
X0073096Y0143793D03*
X0097446Y0166017D03*
D275*
X0081154Y0179520D03*
X0073096Y0057862D03*
D276*
X0073096Y0037674D03*
X0095940Y0096112D03*
D277*
X0095763Y0155082D03*
X0073185Y0183239D03*
D278*
X0073185Y0169913D03*
D279*
X0073185Y0155835D03*
X0074867Y0108907D03*
D280*
X0073185Y0143837D03*
D281*
X0073185Y0057862D03*
D282*
X0073185Y0037541D03*
D283*
X0073273Y0169913D03*
D284*
X0073273Y0143881D03*
D285*
X0091513Y0166593D03*
X0090628Y0167390D03*
X0074336Y0182708D03*
X0073273Y0109128D03*
X0093815Y0073800D03*
X0076372Y0030325D03*
D286*
X0077346Y0029882D03*
X0080091Y0029439D03*
X0089742Y0029439D03*
X0091159Y0029528D03*
X0092044Y0049804D03*
X0092310Y0049804D03*
X0082128Y0050335D03*
X0080976Y0050424D03*
X0080799Y0050424D03*
X0080091Y0050513D03*
X0078674Y0050690D03*
X0078232Y0050778D03*
X0077789Y0064857D03*
X0078232Y0064945D03*
X0078674Y0065034D03*
X0081685Y0065388D03*
X0084872Y0065565D03*
X0088060Y0065742D03*
X0088326Y0065742D03*
X0091159Y0065919D03*
X0091513Y0065919D03*
X0086289Y0072471D03*
X0080091Y0072117D03*
X0076903Y0071940D03*
X0092044Y0087081D03*
X0092310Y0086993D03*
X0092930Y0086815D03*
X0089211Y0087524D03*
X0086289Y0087701D03*
X0080091Y0088055D03*
X0073273Y0088409D03*
X0084872Y0105498D03*
X0087883Y0104613D03*
X0091159Y0103373D03*
D287*
X0073273Y0057862D03*
X0093815Y0179166D03*
D288*
X0096383Y0166017D03*
X0073273Y0037452D03*
D289*
X0095586Y0155171D03*
X0073362Y0183151D03*
D290*
X0073362Y0169913D03*
D291*
X0090451Y0177572D03*
X0073362Y0143926D03*
D292*
X0094701Y0155613D03*
X0091867Y0166239D03*
X0091602Y0166504D03*
X0091425Y0166681D03*
X0090716Y0167301D03*
X0090451Y0167567D03*
X0090274Y0167744D03*
X0073362Y0109128D03*
X0093284Y0102133D03*
X0093550Y0101956D03*
X0093550Y0030236D03*
D293*
X0073362Y0057862D03*
D294*
X0073362Y0037364D03*
X0095055Y0096688D03*
D295*
X0073450Y0169913D03*
D296*
X0073450Y0155968D03*
X0075575Y0108774D03*
X0094435Y0085664D03*
D297*
X0073450Y0143970D03*
D298*
X0073450Y0109084D03*
X0093727Y0101823D03*
X0093727Y0030369D03*
D299*
X0096914Y0037585D03*
X0073450Y0057862D03*
X0082659Y0178812D03*
D300*
X0073450Y0037275D03*
D301*
X0073539Y0169913D03*
D302*
X0079029Y0169913D03*
X0075133Y0182309D03*
X0092487Y0166017D03*
X0073539Y0156012D03*
X0075841Y0108730D03*
D303*
X0073539Y0144014D03*
X0085492Y0177484D03*
X0074513Y0057862D03*
X0075133Y0036257D03*
D304*
X0076107Y0051708D03*
X0076107Y0064016D03*
X0093992Y0086240D03*
X0073539Y0109084D03*
X0094524Y0155658D03*
X0090805Y0167257D03*
D305*
X0075133Y0169913D03*
X0073539Y0057906D03*
X0096826Y0037452D03*
D306*
X0073539Y0037187D03*
X0083456Y0178414D03*
X0092221Y0178414D03*
D307*
X0073627Y0183018D03*
X0083279Y0109350D03*
X0083721Y0109350D03*
X0084164Y0109350D03*
X0084695Y0109350D03*
X0085138Y0109350D03*
X0085581Y0109350D03*
X0086023Y0109350D03*
X0086466Y0109350D03*
X0088591Y0109350D03*
X0089034Y0109350D03*
X0089477Y0109350D03*
X0090008Y0109350D03*
X0090362Y0109350D03*
X0090893Y0109350D03*
X0091779Y0109350D03*
X0096117Y0109261D03*
X0096649Y0109261D03*
X0097003Y0109261D03*
X0097534Y0109261D03*
D308*
X0073627Y0169913D03*
D309*
X0078940Y0169958D03*
X0075310Y0182265D03*
X0073627Y0156056D03*
X0076195Y0108686D03*
D310*
X0073627Y0144058D03*
X0085581Y0177440D03*
D311*
X0085581Y0125022D03*
X0086023Y0125022D03*
X0086466Y0125022D03*
X0085138Y0125022D03*
X0084695Y0125022D03*
X0084164Y0125022D03*
X0083721Y0125022D03*
X0083279Y0125022D03*
X0082836Y0125022D03*
X0082393Y0125022D03*
X0081950Y0125022D03*
X0080268Y0125022D03*
X0079825Y0125022D03*
X0079383Y0125022D03*
X0078940Y0125022D03*
X0078497Y0125022D03*
X0078055Y0125022D03*
X0077523Y0125022D03*
X0077081Y0125022D03*
X0076638Y0125022D03*
X0076195Y0125022D03*
X0075752Y0125022D03*
X0075310Y0125022D03*
X0073627Y0125022D03*
X0088591Y0125022D03*
X0089034Y0125022D03*
X0089477Y0125022D03*
X0090008Y0125022D03*
X0090362Y0125022D03*
X0090893Y0125022D03*
X0091779Y0125022D03*
X0092664Y0125022D03*
X0093461Y0125022D03*
X0085581Y0105277D03*
X0084695Y0105542D03*
X0084164Y0105719D03*
X0082836Y0106073D03*
X0088591Y0104391D03*
X0090008Y0103860D03*
X0089034Y0087568D03*
X0088591Y0087568D03*
X0089477Y0087479D03*
X0090008Y0087479D03*
X0086023Y0087745D03*
X0082836Y0087922D03*
X0082393Y0087922D03*
X0081950Y0087922D03*
X0073627Y0088365D03*
X0088591Y0072604D03*
X0089034Y0072604D03*
X0089477Y0072693D03*
X0090008Y0072693D03*
X0090362Y0072781D03*
X0086023Y0072427D03*
X0079825Y0072073D03*
X0079383Y0072073D03*
X0078940Y0072073D03*
X0078055Y0071984D03*
X0077523Y0071984D03*
X0077081Y0071984D03*
X0076638Y0071896D03*
X0076195Y0071896D03*
X0075752Y0071896D03*
X0075310Y0071896D03*
X0078055Y0064901D03*
X0078497Y0064990D03*
X0081950Y0065432D03*
X0082393Y0065432D03*
X0082836Y0065432D03*
X0083721Y0065521D03*
X0084164Y0065521D03*
X0084695Y0065521D03*
X0085138Y0065609D03*
X0085581Y0065609D03*
X0086023Y0065609D03*
X0088591Y0065786D03*
X0089034Y0065786D03*
X0090008Y0065875D03*
X0090362Y0065875D03*
X0090893Y0065875D03*
X0096117Y0066229D03*
X0096649Y0066229D03*
X0097003Y0066229D03*
X0097534Y0066229D03*
X0096117Y0049583D03*
X0097534Y0049494D03*
X0094346Y0049671D03*
X0093461Y0049671D03*
X0092664Y0049760D03*
X0091779Y0049849D03*
X0090893Y0049849D03*
X0090362Y0049937D03*
X0090008Y0049937D03*
X0089477Y0049937D03*
X0089034Y0049937D03*
X0083721Y0050291D03*
X0083279Y0050291D03*
X0082836Y0050291D03*
X0082393Y0050291D03*
X0080268Y0050468D03*
X0079825Y0050557D03*
X0078940Y0050645D03*
X0078497Y0050734D03*
X0078497Y0029572D03*
X0079383Y0029484D03*
X0079825Y0029484D03*
X0080268Y0029395D03*
X0081950Y0029395D03*
X0082393Y0029395D03*
X0082836Y0029395D03*
X0083279Y0029395D03*
X0083721Y0029395D03*
X0084164Y0029395D03*
X0084695Y0029395D03*
X0085138Y0029395D03*
X0085581Y0029395D03*
X0086023Y0029395D03*
X0086466Y0029395D03*
X0088591Y0029395D03*
X0089034Y0029395D03*
X0089477Y0029395D03*
X0090362Y0029484D03*
X0090893Y0029484D03*
D312*
X0073627Y0109084D03*
X0091779Y0166371D03*
X0090893Y0167168D03*
D313*
X0085138Y0105409D03*
X0086023Y0105144D03*
X0090362Y0103727D03*
X0090893Y0103461D03*
X0086466Y0087701D03*
X0091779Y0087170D03*
X0092664Y0086904D03*
X0080268Y0088055D03*
X0090893Y0072826D03*
X0091779Y0073003D03*
X0086466Y0072471D03*
X0086466Y0065654D03*
X0077523Y0064768D03*
X0073627Y0071763D03*
X0078055Y0050867D03*
X0079383Y0050601D03*
X0081950Y0050335D03*
X0095232Y0049627D03*
X0096649Y0049539D03*
X0097003Y0049539D03*
X0091779Y0029617D03*
X0090008Y0029439D03*
X0078940Y0029528D03*
D314*
X0096649Y0037320D03*
X0073627Y0057862D03*
D315*
X0073627Y0037098D03*
D316*
X0082924Y0109350D03*
X0083013Y0109350D03*
X0083101Y0109350D03*
X0083367Y0109350D03*
X0083810Y0109350D03*
X0084253Y0109350D03*
X0084518Y0109350D03*
X0084961Y0109350D03*
X0085404Y0109350D03*
X0085669Y0109350D03*
X0085758Y0109350D03*
X0085846Y0109350D03*
X0086112Y0109350D03*
X0086555Y0109350D03*
X0086909Y0109350D03*
X0086997Y0109350D03*
X0088414Y0109350D03*
X0088857Y0109350D03*
X0089300Y0109350D03*
X0089565Y0109350D03*
X0089831Y0109350D03*
X0090096Y0109350D03*
X0090274Y0109350D03*
X0090451Y0109350D03*
X0090716Y0109350D03*
X0090982Y0109350D03*
X0091425Y0109350D03*
X0091602Y0109350D03*
X0095586Y0109261D03*
X0096029Y0109261D03*
X0096206Y0109261D03*
X0096472Y0109261D03*
X0096737Y0109261D03*
X0096914Y0109261D03*
X0097091Y0109261D03*
X0097357Y0109261D03*
X0095320Y0155304D03*
X0073716Y0183018D03*
D317*
X0073716Y0169913D03*
X0085758Y0177351D03*
D318*
X0085669Y0163538D03*
X0085758Y0163450D03*
X0073716Y0156100D03*
X0076461Y0108641D03*
D319*
X0073716Y0144058D03*
X0090096Y0177440D03*
D320*
X0073716Y0057862D03*
X0096472Y0037143D03*
D321*
X0073716Y0037010D03*
X0091867Y0178236D03*
D322*
X0073804Y0182973D03*
X0075398Y0138525D03*
X0086201Y0138525D03*
X0086643Y0138525D03*
X0083898Y0050247D03*
D323*
X0097711Y0166018D03*
X0090185Y0177440D03*
X0073804Y0169913D03*
D324*
X0084607Y0164556D03*
X0084784Y0164379D03*
X0085049Y0164114D03*
X0085935Y0163317D03*
X0086643Y0162608D03*
X0087529Y0161812D03*
X0087794Y0161546D03*
X0088503Y0160838D03*
X0088680Y0160660D03*
X0089654Y0159775D03*
X0073804Y0156145D03*
X0075398Y0182177D03*
X0076815Y0108597D03*
X0076992Y0108597D03*
X0094524Y0100805D03*
D325*
X0095409Y0080086D03*
X0073804Y0144103D03*
D326*
X0081154Y0168187D03*
X0080888Y0168452D03*
X0080180Y0169161D03*
X0080002Y0169338D03*
X0074513Y0182619D03*
X0073804Y0109040D03*
D327*
X0073804Y0057862D03*
X0091956Y0178281D03*
D328*
X0096294Y0036966D03*
X0073804Y0036966D03*
D329*
X0078232Y0029661D03*
X0083987Y0050203D03*
X0084430Y0050203D03*
X0084872Y0050203D03*
X0086289Y0050114D03*
X0086732Y0050114D03*
X0087440Y0050026D03*
X0087617Y0050026D03*
X0087883Y0050026D03*
X0088060Y0050026D03*
X0088326Y0050026D03*
X0092044Y0065963D03*
X0092310Y0065963D03*
X0093195Y0066052D03*
X0093815Y0066052D03*
X0094081Y0066052D03*
X0094966Y0066141D03*
X0095498Y0066141D03*
X0095852Y0066141D03*
X0082570Y0072250D03*
X0082128Y0072250D03*
X0081685Y0072250D03*
X0081419Y0072161D03*
X0081242Y0072161D03*
X0080976Y0072161D03*
X0080799Y0072161D03*
X0080534Y0072161D03*
X0080091Y0065255D03*
X0090628Y0087391D03*
X0091159Y0087302D03*
X0091513Y0087214D03*
X0079648Y0088099D03*
X0079117Y0088099D03*
X0078674Y0088099D03*
X0078232Y0088099D03*
X0077789Y0088188D03*
X0077346Y0088188D03*
X0076903Y0088188D03*
X0076372Y0088276D03*
X0075929Y0088276D03*
X0075487Y0088276D03*
X0075044Y0088276D03*
X0083544Y0105896D03*
X0086289Y0105100D03*
X0086732Y0104922D03*
X0087174Y0138569D03*
X0087440Y0138569D03*
X0087617Y0138569D03*
X0087883Y0138569D03*
X0088060Y0138569D03*
X0088326Y0138569D03*
X0088768Y0138569D03*
X0089211Y0138569D03*
X0089742Y0138569D03*
X0090628Y0138569D03*
X0091159Y0138569D03*
X0091513Y0138569D03*
X0092044Y0138569D03*
X0092310Y0138569D03*
X0092930Y0138569D03*
X0086289Y0138569D03*
X0082570Y0138569D03*
X0082128Y0138569D03*
X0081685Y0138569D03*
X0081419Y0138569D03*
X0081242Y0138569D03*
X0080976Y0138569D03*
X0080799Y0138569D03*
X0080534Y0138569D03*
X0080091Y0138569D03*
X0079648Y0138569D03*
X0079117Y0138569D03*
X0078674Y0138569D03*
X0078232Y0138569D03*
X0077789Y0138569D03*
X0077346Y0138569D03*
X0076903Y0138569D03*
X0076372Y0138569D03*
X0075929Y0138569D03*
X0073893Y0182929D03*
D330*
X0085315Y0177528D03*
X0073893Y0169913D03*
D331*
X0087440Y0161856D03*
X0087617Y0161679D03*
X0088768Y0160616D03*
X0090628Y0158845D03*
X0073893Y0156189D03*
X0094612Y0074818D03*
D332*
X0073893Y0144147D03*
D333*
X0080976Y0168364D03*
X0080799Y0168541D03*
X0080091Y0169249D03*
X0073893Y0109040D03*
X0094081Y0086107D03*
X0075929Y0063883D03*
D334*
X0073893Y0057906D03*
D335*
X0073893Y0036877D03*
D336*
X0092133Y0029705D03*
X0093018Y0066008D03*
X0092133Y0073091D03*
X0091247Y0087258D03*
X0073982Y0182885D03*
D337*
X0073982Y0169913D03*
D338*
X0073982Y0156233D03*
D339*
X0073982Y0144191D03*
D340*
X0073982Y0108995D03*
D341*
X0073982Y0057862D03*
X0074424Y0169958D03*
D342*
X0073982Y0036833D03*
D343*
X0076992Y0030015D03*
X0077258Y0029926D03*
X0092841Y0029926D03*
X0093107Y0030015D03*
X0077258Y0051088D03*
X0076992Y0051177D03*
X0076992Y0064547D03*
X0092841Y0073312D03*
X0093107Y0073401D03*
X0093107Y0086771D03*
X0092841Y0086860D03*
X0092221Y0087037D03*
X0092221Y0102797D03*
X0091956Y0102975D03*
X0091690Y0103063D03*
X0074070Y0182841D03*
D344*
X0074070Y0169913D03*
D345*
X0075664Y0182088D03*
X0100013Y0182088D03*
X0093373Y0156233D03*
X0074070Y0156233D03*
X0077258Y0108508D03*
X0077435Y0108508D03*
D346*
X0074070Y0144236D03*
X0085935Y0177262D03*
D347*
X0079294Y0169913D03*
X0074247Y0108995D03*
X0074070Y0108995D03*
D348*
X0095940Y0080086D03*
X0074070Y0057862D03*
X0095940Y0036700D03*
D349*
X0074070Y0036744D03*
X0097180Y0166017D03*
D350*
X0074159Y0169957D03*
D351*
X0074159Y0156278D03*
X0077789Y0108464D03*
X0094612Y0100584D03*
D352*
X0074159Y0144280D03*
D353*
X0081242Y0168142D03*
X0074601Y0182575D03*
X0074159Y0108995D03*
D354*
X0074159Y0057906D03*
X0095852Y0036656D03*
X0097268Y0166017D03*
X0074336Y0169913D03*
D355*
X0091159Y0177927D03*
X0074159Y0036700D03*
D356*
X0076549Y0030192D03*
X0093638Y0073667D03*
X0093638Y0086505D03*
X0093373Y0102089D03*
X0093107Y0102266D03*
X0094789Y0155569D03*
X0074247Y0182752D03*
D357*
X0075841Y0181999D03*
X0074247Y0156322D03*
X0093107Y0156322D03*
X0075398Y0052726D03*
D358*
X0074247Y0144324D03*
D359*
X0090805Y0177749D03*
X0074247Y0057862D03*
D360*
X0074247Y0036656D03*
X0084607Y0177882D03*
X0091070Y0177882D03*
D361*
X0074336Y0156366D03*
D362*
X0074336Y0144369D03*
X0083544Y0144369D03*
X0083987Y0144369D03*
D363*
X0074336Y0108951D03*
D364*
X0074336Y0057862D03*
D365*
X0074336Y0036611D03*
X0095852Y0080086D03*
D366*
X0074424Y0182664D03*
D367*
X0099659Y0181911D03*
X0074424Y0156410D03*
D368*
X0074424Y0144413D03*
D369*
X0074424Y0108951D03*
D370*
X0074424Y0057862D03*
X0074867Y0036346D03*
D371*
X0074424Y0036567D03*
D372*
X0074513Y0169957D03*
D373*
X0076107Y0181867D03*
X0074513Y0156455D03*
X0092841Y0156455D03*
X0079029Y0108287D03*
X0078851Y0108287D03*
D374*
X0074513Y0144413D03*
X0084075Y0144413D03*
X0084341Y0144413D03*
X0084607Y0144413D03*
X0084784Y0144413D03*
X0085049Y0144413D03*
X0085227Y0144413D03*
X0085492Y0144413D03*
X0085935Y0144413D03*
D375*
X0074513Y0036523D03*
D376*
X0074601Y0169913D03*
X0083987Y0178148D03*
D377*
X0074601Y0144457D03*
X0094966Y0080086D03*
D378*
X0074778Y0108907D03*
X0074601Y0108907D03*
X0074778Y0182486D03*
D379*
X0074601Y0057906D03*
D380*
X0074601Y0036479D03*
X0095498Y0036479D03*
D381*
X0074690Y0169913D03*
X0083898Y0178236D03*
D382*
X0076284Y0181778D03*
X0074690Y0156543D03*
X0079560Y0108199D03*
D383*
X0074690Y0144501D03*
D384*
X0074690Y0108907D03*
D385*
X0074690Y0057906D03*
X0089919Y0177351D03*
D386*
X0095409Y0036434D03*
X0074690Y0036434D03*
D387*
X0074778Y0169913D03*
X0092044Y0178325D03*
D388*
X0076372Y0181734D03*
X0074778Y0156587D03*
X0079648Y0108154D03*
X0094612Y0031741D03*
D389*
X0074778Y0144545D03*
D390*
X0074778Y0057862D03*
D391*
X0074778Y0036390D03*
D392*
X0074867Y0169913D03*
D393*
X0074867Y0156632D03*
D394*
X0074867Y0144590D03*
D395*
X0074867Y0057862D03*
D396*
X0074956Y0169913D03*
D397*
X0076549Y0181645D03*
X0099128Y0181645D03*
X0074956Y0156676D03*
X0080445Y0108066D03*
X0080711Y0107977D03*
X0080888Y0107977D03*
X0075398Y0031919D03*
D398*
X0074956Y0144590D03*
X0086643Y0176908D03*
D399*
X0083898Y0105764D03*
X0085049Y0105409D03*
X0085492Y0105321D03*
X0088503Y0104435D03*
X0088680Y0104347D03*
X0088945Y0104258D03*
X0089654Y0103993D03*
X0090539Y0103639D03*
X0090805Y0103461D03*
X0091070Y0103373D03*
X0087794Y0087612D03*
X0086378Y0087701D03*
X0083190Y0087878D03*
X0080445Y0088055D03*
X0080180Y0088055D03*
X0080002Y0088055D03*
X0074956Y0088320D03*
X0090185Y0087435D03*
X0091690Y0087170D03*
X0092487Y0086993D03*
X0091690Y0073003D03*
X0091336Y0072914D03*
X0090805Y0072826D03*
X0090185Y0072737D03*
X0089388Y0072648D03*
X0086643Y0072471D03*
X0086378Y0072471D03*
X0086378Y0065654D03*
X0087971Y0065742D03*
X0088237Y0065742D03*
X0088503Y0065742D03*
X0091336Y0065919D03*
X0084784Y0065565D03*
X0081596Y0065388D03*
X0078586Y0065034D03*
X0078143Y0064945D03*
X0077966Y0064857D03*
X0077435Y0064768D03*
X0077258Y0064680D03*
X0076815Y0071940D03*
X0077966Y0050867D03*
X0078409Y0050778D03*
X0078851Y0050690D03*
X0080002Y0050513D03*
X0080888Y0050424D03*
X0081862Y0050335D03*
X0082039Y0050335D03*
X0082305Y0050335D03*
X0091956Y0049804D03*
X0092221Y0049804D03*
X0095143Y0049627D03*
X0096826Y0049539D03*
X0091690Y0029617D03*
X0091070Y0029528D03*
X0089919Y0029439D03*
X0080180Y0029439D03*
X0078851Y0029528D03*
X0078409Y0029617D03*
D400*
X0074956Y0057862D03*
D401*
X0074956Y0036301D03*
D402*
X0075487Y0108774D03*
X0075044Y0182354D03*
D403*
X0075044Y0169913D03*
D404*
X0075044Y0156720D03*
X0092310Y0156720D03*
D405*
X0075044Y0144634D03*
X0086732Y0176864D03*
D406*
X0086289Y0177085D03*
X0075044Y0057906D03*
D407*
X0095498Y0080086D03*
X0094966Y0036257D03*
X0075044Y0036257D03*
D408*
X0075133Y0156765D03*
X0080002Y0161280D03*
X0080888Y0162166D03*
X0092221Y0156765D03*
X0076815Y0181557D03*
D409*
X0075133Y0144678D03*
D410*
X0075664Y0138569D03*
X0075841Y0138569D03*
X0076107Y0138569D03*
X0076284Y0138569D03*
X0076549Y0138569D03*
X0076815Y0138569D03*
X0076992Y0138569D03*
X0077258Y0138569D03*
X0077435Y0138569D03*
X0077700Y0138569D03*
X0077966Y0138569D03*
X0078143Y0138569D03*
X0078409Y0138569D03*
X0078586Y0138569D03*
X0078851Y0138569D03*
X0079029Y0138569D03*
X0079294Y0138569D03*
X0079560Y0138569D03*
X0079737Y0138569D03*
X0080002Y0138569D03*
X0080180Y0138569D03*
X0080445Y0138569D03*
X0080711Y0138569D03*
X0080888Y0138569D03*
X0081154Y0138569D03*
X0081331Y0138569D03*
X0081596Y0138569D03*
X0081862Y0138569D03*
X0082039Y0138569D03*
X0082305Y0138569D03*
X0082482Y0138569D03*
X0082747Y0138569D03*
X0083190Y0138569D03*
X0086378Y0138569D03*
X0087086Y0138569D03*
X0087352Y0138569D03*
X0087529Y0138569D03*
X0087794Y0138569D03*
X0087971Y0138569D03*
X0088237Y0138569D03*
X0088503Y0138569D03*
X0088680Y0138569D03*
X0088945Y0138569D03*
X0089122Y0138569D03*
X0089388Y0138569D03*
X0089654Y0138569D03*
X0089919Y0138569D03*
X0090185Y0138569D03*
X0090539Y0138569D03*
X0090805Y0138569D03*
X0091070Y0138569D03*
X0091336Y0138569D03*
X0091690Y0138569D03*
X0091956Y0138569D03*
X0092221Y0138569D03*
X0092487Y0138569D03*
X0092841Y0138569D03*
X0095143Y0155392D03*
X0083190Y0105985D03*
X0083456Y0105896D03*
X0086201Y0105100D03*
X0089122Y0104214D03*
X0079737Y0088099D03*
X0079560Y0088099D03*
X0079294Y0088099D03*
X0079029Y0088099D03*
X0078851Y0088099D03*
X0078586Y0088099D03*
X0078409Y0088099D03*
X0077966Y0088188D03*
X0077700Y0088188D03*
X0077435Y0088188D03*
X0077258Y0088188D03*
X0076992Y0088188D03*
X0076815Y0088188D03*
X0076549Y0088276D03*
X0076284Y0088276D03*
X0076107Y0088276D03*
X0075841Y0088276D03*
X0075664Y0088276D03*
X0075398Y0088276D03*
X0075133Y0088276D03*
X0090539Y0087391D03*
X0091070Y0087302D03*
X0091956Y0073047D03*
X0094789Y0066141D03*
X0095143Y0066141D03*
X0095409Y0066141D03*
X0095675Y0066141D03*
X0095940Y0066141D03*
X0094258Y0066052D03*
X0093992Y0066052D03*
X0093638Y0066052D03*
X0093373Y0066052D03*
X0093107Y0066052D03*
X0092841Y0065963D03*
X0092487Y0065963D03*
X0092221Y0065963D03*
X0091956Y0065963D03*
X0091690Y0065963D03*
X0082747Y0072250D03*
X0082482Y0072250D03*
X0082305Y0072250D03*
X0082039Y0072250D03*
X0081862Y0072250D03*
X0081596Y0072161D03*
X0081331Y0072161D03*
X0081154Y0072161D03*
X0080888Y0072161D03*
X0080711Y0072161D03*
X0080445Y0072161D03*
X0080180Y0072161D03*
X0080180Y0065255D03*
X0080002Y0065255D03*
X0080445Y0065255D03*
X0079560Y0065167D03*
X0079294Y0065167D03*
X0078851Y0065078D03*
X0084075Y0050203D03*
X0084341Y0050203D03*
X0084607Y0050203D03*
X0084784Y0050203D03*
X0085049Y0050203D03*
X0085935Y0050114D03*
X0086201Y0050114D03*
X0086378Y0050114D03*
X0086643Y0050114D03*
X0087086Y0050114D03*
X0087352Y0050026D03*
X0087529Y0050026D03*
X0087794Y0050026D03*
X0087971Y0050026D03*
X0088237Y0050026D03*
X0088503Y0050026D03*
X0088680Y0050026D03*
X0091956Y0029661D03*
X0078143Y0029661D03*
D411*
X0075133Y0057862D03*
X0086378Y0177041D03*
D412*
X0075221Y0182265D03*
X0084253Y0164910D03*
X0093727Y0156056D03*
X0075575Y0063351D03*
D413*
X0075221Y0169913D03*
D414*
X0079914Y0161236D03*
X0075221Y0156809D03*
D415*
X0075575Y0138569D03*
X0076018Y0138569D03*
X0076461Y0138569D03*
X0076726Y0138569D03*
X0077169Y0138569D03*
X0077612Y0138569D03*
X0077877Y0138569D03*
X0078320Y0138569D03*
X0078763Y0138569D03*
X0079206Y0138569D03*
X0079471Y0138569D03*
X0079914Y0138569D03*
X0080357Y0138569D03*
X0081773Y0138569D03*
X0082216Y0138569D03*
X0082924Y0138569D03*
X0083013Y0138569D03*
X0086555Y0138569D03*
X0086909Y0138569D03*
X0086997Y0138569D03*
X0088414Y0138569D03*
X0088857Y0138569D03*
X0089300Y0138569D03*
X0089565Y0138569D03*
X0089831Y0138569D03*
X0090096Y0138569D03*
X0090274Y0138569D03*
X0090451Y0138569D03*
X0090716Y0138569D03*
X0090982Y0138569D03*
X0091425Y0138569D03*
X0091602Y0138569D03*
X0091867Y0138569D03*
X0092399Y0138569D03*
X0092753Y0138569D03*
X0083810Y0105808D03*
X0083367Y0105896D03*
X0083101Y0105985D03*
X0086555Y0105011D03*
X0086909Y0104922D03*
X0089300Y0104126D03*
X0079914Y0088099D03*
X0079471Y0088099D03*
X0079206Y0088099D03*
X0078763Y0088099D03*
X0078320Y0088099D03*
X0077877Y0088188D03*
X0077612Y0088188D03*
X0077169Y0088188D03*
X0076726Y0088188D03*
X0076461Y0088276D03*
X0076018Y0088276D03*
X0075575Y0088276D03*
X0075221Y0088276D03*
X0090274Y0087391D03*
X0090451Y0087391D03*
X0090716Y0087391D03*
X0090982Y0087302D03*
X0091425Y0087214D03*
X0091602Y0087214D03*
X0083101Y0072250D03*
X0083013Y0072250D03*
X0082924Y0072250D03*
X0082659Y0072250D03*
X0082216Y0072250D03*
X0081773Y0072250D03*
X0080357Y0072161D03*
X0080357Y0065255D03*
X0079914Y0065255D03*
X0079471Y0065167D03*
X0079206Y0065167D03*
X0078763Y0065078D03*
X0091602Y0065963D03*
X0091867Y0065963D03*
X0092399Y0065963D03*
X0092576Y0065963D03*
X0092753Y0065963D03*
X0093284Y0066052D03*
X0093550Y0066052D03*
X0093727Y0066052D03*
X0094169Y0066052D03*
X0094435Y0066052D03*
X0094701Y0066141D03*
X0095055Y0066141D03*
X0095320Y0066141D03*
X0095586Y0066141D03*
X0096029Y0066141D03*
X0088414Y0050026D03*
X0086997Y0050114D03*
X0086909Y0050114D03*
X0086555Y0050114D03*
X0086112Y0050114D03*
X0085846Y0050114D03*
X0085758Y0050114D03*
X0085669Y0050114D03*
X0084961Y0050203D03*
X0084518Y0050203D03*
X0084253Y0050203D03*
X0091867Y0029661D03*
D416*
X0075221Y0062068D03*
X0083101Y0164955D03*
D417*
X0075221Y0053700D03*
D418*
X0075221Y0033380D03*
X0097357Y0094474D03*
X0077877Y0158048D03*
X0094701Y0166017D03*
X0096206Y0180273D03*
X0079471Y0180273D03*
D419*
X0075310Y0169913D03*
D420*
X0078940Y0160218D03*
X0078497Y0159775D03*
X0075310Y0156853D03*
X0081950Y0107800D03*
D421*
X0075310Y0138525D03*
X0092664Y0138525D03*
X0095232Y0155348D03*
D422*
X0091779Y0138569D03*
X0090893Y0138569D03*
X0090362Y0138569D03*
X0090008Y0138569D03*
X0089477Y0138569D03*
X0089034Y0138569D03*
X0088591Y0138569D03*
X0086466Y0138569D03*
X0082836Y0138569D03*
X0082393Y0138569D03*
X0081950Y0138569D03*
X0080268Y0138569D03*
X0079825Y0138569D03*
X0079383Y0138569D03*
X0078940Y0138569D03*
X0078497Y0138569D03*
X0078055Y0138569D03*
X0077523Y0138569D03*
X0077081Y0138569D03*
X0076638Y0138569D03*
X0076195Y0138569D03*
X0075752Y0138569D03*
X0083279Y0105985D03*
X0083721Y0105808D03*
X0086466Y0105011D03*
X0089034Y0104214D03*
X0079825Y0088099D03*
X0079383Y0088099D03*
X0078940Y0088099D03*
X0078497Y0088099D03*
X0078055Y0088188D03*
X0077523Y0088188D03*
X0077081Y0088188D03*
X0076195Y0088276D03*
X0075752Y0088276D03*
X0075310Y0088276D03*
X0090362Y0087391D03*
X0082836Y0072250D03*
X0082393Y0072250D03*
X0081950Y0072250D03*
X0080268Y0072161D03*
X0080268Y0065255D03*
X0079383Y0065167D03*
X0078940Y0065078D03*
X0091779Y0065963D03*
X0092664Y0065963D03*
X0093461Y0066052D03*
X0094346Y0066052D03*
X0095232Y0066141D03*
X0088591Y0050026D03*
X0086466Y0050114D03*
X0086023Y0050114D03*
X0084695Y0050203D03*
X0084164Y0050203D03*
D423*
X0075310Y0062687D03*
D424*
X0075310Y0053125D03*
D425*
X0075310Y0032361D03*
X0077523Y0181203D03*
D426*
X0075398Y0169913D03*
D427*
X0075398Y0156897D03*
X0091956Y0156897D03*
X0098597Y0181424D03*
X0082305Y0107756D03*
D428*
X0075664Y0108774D03*
X0075398Y0108774D03*
X0094258Y0030945D03*
D429*
X0075398Y0063042D03*
X0078409Y0108376D03*
X0083898Y0164955D03*
X0099748Y0181955D03*
D430*
X0084872Y0164291D03*
X0086732Y0162520D03*
X0087883Y0161457D03*
X0089742Y0159686D03*
X0075487Y0182177D03*
X0076903Y0108597D03*
X0075487Y0063263D03*
D431*
X0075487Y0169913D03*
X0082128Y0179033D03*
D432*
X0075487Y0156942D03*
X0082570Y0107712D03*
D433*
X0086732Y0138525D03*
X0075487Y0138525D03*
X0080534Y0065299D03*
D434*
X0075487Y0052505D03*
X0089211Y0160173D03*
X0088326Y0161059D03*
D435*
X0078674Y0108331D03*
X0075487Y0031564D03*
D436*
X0097623Y0080042D03*
X0077169Y0108553D03*
X0090451Y0159022D03*
X0090274Y0159200D03*
X0089565Y0159819D03*
X0089300Y0160085D03*
X0086909Y0162387D03*
X0092753Y0166017D03*
X0075575Y0182132D03*
D437*
X0075575Y0169957D03*
X0096206Y0095935D03*
D438*
X0091867Y0156942D03*
X0075575Y0156942D03*
X0077169Y0181380D03*
X0098508Y0181380D03*
D439*
X0075575Y0052372D03*
D440*
X0075575Y0031431D03*
X0077877Y0108464D03*
X0093284Y0156278D03*
X0099925Y0182044D03*
D441*
X0081862Y0179166D03*
X0075664Y0169957D03*
X0096294Y0095847D03*
D442*
X0075664Y0156986D03*
X0077966Y0169913D03*
X0077258Y0181335D03*
D443*
X0075664Y0031166D03*
D444*
X0075752Y0182044D03*
D445*
X0075752Y0169957D03*
D446*
X0075752Y0157030D03*
D447*
X0075752Y0108774D03*
X0075752Y0031033D03*
D448*
X0096560Y0095625D03*
X0095675Y0166018D03*
X0081596Y0179299D03*
X0075841Y0169913D03*
D449*
X0077435Y0181247D03*
X0093638Y0166017D03*
X0075841Y0157074D03*
D450*
X0092930Y0166018D03*
X0075929Y0181955D03*
X0078232Y0108376D03*
D451*
X0075929Y0169913D03*
D452*
X0075929Y0157119D03*
X0098154Y0181203D03*
D453*
X0093815Y0156012D03*
X0075929Y0108730D03*
D454*
X0078763Y0108331D03*
X0076018Y0181911D03*
D455*
X0076018Y0169913D03*
D456*
X0077612Y0181158D03*
X0093727Y0166017D03*
X0091425Y0157163D03*
X0076018Y0157163D03*
X0098065Y0181158D03*
D457*
X0092576Y0166017D03*
X0076018Y0108730D03*
X0094435Y0100938D03*
D458*
X0076018Y0051752D03*
X0079471Y0169781D03*
D459*
X0077700Y0181114D03*
X0097977Y0181114D03*
X0076107Y0157207D03*
D460*
X0076107Y0108686D03*
X0076284Y0108686D03*
D461*
X0092221Y0166017D03*
X0081331Y0168054D03*
X0076107Y0030546D03*
D462*
X0076195Y0181822D03*
D463*
X0076195Y0169913D03*
D464*
X0076195Y0157252D03*
D465*
X0090008Y0168009D03*
X0090362Y0167656D03*
X0093461Y0102045D03*
X0076195Y0064148D03*
X0076195Y0051664D03*
D466*
X0076195Y0030502D03*
D467*
X0076284Y0169913D03*
D468*
X0076284Y0157296D03*
X0091070Y0157296D03*
D469*
X0076372Y0169913D03*
D470*
X0076372Y0157340D03*
D471*
X0076372Y0108686D03*
D472*
X0093815Y0086373D03*
X0076372Y0064237D03*
X0092044Y0166062D03*
X0091159Y0166947D03*
D473*
X0078320Y0169913D03*
X0076461Y0181690D03*
X0099216Y0181690D03*
D474*
X0076461Y0169913D03*
D475*
X0082924Y0164911D03*
X0076461Y0157384D03*
X0097623Y0180937D03*
D476*
X0093727Y0086417D03*
X0076461Y0064281D03*
D477*
X0097180Y0094829D03*
X0076549Y0169913D03*
D478*
X0076549Y0157429D03*
X0090805Y0157429D03*
D479*
X0093638Y0156100D03*
X0085492Y0163715D03*
X0100279Y0182221D03*
X0076549Y0108641D03*
X0094524Y0085531D03*
X0094524Y0074641D03*
D480*
X0076638Y0181601D03*
D481*
X0076638Y0169913D03*
D482*
X0076638Y0157473D03*
D483*
X0084164Y0164955D03*
X0085581Y0163627D03*
X0076638Y0108641D03*
D484*
X0089477Y0104081D03*
X0076638Y0088232D03*
X0090893Y0087347D03*
X0079825Y0065211D03*
X0085138Y0050158D03*
X0085581Y0050158D03*
X0092664Y0029794D03*
X0078055Y0029705D03*
X0077523Y0029794D03*
D485*
X0076638Y0030148D03*
X0076638Y0064414D03*
X0077081Y0064591D03*
X0093461Y0086550D03*
X0092664Y0102576D03*
D486*
X0093461Y0073578D03*
X0076638Y0051354D03*
X0093461Y0030192D03*
D487*
X0099039Y0181601D03*
X0076726Y0181601D03*
D488*
X0076726Y0169913D03*
D489*
X0076726Y0157517D03*
D490*
X0084961Y0164202D03*
X0085846Y0163405D03*
X0086555Y0162697D03*
X0088414Y0160926D03*
X0093550Y0156145D03*
X0100190Y0182177D03*
X0076726Y0108597D03*
D491*
X0076815Y0169913D03*
D492*
X0082747Y0164911D03*
X0076815Y0157561D03*
X0097180Y0180760D03*
D493*
X0076903Y0181513D03*
X0079648Y0160970D03*
X0081685Y0107844D03*
D494*
X0076903Y0157606D03*
D495*
X0078409Y0159686D03*
X0078586Y0159864D03*
X0078851Y0160129D03*
X0079029Y0160306D03*
X0079294Y0160572D03*
X0076992Y0181468D03*
X0081862Y0107800D03*
X0082039Y0107800D03*
X0097711Y0093279D03*
D496*
X0076992Y0169957D03*
D497*
X0076992Y0157650D03*
D498*
X0078055Y0169913D03*
X0077081Y0181424D03*
X0093461Y0166017D03*
D499*
X0096649Y0180494D03*
X0077081Y0169958D03*
D500*
X0077081Y0157650D03*
X0097003Y0180671D03*
D501*
X0100102Y0182132D03*
X0089477Y0159908D03*
X0090362Y0159111D03*
X0093461Y0156189D03*
X0077081Y0108553D03*
D502*
X0091779Y0103063D03*
X0092664Y0073224D03*
X0077081Y0051177D03*
X0077081Y0029926D03*
D503*
X0077169Y0169958D03*
D504*
X0077169Y0157694D03*
D505*
X0077258Y0169913D03*
D506*
X0077346Y0181291D03*
D507*
X0077346Y0169913D03*
D508*
X0077346Y0157783D03*
D509*
X0077346Y0108508D03*
D510*
X0089211Y0104170D03*
X0091513Y0103196D03*
X0092044Y0073091D03*
X0092930Y0066008D03*
X0094612Y0066096D03*
X0079648Y0065211D03*
X0079117Y0065122D03*
X0077346Y0051044D03*
X0077789Y0050955D03*
X0085315Y0050158D03*
X0087174Y0050070D03*
X0092044Y0029705D03*
X0092310Y0029705D03*
X0077789Y0029705D03*
D511*
X0077435Y0169913D03*
X0078409Y0180804D03*
D512*
X0079029Y0180494D03*
X0077435Y0157827D03*
D513*
X0077523Y0169957D03*
X0078055Y0180937D03*
X0097534Y0180937D03*
X0090893Y0157384D03*
D514*
X0077523Y0157871D03*
D515*
X0077523Y0108508D03*
D516*
X0077523Y0051000D03*
D517*
X0090982Y0157340D03*
X0077612Y0169913D03*
D518*
X0079206Y0180406D03*
X0096472Y0180406D03*
X0077612Y0157916D03*
D519*
X0077612Y0108508D03*
D520*
X0091425Y0103196D03*
X0092399Y0073180D03*
X0092576Y0073180D03*
X0085404Y0050158D03*
X0077612Y0050955D03*
X0077612Y0029794D03*
X0077877Y0029705D03*
X0092399Y0029794D03*
X0092576Y0029794D03*
X0095055Y0155436D03*
D521*
X0077700Y0169913D03*
X0097446Y0080042D03*
D522*
X0077700Y0157960D03*
X0079294Y0180361D03*
D523*
X0092841Y0166017D03*
X0077700Y0108464D03*
D524*
X0077789Y0181114D03*
D525*
X0077789Y0169913D03*
D526*
X0077789Y0158004D03*
D527*
X0077877Y0181026D03*
X0097623Y0093722D03*
D528*
X0077877Y0169913D03*
D529*
X0077966Y0180981D03*
X0097711Y0180981D03*
X0094789Y0032671D03*
D530*
X0077966Y0158093D03*
D531*
X0077966Y0108420D03*
X0078143Y0108420D03*
D532*
X0078055Y0158137D03*
D533*
X0078055Y0108420D03*
D534*
X0078143Y0180937D03*
D535*
X0078143Y0169913D03*
X0083456Y0164955D03*
X0079737Y0161059D03*
X0079560Y0160882D03*
X0093373Y0166017D03*
X0098862Y0181513D03*
X0081596Y0107844D03*
X0094789Y0084646D03*
X0094789Y0075526D03*
D536*
X0097180Y0080086D03*
X0078143Y0158181D03*
D537*
X0078232Y0180893D03*
D538*
X0078232Y0169913D03*
X0083544Y0164955D03*
X0081242Y0162564D03*
X0080976Y0107933D03*
D539*
X0082128Y0107756D03*
X0078232Y0159554D03*
D540*
X0078232Y0154994D03*
X0078674Y0154994D03*
X0079117Y0154994D03*
X0079648Y0154994D03*
X0080091Y0154994D03*
X0080534Y0154994D03*
X0080799Y0154994D03*
X0080976Y0154994D03*
X0081242Y0154994D03*
X0081419Y0154994D03*
X0081685Y0154994D03*
X0082128Y0154994D03*
X0082570Y0154994D03*
X0083544Y0154994D03*
X0083987Y0154994D03*
X0084430Y0154994D03*
X0084872Y0154994D03*
X0085315Y0154994D03*
X0086289Y0154994D03*
X0086732Y0154994D03*
X0087174Y0154994D03*
X0087440Y0154994D03*
X0087617Y0154994D03*
X0087883Y0154994D03*
X0088060Y0154994D03*
X0088326Y0154994D03*
X0088768Y0154994D03*
X0089211Y0154994D03*
X0089742Y0154994D03*
X0090628Y0154994D03*
D541*
X0097357Y0180848D03*
X0078320Y0180848D03*
D542*
X0078320Y0159642D03*
X0082216Y0107756D03*
D543*
X0078320Y0108376D03*
D544*
X0079737Y0108154D03*
X0080002Y0108154D03*
X0078409Y0169957D03*
D545*
X0078409Y0154994D03*
X0078586Y0154994D03*
X0078851Y0154994D03*
X0079029Y0154994D03*
X0079294Y0154994D03*
X0079560Y0154994D03*
X0079737Y0154994D03*
X0080002Y0154994D03*
X0080180Y0154994D03*
X0080445Y0154994D03*
X0080711Y0154994D03*
X0080888Y0154994D03*
X0081154Y0154994D03*
X0081331Y0154994D03*
X0081596Y0154994D03*
X0081862Y0154994D03*
X0082039Y0154994D03*
X0082305Y0154994D03*
X0082482Y0154994D03*
X0082747Y0154994D03*
X0083190Y0154994D03*
X0083456Y0154994D03*
X0083633Y0154994D03*
X0083898Y0154994D03*
X0084075Y0154994D03*
X0084341Y0154994D03*
X0084607Y0154994D03*
X0084784Y0154994D03*
X0085049Y0154994D03*
X0085227Y0154994D03*
X0085492Y0154994D03*
X0085935Y0154994D03*
X0086201Y0154994D03*
X0086378Y0154994D03*
X0086643Y0154994D03*
X0087086Y0154994D03*
X0087352Y0154994D03*
X0087529Y0154994D03*
X0087794Y0154994D03*
X0087971Y0154994D03*
X0088237Y0154994D03*
X0088503Y0154994D03*
X0088680Y0154994D03*
X0088945Y0154994D03*
X0089122Y0154994D03*
X0089388Y0154994D03*
X0089654Y0154994D03*
X0089919Y0154994D03*
X0090185Y0154994D03*
X0090539Y0154994D03*
D546*
X0078497Y0180760D03*
D547*
X0078497Y0169913D03*
X0078940Y0108287D03*
D548*
X0078940Y0154994D03*
X0079383Y0154994D03*
X0079825Y0154994D03*
X0080268Y0154994D03*
X0081950Y0154994D03*
X0082393Y0154994D03*
X0082836Y0154994D03*
X0083279Y0154994D03*
X0083721Y0154994D03*
X0084164Y0154994D03*
X0084695Y0154994D03*
X0085138Y0154994D03*
X0085581Y0154994D03*
X0086023Y0154994D03*
X0086466Y0154994D03*
X0088591Y0154994D03*
X0089034Y0154994D03*
X0089477Y0154994D03*
X0090008Y0154994D03*
X0090362Y0154994D03*
X0078497Y0154994D03*
D549*
X0078497Y0108376D03*
D550*
X0094346Y0124978D03*
X0078497Y0072029D03*
X0083279Y0065476D03*
X0089477Y0065831D03*
D551*
X0078586Y0180716D03*
D552*
X0078586Y0169957D03*
X0078586Y0108331D03*
D553*
X0078674Y0180671D03*
D554*
X0078674Y0169957D03*
D555*
X0079117Y0160395D03*
X0078674Y0159952D03*
X0092044Y0156853D03*
X0098685Y0181468D03*
D556*
X0096914Y0180627D03*
X0078763Y0180627D03*
D557*
X0078763Y0169913D03*
D558*
X0083367Y0164999D03*
X0079206Y0160483D03*
X0078763Y0160041D03*
X0081773Y0107800D03*
D559*
X0090185Y0159288D03*
X0089122Y0160262D03*
X0087971Y0161325D03*
X0078851Y0169913D03*
D560*
X0078940Y0180539D03*
D561*
X0079117Y0180450D03*
D562*
X0079206Y0169913D03*
X0094169Y0101381D03*
D563*
X0079206Y0108243D03*
X0094701Y0085044D03*
X0092753Y0156499D03*
D564*
X0099482Y0181822D03*
X0079294Y0108243D03*
D565*
X0079383Y0180317D03*
D566*
X0079383Y0169869D03*
X0080268Y0169072D03*
D567*
X0079825Y0161148D03*
X0079383Y0160705D03*
D568*
X0083721Y0164955D03*
X0092664Y0156543D03*
X0079383Y0108199D03*
D569*
X0079471Y0160793D03*
X0094701Y0032051D03*
D570*
X0079471Y0108199D03*
X0099393Y0181778D03*
D571*
X0079560Y0180273D03*
D572*
X0079648Y0180229D03*
D573*
X0079648Y0169603D03*
X0080534Y0168806D03*
D574*
X0079737Y0180184D03*
X0095940Y0180184D03*
X0094789Y0166018D03*
D575*
X0079825Y0180140D03*
X0097534Y0038913D03*
D576*
X0079825Y0169470D03*
D577*
X0099305Y0181734D03*
X0079825Y0108154D03*
D578*
X0079914Y0180096D03*
D579*
X0092576Y0156587D03*
X0079914Y0108154D03*
D580*
X0080002Y0180052D03*
X0095675Y0180052D03*
D581*
X0080091Y0180007D03*
D582*
X0080976Y0162254D03*
X0080534Y0161812D03*
X0080091Y0161369D03*
X0081242Y0107889D03*
X0081419Y0107889D03*
D583*
X0080534Y0108021D03*
X0080091Y0108110D03*
D584*
X0080180Y0179963D03*
D585*
X0081154Y0162431D03*
X0080445Y0161723D03*
X0080180Y0161457D03*
X0081331Y0107889D03*
X0094789Y0099920D03*
D586*
X0080180Y0108110D03*
X0092487Y0156632D03*
X0083633Y0164955D03*
D587*
X0080268Y0179919D03*
D588*
X0080268Y0161546D03*
X0097534Y0080086D03*
D589*
X0080268Y0108066D03*
D590*
X0097091Y0094961D03*
X0095320Y0179874D03*
X0080357Y0179874D03*
D591*
X0080357Y0161634D03*
D592*
X0092399Y0156676D03*
X0080357Y0108066D03*
D593*
X0080445Y0179830D03*
D594*
X0080534Y0179786D03*
D595*
X0080622Y0179742D03*
D596*
X0080622Y0168718D03*
X0081508Y0167921D03*
X0093904Y0101602D03*
X0093904Y0030502D03*
D597*
X0080622Y0161900D03*
X0081065Y0162343D03*
D598*
X0081065Y0154994D03*
X0081508Y0154994D03*
X0080622Y0154994D03*
X0086820Y0154994D03*
X0087263Y0154994D03*
X0087706Y0154994D03*
X0088148Y0154994D03*
D599*
X0080622Y0107977D03*
D600*
X0086820Y0138525D03*
X0080622Y0065299D03*
D601*
X0080711Y0179697D03*
D602*
X0080711Y0162033D03*
D603*
X0080799Y0179653D03*
D604*
X0098951Y0181557D03*
X0080799Y0162077D03*
D605*
X0080799Y0107977D03*
D606*
X0081596Y0164866D03*
X0080888Y0179653D03*
D607*
X0080976Y0179565D03*
D608*
X0081065Y0179565D03*
D609*
X0081065Y0168275D03*
D610*
X0081065Y0107933D03*
D611*
X0081154Y0107933D03*
X0081331Y0162653D03*
D612*
X0095498Y0166017D03*
X0081242Y0179476D03*
D613*
X0081331Y0179432D03*
D614*
X0081419Y0179387D03*
D615*
X0081419Y0162697D03*
D616*
X0081419Y0087967D03*
X0089742Y0065831D03*
D617*
X0081508Y0179343D03*
D618*
X0081508Y0162786D03*
D619*
X0098774Y0181513D03*
X0081508Y0107844D03*
D620*
X0081508Y0087967D03*
D621*
X0081685Y0179255D03*
D622*
X0081685Y0164866D03*
D623*
X0081773Y0179210D03*
D624*
X0081773Y0164866D03*
D625*
X0081862Y0164866D03*
X0095409Y0179919D03*
D626*
X0081950Y0179122D03*
D627*
X0081950Y0164866D03*
D628*
X0082039Y0179078D03*
X0093638Y0179078D03*
D629*
X0082039Y0164866D03*
D630*
X0082128Y0164866D03*
D631*
X0082216Y0178989D03*
D632*
X0082216Y0164866D03*
D633*
X0082305Y0178945D03*
X0093373Y0178945D03*
D634*
X0082305Y0164866D03*
D635*
X0082393Y0178945D03*
D636*
X0082393Y0164866D03*
D637*
X0082393Y0107712D03*
D638*
X0082482Y0178856D03*
D639*
X0082482Y0164866D03*
D640*
X0082482Y0107712D03*
D641*
X0082570Y0178812D03*
D642*
X0082570Y0164910D03*
D643*
X0082659Y0164955D03*
D644*
X0082659Y0109394D03*
X0091867Y0109305D03*
X0092399Y0109305D03*
X0092576Y0109305D03*
X0092753Y0109305D03*
X0093284Y0109305D03*
X0093550Y0109305D03*
X0093727Y0109305D03*
X0094169Y0109305D03*
X0094435Y0109305D03*
X0094701Y0109305D03*
X0095055Y0109305D03*
X0095320Y0109305D03*
D645*
X0096294Y0166017D03*
X0082747Y0178768D03*
D646*
X0082836Y0178723D03*
D647*
X0082836Y0164866D03*
D648*
X0082836Y0109394D03*
X0092664Y0109305D03*
X0093461Y0109305D03*
X0094346Y0109305D03*
X0095232Y0109305D03*
D649*
X0092753Y0178679D03*
X0082924Y0178679D03*
D650*
X0083013Y0178635D03*
D651*
X0083013Y0164955D03*
D652*
X0096472Y0166017D03*
X0092576Y0178591D03*
X0083101Y0178591D03*
X0096472Y0080130D03*
D653*
X0092487Y0178546D03*
X0083190Y0178546D03*
D654*
X0083190Y0164955D03*
D655*
X0083190Y0147202D03*
D656*
X0083190Y0109350D03*
X0083456Y0109350D03*
X0083633Y0109350D03*
X0083898Y0109350D03*
X0084075Y0109350D03*
X0084341Y0109350D03*
X0084607Y0109350D03*
X0084784Y0109350D03*
X0085049Y0109350D03*
X0085227Y0109350D03*
X0085492Y0109350D03*
X0085935Y0109350D03*
X0086201Y0109350D03*
X0086378Y0109350D03*
X0086643Y0109350D03*
X0087086Y0109350D03*
X0087352Y0109350D03*
X0087529Y0109350D03*
X0087794Y0109350D03*
X0087971Y0109350D03*
X0088237Y0109350D03*
X0088503Y0109350D03*
X0088680Y0109350D03*
X0088945Y0109350D03*
X0089122Y0109350D03*
X0089388Y0109350D03*
X0089654Y0109350D03*
X0089919Y0109350D03*
X0090185Y0109350D03*
X0090539Y0109350D03*
X0090805Y0109350D03*
X0091070Y0109350D03*
X0091336Y0109350D03*
X0091690Y0109350D03*
X0095409Y0109261D03*
X0095675Y0109261D03*
X0095940Y0109261D03*
X0096294Y0109261D03*
X0096560Y0109261D03*
X0096826Y0109261D03*
X0097180Y0109261D03*
X0097446Y0109261D03*
D657*
X0083190Y0085841D03*
D658*
X0088237Y0072560D03*
X0083190Y0065476D03*
X0094258Y0124978D03*
X0094789Y0124978D03*
D659*
X0083279Y0178502D03*
D660*
X0083279Y0164955D03*
X0091779Y0156986D03*
X0098419Y0181335D03*
D661*
X0085581Y0144413D03*
X0085138Y0144413D03*
X0084695Y0144413D03*
X0084164Y0144413D03*
X0083279Y0144413D03*
D662*
X0083279Y0080086D03*
D663*
X0083367Y0178458D03*
D664*
X0083367Y0144369D03*
X0083810Y0144369D03*
X0085669Y0144369D03*
X0085758Y0144369D03*
X0085846Y0144369D03*
D665*
X0083367Y0080086D03*
D666*
X0083456Y0144369D03*
X0083633Y0144369D03*
X0083898Y0144369D03*
X0086201Y0177130D03*
D667*
X0083456Y0080086D03*
D668*
X0083544Y0178369D03*
D669*
X0083544Y0080086D03*
X0083987Y0080086D03*
X0084430Y0080086D03*
D670*
X0083633Y0178325D03*
D671*
X0083633Y0080086D03*
X0083898Y0080086D03*
X0084075Y0080086D03*
X0084341Y0080086D03*
X0084607Y0080086D03*
D672*
X0083721Y0178281D03*
D673*
X0083721Y0144369D03*
D674*
X0083721Y0080086D03*
X0084164Y0080086D03*
X0084695Y0080086D03*
D675*
X0083810Y0178281D03*
D676*
X0083810Y0164955D03*
X0094701Y0100318D03*
X0094701Y0075083D03*
D677*
X0084518Y0080086D03*
X0084253Y0080086D03*
X0083810Y0080086D03*
D678*
X0083987Y0164955D03*
D679*
X0084075Y0178148D03*
X0091690Y0178148D03*
D680*
X0084075Y0165043D03*
X0089388Y0159996D03*
X0090539Y0158934D03*
D681*
X0084164Y0178104D03*
D682*
X0084253Y0178059D03*
X0091425Y0178059D03*
D683*
X0085404Y0144413D03*
X0084961Y0144413D03*
X0084518Y0144413D03*
X0084253Y0144413D03*
D684*
X0084341Y0178015D03*
X0091336Y0178015D03*
D685*
X0084341Y0164822D03*
X0085227Y0163937D03*
X0086201Y0163051D03*
X0086378Y0162874D03*
X0087086Y0162166D03*
X0087352Y0161989D03*
X0088237Y0161103D03*
X0088945Y0160483D03*
X0089919Y0159509D03*
D686*
X0084430Y0177971D03*
D687*
X0084430Y0164733D03*
X0086289Y0162963D03*
X0087174Y0162166D03*
X0088060Y0161280D03*
D688*
X0085315Y0144413D03*
X0084872Y0144413D03*
X0084430Y0144413D03*
D689*
X0090096Y0159332D03*
X0089831Y0159598D03*
X0086997Y0162254D03*
X0086112Y0163140D03*
X0085404Y0163759D03*
X0084518Y0164645D03*
D690*
X0084695Y0177838D03*
D691*
X0084695Y0164468D03*
X0086023Y0163228D03*
X0086466Y0162786D03*
X0088591Y0160749D03*
X0092664Y0166062D03*
D692*
X0084784Y0177794D03*
X0095675Y0036567D03*
D693*
X0084784Y0080042D03*
D694*
X0084872Y0177749D03*
D695*
X0084872Y0080042D03*
D696*
X0084961Y0080042D03*
D697*
X0095675Y0080086D03*
X0085049Y0177661D03*
D698*
X0085049Y0080086D03*
X0085227Y0080086D03*
X0085492Y0080086D03*
X0085935Y0080086D03*
D699*
X0097534Y0166017D03*
X0085138Y0177617D03*
D700*
X0085138Y0164025D03*
X0090008Y0159421D03*
D701*
X0085581Y0080086D03*
X0085138Y0080086D03*
D702*
X0085227Y0177572D03*
D703*
X0085315Y0163892D03*
D704*
X0085315Y0080086D03*
D705*
X0095055Y0036301D03*
X0097623Y0166018D03*
X0090274Y0177528D03*
X0085404Y0177528D03*
D706*
X0085404Y0080086D03*
X0085669Y0080086D03*
X0085758Y0080086D03*
X0085846Y0080086D03*
D707*
X0085669Y0177395D03*
D708*
X0085846Y0177307D03*
D709*
X0086023Y0177218D03*
D710*
X0092664Y0178635D03*
X0086023Y0142863D03*
D711*
X0086112Y0177174D03*
D712*
X0086466Y0176997D03*
D713*
X0086555Y0176953D03*
D714*
X0086820Y0176820D03*
D715*
X0086820Y0162431D03*
X0087706Y0161634D03*
D716*
X0087706Y0109350D03*
X0088148Y0109350D03*
X0087263Y0109350D03*
X0086820Y0109350D03*
X0091247Y0109350D03*
X0095763Y0109261D03*
D717*
X0086909Y0176820D03*
D718*
X0086997Y0176731D03*
D719*
X0087086Y0176731D03*
D720*
X0087174Y0176687D03*
D721*
X0087263Y0176643D03*
D722*
X0087263Y0162033D03*
D723*
X0087352Y0176598D03*
D724*
X0087440Y0176554D03*
D725*
X0087529Y0176510D03*
D726*
X0087617Y0176466D03*
D727*
X0087706Y0176421D03*
D728*
X0087794Y0176377D03*
D729*
X0087883Y0176333D03*
D730*
X0087971Y0176288D03*
D731*
X0088060Y0176244D03*
D732*
X0088148Y0176200D03*
D733*
X0088148Y0161192D03*
D734*
X0088237Y0176156D03*
D735*
X0088326Y0176156D03*
D736*
X0088503Y0176067D03*
D737*
X0088591Y0176023D03*
D738*
X0088680Y0175979D03*
D739*
X0088768Y0175934D03*
D740*
X0088857Y0175890D03*
D741*
X0088857Y0160528D03*
X0090716Y0158757D03*
X0094435Y0031255D03*
D742*
X0088945Y0175846D03*
D743*
X0089034Y0175801D03*
D744*
X0089034Y0160351D03*
D745*
X0089122Y0175757D03*
D746*
X0089211Y0175713D03*
D747*
X0089300Y0175669D03*
D748*
X0089388Y0175624D03*
D749*
X0089477Y0175580D03*
D750*
X0089565Y0175536D03*
D751*
X0089654Y0175492D03*
D752*
X0089742Y0175492D03*
D753*
X0089831Y0175447D03*
D754*
X0090008Y0177395D03*
D755*
X0090096Y0167921D03*
X0090982Y0167036D03*
D756*
X0090362Y0177528D03*
D757*
X0090451Y0155038D03*
D758*
X0090539Y0177617D03*
D759*
X0090628Y0177661D03*
D760*
X0090893Y0177794D03*
D761*
X0090982Y0177838D03*
D762*
X0091159Y0157252D03*
D763*
X0091247Y0177971D03*
D764*
X0091247Y0157207D03*
D765*
X0091247Y0103329D03*
X0092133Y0102886D03*
X0093018Y0086771D03*
X0093018Y0073401D03*
X0093018Y0029926D03*
D766*
X0091336Y0157163D03*
D767*
X0091513Y0178104D03*
D768*
X0091513Y0157074D03*
D769*
X0091602Y0178104D03*
D770*
X0098242Y0181247D03*
X0091602Y0157074D03*
D771*
X0091690Y0157030D03*
X0098331Y0181291D03*
D772*
X0091779Y0178192D03*
D773*
X0092044Y0109305D03*
X0092310Y0109305D03*
X0092930Y0109305D03*
X0093195Y0109305D03*
X0093815Y0109305D03*
X0094081Y0109305D03*
X0094612Y0109305D03*
X0094966Y0109305D03*
D774*
X0092133Y0178369D03*
D775*
X0092133Y0166017D03*
D776*
X0092133Y0156809D03*
D777*
X0092133Y0109305D03*
X0093018Y0109305D03*
X0093904Y0109305D03*
X0094878Y0109305D03*
D778*
X0092310Y0178458D03*
D779*
X0092310Y0166017D03*
D780*
X0094966Y0155481D03*
X0092310Y0073135D03*
D781*
X0092399Y0178502D03*
D782*
X0092841Y0178723D03*
X0095409Y0096467D03*
X0096560Y0080086D03*
D783*
X0092930Y0178768D03*
D784*
X0099571Y0181867D03*
X0092930Y0156455D03*
D785*
X0093018Y0178812D03*
D786*
X0093018Y0166018D03*
D787*
X0093018Y0156366D03*
D788*
X0093018Y0102355D03*
D789*
X0095675Y0096290D03*
X0093107Y0178812D03*
D790*
X0093107Y0166017D03*
D791*
X0093195Y0178856D03*
D792*
X0093195Y0166017D03*
D793*
X0093195Y0156322D03*
X0099836Y0181999D03*
D794*
X0093284Y0178900D03*
D795*
X0093284Y0166017D03*
D796*
X0093461Y0178989D03*
D797*
X0093550Y0179033D03*
D798*
X0093550Y0166017D03*
D799*
X0093727Y0179122D03*
X0097091Y0037895D03*
D800*
X0093815Y0166018D03*
D801*
X0093904Y0179210D03*
D802*
X0093904Y0166018D03*
D803*
X0093904Y0155968D03*
D804*
X0093992Y0179255D03*
X0097180Y0038028D03*
D805*
X0093992Y0166017D03*
D806*
X0093992Y0073932D03*
D807*
X0094081Y0166017D03*
D808*
X0094081Y0030679D03*
D809*
X0094169Y0179343D03*
D810*
X0094169Y0166017D03*
D811*
X0094169Y0155835D03*
D812*
X0094169Y0074109D03*
D813*
X0094258Y0179387D03*
D814*
X0094258Y0166017D03*
D815*
X0094258Y0074198D03*
D816*
X0094346Y0179432D03*
D817*
X0094346Y0166017D03*
D818*
X0094346Y0155791D03*
D819*
X0094346Y0031122D03*
D820*
X0094435Y0179432D03*
D821*
X0096737Y0180539D03*
X0094435Y0166017D03*
X0097623Y0039312D03*
D822*
X0094435Y0124978D03*
D823*
X0094435Y0074464D03*
D824*
X0094524Y0179476D03*
D825*
X0096560Y0180450D03*
X0094524Y0166017D03*
X0097446Y0094297D03*
D826*
X0094524Y0031520D03*
D827*
X0094612Y0179520D03*
D828*
X0096383Y0180361D03*
X0094612Y0166017D03*
D829*
X0094612Y0085310D03*
D830*
X0094701Y0179565D03*
D831*
X0094789Y0179609D03*
D832*
X0094878Y0179653D03*
D833*
X0095763Y0180096D03*
X0094878Y0166018D03*
D834*
X0094878Y0133433D03*
D835*
X0094878Y0096777D03*
D836*
X0094878Y0080042D03*
D837*
X0094878Y0036213D03*
D838*
X0094966Y0179697D03*
D839*
X0094966Y0166017D03*
D840*
X0094966Y0133389D03*
D841*
X0094966Y0096732D03*
D842*
X0095055Y0166017D03*
D843*
X0095055Y0133345D03*
D844*
X0095055Y0080086D03*
D845*
X0095143Y0179786D03*
D846*
X0095143Y0166017D03*
D847*
X0095143Y0133301D03*
D848*
X0095143Y0096599D03*
D849*
X0095143Y0080086D03*
D850*
X0095143Y0036346D03*
D851*
X0095232Y0179830D03*
D852*
X0095232Y0166017D03*
X0097003Y0095094D03*
D853*
X0095232Y0133256D03*
D854*
X0095232Y0096555D03*
D855*
X0095232Y0080086D03*
D856*
X0095232Y0036346D03*
D857*
X0096914Y0095183D03*
X0095320Y0166017D03*
D858*
X0095320Y0133212D03*
D859*
X0095320Y0096511D03*
D860*
X0095320Y0080086D03*
D861*
X0095320Y0036390D03*
D862*
X0095409Y0133168D03*
D863*
X0095498Y0179963D03*
D864*
X0095498Y0155215D03*
D865*
X0095498Y0133124D03*
D866*
X0095498Y0096378D03*
D867*
X0095586Y0180007D03*
D868*
X0095586Y0166017D03*
D869*
X0095586Y0133079D03*
D870*
X0095586Y0096378D03*
D871*
X0095586Y0080086D03*
D872*
X0095586Y0036523D03*
D873*
X0095675Y0155126D03*
D874*
X0095675Y0133035D03*
D875*
X0095763Y0166018D03*
D876*
X0095763Y0132991D03*
D877*
X0095763Y0096245D03*
D878*
X0095763Y0080086D03*
D879*
X0095763Y0036611D03*
D880*
X0097268Y0094696D03*
X0095852Y0180140D03*
D881*
X0095852Y0166018D03*
X0096383Y0095803D03*
D882*
X0095852Y0155038D03*
D883*
X0095852Y0132946D03*
D884*
X0095852Y0096201D03*
D885*
X0095940Y0166017D03*
D886*
X0095940Y0132946D03*
D887*
X0096029Y0180229D03*
D888*
X0096029Y0132902D03*
D889*
X0096029Y0096068D03*
D890*
X0096029Y0080086D03*
X0096029Y0036788D03*
D891*
X0096117Y0180273D03*
D892*
X0096117Y0166017D03*
X0097003Y0037718D03*
D893*
X0096117Y0132858D03*
D894*
X0096117Y0095980D03*
D895*
X0096117Y0080086D03*
X0097003Y0166062D03*
D896*
X0096117Y0036833D03*
D897*
X0096206Y0166017D03*
D898*
X0096206Y0132814D03*
D899*
X0096206Y0080086D03*
D900*
X0096206Y0036921D03*
X0096914Y0166017D03*
D901*
X0096294Y0180317D03*
D902*
X0096294Y0132769D03*
D903*
X0096294Y0080086D03*
D904*
X0096383Y0154817D03*
D905*
X0096383Y0132725D03*
D906*
X0096383Y0080086D03*
D907*
X0096383Y0037054D03*
D908*
X0096472Y0132681D03*
D909*
X0096472Y0095670D03*
D910*
X0096560Y0166017D03*
D911*
X0096560Y0132637D03*
D912*
X0096560Y0037231D03*
D913*
X0096649Y0166018D03*
D914*
X0096649Y0154684D03*
D915*
X0096649Y0132592D03*
D916*
X0096649Y0095537D03*
D917*
X0096649Y0080086D03*
D918*
X0096737Y0166018D03*
D919*
X0096737Y0132548D03*
D920*
X0096737Y0095404D03*
D921*
X0096737Y0080086D03*
D922*
X0096737Y0037408D03*
D923*
X0096826Y0166017D03*
D924*
X0096826Y0154595D03*
D925*
X0096826Y0132548D03*
D926*
X0096826Y0080131D03*
D927*
X0096914Y0132504D03*
D928*
X0096914Y0080042D03*
D929*
X0097003Y0154507D03*
D930*
X0097003Y0132415D03*
D931*
X0097003Y0080086D03*
D932*
X0097091Y0180716D03*
D933*
X0097091Y0166017D03*
D934*
X0097091Y0132371D03*
D935*
X0097091Y0080086D03*
D936*
X0097180Y0154418D03*
D937*
X0097180Y0132327D03*
D938*
X0097268Y0180804D03*
D939*
X0097268Y0154374D03*
D940*
X0097268Y0132282D03*
D941*
X0097268Y0080086D03*
D942*
X0097268Y0038205D03*
D943*
X0097357Y0154374D03*
D944*
X0097357Y0132282D03*
D945*
X0097357Y0080086D03*
D946*
X0097357Y0038382D03*
D947*
X0097446Y0180848D03*
D948*
X0097446Y0132238D03*
D949*
X0097446Y0038648D03*
D950*
X0097534Y0154241D03*
D951*
X0097534Y0132194D03*
D952*
X0097534Y0094076D03*
D953*
X0097623Y0154197D03*
D954*
X0097623Y0132105D03*
D955*
X0097711Y0154197D03*
D956*
X0097711Y0132105D03*
D957*
X0097711Y0080175D03*
D958*
X0097711Y0039932D03*
D959*
X0097800Y0181026D03*
D960*
X0097800Y0163494D03*
D961*
X0097888Y0181070D03*
D962*
X0097888Y0163538D03*
D963*
X0097977Y0163582D03*
D964*
X0098065Y0163627D03*
D965*
X0098154Y0163671D03*
D966*
X0098242Y0163715D03*
D967*
X0098331Y0163759D03*
D968*
X0098419Y0163804D03*
D969*
X0098508Y0163848D03*
D970*
X0098597Y0163892D03*
D971*
X0098685Y0163892D03*
D972*
X0098774Y0163936D03*
D973*
X0098862Y0163981D03*
D974*
X0098951Y0164025D03*
D975*
X0099039Y0164069D03*
D976*
X0099128Y0164114D03*
D977*
X0099216Y0164158D03*
D978*
X0099305Y0164202D03*
D979*
X0099393Y0164246D03*
D980*
X0099482Y0164291D03*
D981*
X0099571Y0164335D03*
D982*
X0099659Y0164379D03*
D983*
X0099748Y0164423D03*
D984*
X0099836Y0164468D03*
D985*
X0099925Y0164512D03*
D986*
X0100013Y0164556D03*
D987*
X0100102Y0164556D03*
D988*
X0100190Y0164601D03*
D989*
X0100279Y0164645D03*
M02*
